<svg height="512" viewBox="0 0 34 58" width="512" xmlns="http://www.w3.org/2000/svg"><g id="Page-1" fill="none" fill-rule="evenodd"><g id="006---Hiking-Mobile-App" fill-rule="nonzero"><path id="Shape" d="m0 43.32v-40.32c0-1.65685425 1.34314575-3 3-3h4l2.86 3.05c.5663757.60708315 1.3597411.95123705 2.19.95h9.9c.8302589.00123705 1.6236243-.34291685 2.19-.95l2.86-3.05h4c1.6568542 0 3 1.34314575 3 3v40.28z" fill="#f3d55b"/><path id="Shape" d="m23.51 36.58-3.04-3.65h-6.94l-3 3.6-6.03 1.4-4.5 5.39v9.68c0 1.6568542 1.34314575 3 3 3h28c1.6568542 0 3-1.3431458 3-3v-9.72l-4.48-5.38z" fill="#7f8c8d"/><path id="Shape" d="m27 0h4c1.6568542 0 3 1.34314575 3 3v1s-29.96 0-33.63 38.88l-.37.44v-40.32c0-1.65685425 1.34314575-3 3-3z" fill="#f9eab0"/><path id="Shape" d="m17.13 44.34-7.13 8.66h-7c-1.65685425 0-3-1.3431458-3-3v-6.68l4.5-5.39 2.7 2.7c.50000389.4898884 1.29999611.4898884 1.8 0l2.71-2.71 5.4 6.41z" fill="#95a5a5"/><path id="Shape" d="m11.71 37.92-2.71 2.71c-.50000389.4898884-1.29999611.4898884-1.8 0l-2.7-2.7 3.27-3.93c.07955652-.090703.19435061-.1427103.315-.1427103s.23544348.0520073.315.1427103l2.13 2.53.05.05z" fill="#ecf0f1"/><path id="Shape" d="m34 50v5c0 1.6568542-1.3431458 3-3 3h-28c-1.65685425 0-3-1.3431458-3-3v-5c0 1.6568542 1.34314575 3 3 3h28c1.6568542 0 3-1.3431458 3-3z" fill="#464f5d"/><path id="Shape" d="m29.52 37.9-2.72 2.73c-.4961593.489773-1.2938407.489773-1.79 0l-2.65-2.65 1.15-1.4 2.13-2.58c.0795565-.090703.1943506-.1427103.315-.1427103s.2354435.0520073.315.1427103z" fill="#ecf0f1"/><path id="Shape" d="m27 0-2.86 3.05c-.5663757.60708315-1.3597411.95123705-2.19.95h-9.9c-.8302589.00123705-1.6236243-.34291685-2.19-.95l-2.86-3.05z" fill="#464f5d"/><path id="Shape" d="m23.51 36.58-1.15 1.4-5.23 6.36-.02-.01-5.4-6.41-1.13-1.34-.05-.05 3-3.6 2.79 2.79c.3778581.3699484.9821419.3699484 1.36 0l2.79-2.79z" fill="#bdc3c7"/><path id="Shape" d="m20.47 32.93-2.79 2.79c-.3778581.3699484-.9821419.3699484-1.36 0l-2.79-2.79 3.15-3.78c.0790344-.0951463.1963099-.150188.32-.150188s.2409656.0550417.32.150188z" fill="#fff"/><path id="Shape" d="m24 16c0 6-7 13-7 13s-7-7-7-13c0-3.8659932 3.1340068-7 7-7s7 3.1340068 7 7z" fill="#e64c3c"/><circle id="Oval" cx="17" cy="16" fill="#f3d55b" r="3"/></g></g></svg>