<svg height="512" viewBox="0 0 58 58" width="512" xmlns="http://www.w3.org/2000/svg"><g id="Page-1" fill="none" fill-rule="evenodd"><g id="007---Camp-Fire" fill-rule="nonzero" transform="translate(0 -1)"><path id="Shape" d="m28.99 42.75-4.99 3.198-8.72 1.042h-.01l-13.23-4.1c-1.65-.51-2.46-2.66-1.82-4.81s2.5-3.47 4.15-2.96z" fill="#805333"/><path id="Shape" d="m53.73 58.9-24.73-7.66 5.5-3.482 8.2-.768 13.37 4.14z" fill="#805333"/><path id="Shape" d="m57.77 55.9c-.64 2.15-2.45 3.49-4.04 3s-2.34-2.63-1.7-4.78 2.45-3.48 4.04-2.99 2.35 2.63 1.7 4.77z" fill="#cf976a"/><path id="Shape" d="m32.28 36.62c-.9417957.2195015-1.9033275.3434621-2.87.37l-1.23-.03c-6.7863099-.3745655-12.1159884-5.9536624-12.18-12.75-.0032543-.7090799.0435286-1.4175058.14-2.12v-.01c.1489457-1.2961805.5353944-2.5538336 1.14-3.71.1031843-.1744338.2995482-.2715862.5008128-.2477807s.3695448.1640878.4291872.3577807c.3099902 1.0294187 1.2360368 1.7510134 2.31 1.8 1.5036407-.1294788 2.6229734-1.4450292 2.51-2.95l.41-7.67c.0130795-.20629898.1517605-.38328048.3489455-.4453162.1971849-.06203572.4122156.0036657.5410545.1653162.5004362.6526645 1.2679225 1.0455882 2.09 1.07 2.43 0 2.79-2.28 2.79-4.69-.0027527-.61336962-.0562687-1.2254591-.16-1.83-.1251332-.7672602-.3124164-1.52308149-.56-2.26-.0698183-.19172149-.0161375-.40663284.1356324-.54300585.15177-.13637301.3711781-.16684582.5543676-.07699415h.01c1.93.95 5.77 3.71 6.7 10.94.1456692 1.1173361.2158284 2.2432234.21 3.37-.1129734 1.5049708 1.0063593 2.8205212 2.51 2.95.956476-.0321029 1.8089686-.6121093 2.19-1.49.0807609-.1922454.2698524-.3164789.4783609-.3142841s.394943.1303813.4716391.3242841c.4178396 1.1255413.7455386 2.2825192.98 3.46.05.23.09.47.12.7 1.0302812 7.1552462-3.5456829 13.9217854-10.57 15.63z" fill="#e57e25"/><path id="Shape" d="m42.85 20.99c-.7998373 5.6819158-4.9912866 10.297665-10.57 11.64-.9417957.2195015-1.9033275.3434621-2.87.37l-1.23-.03c-6.0717639-.3458835-11.0828602-4.8741832-12.04-10.88v-.01c.1489457-1.2961805.5353944-2.5538336 1.14-3.71.1031843-.1744338.2995482-.2715862.5008128-.2477807s.3695448.1640878.4291872.3577807c.3099902 1.0294187 1.2360368 1.7510134 2.31 1.8 1.5036407-.1294788 2.6229734-1.4450292 2.51-2.95l.41-7.67c.0130795-.20629898.1517605-.38328048.3489455-.4453162.1971849-.06203572.4122156.0036657.5410545.1653162.5004362.6526645 1.2679225 1.0455882 2.09 1.07 2.43 0 2.79-2.28 2.79-4.69-.0027527-.61336962-.0562687-1.2254591-.16-1.83-.1251332-.7672602-.3124164-1.52308149-.56-2.26-.0698183-.19172149-.0161375-.40663284.1356324-.54300585.15177-.13637301.3711781-.16684582.5543676-.07699415h.01c1.93.95 5.77 3.71 6.7 10.94.1456692 1.1173361.2158284 2.2432234.21 3.37-.1129734 1.5049708 1.0063593 2.8205212 2.51 2.95.956476-.0321029 1.8089686-.6121093 2.19-1.49.0807609-.1922454.2698524-.3164789.4783609-.3142841s.394943.1303813.4716391.3242841c.4178396 1.1255413.7455386 2.2825192.98 3.46.05.23.09.47.12.7z" fill="#f29c1f"/><path id="Shape" d="m1.93 51.13 13.34-4.14h.01l13.71-4.24h.01l24.63-7.64c1.65-.51 3.5.81 4.15 2.96s-.17 4.3-1.82 4.81l-13.26 4.11-13.7 4.25h-.01l-24.72 7.66z" fill="#a56a43"/><g fill="#cf976a"><path id="Shape" d="m42 44.1c-.4962784.0033284-.9199101-.3578228-.9951483-.848376-.0752383-.4905533.2206843-.9620656.6951483-1.107624l10-3.095c.5234355-.1514287 1.0717544.1440839 1.2330736.6645563.1613191.5204723-.1237513 1.0742919-.6410736 1.2454437l-10 3.095c-.0944723.0299044-.1929094.0454116-.292.046z"/><path id="Shape" d="m21 50.6c-.4962784.0033284-.9199101-.3578228-.9951483-.848376-.0752383-.4905533.2206843-.9620656.6951483-1.107624l12-3.714c.3434729-.1136351.7215386-.0328918.9886247.2111402s.3815378.6132934.299286.9656018-.348379.6327179-.6959107.733258l-12 3.714c-.0944723.0299044-.1929094.0454116-.292.046z"/><path id="Shape" d="m10 54c-.49500794.0016894-.91676115-.3590333-.99184303-.8483169s.21910481-.9598693.69184303-1.1066831l5-1.548c.3434729-.1136351.7215386-.0328918.9886247.2111402s.3815378.6132934.299286.9656018-.348379.6327179-.6959107.733258l-5 1.548c-.0945174.0295951-.1929578.0447657-.292.045z"/><path id="Shape" d="m15.3 47-.02-.01"/></g><path id="Shape" d="m15 43.786c-.1016862.0000674-.2028087-.0151009-.3-.045l-9-2.786c-.51732233-.1711518-.80239272-.7249714-.64107355-1.2454437.16131917-.5204724.7096381-.815985 1.23307355-.6645563l9 2.786c.4727382.1468138.7669249.6173995.691843 1.1066831s-.4968351.8500063-.991843.8483169z" fill="#a56a43"/><path id="Shape" d="m48 54c-.1017237.0005812-.2029236-.0145988-.3-.045l-5-1.548c-.5111567-.1772412-.7886621-.7288664-.6262901-1.2449389.1623721-.5160726.7057341-.809428 1.2262901-.6620611l5 1.548c.4677655.1503706.756991.6182843.6823538 1.1039232-.0746371.485639-.4910218.8451085-.9823538.8480768z" fill="#a56a43"/><path id="Shape" d="m37 28.5c.1165757 4.3930817-3.2113476 8.1156204-7.59 8.49-.13.01-.27.01-.41.01-.2738637.0018858-.5476201-.0114682-.82-.04-4.1951819-.5861495-7.2837609-4.2253388-7.18-8.46.0089964-.5770543.1384269-1.1458673.38-1.67.076974-.1702708.2439248-.2820901.4306776-.2884567s.3609312.0938233.4493224.2584567c.4312582.9880091 1.5785843 1.4433681 2.57 1.02.7349444-.3683335 1.1908561-1.1281862 1.17-1.95v-3.76c-.0000133-.2669582.1067151-.5228394.2964199-.7106659.1897047-.1878265.4466352-.2920037.7135801-.2893341 1.4035812.1552001 2.682755-.8162687 2.91-2.21.0240923-.1893557.1538939-.3484728.3345511-.4101088.1806573-.061636.3806449-.0150353.5154489.1201088.8386571.9249983 1.2803803 2.1424306 1.23 3.39v3.89c-.0238741 1.0040088.675704 1.8805886 1.66 2.08.8516988.1464907 1.7015936-.2683868 2.11-1.03.0835432-.1724952.2583387-.2820551.45-.2820551s.3664568.1095599.45.2820551c.2223176.4897551.3349439 1.0221704.33 1.56z" fill="#f3d55b"/><path id="Shape" d="m37 28.5c.1165757 4.3930817-3.2113476 8.1156204-7.59 8.49-.13.01-.27.01-.41.01-.2738637.0018858-.5476201-.0114682-.82-.04-4.1951819-.5861495-7.2837609-4.2253388-7.18-8.46.0046077-.397295.0686504-.7916631.19-1.17.6518429 3.4886501 3.4717865 6.1633605 6.99 6.63.2723799.0285318.5461363.0418858.82.04.14 0 .28 0 .41-.01 3.6973405-.2880092 6.7363423-3.0313243 7.4-6.68.1269855.383851.1911448.7856912.19 1.19z" fill="#f0c419"/><path id="Shape" d="m4.27 58.9c-1.59.49-3.4-.85-4.04-3s.12-4.28 1.7-4.77 3.39.85 4.04 2.99-.12 4.29-1.7 4.78z" fill="#cf976a"/></g></g></svg>