<svg height="58" viewBox="0 0 40 58" width="40" xmlns="http://www.w3.org/2000/svg"><g id="Page-1" fill="none" fill-rule="evenodd"><g id="008---Oil-Lamp" fill-rule="nonzero"><path id="Shape" d="m22 13v3h-4v-3c.0032948-1.1032019.8967981-1.9967052 2-2 1.1011688.0081672 1.9918328.8988312 2 2z" fill="#bdc3c7"/><path id="Shape" d="m26 17v4h-12v-4c.0032948-1.1032019.8967981-1.9967052 2-2h8c1.1032019.0032948 1.9967052.8967981 2 2z" fill="#e64c3c"/><path id="Shape" d="m34 8v13h-4v-13c0-2.209139-1.790861-4-4-4h-12c-2.209139 0-4 1.790861-4 4v13h-4v-13c0-4.418278 3.581722-8 8-8h12c4.418278 0 8 3.581722 8 8z" fill="#bdc3c7"/><path id="Shape" d="m40 26v22c0 3.3137085-2.6862915 6-6 6h-3.5v-4h2.5c1.6568542 0 3-1.3431458 3-3v-20c0-1.6568542-1.3431458-3-3-3h-3.5v-2c-.0032948-1.1032019-.8967981-1.9967052-2-2h6.5c3.3137085 0 6 2.6862915 6 6z" fill="#95a5a5"/><path id="Shape" d="m12.5 20c-1.1032019.0032948-1.9967052.8967981-2 2v2h-3.5c-1.65685425 0-3 1.3431458-3 3v20c0 1.6568542 1.34314575 3 3 3h2.5v4h-3.5c-3.3137085 0-6-2.6862915-6-6v-22c0-3.3137085 2.6862915-6 6-6z" fill="#95a5a5"/><rect id="Rectangle-path" fill="#f0c419" height="22" rx="2" width="22" x="9" y="20"/><path id="Shape" d="m29.55 20.08c-4.76.45-19.64 3.2-20.51 20.32-.02863645-.131357-.04205811-.2655736-.04-.4v-18c.0032948-1.1032019.89679813-1.9967052 2-2h18c.1861867.0006217.3713512.0275547.55.08z" fill="#f3d55b"/><path id="Shape" d="m32 44c-.0081672 1.1011688-.8988312 1.9918328-2 2h-20c-1.10320187-.0032948-1.9967052-.8967981-2-2 .00816722-1.1011688.89883122-1.9918328 2-2h20c1.1032019.0032948 1.9967052.8967981 2 2z" fill="#e64c3c"/><path id="Shape" d="m32 49v8c0 .5522847-.4477153 1-1 1h-22c-.55228475 0-1-.4477153-1-1v-8c0-1.6568542 1.34314575-3 3-3h18c1.6568542 0 3 1.3431458 3 3z" fill="#c03a2b"/><circle id="Oval" cx="20" cy="52" fill="#bdc3c7" r="2"/><path id="Shape" d="m24 38v4h-8v-4c.0032948-1.1032019.8967981-1.9967052 2-2h4c1.1032019.0032948 1.9967052.8967981 2 2z" fill="#7f8c8d"/><path id="Shape" d="m19.571 35.962c.143.014.282.038.429.038-.1438048-.0007808-.287297-.0134911-.429-.038z" fill="#e57e25"/><path id="Shape" d="m20 36c.1486932-.0065373.2969159-.021226.444-.044-.1463127.0284218-.2949548.0431521-.444.044z" fill="#e57e25"/><path id="Shape" d="m24 32.1c-.0266437 1.9941861-1.5456047 3.6508433-3.53 3.85-.306558-.0166681-.6138767-.0133277-.92.01-1.9055071-.1232544-3.4221212-1.6441528-3.54-3.55-.16-2.83 1.95-6.26 3.17-7.99.1897701-.2639.4949525-.4203391.82-.4203391s.6302299.1564391.82.4203391c1.17 1.66 3.18 4.92 3.18 7.68z" fill="#f29c1f"/><path id="Shape" d="m22 34.38c-.1177551.9926203-1.0045644 1.7109359-2 1.62-.936 0-1.953-.562-2-1.5-.08-1.17.98-2.6 1.59-3.32.1054757-.1147003.2541755-.1799735.41-.1799735s.3045243.0652732.41.1799735c.8480293.8766723 1.4035118 1.9946245 1.59 3.2z" fill="#f3d55b"/><path id="Shape" d="m13 28c-.5522847 0-1-.4477153-1-1v-2c0-1.1045695.8954305-2 2-2 .5522847 0 1 .4477153 1 1s-.4477153 1-1 1v2c0 .5522847-.4477153 1-1 1z" fill="#fff"/></g></g></svg>