<svg height="512" viewBox="0 0 58 59" width="512" xmlns="http://www.w3.org/2000/svg"><g id="Page-1" fill="none" fill-rule="evenodd"><g id="009---Cooking-On-Fire" fill-rule="nonzero"><path id="Shape" d="m19.758 15.8-1.528-1.3 10.006-11.826c.1960827-.21455195.4733439-.33676723.764-.33676723s.5679173.12221528.764.33676723l9.929 11.74-1.527 1.292-9.166-10.838z" fill="#464f5d"/><path id="Shape" d="m39 42.64c0 4.53-4.31 8.22-9.69 8.35.02 0 .04-.01.06-.01.0172822.0015564.0346458-.0019163.05-.01 3.036333-.0891842 5.4799139-2.5240068 5.58-5.56 0-4.87-3.16-8.56-4.89-10.22-.1943884-.1860412-.4741694-.2524501-.7314296-.1736123s-.4517947.2906014-.5085704.5536123c-.87 4.29-5.87 4.74-5.87 9.84.0958384 3.0092073 2.5015646 5.4323979 5.51 5.55.0223745.0082028.0462237.0116098.07.01.0153542.0080837.0327178.0115564.05.01.02 0 .04.01.06.01-5.38-.13-9.69-3.82-9.69-8.35 0-7.62 8.31-8.3 9.78-14.69.0980898-.4160055.4049462-.7513567.8106295-.8859049.4056833-.1345483.8521233-.049034 1.1793705.2259049 2.87 2.45 8.23 8 8.23 15.35z" fill="#f29c1f"/><path id="Shape" d="m35 45.41c-.1000861 3.0359932-2.543667 5.4708158-5.58 5.56 1.3492947-.0355819 2.4582244-1.0757408 2.58-2.42 0-2.24-2.5-2.44-2.94-4.32-.0409681-.1197554-.1383169-.2116316-.2602398-.2456101s-.2527589-.0056948-.3497602.0756101c-1.4197452 1.0786735-2.311187 2.7123769-2.45 4.49.1127016 1.3196867 1.1868238 2.3510151 2.51 2.41-3.0084354-.1176021-5.4141616-2.5407927-5.51-5.55 0-5.1 5-5.55 5.87-9.84.0567757-.2630109.2513102-.4747745.5085704-.5536123s.5370412-.0124289.7314296.1736123c1.73 1.66 4.89 5.35 4.89 10.22z" fill="#f0c419"/><path id="Shape" d="m32 48.55c-.1217756 1.3442592-1.2307053 2.3844181-2.58 2.42-.0153542.0080837-.0327178.0115564-.05.01-.02 0-.04.01-.06.01-.1.01-.21.01-.31.01s-.21 0-.31-.01c-.02 0-.04-.01-.06-.01-.0172822.0015564-.0346458-.0019163-.05-.01-.02 0-.05-.01-.07-.01-1.3231762-.0589849-2.3972984-1.0903133-2.51-2.41.138813-1.7776231 1.0302548-3.4113265 2.45-4.49.0970013-.0813049.2278373-.1095886.3497602-.0756101s.2192717.1258547.2602398.2456101c.44 1.88 2.94 2.08 2.94 4.32z" fill="#f3d55b"/><path id="Shape" d="m48 52c-.5522847 0-1-.4477153-1-1v-50c0-.55228475.4477153-1 1-1s1 .44771525 1 1v50c0 .5522847-.4477153 1-1 1z" fill="#464f5d"/><path id="Shape" d="m10 52c-.55228475 0-1-.4477153-1-1v-50c0-.55228475.44771525-1 1-1 .5522847 0 1 .44771525 1 1v50c0 .5522847-.4477153 1-1 1z" fill="#464f5d"/><path id="Shape" d="m18 13h21c.5522847 0 1 .4477153 1 1v2c0 3.8659932-3.1340068 7-7 7h-9c-3.8659932 0-7-3.1340068-7-7v-2c0-.5522847.4477153-1 1-1z" fill="#bdc3c7"/><path id="Shape" d="m24 20c-1.6941121-.0023896-3.203761-1.0696726-3.771-2.666-.1332542-.33992-.0706624-.7254449.1632878-1.0057476s.6020687-.4108246.9603383-.3405021c.3582695.0703224.6497373.3303103.7603739.6782497.2839665.7986983 1.0393242 1.3326926 1.887 1.334.5522847 0 1 .4477153 1 1s-.4477153 1-1 1z" fill="#fff"/><path id="Shape" d="m50 4h-42c-.55228475 0-1-.44771525-1-1s.44771525-1 1-1h42c.5522847 0 1 .44771525 1 1s-.4477153 1-1 1z" fill="#95a5a5"/><path id="Shape" d="m3 51h52c1.66 0 3 1.79 3 4s-1.34 4-3 4h-52z" fill="#a56a43"/><g fill="#805333"><path id="Shape" d="m27 56h-16c-.5522847 0-1-.4477153-1-1s.4477153-1 1-1h16c.5522847 0 1 .4477153 1 1s-.4477153 1-1 1z"/><path id="Shape" d="m35 56h-4c-.5522847 0-1-.4477153-1-1s.4477153-1 1-1h4c.5522847 0 1 .4477153 1 1s-.4477153 1-1 1z"/><path id="Shape" d="m52 56h-13c-.5522847 0-1-.4477153-1-1s.4477153-1 1-1h13c.5522847 0 1 .4477153 1 1s-.4477153 1-1 1z"/></g><ellipse id="Oval" cx="3" cy="55" fill="#cf976a" rx="3" ry="4"/></g></g></svg>