<svg height="512" viewBox="0 0 32 58" width="512" xmlns="http://www.w3.org/2000/svg"><g id="Page-1" fill="none" fill-rule="evenodd"><g id="010---Carabina-Clip" fill-rule="nonzero" transform="translate(-1 -1)"><path id="Shape" d="m3.08 40.15 4.72-7.6 2.2.45 1.2 1.66-4.45 7.16z" fill="#e57e25"/><path id="Shape" d="m5.97 45.26v.5c-.08224756 4.5713433 3.23803028 8.4949191 7.76 9.17 4.6602398.5650382 8.9530367-2.6008447 9.79-7.22l5.31-28.97c.6345969-3.3921418-.2703206-6.8909119-2.47-9.55-3.0963879-3.76497721-8.2317514-5.16585041-12.8110522-3.49472048-4.57930088 1.67112993-7.60532791 6.05034948-7.5489478 10.92472048v2.38c.00159554.2639714-.10187557.5177363-.28759464.7053313s-.43843122.2936112-.70240536.2946687h-2.02c-.26397414-.0010575-.51668629-.1070737-.70240536-.2946687s-.28919018-.4413599-.28759464-.7053313v-1.97c0-8.24 6.17-15.38 14.33-15.99 5.0106957-.38111 9.892428 1.70519607 13.08 5.59 2.9555959 3.5723086 4.1751851 8.2712065 3.33 12.83l-5.32 28.97c-1.1946542 6.656955-7.3490151 11.2453875-14.07 10.49-6.57412675-.9019857-11.44341113-6.564942-11.35-13.2v-.49z" fill="#e64c3c"/><path id="Shape" d="m16.48 26.16-1.58 2.55-2.2-.559-1.19-1.551 1.57-2.55c.1402545-.2257904.3646312-.3864518.6235664-.4464947.2589353-.060043.5311213-.0145266.7564336.1264947l1.7 1.05c.2257904.1402545.3864518.3646312.4464947.6235664.060043.2589353.0145266.5311213-.1264947.7564336z" fill="#bdc3c7"/><path id="Shape" d="m7 43c-.00073494.8667542-.37630999 1.6908315-1.03 2.26-.91641401.8082307-2.23145263.9798957-3.3246345.4339974s-1.74604389-1.7002668-1.65054286-2.9184339.92028004-2.2566925 2.08517736-2.6255635c.29620885-.1007433.6071313-.1514371.92-.15 1.1995596-.0025637 2.28355103.7148416 2.75 1.82.16511563.3714641.25029106.7734921.25 1.18z" fill="#f0c419"/><path id="Shape" d="m15.75 29.24-.85-.53-1.7-1.06-.85-.52c-.0026522 0-.0051957-.0010536-.0070711-.0029289-.0018753-.0018754-.0029289-.0044189-.0029289-.0070711-.01 0-.01-.01-.02-.01l-.02-.02-1.65-1.02c-.2253123-.1410213-.4974983-.1865377-.75643356-.1264947-.25893527.0600429-.48331198.2207043-.62356644.4464947l-2.64 4.25c-.28837451.4724533-.14091188 1.0891152.33 1.38l.84.53 1.7 1.05 1.7 1.06.85.52c.2253123.1410213.4974983.1865377.7564336.1264947.2589352-.0600429.4833119-.2207043.6235664-.4464947l2.64-4.25c.2869171-.467176.1441814-1.078263-.32-1.37z" fill="#f0c419"/><path id="Shape" d="m13.2 27.65-3.7 5.95-1.7-1.05-.84-.53c-.47091188-.2908848-.61837451-.9075467-.33-1.38l2.64-4.25c.14025446-.2257904.36463117-.3864518.62356644-.4464947.25893526-.060043.53112126-.0145266.75643356.1264947l1.65 1.02.02.02c.01 0 .01.01.02.01 0 .0055228.0044772.01.01.01z" fill="#f3d55b"/></g></g></svg>