<svg height="512" viewBox="0 0 54 58" width="512" xmlns="http://www.w3.org/2000/svg"><g id="Page-1" fill="none" fill-rule="evenodd"><g id="013---Backpack"><path id="Shape" d="m15 14h-7c-1.1 0-2-3.13-2-7s.9-7 2-7h38c1.1 0 2 3.13 2 7s-.9 7-2 7z" fill="#cc4b4c" fill-rule="nonzero"/><path id="Shape" d="m39 14c3.5389901.929781 6.0045598 4.1309123 6 7.79v28.16c.0077036 2.1286875-.83108 4.1731335-2.3316027 5.6830346-1.5005228 1.509901-3.5397031 2.3614061-5.6683973 2.3669654h-20c-2.1286942-.0055593-4.1678745-.8570644-5.6683973-2.3669654-1.50052275-1.5099011-2.3393063-3.5543471-2.3316027-5.6830346v-28.16c-.00455979-3.6590877 2.4610099-6.860219 6-7.79z" fill="#f29c1f" fill-rule="nonzero"/><rect id="Rectangle-path" fill="#e57e25" fill-rule="nonzero" height="12" rx="3" width="22" x="16" y="41"/><path id="Shape" d="m23 49c-.5522847 0-1-.4477153-1-1v-2c0-.5522847.4477153-1 1-1s1 .4477153 1 1v2c0 .5522847-.4477153 1-1 1z" fill="#bdc3c7" fill-rule="nonzero"/><path id="Shape" d="m33 47h-12c-.5522847 0-1-.4477153-1-1s.4477153-1 1-1h12c.5522847 0 1 .4477153 1 1s-.4477153 1-1 1z" fill="#464f5d" fill-rule="nonzero"/><path id="Shape" d="m17 58h-10c-2.76142375 0-5-2.2385763-5-5v-9h7v5.95c-.0077036 2.1286875.83107995 4.1731335 2.3316027 5.6830346 1.5005228 1.509901 3.5397031 2.3614061 5.6683973 2.3669654z" fill="#e57e25" fill-rule="nonzero"/><path id="Shape" d="m9 40v4h-7c-1.10320187-.0032948-1.9967052-.8967981-2-2 .00816722-1.1011688.89883122-1.9918328 2-2z" fill="#d25627" fill-rule="nonzero"/><path id="Shape" d="m52 44v9c0 2.7614237-2.2385763 5-5 5h-10c2.1286942-.0055593 4.1678745-.8570644 5.6683973-2.3669654 1.5005227-1.5099011 2.3393063-3.5543471 2.3316027-5.6830346v-5.95z" fill="#e57e25" fill-rule="nonzero"/><path id="Shape" d="m54 42c-.0032948 1.1032019-.8967981 1.9967052-2 2h-7v-4h7c1.1011688.0081672 1.9918328.8988312 2 2z" fill="#d25627" fill-rule="nonzero"/><path id="Shape" d="m25 15h4" stroke="#000" stroke-linecap="round" stroke-linejoin="round" stroke-width="2"/><g fill-rule="nonzero"><path id="Shape" d="m36 35h-18c-.5522847 0-1-.4477153-1-1s.4477153-1 1-1h18c.5522847 0 1 .4477153 1 1s-.4477153 1-1 1z" fill="#464f5d"/><path id="Shape" d="m39 14v8c0 2.7614237-2.2385763 5-5 5v-8h-4v8h-6v-8h-4v8c-2.7614237 0-5-2.2385763-5-5v-8c0-1.6568542 1.3431458-3 3-3h18c1.6568542 0 3 1.3431458 3 3z" fill="#e57e25"/><path id="Shape" d="m19 7.27c-.0047137 1.2470174.0721169 2.49300868.23 3.73h-1.23c-.2638091.0007943-.52626.0378066-.78.11-.14797-1.27463053-.2214282-2.5568102-.22-3.84-.0453146-2.45909091.2851612-4.91068217.98-7.27h2.2c-.44.53-1.18 3.08-1.18 7.27z" fill="#802f34"/><path id="Shape" d="m36.02 0h-2.2c.44.53 1.18 3.08 1.18 7.27.0047137 1.2470174-.0721169 2.49300868-.23 3.73h1.23c.2638091.0007943.52626.0378066.78.11.14797-1.27463053.2214282-2.5568102.22-3.84.0453146-2.45909091-.2851612-4.91068217-.98-7.27z" fill="#802f34"/><path id="Shape" d="m20 8h-4c-.5522847 0-1-.44771525-1-1s.4477153-1 1-1h4c.5522847 0 1 .44771525 1 1s-.4477153 1-1 1z" fill="#f5efca"/><path id="Shape" d="m38 8h-4c-.5522847 0-1-.44771525-1-1s.4477153-1 1-1h4c.5522847 0 1 .44771525 1 1s-.4477153 1-1 1z" fill="#f5efca"/><path id="Shape" d="m24 19v16c0 1.1045695-.8954305 2-2 2s-2-.8954305-2-2v-16z" fill="#d25627"/><path id="Shape" d="m34 19v16c0 1.1045695-.8954305 2-2 2s-2-.8954305-2-2v-16z" fill="#d25627"/><path id="Shape" d="m25 20h-6c-.5522847 0-1-.4477153-1-1s.4477153-1 1-1h6c.5522847 0 1 .4477153 1 1s-.4477153 1-1 1z" fill="#c03a2b"/><path id="Shape" d="m35 20h-6c-.5522847 0-1-.4477153-1-1s.4477153-1 1-1h6c.5522847 0 1 .4477153 1 1s-.4477153 1-1 1z" fill="#c03a2b"/></g></g></g></svg>