<svg height="512" viewBox="0 0 38 59" width="512" xmlns="http://www.w3.org/2000/svg"><g id="Page-1" fill="none" fill-rule="evenodd"><g id="014---Hiking-Compass" fill-rule="nonzero"><path id="Shape" d="m6 59c-2.8 0-5-1.757-5-4s2.2-4 5-4c7.86 0 10.78-.855 11.821-1.365l.627 1.28 1.448.224c-1.182 7.647-13.769 7.861-13.896 7.861zm11.642-7.153c-1.852.593-5.284 1.153-11.642 1.153-1.626 0-3 .916-3 2s1.374 2 3 2c2.155 0 9.929-.9 11.642-5.153z" fill="#f29c1f"/><path id="Shape" d="m38 2v27c-.0034192 9.6714957-7.2692015 17.7981527-16.88 18.88-.5617198-.5632738-1.3245087-.8798486-2.12-.8798486s-1.5582802.3165748-2.12.8798486c-9.61079846-1.0818473-16.87658079-9.2085043-16.88-18.88v-27c.0032948-1.10320187.89679813-1.9967052 2-2h34c1.1032019.0032948 1.9967052.89679813 2 2z" fill="#9fc9d3"/><path id="Shape" d="m22.707 6.293-3-3c-.3904999-.39038194-1.0235001-.39038194-1.414 0l-3 3c-.3789722.39237889-.3735524 1.01608478.0121814 1.40181858.3857338.38573379 1.0094397.39115363 1.4018186.01218142l1.293-1.293v8.586c0 .5522847.4477153 1 1 1s1-.4477153 1-1v-8.586l1.293 1.293c.3923789.37897221 1.0160848.37355237 1.4018186-.01218142.3857338-.3857338.3911536-1.00943969.0121814-1.40181858z" fill="#547580"/><path id="Shape" d="m22 50c.00126 1.431295-1.008762 2.6641411-2.4123273 2.9445183-1.4035652.2803773-2.8097198-.4698116-3.3584465-1.7917443-.5487268-1.3219326-.0871814-2.8473931 1.1023506-3.6433959s2.7757143-.6408264 3.7884232.3706219c.5627699.5620694.8792998 1.3246186.88 2.12z" fill="#3b97d3"/><path id="Shape" d="m33 29c0 .34-.01.67-.04 1-.1191529 1.7751656-.5809903 3.5104518-1.36 5.11v.01c-.2993324.5976677-.6366916 1.1755206-1.01 1.73-1.0005916 1.4705926-2.2694074 2.7394084-3.74 3.74-.5579114.3733585-1.1390938.7107116-1.74 1.01-1.5995482.7790097-3.3348344 1.2408471-5.11 1.36-.33.03-.66.04-1 .04s-.67-.01-1-.04c-1.7751656-.1191529-3.5104518-.5809903-5.11-1.36h-.01c-.5976677-.2993324-1.1755206-.6366916-1.73-1.01-1.47059255-1.0005916-2.73940837-2.2694074-3.74-3.74-.37330844-.5544794-.71066764-1.1323323-1.01-1.73v-.01c-.77900972-1.5995482-1.24084714-3.3348344-1.36-5.11-.03-.33-.04-.66-.04-1s.01-.67.04-1c.11915286-1.7751656.58099028-3.5104518 1.36-5.11v-.01c.29933236-.5976677.63669156-1.1755206 1.01-1.73 1.00059163-1.4705926 2.26940745-2.7394084 3.74-3.74.5544794-.3733084 1.1323323-.7106676 1.73-1.01h.01c1.5995482-.7790097 3.3348344-1.2408471 5.11-1.36.33-.03.66-.04 1-.04s.67.01 1 .04c1.7751656.1191529 3.5104518.5809903 5.11 1.36h.01c.5976677.2993324 1.1755206.6366916 1.73 1.01 1.4705926 1.0005916 2.7394084 2.2694074 3.74 3.74.3733084.5544794.7106676 1.1323323 1.01 1.73v.01c.7790097 1.5995482 1.2408471 3.3348344 1.36 5.11.03.33.04.66.04 1z" fill="#84b5cb"/><path id="Shape" d="m29 29c-.0066292 4.7687217-3.3795725 8.8692748-8.0574617 9.7956136-4.6778892.9263387-9.3590244-1.5793059-11.1825383-5.9856136-.50376308-1.20695-.76212096-2.5021388-.76-3.81 0-5.5228475 4.4771525-10 10-10s10 4.4771525 10 10z" fill="#ecf0f1"/><path id="Shape" d="m26 25c-.0016299 3.8416794-2.2038835 7.3428034-5.6660146 9.0077814-3.4621311 1.6649781-7.5720036 1.1994271-10.5739854-1.1977814-.50376308-1.20695-.76212096-2.5021388-.76-3.81.0016299-3.8416794 2.2038835-7.3428034 5.6660146-9.0077814 3.4621311-1.6649781 7.5720036-1.1994271 10.5739854 1.1977814.5037631 1.20695.762121 2.5021388.76 3.81z" fill="#fff"/><g fill="#3b97d3"><path id="Shape" d="m20 15.04v3.25h-2v-3.25c.33-.03.66-.04 1-.04s.67.01 1 .04z"/><path id="Shape" d="m14.51 19.22-1.73 1-1.63-2.81c.5544794-.3733084 1.1323323-.7106676 1.73-1.01h.01z"/><path id="Shape" d="m10.22 22.78-1 1.73-2.82-1.62v-.01c.29933236-.5976677.63669156-1.1755206 1.01-1.73z"/><path id="Shape" d="m8.29 28v2h-3.25c-.03-.33-.04-.66-.04-1s.01-.67.04-1z"/><path id="Shape" d="m10.22 35.22-2.81 1.63c-.37330844-.5544794-.71066764-1.1323323-1.01-1.73v-.01l2.82-1.62z"/><path id="Shape" d="m14.51 38.78-1.62 2.82h-.01c-.5976677-.2993324-1.1755206-.6366916-1.73-1.01l1.63-2.81z"/><path id="Shape" d="m20 39.71v3.25c-.33.03-.66.04-1 .04s-.67-.01-1-.04v-3.25z"/><path id="Shape" d="m26.85 40.59c-.5579114.3733585-1.1390938.7107116-1.74 1.01l-1.62-2.82 1.73-1z"/><path id="Shape" d="m31.6 35.11v.01c-.2993324.5976677-.6366916 1.1755206-1.01 1.73l-2.81-1.63 1-1.73z"/><path id="Shape" d="m33 29c0 .34-.01.67-.04 1h-3.25v-2h3.25c.03.33.04.66.04 1z"/><path id="Shape" d="m31.6 22.88v.01l-2.82 1.62-1-1.73 2.81-1.63c.3733084.5544794.7106676 1.1323323 1.01 1.73z"/><path id="Shape" d="m26.85 17.41-1.63 2.81-1.73-1 1.62-2.82h.01c.5976677.2993324 1.1755206.6366916 1.73 1.01z"/></g><path id="Shape" d="m21.707 24.293-2-2c-.3904999-.3903819-1.0235001-.3903819-1.414 0l-2 2c-.3789722.3923789-.3735524 1.0160848.0121814 1.4018186s1.0094397.3911536 1.4018186.0121814l.293-.293v8.586c0 .5522847.4477153 1 1 1s1-.4477153 1-1v-8.586l.293.293c.2510745.2599566.6228779.3642126.9725073.2726972.3496295-.0915155.6226744-.3645604.7141899-.7141899.0915154-.3496294-.0127406-.7214328-.2726972-.9725073z" fill="#e64c3c"/><circle id="Oval" cx="19" cy="29" fill="#bdc3c7" r="2"/><path id="Shape" d="m4 4c0 .55228475-.44771525 1-1 1h-3v-2h3c.55228475 0 1 .44771525 1 1z" fill="#3b97d3"/><path id="Shape" d="m4 8c0 .55228475-.44771525 1-1 1h-3v-2h3c.55228475 0 1 .44771525 1 1z" fill="#3b97d3"/><path id="Shape" d="m4 12c0 .5522847-.44771525 1-1 1h-3v-2h3c.55228475 0 1 .4477153 1 1z" fill="#3b97d3"/><path id="Shape" d="m4 16c0 .5522847-.44771525 1-1 1h-3v-2h3c.55228475 0 1 .4477153 1 1z" fill="#3b97d3"/><path id="Shape" d="m4 20c0 .5522847-.44771525 1-1 1h-3v-2h3c.55228475 0 1 .4477153 1 1z" fill="#3b97d3"/><path id="Shape" d="m38 3v2h-3c-.5522847 0-1-.44771525-1-1s.4477153-1 1-1z" fill="#3b97d3"/><path id="Shape" d="m38 7v2h-3c-.5522847 0-1-.44771525-1-1s.4477153-1 1-1z" fill="#3b97d3"/><path id="Shape" d="m38 11v2h-3c-.5522847 0-1-.4477153-1-1s.4477153-1 1-1z" fill="#3b97d3"/><path id="Shape" d="m38 15v2h-3c-.5522847 0-1-.4477153-1-1s.4477153-1 1-1z" fill="#3b97d3"/><path id="Shape" d="m38 19v2h-3c-.5522847 0-1-.4477153-1-1s.4477153-1 1-1z" fill="#3b97d3"/><path id="Shape" d="m10 10c.5522847 0 1-.44771525 1-1s-.4477153-1-1-1h-1v-3h1c.5522847 0 1-.44771525 1-1s-.4477153-1-1-1h-1c-1.1045695 0-2 .8954305-2 2v8c0 1.1045695.8954305 2 2 2h1c.5522847 0 1-.4477153 1-1s-.4477153-1-1-1h-1v-3z" fill="#2980ba"/><path id="Shape" d="m19 41c-6.627417 0-12-5.372583-12-12s5.372583-12 12-12 12 5.372583 12 12c-.0071648 6.624447-5.375553 11.9928352-12 12zm0-21.818c-5.4223317 0-9.818 4.3956683-9.818 9.818s4.3956683 9.818 9.818 9.818 9.818-4.3956683 9.818-9.818c-.0060621-5.4198187-4.3981813-9.8119379-9.818-9.818z" fill="#bdc3c7"/></g></g></svg>