<svg height="512" viewBox="0 0 58 58" width="512" xmlns="http://www.w3.org/2000/svg"><g id="Page-1" fill="none" fill-rule="evenodd"><g id="015---Axe" fill-rule="nonzero" transform="translate(-1 -1)"><path id="Shape" d="m14.95 32.61v.01c-.31 1.06-.56 1.97-.74 2.65-.0771205.2967613-.2861227.5417395-.5670334.6646379s-.6026765.1101313-.8729666-.0346379c-6.1-3.23-10.41-11.35-11.67-13.95-.22519569-.4582413-.06495605-1.0125838.37-1.28l2.98-1.85z" fill="#bdc3c7"/><g fill="#95a5a5"><path id="Shape" d="m21.87 19.73c-3.34 2.11-5.67 8.62-6.92 12.88-6.22-4.3-10.25-13.24-10.5-13.79v-.01l12.09-7.53v.01l3.46 3.71z"/><path id="Shape" d="m4.45 18.81c-.00570536-.0051905-.00927084-.0123214-.01-.02"/><path id="Shape" d="m38.78 8.23-.71 1.18c-.0807824.13578033-.1942197.24921757-.33.33l-2.33 1.47-.01.01-3.293-3.22-2.037-5.23v-.01l2.34-1.47c.1343062-.08077398.2843223-.13191584.44-.15l1.37-.14c.3789464-.02966374.7436619.15077446.95.47l3.6 5.71c.2030128.31953815.2068901.72665326.01 1.05z"/></g><path id="Shape" d="m58.84 54.28-23.31-37.24-4.53 1.96-3.93 3.36s11.51 18.54 15.24 24.46c1.9959145 3.0073958 2.5321151 6.7534548 1.46 10.2-.0797364.2599311-.0515279.5410134.0782698.7799164s.3502656.4155294.6117302.4900836c4.8737892 1.5113674 10.1799728.5033424 14.16-2.69.4028873-.3173553.4981835-.8891329.22-1.32zm-6.77.41c-.9332634.5907194-2.1686913.3130876-2.7594884-.6201266s-.3132683-2.1686652.6198967-2.7595401c.9331649-.5908749 2.168639-.313449 2.7595917.6196667.2838485.4481976.3779928.9908087.2617158 1.5084289s-.4334473.9678346-.8817158 1.2515711z" fill="#a56a43"/><path id="Shape" d="m35.88 12.72-.35 4.32-8.46 5.32-4.04-1.55c-.4084302-.141656-.7548847-.4209408-.98-.79l-.18-.29-5.33-8.44v-.01c-.1441843-.2217818-.1925861-.492433-.1342048-.7504405.0583812-.2580076.2185866-.4814557.4442048-.6195595l11.84-7.46c.4677534-.28918743 1.08087-.15145834 1.38.31v.01l5.33 8.45.18.28c.233769.3616099.3394096.791215.3 1.22z" fill="#f29c1f"/><path id="Shape" d="m30.422 11.808c-.3434894-.0000396-.6629201-.1763684-.846-.467l-1.6-2.535-2.539 1.6c-.467509.2940916-1.0849083.153509-1.379-.314-.2940916-.46750905-.153509-1.08490836.314-1.379l2.538-1.6c.9340185-.58812274 2.1679055-.30840588 2.757.625l1.6 2.535c.1945281.307997.2061811.6974109.0304179 1.0164887s-.5111333.5173348-.8754179.5175113z" fill="#fff"/><path id="Shape" d="m9.623 21.254c-.44873543.0012265-.84334152-.2966169-.96517237-.7284991-.12183084-.4318822.05894921-.8920378.44217237-1.1255009l5.663-3.46c.471375-.2880165 1.0869835-.139375 1.375.332s.139375 1.0869835-.332 1.375l-5.663 3.46c-.15655874.0957917-.33646098.1466487-.52.147z" fill="#fff"/><path id="Shape" d="m43.124 37.86c-.3436487.0005206-.6634918-.1754498-.847-.466l-1.066-1.694c-.2190115-.3019221-.2517886-.7006397-.0850239-1.034275s.505351-.5467302.8782941-.5527689.7182509.1959826.8957298.5240439l1.067 1.69c.193991.3079521.2053489.6969855.0296544 1.0157306s-.5106945.5168636-.8746544.5172694z" fill="#805333"/><path id="Shape" d="m39.925 32.79c-.349068.0005036-.6731357-.1810501-.855-.479l-5.642-9.244c-.1903756-.3050837-.2022815-.6888933-.0311813-1.0051901.1711001-.3162968.4988551-.5163675.8583839-.5239813s.69546.1784018.8797974.4871714l5.642 9.244c.1882658.3084357.195488.6944472.0188914 1.0097094s-.509538.5107284-.8708914.5112906z" fill="#805333"/><circle id="Oval" cx="45.256" cy="40.241" fill="#805333" r="1"/></g></g></svg>