<svg height="512" viewBox="0 0 60 58" width="512" xmlns="http://www.w3.org/2000/svg"><g id="Page-1" fill="none" fill-rule="evenodd"><g id="016---Camp-Meal" fill-rule="nonzero"><path id="Shape" d="m59 50.19v6.81c0 .5522847-.4477153 1-1 1h-56c-.55228475 0-1-.4477153-1-1v-6.81l5.92 1.63c.87040172.2401798 1.78959828.2401798 2.66 0l4.58-1.26c.8704017-.2401798 1.7895983-.2401798 2.66 0l4.59 1.26c.8704017.2401798 1.7895983.2401798 2.66 0l4.59-1.26c.8704017-.2401798 1.7895983-.2401798 2.66 0l4.59 1.26c.8704017.2401798 1.7895983.2401798 2.66 0l4.59-1.26c.8704017-.2401798 1.7895983-.2401798 2.66 0l4.6 1.26c.8670332.2399868 1.7829668.2399868 2.65 0z" fill="#805333"/><path id="Shape" d="m45 1v8h-6v-8c0-.55228475.4477153-1 1-1h4c.5522847 0 1 .44771525 1 1z" fill="#bdc3c7"/><g fill="#805333"><path id="Rectangle-path" d="m37.146 27.655h17.845v2h-17.845z" transform="matrix(.727 -.687 .687 .727 -7.1 39.449)"/><path id="Rectangle-path" d="m20.417 42.581h18.531v2h-18.531z" transform="matrix(.727 -.687 .687 .727 -21.82 32.273)"/><path id="Rectangle-path" d="m28.682 19.154h2v18.531h-2z" transform="matrix(.686 -.727 .727 .686 -11.359 30.496)"/><path id="Rectangle-path" d="m45.318 34.315h2v18.531h-2z" transform="matrix(.686 -.727 .727 .686 -17.167 47.347)"/></g><path id="Shape" d="m4 49c-.55228475 0-1-.4477153-1-1 0-1.522-.467-5.777-2.555-7.169-.29724497-.1982824-.46612825-.5400812-.44303314-.8966441.02309512-.3565629.23465992-.6737195.555-.832.32034009-.1582805.70078817-.1336383.99803314.0646441 3.406 2.271 3.445 8.566 3.445 8.833 0 .5522847-.44771525 1-1 1z" fill="#4c8056"/><path id="Shape" d="m56 49c-.5522847 0-1-.4477153-1-1 0-.267.039-6.562 3.445-8.832.4595009-.306518 1.080482-.1825009 1.387.277s.1825009 1.080482-.277 1.387c-2.096 1.397-2.555 5.648-2.555 7.168 0 .5522847-.4477153 1-1 1z" fill="#4c8056"/><path id="Shape" d="m4 49c-.42987108-.0007564-.81116119-.276155-.947-.684-.74-2.216-2.026-2.316-2.08-2.316-.54332805-.0305384-.96545278-.4848965-.956-1.029.00817593-.5375202.44541998-.9694265.983-.971 1.05804405.0806662 2.03628776.593114 2.705 1.417.71275887-1.0884725 1.75742382-1.9181728 2.979-2.366.52467051-.174522 1.09147799.1093295 1.26599997.634s-.10932948 1.091478-.63399997 1.266c-1.31920779.452171-2.23427209 1.6568476-2.316 3.049-.00005739.4904813-.35583755.908523-.84.987-.05288311.008742-.10639927.0130902-.16.013z" fill="#24ae5f"/><path id="Shape" d="m56 49c-.0539346.0001456-.1077875-.0042028-.161-.013-.483765-.0789157-.8390223-.4968405-.839-.987-.0817409-1.3946313-.9990392-2.6012284-2.321-3.053-.5246705-.1759027-.8074026-.7438295-.6314999-1.2685s.7438294-.8074026 1.2684999-.6315c1.2239896.4479463 2.2705917 1.2791952 2.984 2.37.6675442-.8226769 1.6437386-1.3349982 2.7-1.417.5522847-.0063513 1.0051487.4362153 1.0115.9885.0063512.5522847-.4362153 1.0051487-.9885 1.0115-.092.006-1.348.139-2.075 2.316-.1359555.4081936-.5177607.6836733-.948.684z" fill="#24ae5f"/><path id="Shape" d="m12 49c-.5522847 0-1-.4477153-1-1v-6c0-.5522847.4477153-1 1-1s1 .4477153 1 1v6c0 .5522847-.4477153 1-1 1z" fill="#464f5d"/><path id="Shape" d="m20 49c-.5522847 0-1-.4477153-1-1v-6c0-.5522847.4477153-1 1-1s1 .4477153 1 1v6c0 .5522847-.4477153 1-1 1z" fill="#464f5d"/><path id="Shape" d="m24 16c-.5522847 0-1-.4477153-1-1v-1c0-1.1045695.8954305-2 2-2h3c.5522847 0 1 .4477153 1 1s-.4477153 1-1 1h-3v1c0 .5522847-.4477153 1-1 1z" fill="#95a5a5"/><path id="Shape" d="m59 49v3l-5.93 1.63c-.8670332.2399868-1.7829668.2399868-2.65 0l-4.6-1.26c-.8704017-.2401798-1.7895983-.2401798-2.66 0l-4.59 1.26c-.8704017.2401798-1.7895983.2401798-2.66 0l-4.59-1.26c-.8704017-.2401798-1.7895983-.2401798-2.66 0l-4.59 1.26c-.8704017.2401798-1.7895983.2401798-2.66 0l-4.59-1.26c-.8704017-.2401798-1.7895983-.2401798-2.66 0l-4.58 1.26c-.87040172.2401798-1.78959828.2401798-2.66 0l-5.92-1.63v-3c0-.5522847.44771525-1 1-1h56c.5522847 0 1 .4477153 1 1z" fill="#4fba6f"/><circle id="Oval" cx="38" cy="36" fill="#cb8252" r="3"/><rect id="Rectangle-path" fill="#cb8252" height="4" rx="2" width="36" x="20" y="20"/><path id="Rectangle-path" d="m11 34h10v8h-10z" fill="#24ae5f"/><path id="Shape" d="m34 13v4c0 1.6568542-1.3431458 3-3 3s-3-1.3431458-3-3v-5h5c.5522847 0 1 .4477153 1 1z" fill="#e64c3c"/><path id="Shape" d="m46 9v8c0 1.6568542-1.3431458 3-3 3h-2c-1.6568542 0-3-1.3431458-3-3v-8c0-.55228475.4477153-1 1-1h6c.5522847 0 1 .44771525 1 1z" fill="#e64c3c"/><path id="Rectangle-path" d="m39 3h6v2h-6z" fill="#95a5a5"/><path id="Shape" d="m28 7c-.5522847 0-1-.44771525-1-1-.0105835-.74000331.2243235-1.4626588.668-2.055.2234183-.26327868.3416585-.59983614.332-.945 0-.55228475.4477153-1 1-1s1 .44771525 1 1c.0105835.74000331-.2243235 1.4626588-.668 2.055-.2234183.26327868-.3416585.59983614-.332.945 0 .26521649-.1053568.5195704-.2928932.70710678s-.4418903.29289322-.7071068.29289322z" fill="#805333"/><path id="Shape" d="m32 9c-.5522847 0-1-.44771525-1-1-.0105835-.74000331.2243235-1.4626588.668-2.055.2234183-.26327868.3416585-.59983614.332-.945 0-.55228475.4477153-1 1-1s1 .44771525 1 1c.0105835.74000331-.2243235 1.4626588-.668 2.055-.2234183.26327868-.3416585.59983614-.332.945 0 .55228475-.4477153 1-1 1z" fill="#805333"/><path id="Shape" d="m23 34c-.0081672 1.1011688-.8988312 1.9918328-2 2h-10c-1.10320187-.0032948-1.9967052-.8967981-2-2 .00816722-1.1011688.89883122-1.9918328 2-2h10c1.1032019.0032948 1.9967052.8967981 2 2z" fill="#4c8056"/></g></g></svg>