<svg height="512" viewBox="0 0 58 58" width="512" xmlns="http://www.w3.org/2000/svg"><g id="Page-1" fill="none" fill-rule="evenodd"><g id="017---Mountain-Photography" fill-rule="nonzero"><path id="Shape" d="m9 17.04-2.7.59c-3.67823226.7998928-6.30127577 4.0557976-6.3 7.82v29.55c0 1.6568542 1.34314575 3 3 3h52c1.6568542 0 3-1.3431458 3-3v-29.56c.0011876-3.9203166-2.2904857-7.4790585-5.86-9.1l-2.48-1.13-2.63-1.2-.03-.01-.05-.18-1.63-5.71-1.49-5.21c-.4914398-1.71815649-2.0629434-2.90188644-3.85-2.9h-9.16c-1.690364-.00198487-3.1995029 1.05881571-3.77 2.65l-2.28 6.4-1.77 4.95-2.33.51-.98.21-5.476.08z" fill="#547580"/><circle id="Oval" cx="35" cy="37" fill="#3f5c6c" r="17"/><path id="Shape" d="m23.84 43.65c-2.8162198-4.7138427-2.366985-10.6888076 1.122421-14.9285544s9.2663931-5.8298529 14.4339034-3.972908 8.6110225 6.7604377 8.6036756 12.2514624c-.0014704.9038629-.0952909 1.8052103-.28 2.69z" fill="#f9eab0"/><path id="Shape" d="m45.38 29.18c-4.4566462-2.5106251-9.971354-2.1744137-14.0899998.8590153-4.1186457 3.0334289-6.0756039 8.2001837-5.0000002 13.2009847l-2.45.41c-3.5401992-5.9303137-1.8221187-13.5939266 3.9110019-17.4452847 5.7331205-3.8513582 13.4774377-2.5443328 17.6289981 2.9752847z" fill="#f5efca"/><path id="Shape" d="m19.92 54-19.92.0000006v-28.0000006h15.4c.3465932.0010489.6679286.1814922.8492369.4768822.1813084.2953899.1967323.6635996.0407631.9731178-4.236601 8.3154395-2.4811278 18.4287574 4.31 24.83.2982112.2788805.3955543.7117558.2454412 1.0914535-.150113.3796977-.5171471.628982-.9254412.6285465z" fill="#bdc3c7"/><path id="Shape" d="m14 15.96v10.04h-14.00000047l.00000047-.55c-.00127577-3.7642024 2.62176774-7.0201072 6.3-7.82l2.7-.59z" fill="#95a5a5"/><path id="Shape" d="m42.09 47.89c-2.9618339 1.9331339-6.5843843 2.5735926-10.0295007 1.7731929-3.4451164-.8003996-6.4142745-2.9723018-8.2204993-6.0131929l3.79-4.6 2.58 2.58c.4961593.489773 1.2938407.489773 1.79 0l2.65-2.66 1.11 1.32z" fill="#c03a2b"/><path id="Shape" d="m34.65 38.97-2.65 2.66c-.4961593.489773-1.2938407.489773-1.79 0l-2.58-2.58 3.21-3.9c.0770972-.0948114.1927986-.1498536.315-.1498536s.2379028.0550422.315.1498536z" fill="#bdc3c7"/><path id="Shape" d="m28.58 18c-.4936731.0015029-.9145734-.3574768-.9909911-.8452019-.0764178-.487725.2145162-.9582363.6849911-1.1077981 4.3766919-1.3895325 9.0763081-1.3895325 13.453 0 .5260512.1689991.8154991.7324488.6465 1.2585s-.7324488.8154991-1.2585.6465c-3.9785004-1.2630117-8.2504996-1.2630117-12.229 0-.0989689.0314536-.2021537.0476395-.306.048z" fill="#95a5a5"/><path id="Shape" d="m19.69 14.72-5.69 1.24-5.00000411 1.08.00000411-3.78c-.00189503-.9388701.65235686-1.751476 1.57-1.95l1.88-.42 1.95-.43 1.84-.41c1.0001009-.22161679 2.0059775.348236 2.33 1.32z" fill="#3f5c6c"/><path id="Shape" d="m40 5h-9c-.5522847 0-1-.44771525-1-1s.4477153-1 1-1h9c.5522847 0 1 .44771525 1 1s-.4477153 1-1 1z" fill="#95a5a5"/><g fill="#7f8c8d"><path id="Shape" d="m5 31h-1c-.55228475 0-1-.4477153-1-1s.44771525-1 1-1h1c.55228475 0 1 .4477153 1 1s-.44771525 1-1 1z"/><path id="Shape" d="m10 31h-1c-.55228475 0-1-.4477153-1-1s.44771525-1 1-1h1c.5522847 0 1 .4477153 1 1s-.4477153 1-1 1z"/><path id="Shape" d="m5 35h-1c-.55228475 0-1-.4477153-1-1s.44771525-1 1-1h1c.55228475 0 1 .4477153 1 1s-.44771525 1-1 1z"/><path id="Shape" d="m10 35h-1c-.55228475 0-1-.4477153-1-1s.44771525-1 1-1h1c.5522847 0 1 .4477153 1 1s-.4477153 1-1 1z"/><path id="Shape" d="m5 39h-1c-.55228475 0-1-.4477153-1-1s.44771525-1 1-1h1c.55228475 0 1 .4477153 1 1s-.44771525 1-1 1z"/><path id="Shape" d="m10 39h-1c-.55228475 0-1-.4477153-1-1s.44771525-1 1-1h1c.5522847 0 1 .4477153 1 1s-.4477153 1-1 1z"/><path id="Shape" d="m5 43h-1c-.55228475 0-1-.4477153-1-1s.44771525-1 1-1h1c.55228475 0 1 .4477153 1 1s-.44771525 1-1 1z"/><path id="Shape" d="m10 43h-1c-.55228475 0-1-.4477153-1-1s.44771525-1 1-1h1c.5522847 0 1 .4477153 1 1s-.4477153 1-1 1z"/><path id="Shape" d="m5 47h-1c-.55228475 0-1-.4477153-1-1s.44771525-1 1-1h1c.55228475 0 1 .4477153 1 1s-.44771525 1-1 1z"/><path id="Shape" d="m10 47h-1c-.55228475 0-1-.4477153-1-1s.44771525-1 1-1h1c.5522847 0 1 .4477153 1 1s-.4477153 1-1 1z"/><path id="Shape" d="m5 51h-1c-.55228475 0-1-.4477153-1-1s.44771525-1 1-1h1c.55228475 0 1 .4477153 1 1s-.44771525 1-1 1z"/><path id="Shape" d="m10 51h-1c-.55228475 0-1-.4477153-1-1s.44771525-1 1-1h1c.5522847 0 1 .4477153 1 1s-.4477153 1-1 1z"/></g><circle id="Oval" cx="52" cy="23" fill="#bdc3c7" r="1"/><circle id="Oval" cx="52" cy="52" fill="#bdc3c7" r="1"/><path id="Shape" d="m20.88 19.37c-.1549535.3780329-.5214588.6263107-.93.63-.1267995.0019451-.2526744-.021869-.37-.07-.2478601-.0966168-.4466489-.2885551-.5518949-.5328761-.1052459-.2443209-.1081653-.5206338-.0081051-.7671239l1.65-4.12 2.33-.51z" fill="#3f5c6c"/><path id="Shape" d="m50.47 19.93c-.1175839.0472538-.2432805.0710343-.37.07-.4098038.0003967-.7783727-.249279-.93-.63l-2.14-5.36 2.63 1.2 1.37 3.42c.1984163.5135268-.0505195 1.0914134-.56 1.3z" fill="#3f5c6c"/><path id="Shape" d="m40.954 12h-10.908c-.3141626.0093528-.614806-.1279381-.8134815-.3714821s-.2727823-.5656363-.2005185-.8715179l.522-2c.1276427-.45279599.5435993-.76332767 1.014-.757h9.864c.4704007-.00632767.8863573.30420401 1.014.757l.522 2c.0722638.3058816-.001843.6279739-.2005185.8715179s-.4993189.3808349-.8134815.3714821z" fill="#84b5cb"/><path id="Shape" d="m13.99 12.97c-.5356491.1321055-1.0770912-.1945496-1.21-.73l-.33-1.32v-.03l1.95-.43.32 1.3c.1321055.5356491-.1945496 1.0770912-.73 1.21z" fill="#35495e"/><path id="Shape" d="m9 23h-3c-.55228475 0-1-.4477153-1-1s.44771525-1 1-1h3c.55228475 0 1 .4477153 1 1s-.44771525 1-1 1z" fill="#3f5c6c"/><path id="Shape" d="m36 32c-.5522847 0-1-.4477153-1-1s-.4477153-1-1-1-1-.4477153-1-1 .4477153-1 1-1c.7384319-.0006597 1.4509351.2722291 2 .766.5490649-.4937709 1.2615681-.7666597 2-.766.5522847 0 1 .4477153 1 1s-.4477153 1-1 1-1 .4477153-1 1-.4477153 1-1 1z" fill="#464f5d"/><path id="Shape" d="m47.72 39.69c-.7154388 3.3715934-2.7405113 6.3210773-5.63 8.2l-6.33-7.6 2.67-3.24 2.58 2.58c.4961593.489773 1.2938407.489773 1.79 0l2.65-2.66z" fill="#802f34"/><path id="Shape" d="m45.45 36.97-2.65 2.66c-.4961593.489773-1.2938407.489773-1.79 0l-2.58-2.58 3.21-3.9c.0770972-.0948114.1927986-.1498536.315-.1498536s.2379028.0550422.315.1498536z" fill="#95a5a5"/><path id="Shape" d="m35 51c-7.7319865 0-14-6.2680135-14-14s6.2680135-14 14-14 14 6.2680135 14 14c-.0082673 7.7285595-6.2714405 13.9917327-14 14zm0-26c-6.627417 0-12 5.372583-12 12s5.372583 12 12 12 12-5.372583 12-12c-.0071648-6.624447-5.375553-11.9928352-12-12z" fill="#bdc3c7"/></g></g></svg>