<svg height="512" viewBox="0 0 46 58" width="512" xmlns="http://www.w3.org/2000/svg"><g id="Page-1" fill="none" fill-rule="evenodd"><g id="019---Cooking" fill-rule="nonzero"><path id="Rectangle-path" d="m17.056 31h12.944v2h-12.944z" fill="#7f8c8d"/><path id="Shape" d="m24 38-9 1-9-1c.70300048-2.4528618 2.19719522-4.6045023 4.25-6.12 1.0934339-.74728 1.7481376-1.9856052 1.75-3.31v-1.57l3-1 3 1v1.57c.0018624 1.3243948.6565661 2.56272 1.75 3.31 2.0528048 1.5154977 3.5469995 3.6671382 4.25 6.12z" fill="#d25627"/><path id="Shape" d="m30 35c-.5522847 0-1-.4477153-1-1v-4c0-.5522847.4477153-1 1-1s1 .4477153 1 1v4c0 .5522847-.4477153 1-1 1z" fill="#464f5d"/><path id="Shape" d="m26 34c-.5522847 0-1-.4477153-1-1v-2c0-.5522847.4477153-1 1-1s1 .4477153 1 1v2c0 .5522847-.4477153 1-1 1z" fill="#464f5d"/><rect id="Rectangle-path" fill="#f29c1f" height="20" rx="4" width="30" y="38"/><circle id="Oval" cx="15" cy="49" fill="#fff" r="5"/><path id="Shape" d="m16 51c-.2651948-.0000566-.5195073-.1054506-.707-.293l-2-2c-.3789722-.3923789-.3735524-1.0160848.0121814-1.4018186s1.0094397-.3911536 1.4018186-.0121814l2 2c.2859079.2859943.3714219.7160366.216678 1.0896546-.1547439.3736179-.5192821.6172591-.923678.6173454z" fill="#464f5d"/><path id="Shape" d="m26 25c-.0081672 1.1011688-.8988312 1.9918328-2 2h-18c-1.10320187-.0032948-1.9967052-.8967981-2-2 .00816722-1.1011688.89883122-1.9918328 2-2h18c1.1032019.0032948 1.9967052.8967981 2 2z" fill="#c03a2b"/><path id="Shape" d="m27 9v7c0 3.8659932-3.1340068 7-7 7h-10c-3.86599325 0-7-3.1340068-7-7v-13c.00064134-.78585559-.30833301-1.54032782-.86-2.1-.14195573-.16001448-.1762998-.3886461-.08762167-.58330543.08867814-.19465932.28372527-.3187905.49762167-.31669457h24.9c.2138964-.00209593.4089435.12203525.4976217.31669457.0886781.19465933.054334.42329095-.0876217.58330543-.551667.55967218-.8606413 1.31414441-.86 2.1z" fill="#bdc3c7"/><path id="Shape" d="m7 12c-.55228475 0-1-.4477153-1-1v-7c0-.55228475.44771525-1 1-1s1 .44771525 1 1v7c0 .5522847-.44771525 1-1 1z" fill="#fff"/><path id="Shape" d="m11 20h-1c-2.209139 0-4-1.790861-4-4v-1c0-.5522847.44771525-1 1-1s1 .4477153 1 1v1c0 1.1045695.8954305 2 2 2h1c.5522847 0 1 .4477153 1 1s-.4477153 1-1 1z" fill="#fff"/><path id="Shape" d="m46 6.5c.0021341.66369315-.2605727 1.30081863-.729877 1.77012298-.4693044.46930436-1.1064298.7320111-1.770123.72987702h-17.5c-1.1032019-.0032948-1.9967052-.89679813-2-2v-1c.0032948-1.10320187.8967981-1.9967052 2-2h17.5c1.3807119 0 2.5 1.11928813 2.5 2.5z" fill="#3b97d3"/><path id="Shape" d="m15 55c-3.3137085 0-6-2.6862915-6-6s2.6862915-6 6-6 6 2.6862915 6 6c-.0033074 3.3123376-2.6876624 5.9966926-6 6zm0-10c-2.209139 0-4 1.790861-4 4s1.790861 4 4 4 4-1.790861 4-4-1.790861-4-4-4z" fill="#e57e25"/></g></g></svg>