<svg height="512" viewBox="0 0 58 58" width="512" xmlns="http://www.w3.org/2000/svg"><g id="Page-1" fill="none" fill-rule="evenodd"><g id="020---Mini-Binoculars" fill-rule="nonzero"><path id="Shape" d="m17 52v4c-.0032948 1.1032019-.8967981 1.9967052-2 2h-12c-1.10320187-.0032948-1.9967052-.8967981-2-2v-4z" fill="#547580"/><path id="Rectangle-path" d="m2 3h14v6h-14z" fill="#393f4a"/><path id="Shape" d="m18 2c.0028231.53059053-.2101411 1.0395388-.59 1.41-.3704612.3798589-.8794095.59282307-1.41.59h-14c-1.10320187-.0032948-1.9967052-.89679813-2-2-.00282307-.53059053.2101411-1.0395388.59-1.41.3704612-.3798589.87940947-.59282307 1.41-.59h14c1.1032019.0032948 1.9967052.89679813 2 2z" fill="#464f5d"/><path id="Shape" d="m17 9v13h-16v-13c0-.55228475.44771525-1 1-1h14c.5522847 0 1 .44771525 1 1z" fill="#2980ba"/><path id="Shape" d="m17 50v4h-16v-34h13c-1.1032019.0032948-1.9967052.8967981-2 2v26c.0032948 1.1032019.8967981 1.9967052 2 2z" fill="#3b97d3"/><g fill="#285680"><path id="Shape" d="m5 17c-.55228475 0-1-.4477153-1-1v-4c0-.5522847.44771525-1 1-1s1 .4477153 1 1v4c0 .5522847-.44771525 1-1 1z"/><path id="Shape" d="m9 17c-.55228475 0-1-.4477153-1-1v-4c0-.5522847.44771525-1 1-1s1 .4477153 1 1v4c0 .5522847-.44771525 1-1 1z"/><path id="Shape" d="m13 17c-.5522847 0-1-.4477153-1-1v-4c0-.5522847.4477153-1 1-1s1 .4477153 1 1v4c0 .5522847-.4477153 1-1 1z"/></g><path id="Shape" d="m57 52v4c-.0032948 1.1032019-.8967981 1.9967052-2 2h-12c-1.1032019-.0032948-1.9967052-.8967981-2-2v-4z" fill="#547580"/><path id="Rectangle-path" d="m42 3h14v6h-14z" fill="#393f4a"/><path id="Shape" d="m58 2c.0028231.53059053-.2101411 1.0395388-.59 1.41-.3704612.3798589-.8794095.59282307-1.41.59h-14c-1.1032019-.0032948-1.9967052-.89679813-2-2-.0028231-.53059053.2101411-1.0395388.59-1.41.3704612-.3798589.8794095-.59282307 1.41-.59h14c1.1032019.0032948 1.9967052.89679813 2 2z" fill="#464f5d"/><path id="Shape" d="m57 9v13h-16v-13c0-.55228475.4477153-1 1-1h14c.5522847 0 1 .44771525 1 1z" fill="#2980ba"/><path id="Shape" d="m57 20v34h-16v-4h3c1.1032019-.0032948 1.9967052-.8967981 2-2v-26c-.0032948-1.1032019-.8967981-1.9967052-2-2z" fill="#3b97d3"/><path id="Shape" d="m45 17c-.5522847 0-1-.4477153-1-1v-4c0-.5522847.4477153-1 1-1s1 .4477153 1 1v4c0 .5522847-.4477153 1-1 1z" fill="#285680"/><path id="Shape" d="m49 17c-.5522847 0-1-.4477153-1-1v-4c0-.5522847.4477153-1 1-1s1 .4477153 1 1v4c0 .5522847-.4477153 1-1 1z" fill="#285680"/><path id="Shape" d="m53 17c-.5522847 0-1-.4477153-1-1v-4c0-.5522847.4477153-1 1-1s1 .4477153 1 1v4c0 .5522847-.4477153 1-1 1z" fill="#285680"/><path id="Shape" d="m44 20h-30c-1.1032019.0032948-1.9967052.8967981-2 2v26c.0032948 1.1032019.8967981 1.9967052 2 2h30c1.1032019-.0032948 1.9967052-.8967981 2-2v-26c-.0032948-1.1032019-.8967981-1.9967052-2-2z" fill="#bdc3c7"/><path id="Shape" d="m37 15v6h-16v-6c0-1.6568542 1.3431458-3 3-3h10c1.6568542 0 3 1.3431458 3 3z" fill="#2980ba"/><path id="Shape" d="m26 12v3c0 .5522847-.4477153 1-1 1s-1-.4477153-1-1v-3z" fill="#285680"/><path id="Shape" d="m30 12v3c0 .5522847-.4477153 1-1 1s-1-.4477153-1-1v-3z" fill="#285680"/><path id="Shape" d="m34 12v3c0 .5522847-.4477153 1-1 1s-1-.4477153-1-1v-3z" fill="#285680"/><path id="Rectangle-path" d="m16 20h26v19h-26z" fill="#3b97d3"/><path id="Rectangle-path" d="m16 39h26v11h-26z" fill="#2980ba"/><path id="Rectangle-path" d="m42 25h4v20h-4z" fill="#95a5a5"/><path id="Rectangle-path" d="m12 25h4v20h-4z" fill="#95a5a5"/><rect id="Rectangle-path" fill="#464f5d" height="6" rx="2" width="14" x="22" y="27"/><path id="Rectangle-path" d="m25.5 27h2v6h-2z" fill="#95a5a5"/><path id="Rectangle-path" d="m30.5 27h2v6h-2z" fill="#95a5a5"/></g></g></svg>