<svg height="512" viewBox="0 0 58 58" width="512" xmlns="http://www.w3.org/2000/svg"><g id="Page-1" fill="none" fill-rule="evenodd"><g id="021---Helmet" fill-rule="nonzero"><path id="Shape" d="m44 52v5c0 .5522847-.4477153 1-1 1h-2c-.5522847 0-1-.4477153-1-1v-5z" fill="#464f5d"/><path id="Rectangle-path" d="m30.428 35.585h27.114v2h-27.114z" fill="#7f8c8d" transform="matrix(.171 -.985 .985 .171 .404 73.65)"/><path id="Shape" d="m42.9 52.178-3.945-.178c-.914-.041-22.5-1.132-32.653-11.3l1.415-1.413c9.601 9.613 31.112 10.704 31.328 10.713l3.947.179z" fill="#7f8c8d"/><path id="Shape" d="m19.88 28.6c-1.32 2.99-2.42 6.66-5.64 9.69-2.38 2.23-6.87 4.71-10.24 4.71l-2-6z" fill="#f29c1f"/><path id="Shape" d="m4 39v4c0 1.1045695-.8954305 2-2 2s-2-.8954305-2-2v-4c.0032948-1.1032019.89679813-1.9967052 2-2 .53059053-.0028231 1.0395388.2101411 1.41.59.3798589.3704612.59282307.8794095.59 1.41z" fill="#464f5d"/><rect id="Rectangle-path" fill="#393f4a" height="6" rx="1" width="6" x="39" y="48"/><path id="Shape" d="m57.34 23.89c-2.0401846.7337765-4.1918716 1.1093068-6.36 1.11h-14.65c-5.677529.0112311-11.2867538 1.2387818-16.45 3.6-2.5421153 1.1410446-4.9612876 2.5382674-7.22 4.17-2.57 1.84-5.66 4.23-8.66 4.23h-3c-.55228475 0-1-.4477153-1-1v-11c-.00159147-6.6291675 2.63044574-12.9874245 7.31703735-17.67589146 4.68659165-4.688467 11.04379505-7.32304781 17.67296265-7.32410854h11.99c9.3888407 0 17 7.61115925 17 17 0 2.45 2 4.15 3.55 5.1.3254592.202559.5064789.573345.4660159.9545492-.040463.3812041-.2952865.7057275-.6560159.8354508z" fill="#e64c3c"/><path id="Shape" d="m8.516 13c-.38376734.0004567-.7339432-.2187501-.90120876-.5641481-.16726555-.3453981-.1221112-.756051.11620876-1.0568519 3.7244653-4.70555619 9.2024084-7.69414867 15.175-8.279.3580964-.03815015.709048.11919008.918802.41192152.2097541.29273144.2459098.67563579.0946568 1.00245529s-.4665506.54707024-.8254588.57662319c-5.4298301.53172166-10.4096204 3.24977596-13.794 7.529-.18951939.2398344-.47832353.379816-.784.38z" fill="#fb7b76"/><g fill="#fff"><path id="Shape" d="m44.921 12.775c.5567748 1.0396736.9024075 2.1792079 1.017 3.353.0573498.5008329.4839223.877322.988.872h2.007c.2823753-.0019755.5510558-.1219572.7410066-.3309031s.2838589-.4878116.2589934-.7690969c-.1519186-1.8114394-.6852568-3.570263-1.565-5.161-.1352983-.2473553-.3680968-.4266621-.641797-.4943268-.2737001-.0676648-.5632317-.0174896-.798203.1383268l-1.672 1.117c-.421123.2769147-.5656144.8268445-.335 1.275z"/><path id="Shape" d="m40 5.706v2.148c.0065651.40614041.2537117.76959138.629.925.4304224.18910584.8447832.41284062 1.239.669.4545962.29156029 1.0591496.16315958 1.356-.288l1.113-1.667c.1492711-.2270787.2009447-.50464937.1433893-.77023169-.0575553-.26558232-.2195031-.49685826-.4493893-.64176831-.8436787-.54446744-1.7477346-.9891126-2.694-1.325-.3076219-.10670199-.6478515-.05808054-.9132733.13051381-.2654217.18859436-.4232763.4938847-.4237267.81948619z"/><rect id="Rectangle-path" height="4" rx="1" width="4" x="32" y="4"/><path id="Shape" d="m6 22c1.32608245 0 2.59785201.5267842 3.53553391 1.4644661.93768189.9376819 1.46446609 2.2094515 1.46446609 3.5355339 0 1.6568542-1.34314575 3-3 3h-2c-1.1045695 0-2-.8954305-2-2v-4c0-1.1045695.8954305-2 2-2z" transform="matrix(-1 0 0 -1 15 52)"/></g><circle id="Oval" cx="6" cy="16" fill="#fb7b76" r="1"/></g></g></svg>