<svg height="512" viewBox="0 0 60 60" width="512" xmlns="http://www.w3.org/2000/svg"><g id="Page-1" fill="none" fill-rule="evenodd"><g id="022---Rope" fill-rule="nonzero" transform="translate(0 -1)"><path id="Shape" d="m55 23.31v17.69c-.0099183 8.2801595-6.7198405 14.9900817-15 15l-1-2 1-2c6.0735321-.0038613 10.9961387-4.9264679 11-11v-17.46z" fill="#c03a2b"/><path id="Shape" d="m5.01 38.69v-17.69c.00991835-8.2801595 6.7198405-14.99008165 15-15l.99 2-.99 2c-6.0735321.0038613-10.99613871 4.9264679-11 11v17.46z" fill="#c03a2b"/><path id="Shape" d="m43 21c0-1.1045695-.8954305-2-2-2 1.1045695 0 2-.8954305 2-2s-.8954305-2-2-2h-1v-11c0-1.1045695-.8954305-2-2-2s-2 .8954305-2 2c0-1.1045695-.8954305-2-2-2s-2 .8954305-2 2c0-1.1045695-.8954305-2-2-2s-2 .8954305-2 2c0-1.1045695-.8954305-2-2-2s-2 .8954305-2 2c0-1.1045695-.8954305-2-2-2s-2 .8954305-2 2v11h-1c-1.1045695 0-2 .8954305-2 2s.8954305 2 2 2c-1.1045695 0-2 .8954305-2 2s.8954305 2 2 2c-1.1045695 0-2 .8954305-2 2s.8954305 2 2 2c-1.1045695 0-2 .8954305-2 2s.8954305 2 2 2c-1.1045695 0-2 .8954305-2 2s.8954305 2 2 2c-1.1045695 0-2 .8954305-2 2s.8954305 2 2 2c-1.1045695 0-2 .8954305-2 2s.8954305 2 2 2c-1.1045695 0-2 .8954305-2 2s.8954305 2 2 2h1v11c0 1.1045695.8954305 2 2 2s2-.8954305 2-2c0 1.1045695.8954305 2 2 2s2-.8954305 2-2c0 1.1045695.8954305 2 2 2s2-.8954305 2-2c0 1.1045695.8954305 2 2 2s2-.8954305 2-2c0 1.1045695.8954305 2 2 2s2-.8954305 2-2v-11h1c1.1045695 0 2-.8954305 2-2s-.8954305-2-2-2c1.1045695 0 2-.8954305 2-2s-.8954305-2-2-2c1.1045695 0 2-.8954305 2-2s-.8954305-2-2-2c1.1045695 0 2-.8954305 2-2s-.8954305-2-2-2c1.1045695 0 2-.8954305 2-2s-.8954305-2-2-2c1.1045695 0 2-.8954305 2-2s-.8954305-2-2-2c1.1045695 0 2-.8954305 2-2z" fill="#fb7b76"/><path id="Shape" d="m52.812 25c-2.6571653-.0038588-4.8097972-2.1578328-4.812-4.815v-13.185c-.006728-2.27687818 1.2758955-4.3613805 3.3114009-5.38164377 2.0355055-1.02026326 4.4731197-.8004683 6.2932871.56745353 1.8201674 1.36792184 2.7092235 3.64824032 2.295312 5.88719024l-2.354 12.973c-.4144196 2.2892473-2.4075442 3.9539736-4.734 3.954zm1.188-22c-2.209139 0-4 1.790861-4 4v13.185c-.0023895 1.4569844 1.1088624 2.6743051 2.5600304 2.8043847s2.7612011-.8702023 3.0179696-2.3043847l2.356-12.969c.2122817-1.16677687-.1041227-2.3675978-.8637928-3.27827505-.7596701-.91067726-1.8842765-1.43731099-3.0702072-1.43772495z" fill="#e64c3c"/><path id="Shape" d="m6.01 61c-1.78026037.0019952-3.46947963-.7866809-4.61097909-2.1528104-1.14149945-1.3661296-1.61739212-3.1686272-1.29902091-4.9201896l2.357-12.973c.44406449-2.4531788 2.6872374-4.1616961 5.17021918-3.937908 2.48298172.2237881 4.38451342 2.3058624 4.38278082 4.798908v13.185c-.0033074 3.3123376-2.68766243 5.9966926-6 6zm1.19-22c-1.36107351-.0009551-2.52759081.9726868-2.77 2.312l-2.364 12.972c-.24986727 1.481907.35197299 2.9788221 1.55809593 3.8753429 1.20612293.8965207 2.81298062 1.0413483 4.1599716.374942 1.34699098-.6664062 2.20679413-2.0315821 2.22593247-3.5342849v-13.185c-.001646-1.5520486-1.25795682-2.8105948-2.81-2.815z" fill="#e64c3c"/><rect id="Rectangle-path" fill="#c03a2b" height="4" rx="2" width="26" x="17" y="15"/><rect id="Rectangle-path" fill="#e64c3c" height="4" rx="2" width="26" x="17" y="19"/><rect id="Rectangle-path" fill="#c03a2b" height="4" rx="2" width="26" x="17" y="23"/><rect id="Rectangle-path" fill="#e64c3c" height="4" rx="2" width="26" x="17" y="27"/><rect id="Rectangle-path" fill="#c03a2b" height="4" rx="2" width="26" x="17" y="31"/><rect id="Rectangle-path" fill="#e64c3c" height="4" rx="2" width="26" x="17" y="35"/><rect id="Rectangle-path" fill="#c03a2b" height="4" rx="2" width="26" x="17" y="39"/><g fill="#e64c3c"><rect id="Rectangle-path" height="4" rx="2" width="26" x="17" y="43"/><path id="Shape" d="m26 2c1.1045695 0 2 .8954305 2 2v11h-4v-11c0-1.1045695.8954305-2 2-2z"/><path id="Shape" d="m34 2c1.1045695 0 2 .8954305 2 2v11h-4v-11c0-1.1045695.8954305-2 2-2z"/><path id="Shape" d="m24 47h4v11c0 1.1045695-.8954305 2-2 2s-2-.8954305-2-2z"/><path id="Shape" d="m32 47h4v11c0 1.1045695-.8954305 2-2 2s-2-.8954305-2-2z"/></g><rect id="Rectangle-path" fill="#f0c419" height="6" rx="2" width="4" x="47" y="11"/><rect id="Rectangle-path" fill="#f0c419" height="6" rx="2" transform="matrix(-1 0 0 -1 22.022 96)" width="4" x="9.011" y="45"/></g></g></svg>