<svg height="512" viewBox="0 0 60 58" width="512" xmlns="http://www.w3.org/2000/svg"><g id="Page-1" fill="none" fill-rule="evenodd"><g id="023---Sign-Post" fill-rule="nonzero"><path id="Rectangle-path" d="m28 16h4v7h-4z" fill="#a56a43"/><path id="Rectangle-path" d="m28 33h4v11h-4z" fill="#a56a43"/><path id="Shape" d="m39 45v4h-18v-4c.0032948-1.1032019.8967981-1.9967052 2-2h14c1.1032019.0032948 1.9967052.8967981 2 2z" fill="#7f8c8d"/><path id="Shape" d="m32 2v4h-4v-4c0-1.1045695.8954305-2 2-2s2 .8954305 2 2z" fill="#a56a43"/><path id="Shape" d="m50.3 12.52-4.67 4c-.3617365.3107427-.8231215.4811002-1.3.48h-19.33c-1.1032019-.0032948-1.9967052-.8967981-2-2v-8c.0032948-1.10320187.8967981-1.9967052 2-2h19.33c.4768785-.00110022.9382635.16925734 1.3.48l4.67 4c.4443328.37997648.7001539.9353516.7001539 1.52s-.2558211 1.1400235-.7001539 1.52z" fill="#f29c1f"/><path id="Shape" d="m37 24v8c-.0032948 1.1032019-.8967981 1.9967052-2 2h-19.33c-.4768785.0011002-.9382635-.1692573-1.3-.48l-4.67-4c-.44433278-.3799765-.70015386-.9353516-.70015386-1.52s.25582108-1.1400235.70015386-1.52l4.67-4c.3617365-.3107427.8231215-.4811002 1.3-.48h19.33c1.1032019.0032948 1.9967052.8967981 2 2z" fill="#e64c3c"/><g fill="#fff"><path id="Shape" d="m42 10h-14c-.5522847 0-1-.44771525-1-1s.4477153-1 1-1h14c.5522847 0 1 .44771525 1 1s-.4477153 1-1 1z"/><path id="Shape" d="m35 14h-7c-.5522847 0-1-.4477153-1-1s.4477153-1 1-1h7c.5522847 0 1 .4477153 1 1s-.4477153 1-1 1z"/><path id="Shape" d="m32 27h-14c-.5522847 0-1-.4477153-1-1s.4477153-1 1-1h14c.5522847 0 1 .4477153 1 1s-.4477153 1-1 1z"/><path id="Shape" d="m25 31h-7c-.5522847 0-1-.4477153-1-1s.4477153-1 1-1h7c.5522847 0 1 .4477153 1 1s-.4477153 1-1 1z"/></g><path id="Shape" d="m4 49c-.55228475 0-1-.4477153-1-1 0-1.522-.467-5.777-2.555-7.169-.29724497-.1982824-.46612825-.5400812-.44303314-.8966441.02309512-.3565629.23465992-.6737195.555-.832.32034009-.1582805.70078817-.1336383.99803314.0646441 3.406 2.271 3.445 8.566 3.445 8.833 0 .5522847-.44771525 1-1 1z" fill="#4c8056"/><path id="Shape" d="m4 49c-.55228475 0-1-.4477153-1-1 0-3.678 3.533-4.9 3.684-4.949.52467051-.1761788 1.09282116.1063295 1.269.631s-.10632949 1.0928212-.631 1.269c-1.32123218.4506623-2.23879372 1.6555052-2.322 3.049 0 .5522847-.44771525 1-1 1z" fill="#24ae5f"/><path id="Shape" d="m4 49c-.43060741.0001037-.81292807-.2754572-.949-.684-.738-2.216-2.024-2.316-2.078-2.316-.54325089-.0310288-.96539074-.4849284-.957-1.029.00871508-.5376809.44625071-.9694361.984-.971.111 0 2.735.042 3.949 3.684.10157618.3049726.05035646.6401819-.1376576.9009053-.18801407.2607235-.48989882.4151721-.8113424.4150947z" fill="#24ae5f"/><path id="Shape" d="m56 49c-.5522847 0-1-.4477153-1-1 0-.267.039-6.562 3.445-8.832.4595009-.306518 1.080482-.1825009 1.387.277s.1825009 1.080482-.277 1.387c-2.096 1.397-2.555 5.648-2.555 7.168 0 .5522847-.4477153 1-1 1z" fill="#4c8056"/><path id="Shape" d="m56 49c-.5522847 0-1-.4477153-1-1-.0816303-1.3949872-.9994793-2.6017886-2.322-3.053-.3394023-.1139677-.5922219-.4003472-.6632241-.7512621s.0505999-.7130528.319-.95.6428218-.3127056.9822241-.1987379c.151.053 3.684 1.275 3.684 4.953 0 .5522847-.4477153 1-1 1z" fill="#24ae5f"/><path id="Shape" d="m56 49c-.3214436.0000774-.6233283-.1543712-.8113424-.4150947-.1880141-.2607234-.2392338-.5959327-.1376576-.9009053 1.214-3.642 3.838-3.684 3.949-3.684.5522847-.0063513 1.0051487.4362153 1.0115.9885.0063512.5522847-.4362153 1.0051487-.9885 1.0115-.092.006-1.349.139-2.074 2.316-.1360719.4085428-.5183926.6841037-.949.684z" fill="#24ae5f"/><path id="Shape" d="m59 50.19v6.81c0 .5522847-.4477153 1-1 1h-56c-.55228475 0-1-.4477153-1-1v-6.81l5.92 1.63c.87040172.2401798 1.78959828.2401798 2.66 0l4.58-1.26c.8704017-.2401798 1.7895983-.2401798 2.66 0l4.59 1.26c.8704017.2401798 1.7895983.2401798 2.66 0l4.59-1.26c.8704017-.2401798 1.7895983-.2401798 2.66 0l4.59 1.26c.8704017.2401798 1.7895983.2401798 2.66 0l4.59-1.26c.8704017-.2401798 1.7895983-.2401798 2.66 0l4.6 1.26c.8670332.2399868 1.7829668.2399868 2.65 0z" fill="#805333"/><path id="Shape" d="m59 49v3l-5.93 1.63c-.8670332.2399868-1.7829668.2399868-2.65 0l-4.6-1.26c-.8704017-.2401798-1.7895983-.2401798-2.66 0l-4.59 1.26c-.8704017.2401798-1.7895983.2401798-2.66 0l-4.59-1.26c-.8704017-.2401798-1.7895983-.2401798-2.66 0l-4.59 1.26c-.8704017.2401798-1.7895983.2401798-2.66 0l-4.59-1.26c-.8704017-.2401798-1.7895983-.2401798-2.66 0l-4.58 1.26c-.87040172.2401798-1.78959828.2401798-2.66 0l-5.92-1.63v-3c0-.5522847.44771525-1 1-1h56c.5522847 0 1 .4477153 1 1z" fill="#4fba6f"/></g></g></svg>