<svg height="512" viewBox="0 0 58 58" width="512" xmlns="http://www.w3.org/2000/svg"><g id="Page-1" fill="none" fill-rule="evenodd"><g id="024---Jacket" fill-rule="nonzero" transform="translate(-1)"><path id="Shape" d="m58.93 32.48-.75-1.85c-.2082133-.515303-.7936322-.7655585-1.31-.56l-.25.1-9.74-21.1c-1.1465704-2.47940042-3.6283258-4.06756779-6.36-4.07h-.56c.1605466-1.28855478-.1834452-2.58927368-.96-3.63l-1.03-1.37h-15.94l-1.03 1.37c-.7765548 1.04072632-1.1205466 2.34144522-.96 3.63h-.56c-2.7316742.00243221-5.2134296 1.59059958-6.36 4.07l-9.74 21.1-.25-.1c-.51636779-.2055585-1.10178674.044697-1.31.56l-.75 1.85c-.0983792.246631-.09463093.5222628.01041844.7661274.10504937.2438647.30277388.4359375.54958156.5338726l6.84 2.77c.2452229.1006036.52046987.0990998.76457893-.0041771.24410905-.1032769.43685963-.2997721.53542107-.5458229l.75-1.85c.102074-.2465323.1013884-.5236343-.0019042-.7696585-.1032926-.2460243-.3006248-.4405647-.5480958-.5403415l-.22-.09 3.25-5.42 2-3.33v30c0 2.209139 1.790861 4 4 4h22c2.209139 0 4-1.790861 4-4v-30l2 3.33 3.25 5.42-.22.09c-.247471.0997768-.4448032.2943172-.5480958.5403415-.1032926.2460242-.1039782.5231262-.0019042.7696585l.75 1.85c.0985614.2460508.291312.442546.5354211.5458229.244109.1032769.519356.1047807.7645789.0041771l6.84-2.77c.2468077-.0979351.4445322-.2900079.5495816-.5338726.1050493-.2438646.1087976-.5194964.0104184-.7661274z" fill="#f29c1f"/><path id="Shape" d="m30 7v5c-2.9490017-.6896314-5.7280516-1.9686066-8.17-3.76-.9991768-.80287663-1.6421913-1.96676873-1.79-3.24-.1605466-1.28855478.1834452-2.58927368.96-3.63l1.03-1.37c0 .07.03 5.01 7.97 7z" fill="#e57e25"/><path id="Shape" d="m39.96 5c-.1478087 1.27323127-.7908232 2.43712337-1.79 3.24-2.4419484 1.7913934-5.2209983 3.0703686-8.17 3.76v-5c7.94-1.99 7.97-6.93 7.97-7l1.03 1.37c.7765548 1.04072632 1.1205466 2.34144522.96 3.63z" fill="#d25627"/><path id="Shape" d="m37.97 0c0 .07-.03 5.01-7.97 7-7.94-1.99-7.97-6.93-7.97-7z" fill="#c03a2b"/><path id="Shape" d="m10.52 34.15-.75 1.85c-.09856144.2460508-.29131202.442546-.53542107.5458229-.24410906.1032769-.51935603.1047807-.76457893.0041771l-6.84-2.77c-.24680768-.0979351-.44453219-.2900079-.54958156-.5338726-.10504937-.2438646-.10879764-.5194964-.01041844-.7661274l.75-1.85c.20821326-.515303.79363221-.7655585 1.31-.56l.25.1 6.37 2.58.22.09c.247471.0997768.4448032.2943172.5480958.5403415.1032926.2460242.1039782.5231262.0019042.7696585z" fill="#f3d55b"/><path id="Shape" d="m15 17v7l-2 3.33v-10.33c0-.5522847.4477153-1 1-1s1 .4477153 1 1z" fill="#c03a2b"/><path id="Shape" d="m58.37 33.78-6.84 2.77c-.2452229.1006036-.5204699.0990998-.7645789-.0041771-.2441091-.1032769-.4368597-.2997721-.5354211-.5458229l-.75-1.85c-.102074-.2465323-.1013884-.5236343.0019042-.7696585.1032926-.2460243.3006248-.4405647.5480958-.5403415l.22-.09 6.37-2.58.25-.1c.5163678-.2055585 1.1017867.044697 1.31.56l.75 1.85c.0983792.246631.0946309.5222628-.0104184.7661274-.1050494.2438647-.3027739.4359375-.5495816.5338726z" fill="#f3d55b"/><path id="Shape" d="m56.62 30.17-6.37 2.58-3.25-5.42-2-3.33v30c0 2.209139-1.790861 4-4 4h-11v-46c2.9490017-.6896314 5.7280516-1.9686066 8.17-3.76.9991768-.80287663 1.6421913-1.96676873 1.79-3.24h.56c2.7316742.00243221 5.2134296 1.59059958 6.36 4.07z" fill="#e57e25"/><path id="Shape" d="m47 17v10.33l-2-3.33v-7c0-.5522847.4477153-1 1-1s1 .4477153 1 1z" fill="#c03a2b"/><g fill="#d25627"><path id="Shape" d="m34 52h-7c-.5522847 0-1-.4477153-1-1s.4477153-1 1-1h7c.5522847 0 1 .4477153 1 1s-.4477153 1-1 1z"/><path id="Shape" d="m34 44h-7c-.5522847 0-1-.4477153-1-1s.4477153-1 1-1h7c.5522847 0 1 .4477153 1 1s-.4477153 1-1 1z"/><path id="Shape" d="m34 36h-7c-.5522847 0-1-.4477153-1-1s.4477153-1 1-1h7c.5522847 0 1 .4477153 1 1s-.4477153 1-1 1z"/><path id="Shape" d="m34 28h-7c-.5522847 0-1-.4477153-1-1s.4477153-1 1-1h7c.5522847 0 1 .4477153 1 1s-.4477153 1-1 1z"/><path id="Shape" d="m34 20h-7c-.5522847 0-1-.4477153-1-1s.4477153-1 1-1h7c.5522847 0 1 .4477153 1 1s-.4477153 1-1 1z"/></g><circle id="Oval" cx="36" cy="19" fill="#f0c419" r="2"/><circle id="Oval" cx="36" cy="27" fill="#f0c419" r="2"/><circle id="Oval" cx="36" cy="35" fill="#f0c419" r="2"/><circle id="Oval" cx="36" cy="43" fill="#f0c419" r="2"/><circle id="Oval" cx="36" cy="51" fill="#f0c419" r="2"/></g></g></svg>