<svg height="512" viewBox="0 0 58 58" width="512" xmlns="http://www.w3.org/2000/svg"><g id="Page-1" fill="none" fill-rule="evenodd"><g id="025---Tent-Scene" fill-rule="nonzero"><path id="Shape" d="m18.84 25.36-10.78 3.31c-.38049703.1212757-.71751434.3505864-.97.66-.17410087.2215787-.30011314.477009-.37.75l-3.4 12.92-1.32 5 11 2h32l11-2-1.32-5-3.4-12.92c-.0698869-.272991-.1958991-.5284213-.37-.75-.2524857-.3094136-.589503-.5387243-.97-.66l-10.78-3.31z" fill="#d25627"/><path id="Shape" d="m58 52v5c0 .5522847-.4477153 1-1 1h-56c-.55228475 0-1-.4477153-1-1v-5l5.92 1.63c.87040172.2401798 1.78959828.2401798 2.66 0l4.58-1.26c.8704017-.2401798 1.7895983-.2401798 2.66 0l4.59 1.26c.8704017.2401798 1.7895983.2401798 2.66 0l4.59-1.26c.8704017-.2401798 1.7895983-.2401798 2.66 0l4.59 1.26c.8704017.2401798 1.7895983.2401798 2.66 0l4.59-1.26c.8704017-.2401798 1.7895983-.2401798 2.66 0l4.6 1.26c.8670332.2399868 1.7829668.2399868 2.65 0z" fill="#805333"/><path id="Shape" d="m58 49v3l-5.93 1.63c-.8670332.2399868-1.7829668.2399868-2.65 0l-4.6-1.26c-.8704017-.2401798-1.7895983-.2401798-2.66 0l-4.59 1.26c-.8704017.2401798-1.7895983.2401798-2.66 0l-4.59-1.26c-.8704017-.2401798-1.7895983-.2401798-2.66 0l-4.59 1.26c-.8704017.2401798-1.7895983.2401798-2.66 0l-4.59-1.26c-.8704017-.2401798-1.7895983-.2401798-2.66 0l-4.58 1.26c-.87040172.2401798-1.78959828.2401798-2.66 0l-5.92-1.63v-3c0-.5522847.44771525-1 1-1h56c.5522847 0 1 .4477153 1 1z" fill="#4fba6f"/><path id="Shape" d="m45 48h-4.39l-5.48-21.25c-.6692214-2.6041425-2.911009-4.5010397-5.59-4.73 4.88.28 8.72 4.37 10.45 6.58l3.72 14.4z" fill="#f29c1f"/><path id="Shape" d="m39.99 28.6c-1.73-2.21-5.57-6.3-10.45-6.58-.18-.01-.36-.02-.54-.02s-.36.01-.54.02c-4.88.28-8.72 4.37-10.45 6.58l.83-3.24.16-.61c1.1759826-4.5613181 5.2895268-7.7488361 10-7.7488361s8.8240174 3.187518 10 7.7488361l.16.61z" fill="#f3d55b"/><path id="Shape" d="m40.61 48h-3.61s-8-5-8-20c0 15-8 20-8 20h-3.61l5.48-21.25c.6692214-2.6041425 2.911009-4.5010397 5.59-4.73.18-.01.36-.02.54-.02s.36.01.54.02c2.678991.2289603 4.9207786 2.1258575 5.59 4.73z" fill="#e57e25"/><path id="Shape" d="m50.91 29.33-3.91 13.67h-3.29l-3.72-14.4-.83-3.24 10.78 3.31c.380497.1212757.7175143.3505864.97.66z" fill="#e57e25"/><path id="Shape" d="m56 48h-11l-1.29-5h10.97z" fill="#f3d55b"/><path id="Shape" d="m18.84 25.36-.83 3.24-.01.01-3.71 14.39h-3.29l-3.91-13.67c.25248566-.3094136.58950297-.5387243.97-.66z" fill="#e57e25"/><path id="Shape" d="m28.46 22.02c-2.678991.2289603-4.9207786 2.1258575-5.59 4.73l-5.48 21.25h-4.39l1.29-5 3.71-14.39.01-.01c1.73-2.21 5.57-6.3 10.45-6.58z" fill="#f29c1f"/><path id="Shape" d="m14.29 43-1.29 5h-11l1.32-5z" fill="#f3d55b"/><circle id="Oval" cx="8" cy="8" fill="#bdc3c7" r="8"/><g fill="#7f8c8d"><circle id="Oval" cx="9" cy="5" r="1"/><circle id="Oval" cx="4" cy="8" r="2"/><circle id="Oval" cx="10" cy="11" r="2"/></g><path id="Shape" d="m53.389 5.231 1.133 2.069c.040996.07401443.1019856.135004.176.176l2.071 1.133c.142413.07759942.2310377.22681762.2310377.389s-.0886247.31140058-.2310377.389l-2.069 1.135c-.0740144.040996-.135004.1019856-.176.176l-1.133 2.071c-.0775994.142413-.2268176.2310377-.389.2310377s-.3114006-.0886247-.389-.2310377l-1.135-2.069c-.040996-.0740144-.1019856-.135004-.176-.176l-2.071-1.133c-.142413-.07759942-.2310377-.22681762-.2310377-.389s.0886247-.31140058.2310377-.389l2.069-1.135c.0740144-.040996.135004-.10198557.176-.176l1.133-2.071c.0772808-.14344173.2270649-.23288337.39-.23288337s.3127192.08944164.39.23288337z" fill="#f9eab0"/><path id="Shape" d="m39.389 7.231 1.133 2.069c.040996.07401443.1019856.135004.176.176l2.071 1.133c.142413.0775994.2310377.2268176.2310377.389s-.0886247.3114006-.2310377.389l-2.069 1.135c-.0740144.040996-.135004.1019856-.176.176l-1.133 2.071c-.0775994.142413-.2268176.2310377-.389.2310377s-.3114006-.0886247-.389-.2310377l-1.135-2.069c-.040996-.0740144-.1019856-.135004-.176-.176l-2.071-1.133c-.142413-.0775994-.2310377-.2268176-.2310377-.389s.0886247-.3114006.2310377-.389l2.069-1.135c.0740144-.040996.135004-.10198557.176-.176l1.133-2.071c.0772808-.14344173.2270649-.23288337.39-.23288337s.3127192.08944164.39.23288337z" fill="#f9eab0"/><path id="Shape" d="m25.389 2.231 1.133 2.069c.040996.07401443.1019856.135004.176.176l2.071 1.133c.142413.07759942.2310377.22681762.2310377.389s-.0886247.31140058-.2310377.389l-2.069 1.135c-.0740144.040996-.135004.10198557-.176.176l-1.133 2.071c-.0775994.14241297-.2268176.2310377-.389.2310377s-.3114006-.08862473-.389-.2310377l-1.135-2.069c-.040996-.07401443-.1019856-.135004-.176-.176l-2.071-1.135c-.142413-.07759942-.2310377-.22681762-.2310377-.389s.0886247-.31140058.2310377-.389l2.069-1.133c.0740144-.040996.135004-.10198557.176-.176l1.133-2.071c.0772808-.14344173.2270649-.23288337.39-.23288337s.3127192.08944164.39.23288337z" fill="#f9eab0"/></g></g></svg>