<svg height="512" viewBox="0 0 58 50" width="512" xmlns="http://www.w3.org/2000/svg"><g id="Page-1" fill="none" fill-rule="evenodd"><g id="026---Head-Lamp" fill-rule="nonzero"><path id="Shape" d="m26 15.03v3.49c-1.0105173.3565004-1.9487574.8916698-2.77 1.58-8.26.29-15.25 1.17-19.34 2.4h-.01c-2.47-.74-3.88-1.59-3.88-2.5 0-2.58 11.39-4.71 26-4.97z" fill="#393f4a"/><path id="Shape" d="m58 20c0 .91-1.41 1.76-3.88 2.5h-.01c-4.09-1.23-11.08-2.11-19.34-2.4-.8212426-.6883302-1.7594827-1.2234996-2.77-1.58v-3.49c14.61.26 26 2.39 26 4.97z" fill="#393f4a"/><path id="Shape" d="m58 20v5c0 2.24-8.6 4.15-20.44 4.78.2941444-.8972332.4426923-1.8357855.44-2.78-.0012785-.7520191-.095322-1.5010086-.28-2.23 5.5283341-.1737702 11.0225351-.934712 16.39-2.27h.01c2.47-.74 3.88-1.59 3.88-2.5z" fill="#464f5d"/><path id="Shape" d="m20.44 29.78c-11.84-.63-20.44-2.54-20.44-4.78v-5c0 .91 1.41 1.76 3.88 2.5h.01c5.36746491 1.335288 10.8616659 2.0962298 16.39 2.27-.184678.7289914-.2787215 1.4779809-.28 2.23-.0026923.9442145.1458556 1.8827668.44 2.78z" fill="#464f5d"/><path id="Shape" d="m32 1v17.52c-1.9399133-.6933206-4.0600867-.6933206-6 0v-17.52c0-.55228475.4477153-1 1-1h4c.5522847 0 1 .44771525 1 1z" fill="#464f5d"/><path id="Shape" d="m38 27c.0026923.9442145-.1458556 1.8827668-.44 2.78-1.2043942 3.7089743-4.6603775 6.2203597-8.56 6.2203597s-7.3556058-2.5113854-8.56-6.2203597c-.2941444-.8972332-.4426923-1.8357855-.44-2.78.0012785-.7520191.095322-1.5010086.28-2.23.7484244-2.9050549 2.8924603-5.2477514 5.72-6.25 1.9399133-.6933206 4.0600867-.6933206 6 0 2.8275397 1.0022486 4.9715756 3.3449451 5.72 6.25.184678.7289914.2787215 1.4779809.28 2.23z" fill="#f0c419"/><path id="Shape" d="m37.05 22.97c-.3409061-.1703885-.6915075-.3206463-1.05-.45-1.9399133-.6933206-4.0600867-.6933206-6 0-2.8275397 1.0022486-4.9715756 3.3449451-5.72 6.25-.184678.7289914-.2787215 1.4779809-.28 2.23-.0026923.9442145.1458556 1.8827668.44 2.78.1360388.4344398.3100432.856066.52 1.26-2.1497536-1.0779474-3.7777938-2.9725252-4.52-5.26-.2941444-.8972332-.4426923-1.8357855-.44-2.78.0012785-.7520191.095322-1.5010086.28-2.23.7484244-2.9050549 2.8924603-5.2477514 5.72-6.25 1.9399133-.6933206 4.0600867-.6933206 6 0 1.0105173.3565004 1.9487574.8916698 2.77 1.58.9465764.7923332 1.7222714 1.7687563 2.28 2.87z" fill="#f3d55b"/><path id="Shape" d="m29 37c-4.3360822.009372-8.1810432-2.7849052-9.511-6.912-.326262-.9967593-.4913385-2.0392052-.489-3.088.0014408-.8339945.1058985-1.6646175.311-2.473.5201567-2.0347595 1.667743-3.8541037 3.28-5.2 3.7109405-3.1025902 9.1110595-3.1025902 12.822 0 1.6090181 1.3438437 2.7550089 3.1593786 3.276 5.19.2054963.8117064.3099537 1.6456859.311 2.483 0 5.5228475-4.4771525 10-10 10zm0-18c-.9066369-.0021244-1.8067289.1535306-2.66.46-.9000031.3162505-1.7354327.7925742-2.466 1.406-1.8215701 1.5162683-2.8746851 3.7639395-2.874 6.134-.0024283.8379511.1295822 1.6708664.391 2.467 1.0698645 3.2966087 4.1408161 5.5293735 7.6066836 5.5305123 3.4658675.0011389 6.5382857-2.2296074 7.6103164-5.5255123.2618479-.7977768.3941917-1.6323528.392-2.472-.0006845-.6701333-.0846616-1.3375831-.25-1.987-.4181061-1.621495-1.3344861-3.0709144-2.62-4.144-.7295536-.6132764-1.5639729-1.0896035-2.463-1.406-.8553003-.3082925-1.7578361-.4649757-2.667-.463z" fill="#bdc3c7"/><path id="Shape" d="m25 24.5c-.4643791.0008998-.868272-.3180058-.9751118-.7699285-.1068397-.4519226.1114908-.9179291.5271118-1.1250715l3-1.5c.4942948-.2468713 1.0951287-.0462948 1.342.448.2468713.4942949.0462948 1.0951287-.448 1.342l-3 1.5c-.1385366.0690463-.2912105.1049898-.446.105z" fill="#fff"/><path id="Shape" d="m24 30c-.4684292.0057459-.8780642-.3144677-.985575-.7704286-.1075108-.455961.1159217-.9254452.537575-1.1295714l10-5c.3197527-.1596977.7004141-.1366785.9985928.0603866.2981786.1970651.4685741.5382372.447.895-.0215741.3567629-.2318401.6749157-.5515928.8346134l-10 5c-.1381167.0707786-.2908117.1084388-.446.11z" fill="#fff"/><path id="Shape" d="m28 33c-.4684292.0057459-.8780642-.3144677-.985575-.7704286-.1075108-.455961.1159217-.9254452.537575-1.1295714l6-3c.3197527-.1596977.7004141-.1366785.9985928.0603866.2981786.1970651.4685741.5382372.447.895-.0215741.3567629-.2318401.6749157-.5515928.8346134l-6 3c-.1381167.0707786-.2908117.1084388-.446.11z" fill="#fff"/><g fill="#9fc9d3"><path id="Shape" d="m17 40c-.4043959-.0000863-.7689341-.2437275-.923678-.6173454-.1547439-.373618-.0692299-.8036603.216678-1.0896546l3-3c.3923789-.3789722 1.0160848-.3735524 1.4018186.0121814s.3911536 1.0094397.0121814 1.4018186l-3 3c-.1874927.1875494-.4418052.2929434-.707.293z"/><path id="Shape" d="m29 46c-.5522847 0-1-.4477153-1-1v-5c0-.5522847.4477153-1 1-1s1 .4477153 1 1v5c0 .5522847-.4477153 1-1 1z"/><circle id="Oval" cx="29" cy="49" r="1"/><circle id="Oval" cx="14" cy="42" r="1"/><path id="Shape" d="m41 40c-.2651948-.0000566-.5195073-.1054506-.707-.293l-3-3c-.3789722-.3923789-.3735524-1.0160848.0121814-1.4018186s1.0094397-.3911536 1.4018186-.0121814l3 3c.2859079.2859943.3714219.7160366.216678 1.0896546-.1547439.3736179-.5192821.6172591-.923678.6173454z"/><circle id="Oval" cx="44" cy="42" r="1"/></g></g></g></svg>