<svg height="512" viewBox="0 0 58 58" width="512" xmlns="http://www.w3.org/2000/svg"><g id="Page-1" fill="none" fill-rule="evenodd"><g id="028---Shovel" fill-rule="nonzero"><path id="Shape" d="m34.4 19.36-5.66-5.65c-.3755541-.3751365-.5865733-.8841815-.5865733-1.415s.2110192-1.0398635.5865733-1.415l7.07-7.07c5.0754969-5.07825815 13.3067416-5.08049666 18.3849999-.00499986 5.0782582 5.07549679 5.0804968 13.30674156.0050001 18.38499986l-7.08 7.07c-.3736892.3744562-.8809811.5848881-1.41.5848881s-1.0363108-.2104319-1.41-.5848881l-5.66-5.66z" fill="#95a5a5"/><path id="Shape" d="m51.367 7.636c-.2651948-.00005664-.5195073-.10545063-.707-.293-3.1265087-3.1188771-8.1874913-3.1188771-11.314 0-.2510745.25995658-.6228779.3642126-.9725073.27269716-.3496295-.09151544-.6226744-.3645604-.7141899-.71418984-.0915154-.34962943.0127406-.72143285.2726972-.97250732 3.9075094-3.89963924 10.2344906-3.89963924 14.142 0 .2859079.28599425.3714219.71603662.216678 1.08965456s-.5192821.61725909-.923678.61734544z" fill="#fff"/><path id="Shape" d="m8.37 45.39 22.51-22.51 3.12 1.12 1.12 3.12-22.52 22.52z" fill="#cb8252"/><path id="Shape" d="m13.17 53.6-.57-3.96c-.132251-1.0769067-.6299555-2.0758456-1.41-2.83-.7521231-.778952-1.74634287-1.2795874-2.82-1.42l-.01.01-3.96-.57c-.6215559-.0856044-1.24725971.1254318-1.69.57l-2.13 2.12c-.77014827.7861438-.77014827 2.0438562 0 2.83l7.08 7.07c.78230311.7700262 2.03769689.7700262 2.82 0l2.12-2.12c.4475961-.4449838.6588831-1.0751379.57-1.7zm-3.4.28c-.18626064.1847442-.43766012.2888954-.7.29-.26529773-.0010428-.519836-.1050091-.71-.29l-4.24-4.24c-.38997787-.3930079-.38997787-1.0269921 0-1.42.39003745-.3877236 1.01996255-.3877236 1.41 0l4.24 4.25c.191781.1843911.3001659.4389549.3001659.705s-.1083849.5206089-.3001659.705z" fill="#c03a2b"/><path id="Shape" d="m43.05 17.95c.0001806.7955571-.3164837 1.5584303-.88 2.12l-7.05 7.05-4.24-4.24 6.93-6.93c1.1163799-1.1693409 2.9430843-1.2867719 4.2-.27.6629005.567451 1.0431422 1.3974017 1.04 2.27z" fill="#7f8c8d"/><circle id="Oval" cx="35.81" cy="9.464" fill="#fff" r="1"/></g></g></svg>