<svg height="512" viewBox="0 0 58 58" width="512" xmlns="http://www.w3.org/2000/svg"><g id="Page-1" fill="none" fill-rule="evenodd"><g id="029---Mountains" fill-rule="nonzero"><path id="Shape" d="m58 51v5h-58v-5c0-.5522847.44771525-1 1-1h56c.5522847 0 1 .4477153 1 1z" fill="#4fba6f"/><path id="Shape" d="m38 50h-36l13.41-30.99 2.24 2.8c.0890425.1128919.2223747.1819878.3659523.1896453.1435775.0076575.2835026-.0468648.3840477-.1496453l1.25-1.25c.1944218-.1905714.5055782-.1905714.7 0l1.25 1.25c.1005451.1027805.2404702.1573028.3840477.1496453.1435776-.0076575.2769098-.0767534.3659523-.1896453l2.24-2.8 3.11 7.19 3.79 8.76v.01z" fill="#95a5a5"/><path id="Shape" d="m24.59 19.01-2.24 2.8c-.0890425.1128919-.2223747.1819878-.3659523.1896453-.1435775.0076575-.2835026-.0468648-.3840477-.1496453l-1.25-1.25c-.1944218-.1905714-.5055782-.1905714-.7 0l-1.25 1.25c-.1005451.1027805-.2404702.1573028-.3840477.1496453-.1435776-.0076575-.2769098-.0767534-.3659523-.1896453l-2.24-2.8 1.74-4.01 1.93-4.46c.1570883-.3687533.5191812-.60808164.92-.60808164s.7629117.23932834.92.60808164l1.93 4.46z" fill="#ecf0f1"/><path id="Shape" d="m8.09 47c-.13766556.000561-.27392302-.0277124-.4-.083-.50612293-.219569-.7388086-.8075479-.52-1.314l8.226-19c.1418344-.3279698.4478647-.5553586.8028121-.5965113s.704887.1101828.918.397c.213113.2868171.2570223.6655415.1151879.9935113l-8.226 19c-.15806481.3654296-.51785088.6022756-.916.603z" fill="#fff"/><path id="Shape" d="m49 50h-11l-6.51-15.03v-.01l1.73-3.94 1.43 1.79c.0890425.1128919.2223747.1819878.3659523.1896453.1435775.0076575.2835026-.0468648.3840477-.1496453l1.25-1.25c.1944218-.1905714.5055782-.1905714.7 0l1.25 1.25c.1005451.1027805.2404702.1573028.3840477.1496453.1435776-.0076575.2769098-.0767534.3659523-.1896453l1.37-1.71z" fill="#bdc3c7"/><path id="Shape" d="m40.72 31.1-1.37 1.71c-.0890425.1128919-.2223747.1819878-.3659523.1896453-.1435775.0076575-.2835026-.0468648-.3840477-.1496453l-1.25-1.25c-.1944218-.1905714-.5055782-.1905714-.7 0l-1.25 1.25c-.1005451.1027805-.2404702.1573028-.3840477.1496453-.1435776-.0076575-.2769098-.0767534-.3659523-.1896453l-1.43-1.79 2.81-6.42c.1570883-.3687533.5191812-.6080816.92-.6080816s.7629117.2393283.92.6080816z" fill="#ecf0f1"/><path id="Shape" d="m56 50h-7l-8.28-18.9-2.85-6.5c-.1570883-.3687533-.5191812-.6080816-.92-.6080816s-.7629117.2393283-.92.6080816l-2.81 6.42-1.73 3.94-3.79-8.76 4.61-11.31 2.34 2.92c.0890425.1128919.2223747.1819878.3659523.1896453.1435775.0076575.2835026-.0468648.3840477-.1496453l1.25-1.25c.1944218-.1905714.5055782-.1905714.7 0l1.25 1.25c.1005451.1027805.2404702.1573028.3840477.1496453.1435776-.0076575.2769098-.0767534.3659523-.1896453l2.34-2.92z" fill="#7f8c8d"/><path id="Shape" d="m41.69 14.89-2.34 2.92c-.0890425.1128919-.2223747.1819878-.3659523.1896453-.1435775.0076575-.2835026-.0468648-.3840477-.1496453l-1.25-1.25c-.1944218-.1905714-.5055782-.1905714-.7 0l-1.25 1.25c-.1005451.1027805-.2404702.1573028-.3840477.1496453-.1435776-.0076575-.2769098-.0767534-.3659523-.1896453l-2.34-2.92 3.77-9.26c.1474571-.37952523.5128354-.6295521.92-.6295521s.7725429.25002687.92.6295521l.56 1.38 2.39 5.85z" fill="#ecf0f1"/><path id="Shape" d="m27 10.73c.0452 2.31063-1.7894403 4.2213407-4.1 4.27h-.05l-1.93-4.46c-.1570883-.3687533-.5191812-.60808164-.92-.60808164s-.7629117.23932834-.92.60808164l-1.93 4.46h-10.05c-2.31055974-.0486593-4.14520003-1.95937-4.1-4.27-.03065463-2.09570337 1.48075564-3.89662321 3.55-4.23.48577476-1.42018447 1.80926179-2.38381098 3.31-2.41.3193684-2.31279024 2.2756342-4.04839263 4.61-4.09 1.840289.02058107 3.4984597 1.11559949 4.24 2.8.4563694-.17590262.9409111-.26738952 1.43-.27 2.238563.05078032 4.0208173 1.89095784 4 4.13 1.728091.60217494 2.8790623 2.24009572 2.86 4.07z" fill="#9fc9d3"/><path id="Shape" d="m58 8.32c.0496795 2.5311371-1.9589774 4.6247929-4.49 4.68h-11.64c-.3382007-.0002402-.674736-.0473552-1-.14l-2.39-5.85c.6598706-1.26416749 1.9640062-2.06049806 3.39-2.07.1704402.00002529.3407323.01004247.51.03.1297151-2.73951106 2.3580533-4.91104848 5.1-4.97 2.2918856.03408829 4.2852783 1.57906959 4.89 3.79.3716886-.10022327.7550367-.15066381 1.14-.15 2.5310226.05520715 4.5396795 2.14886286 4.49 4.68z" fill="#9fc9d3"/><path id="Shape" d="m58 54v3c0 .5522847-.4477153 1-1 1h-56c-.55228475 0-1-.4477153-1-1v-3z" fill="#805333"/></g></g></svg>