<svg height="512" viewBox="0 0 28 58" width="512" xmlns="http://www.w3.org/2000/svg"><g id="Page-1" fill="none" fill-rule="evenodd"><g id="030---Torch" fill-rule="nonzero"><path id="Shape" d="m22 18.48v36.52c0 1.1-3.58 3-8 3s-8-1.9-8-3v-36.52z" fill="#e64c3c"/><path id="Shape" d="m26.04 14.13c-1.0110631 1.7289511-2.3903764 3.2141028-4.04 4.35-3.1921113 2.2243882-7.1662166 3.0193341-10.9683646 2.1940175-3.80214799-.8253166-7.08902219-3.1963733-9.0716354-6.5440175z" fill="#c03a2b"/><rect id="Rectangle-path" fill="#f0c419" height="6" rx="2" width="4" x="12" y="25"/><g fill="#c03a2b"><path id="Shape" d="m22 27h-2c-.5522847 0-1-.4477153-1-1s.4477153-1 1-1h2c.5522847 0 1 .4477153 1 1s-.4477153 1-1 1z"/><path id="Shape" d="m22 32h-2c-.5522847 0-1-.4477153-1-1s.4477153-1 1-1h2c.5522847 0 1 .4477153 1 1s-.4477153 1-1 1z"/><path id="Shape" d="m22 37h-2c-.5522847 0-1-.4477153-1-1s.4477153-1 1-1h2c.5522847 0 1 .4477153 1 1s-.4477153 1-1 1z"/><path id="Shape" d="m22 42h-2c-.5522847 0-1-.4477153-1-1s.4477153-1 1-1h2c.5522847 0 1 .4477153 1 1s-.4477153 1-1 1z"/><path id="Shape" d="m22 47h-2c-.5522847 0-1-.4477153-1-1s.4477153-1 1-1h2c.5522847 0 1 .4477153 1 1s-.4477153 1-1 1z"/><path id="Shape" d="m22 52h-2c-.5522847 0-1-.4477153-1-1s.4477153-1 1-1h2c.5522847 0 1 .4477153 1 1s-.4477153 1-1 1z"/><path id="Shape" d="m8 27h-2c-.55228475 0-1-.4477153-1-1s.44771525-1 1-1h2c.55228475 0 1 .4477153 1 1s-.44771525 1-1 1z"/><path id="Shape" d="m8 32h-2c-.55228475 0-1-.4477153-1-1s.44771525-1 1-1h2c.55228475 0 1 .4477153 1 1s-.44771525 1-1 1z"/><path id="Shape" d="m8 37h-2c-.55228475 0-1-.4477153-1-1s.44771525-1 1-1h2c.55228475 0 1 .4477153 1 1s-.44771525 1-1 1z"/><path id="Shape" d="m8 42h-2c-.55228475 0-1-.4477153-1-1s.44771525-1 1-1h2c.55228475 0 1 .4477153 1 1s-.44771525 1-1 1z"/><path id="Shape" d="m8 47h-2c-.55228475 0-1-.4477153-1-1s.44771525-1 1-1h2c.55228475 0 1 .4477153 1 1s-.44771525 1-1 1z"/><path id="Shape" d="m8 52h-2c-.55228475 0-1-.4477153-1-1s.44771525-1 1-1h2c.55228475 0 1 .4477153 1 1s-.44771525 1-1 1z"/><path id="Shape" d="m16 37h-4c-.5522847 0-1-.4477153-1-1s.4477153-1 1-1h4c.5522847 0 1 .4477153 1 1s-.4477153 1-1 1z"/><path id="Shape" d="m16 42h-4c-.5522847 0-1-.4477153-1-1s.4477153-1 1-1h4c.5522847 0 1 .4477153 1 1s-.4477153 1-1 1z"/><path id="Shape" d="m16 47h-4c-.5522847 0-1-.4477153-1-1s.4477153-1 1-1h4c.5522847 0 1 .4477153 1 1s-.4477153 1-1 1z"/><path id="Shape" d="m16 52h-4c-.5522847 0-1-.4477153-1-1s.4477153-1 1-1h4c.5522847 0 1 .4477153 1 1s-.4477153 1-1 1z"/></g><path id="Shape" d="m27.75 9.62c-.2967362 1.5932095-.8758417 3.120558-1.71 4.51-3.6902582 2.0010517-7.8438667 2.991156-12.04 2.87-4.19613334.121156-8.34974177-.8689483-12.04-2.87h-.01c-.82683756-1.3919714-1.40227887-2.9185834-1.7-4.51z" fill="#e64c3c"/><path id="Shape" d="m28.000105 4-.000105 3c.0034949.87945094-.0802483 1.75708022-.25 2.62-3.16 1.45-8.15 2.38-13.75 2.38s-10.59-.93-13.75-2.38h-.01c-.16143612-.86395096-.24178542-1.74109745-.24-2.62l-.00002911-3z" fill="#bdc3c7"/><path id="Shape" d="m11 7.91c-6.29-.4-11-1.99-11-3.91 0-2.21 6.27-4 14-4s14 1.79 14 4c0 1.92-4.71 3.51-11 3.91z" fill="#f3d55b"/><path id="Shape" d="m17 7.91c-.97.06-1.97.09-3 .09s-2.03-.03-3-.09c.04-2.17 1.36-3.91 3-3.91s2.96 1.74 3 3.91z" fill="#f0c419"/></g></g></svg>