<svg height="512" viewBox="0 0 58 58" width="512" xmlns="http://www.w3.org/2000/svg"><g id="Page-1" fill="none" fill-rule="evenodd"><g id="031---Revo-Belay-Device" fill-rule="nonzero" transform="translate(-1)"><path id="Shape" d="m34.8 49.27-.44 4.75c-.20511 2.2549197-2.095771 3.9814095-4.36 3.9814095s-4.15489-1.7264898-4.36-3.9814095l-.44-4.75z" fill="#c03a2b"/><path id="Shape" d="m20 8h20c4.9705627 0 9 4.0294373 9 9 0 .5522847-.4477153 1-1 1h-36c-.5522847 0-1-.4477153-1-1 0-4.9705627 4.0294373-9 9-9z" fill="#56595e"/><path id="Shape" d="m47.49 12.02c1.7705095-.1351153 3.5251087.4163302 4.9 1.54 1.6563376 1.3317313 2.61682 3.3446963 2.61 5.47v36.97c0 1.1045695.8954305 2 2 2s2-.8954305 2-2v-36.97c.00765-3.3272718-1.4911443-6.4792055-4.0767584-8.5733392-2.585614-2.09413367-5.9801567-2.90539851-9.2332416-2.2066608l-2.17.47z" fill="#a59078"/><path id="Shape" d="m11.52 13.98c-3.18567061-.13291-6.15630989-1.6437757-8.14-4.14-1.57404056-2.02908946-2.41310391-4.53217761-2.38-7.1v-.74c-.00282307-.53059053.2101411-1.0395388.59-1.41.3704612-.3798589.87940947-.59282307 1.41-.59 1.10320187.0032948 1.9967052.89679813 2 2v.97c-.00681996 2.12530375.9536624 4.13826869 2.61 5.47 1.23883348 1.01214165 2.7902728 1.5634504 4.39 1.56.6557866-.00352299 1.3055002.1257394 1.91.38z" fill="#a59078"/><path id="Shape" d="m40 7h-20c-5.5203344.00606237-9.9939376 4.4796656-10 10 0 1.1045695.8954305 2 2 2h36c1.1045695 0 2-.8954305 2-2-.0060624-5.5203344-4.4796656-9.99393763-10-10zm-28.0000005 10c-.0004599-1.3590302.347261-2.695518 1.0100005-3.882l6.344 3.173.895-1.79-6.031-3.015c1.0688038-1.1217051 2.4403356-1.9089116 3.948-2.266l3.124 5.206 1.71-1.026-2.634-4.4h8.634v3h2v-3h8.634l-2.634 4.4 1.714 1.029 3.124-5.206c1.5076644.3570884 2.8791962 1.1442949 3.948 2.266l-6.435 3.211.9 1.789 6.744-3.373c.6613272 1.1875423 1.0073306 2.5247336 1.0050117 3.884z" fill="#95a5a5"/><path id="Shape" d="m46 34c.0004818 6.9892163-4.533482 13.1707901-11.2 15.27-3.1259878.9733221-6.4740122.9733221-9.6 0-5.8390481-1.8337321-10.1204809-6.8377099-11.0288768-12.8901369-.9083959-6.0524271 1.715414-12.0927981 6.7588768-15.5598631l-3.895-2.228c-.2566542-.1467761-.4352019-.399602-.4876836-.6905664-.0524816-.2909644.0264831-.5902381.2156836-.8174336l3.937-4.724c.1899089-.2280019.4712674-.3598887.768-.36h17.064c.2967326.0001113.5780911.1319981.768.36l3.937 4.724c.1892005.2271955.2681652.5264692.2156836.8174336-.0524817.2909644-.2310294.5437903-.4876836.6905664l-3.9 2.228c4.3438423 2.9807578 6.9384414 7.9118057 6.935 13.18z" fill="#e64c3c"/><path id="Shape" d="m30 47c-.5522847 0-1-.4477153-1-1s.4477153-1 1-1c6.0721626-.0071635 10.9928365-4.9278374 11-11 .0268898-3.9380481-2.0767635-7.5831056-5.5-9.53-.3095706-.1786328-.5003262-.5088503-.500411-.8662627s.1905141-.6877204.5-.8665c.3094858-.1787796.6908404-.1788701 1.000411-.0002373 4.0458555 2.3007954 6.5320518 6.6087999 6.5 11.263-.008266 7.1762751-5.8237249 12.991734-13 13z" fill="#fb7b76"/><circle id="Oval" cx="30" cy="34" fill="#bdc3c7" r="4"/><g fill="#c03a2b"><path id="Shape" d="m22.412 31.474c-.1814868.537095-.3038766 1.0923756-.365 1.656-.0590824.4988169-.4837084.8734868-.986.87h-2.01c-.2844784-.0016997-.5550764-.1231758-.7453963-.3346212-.1903199-.2114455-.2827476-.4932909-.2546037-.7763788.0889709-.9839274.3009576-1.9528174.631-2.884.093591-.2679709.2957234-.4841273.5568239-.5954566.2611004-.1113293.5570172-.1075334.8151761.0104566l1.83.845c.4593926.2085641.687233.7302669.528 1.209z"/><path id="Shape" d="m24.355 40.921-1.27 1.562c-.1806128.2199654-.4456511.3535165-.7299078.367796s-.5613446-.0920382-.7630922-.292796c-.7279245-.713119-1.36355-1.514706-1.892-2.386-.1495476-.2433057-.1892145-.5385118-.1091978-.8126641.0800166-.2741523.2722515-.5016733.5291978-.6263359l1.818-.868c.4505124-.2196687.9941459-.0660051 1.263.357.3130768.5012255.6817453.9654996 1.099 1.384.3519161.3597715.3756446.9270986.055 1.315z"/><path id="Shape" d="m27.115 26.541c-.5521162.2146943-1.0786778.4900491-1.57.821-.4189415.2766494-.9789186.1939451-1.3-.192l-1.3-1.539c-.1822437-.2175976-.2644102-.5018908-.2263493-.7831609s.1928289-.5335018.4263493-.6948391c.8347596-.5860907 1.7424203-1.0607636 2.7-1.412.2661441-.0997478.5619826-.0828601.8150468.0465261.2530643.1293862.4399774.3593189.5149532.6334739l.519 1.944c.1327414.4820707-.1159819.9872497-.579 1.176z"/></g><path id="Shape" d="m30 18h-4c-.5522847 0-1-.4477153-1-1s.4477153-1 1-1h4c.5522847 0 1 .4477153 1 1s-.4477153 1-1 1z" fill="#95a5a5"/><circle id="Oval" cx="30" cy="18" fill="#bdc3c7" r="2"/></g></g></svg>