<svg height="512" viewBox="0 0 58 58" width="512" xmlns="http://www.w3.org/2000/svg"><g id="Page-1" fill="none" fill-rule="evenodd"><g id="032---Travel-Mug" fill-rule="nonzero"><path id="Shape" d="m47 18h-16v-17c0-.55228475.4477153-1 1-1h14c.5522847 0 1 .44771525 1 1z" fill="#bdc3c7"/><path id="Shape" d="m47 25h5c1.1045695 0 2 .8954305 2 2v15c0 1.1045695-.8954305 2-2 2h-5v4h7c2.209139 0 4-1.790861 4-4v-19c0-2.209139-1.790861-4-4-4h-7z" fill="#7f8c8d"/><path id="Shape" d="m21 38v13c0 1.8565154-.7374979 3.6369928-2.0502525 4.9497475-1.3127547 1.3127546-3.0932321 2.0502525-4.9497475 2.0502525h-6c-1.85651543 0-3.63699282-.7374979-4.94974747-2.0502525-1.31275465-1.3127547-2.05025253-3.0932321-2.05025253-4.9497475v-13z" fill="#e64c3c"/><path id="Shape" d="m49 38v13c0 1.8565154-.7374979 3.6369928-2.0502525 4.9497475-1.3127547 1.3127546-3.0932321 2.0502525-4.9497475 2.0502525h-6c-1.8565154 0-3.6369928-.7374979-4.9497475-2.0502525-1.3127546-1.3127547-2.0502525-3.0932321-2.0502525-4.9497475v-13z" fill="#e64c3c"/><path id="Shape" d="m37 55h-1c-2.209139 0-4-1.790861-4-4v-7c0-.5522847.4477153-1 1-1s1 .4477153 1 1v7c0 1.1045695.8954305 2 2 2h1c.5522847 0 1 .4477153 1 1s-.4477153 1-1 1z" fill="#fff"/><path id="Shape" d="m9 55h-1c-2.209139 0-4-1.790861-4-4v-7c0-.5522847.44771525-1 1-1s1 .4477153 1 1v7c0 1.1045695.8954305 2 2 2h1c.55228475 0 1 .4477153 1 1s-.44771525 1-1 1z" fill="#fff"/><rect id="Rectangle-path" fill="#fb7b76" height="5" rx="1" width="22" y="35"/><path id="Shape" d="m49 17v20h-20v-20c0-.5522847.4477153-1 1-1h18c.5522847 0 1 .4477153 1 1z" fill="#e64c3c"/><g fill="#ecf0f1"><path id="Shape" d="m48 5h-18c-.5522847 0-1-.44771525-1-1s.4477153-1 1-1h18c.5522847 0 1 .44771525 1 1s-.4477153 1-1 1z"/><path id="Shape" d="m48 9h-18c-.5522847 0-1-.44771525-1-1s.4477153-1 1-1h18c.5522847 0 1 .44771525 1 1s-.4477153 1-1 1z"/><path id="Shape" d="m48 13h-18c-.5522847 0-1-.4477153-1-1s.4477153-1 1-1h18c.5522847 0 1 .4477153 1 1s-.4477153 1-1 1z"/></g><path id="Shape" d="m33 32c-.5522847 0-1-.4477153-1-1v-11c0-.5522847.4477153-1 1-1s1 .4477153 1 1v11c0 .5522847-.4477153 1-1 1z" fill="#fff"/><rect id="Rectangle-path" fill="#fb7b76" height="5" rx="1" width="22" x="28" y="35"/></g></g></svg>