<svg height="512" viewBox="0 0 58 59" width="512" xmlns="http://www.w3.org/2000/svg"><g id="Page-1" fill="none" fill-rule="evenodd"><g id="033---Mountain-Summit" fill-rule="nonzero"><path id="Shape" d="m47 4v9h-18v-10h17c.5522847 0 1 .44771525 1 1z" fill="#ff5364"/><path id="Shape" d="m55.71 17.29c.2884599.2860905.3751619.7182668.219371 1.0934815-.155791.3752147-.5231059.6188811-.929371.6165185h-13c-.5086833.0061278-.9985778-.1919913-1.36-.55l6.36-5.45v-4h8c.4062651-.00236262.77358.24130378.929371.61651849.1557909.37521472.0690889.80739101-.219371 1.09348151l-2.59 2.58c-.3899779.3930079-.3899779 1.0269921 0 1.42z" fill="#df4d60"/><path id="Shape" d="m47 13-6.36 5.45c-.4060177-.3730693-.6379821-.8986136-.64-1.45v-4z" fill="#802d40"/><path id="Shape" d="m43 8h-10c-.5522847 0-1-.44771525-1-1s.4477153-1 1-1h10c.5522847 0 1 .44771525 1 1s-.4477153 1-1 1z" fill="#fff"/><path id="Shape" d="m29 30c-.5522847 0-1-.4477153-1-1v-28c0-.55228475.4477153-1 1-1s1 .44771525 1 1v28c0 .5522847-.4477153 1-1 1z" fill="#547580"/><path id="Shape" d="m43.47 41.48 14.26 15.77c.2776058.3077135.347803.7501168.1790855 1.1286496-.1687174.3785327-.5446557.622087-.9590855.6213504h-55.9c-.4144298.0007366-.79036809-.2428177-.95908553-.6213504-.16871745-.3785328-.09852026-.8209361.17908553-1.1286496l13.34-14.74z" fill="#bdc3c7"/><path id="Shape" d="m43.47 41.48-5.69 7.32c-.1881007.2415137-.4764604.3835669-.7825763.3855167s-.5962618-.1364187-.7874237-.3755167l-2.38-2.98c-.1950765-.2472037-.4951996-.3880785-.8100052-.3802084-.3148056.0078702-.6075145.1635658-.7899948.4202084l-3.36 4.71c-.1939563.2710368-.5101956.4276306-.8433312.4175964s-.6393769-.1853774-.8166688-.4675964l-3.46-5.54c-.1725683-.2747847-.4677336-.448758-.7917189-.4666468-.3239853-.0178887-.6365097.1225311-.8382811.3766468l-2.37 2.96c-.1869854.2317648-.4675345.3681369-.7652986.372004-.2977642.003867-.5817602-.1251733-.7747014-.352004l-4.6-5.37 14.62-16.17c.1982339-.2151549.4774452-.3375573.77-.3375573s.5717661.1224024.77.3375573z" fill="#ecf0f1"/><g fill="#fff"><path id="Shape" d="m19.458 43c-.395325-.0001808-.7534367-.2332367-.9136924-.594623-.1602556-.3613862-.0925707-.7832604.1726924-1.076377l9.541-10.549c.2397252-.2650911.6026648-.3821534.952103-.3070908.3494383.0750625.6322871.3308463.742.671.109713.3401536.0296222.7129997-.210103.9780908l-9.542 10.549c-.1897054.2096252-.4592795.3291534-.742.329z"/><path id="Shape" d="m8.605 55c-.395325-.0001808-.75343671-.2332367-.91369237-.594623-.16025566-.3613862-.09257077-.7832604.17269237-1.076377l4.394-4.858c.3705831-.4097953 1.0032047-.4415831 1.413-.071s.4415831 1.0032047.071 1.413l-4.4 4.858c-.18853537.2083379-.45602192.327745-.737.329z"/></g></g></g></svg>