<svg height="512" viewBox="0 0 28 58" width="512" xmlns="http://www.w3.org/2000/svg"><g id="Page-1" fill="none" fill-rule="evenodd"><g id="035---GPS" fill-rule="nonzero"><path id="Shape" d="m11 11-3 2-4-2 .92-10.09c.04223947-.51506985.47320249-.91120758.99-.91h3.18c.51679751-.00120758.9477605.39493015.99.91z" fill="#464f5d"/><path id="Shape" d="m28 15v19.79c.0011891.7899845-.2319786 1.56257-.67 2.22l-.66.98c-.4380214.65743-.6711891 1.4300155-.67 2.22v11.79c0 3.3137085-2.6862915 6-6 6h-12c-3.3137085 0-6-2.6862915-6-6v-11.79c.00118911-.7899845-.23197857-1.56257-.67-2.22l-.66-.98c-.43802143-.65743-.67118911-1.4300155-.67-2.22v-19.79c0-2.209139 1.790861-4 4-4h20c2.209139 0 4 1.790861 4 4z" fill="#f3d55b"/><rect id="Rectangle-path" fill="#24ae5f" height="20" rx="2" width="20" x="4" y="15"/><path id="Shape" d="m22.58 15.09c-4.42.43-17.68 2.99-18.53 18.33-.03199542-.1377468-.04876265-.2785915-.05-.42v-16c.0032948-1.1032019.89679813-1.9967052 2-2h16c.196887-.0010043.3926759.0293767.58.09z" fill="#4fba6f"/><rect id="Rectangle-path" fill="#f29c1f" height="6" rx="1" width="6" x="11" y="44"/><path id="Shape" d="m16 51h-4c-1.1045695 0-2-.8954305-2-2v-4c0-1.1045695.8954305-2 2-2h4c1.1045695 0 2 .8954305 2 2v4c0 1.1045695-.8954305 2-2 2zm-4-6v4h4v-4z" fill="#f0c419"/><g fill="#464f5d"><path id="Shape" d="m7 46h-1c-.55228475 0-1-.4477153-1-1s.44771525-1 1-1h1c.55228475 0 1 .4477153 1 1s-.44771525 1-1 1z"/><path id="Shape" d="m7 50h-1c-.55228475 0-1-.4477153-1-1s.44771525-1 1-1h1c.55228475 0 1 .4477153 1 1s-.44771525 1-1 1z"/><path id="Shape" d="m12 55h-1c-.5522847 0-1-.4477153-1-1s.4477153-1 1-1h1c.5522847 0 1 .4477153 1 1s-.4477153 1-1 1z"/><path id="Shape" d="m17 55h-1c-.5522847 0-1-.4477153-1-1s.4477153-1 1-1h1c.5522847 0 1 .4477153 1 1s-.4477153 1-1 1z"/><path id="Shape" d="m22 46h-1c-.5522847 0-1-.4477153-1-1s.4477153-1 1-1h1c.5522847 0 1 .4477153 1 1s-.4477153 1-1 1z"/><path id="Shape" d="m7 40h-1c-.55228475 0-1-.4477153-1-1s.44771525-1 1-1h1c.55228475 0 1 .4477153 1 1s-.44771525 1-1 1z"/><path id="Shape" d="m22 40h-1c-.5522847 0-1-.4477153-1-1s.4477153-1 1-1h1c.5522847 0 1 .4477153 1 1s-.4477153 1-1 1z"/><path id="Shape" d="m22 50h-1c-.5522847 0-1-.4477153-1-1s.4477153-1 1-1h1c.5522847 0 1 .4477153 1 1s-.4477153 1-1 1z"/><path id="Shape" d="m17 40h-6c-.5522847 0-1-.4477153-1-1s.4477153-1 1-1h6c.5522847 0 1 .4477153 1 1s-.4477153 1-1 1z"/></g><path id="Shape" d="m14 26c-.5522847 0-1-.4477153-1-1v-2.5c0-1.3807119 1.1192881-2.5 2.5-2.5.2761424 0 .5-.2238576.5-.5v-4.5c0-.5522847.4477153-1 1-1s1 .4477153 1 1v4.5c0 1.3807119-1.1192881 2.5-2.5 2.5-.2761424 0-.5.2238576-.5.5v2.5c0 .5522847-.4477153 1-1 1z" fill="#2980ba"/><path id="Shape" d="m20 25h-1c-.5522847 0-1-.4477153-1-1s.4477153-1 1-1h1c.5522847 0 1 .4477153 1 1s-.4477153 1-1 1z" fill="#9fc9d3"/><path id="Shape" d="m9 20h-1c-.55228475 0-1-.4477153-1-1s.44771525-1 1-1h1c.55228475 0 1 .4477153 1 1s-.44771525 1-1 1z" fill="#9fc9d3"/><path id="Shape" d="m22 36h-16c-1.65685425 0-3-1.3431458-3-3v-16c0-1.6568542 1.34314575-3 3-3h16c1.6568542 0 3 1.3431458 3 3v16c0 1.6568542-1.3431458 3-3 3zm-16-20c-.55228475 0-1 .4477153-1 1v16c0 .5522847.44771525 1 1 1h16c.5522847 0 1-.4477153 1-1v-16c0-.5522847-.4477153-1-1-1z" fill="#f0c419"/><path id="Shape" d="m15.9 30.965-1.635-.408c-.175298-.0438613-.358702-.0438613-.534 0l-1.635.408c-.428282.1082384-.879768-.0502283-1.1464535-.4023928-.2666856-.3521645-.2968304-.8297025-.0765465-1.2126072l2.169-3.8c.1955932-.343652.5605845-.5558824.956-.5558824s.7604068.2122304.956.5558824l2.169 3.8c.2202839.3829047.1901391.8604427-.0765465 1.2126072-.2666855.3521645-.7181715.5106312-1.1464535.4023928z" fill="#ff5364"/></g></g></svg>