<svg height="512" viewBox="0 0 60 60" width="512" xmlns="http://www.w3.org/2000/svg"><g id="Page-1" fill="none" fill-rule="evenodd"><g id="036---Walking-Poles" fill-rule="nonzero" transform="translate(0 -1)"><path id="Rectangle-path" d="m28.723 11.059h11.024v6.611h-11.024z" fill="#285680" transform="matrix(.707 -.707 .707 .707 -.13 28.415)"/><path id="Rectangle-path" d="m41.122 23.459h11.024v6.611h-11.024z" fill="#285680" transform="matrix(.707 -.707 .707 .707 -5.266 40.814)"/><path id="Shape" d="m1 48.6c-.4043959-.0000863-.76893405-.2437275-.92367798-.6173454-.15474393-.373618-.06922994-.8036603.21667798-1.0896546l3.535-3.536c.24956451-.2661344.62426168-.3752326.97768451-.2846663.35342284.0905663.62947368.366422.72029004.7197806.09081635.3533587-.01801677.728133-.28397455.9778857l-3.535 3.535c-.18716478.188283-.44151777.2944134-.707.295z" fill="#7f8c8d"/><path id="Shape" d="m13.4 61c-.4043959-.0000863-.7689341-.2437275-.923678-.6173454-.1547439-.373618-.0692299-.8036603.216678-1.0896546l3.535-3.536c.3904653-.3907414 1.0237585-.3909653 1.4145-.0005.3907414.3904653.3909653 1.0237585.0005 1.4145l-3.536 3.536c-.1874927.1875494-.4418052.2929434-.707.293z" fill="#7f8c8d"/><path id="Shape" d="m23.627 18.9c-.2653486.0007185-.5199469-.1047939-.707-.293l-1.414-1.414c-1.9491544-1.9536395-1.9491544-5.1163605 0-7.07l7.071-7.073c1.3127752-1.31290914 3.0933608-2.05050508 4.95-2.05050508s3.6372248.73759594 4.95 2.05050508c.3904653.39074146.3902414 1.02403467-.0005 1.41449998-.3907415.39046531-1.0240347.39024146-1.4145-.00049998-1.9526137-1.95257625-5.1183863-1.95257625-7.071 0l-7.071 7.072c-1.1711458 1.1714996-1.1711458 3.0705004 0 4.242l1.414 1.414c.2859079.2859943.3714219.7160366.216678 1.0896546-.1547439.3736179-.5192821.6172591-.923678.6173454z" fill="#2c3e50"/><path id="Shape" d="m47.343 40.956c-1.3259803.0027183-2.5982942-.5234833-3.535-1.462l-1.414-1.414c-.3789722-.3923789-.3735524-1.0160848.0121814-1.4018186s1.0094397-.3911536 1.4018186-.0121814l1.414 1.414c.5626237.562719 1.3257625.8788593 2.1215.8788593s1.5588763-.3161403 2.1215-.8788593l7.07-7.071c1.9525763-1.9526137 1.9525763-5.1183863 0-7.071-.3907414-.3904653-.3909653-1.0237585-.0005-1.4145.3904653-.3907414 1.0237585-.3909653 1.4145-.0005 1.3129091 1.3127752 2.0505051 3.0933608 2.0505051 4.95s-.737596 3.6372248-2.0505051 4.95l-7.07 7.071c-.9372012.9383873-2.2097608 1.4645417-3.536 1.462z" fill="#2c3e50"/><path id="Shape" d="m46.25 9.41-3.53 3.54c-.3751365.3755541-.8841815.5865733-1.415.5865733s-1.0398635-.2110192-1.415-.5865733l-4.24-4.24c-.3755541-.37513651-.5865733-.8841815-.5865733-1.415s.2110192-1.03986349.5865733-1.415l3.53-3.54c.3930079-.38997787 1.0269921-.38997787 1.42 0l5.65 5.66c.191781.18439106.3001659.43895486.3001659.705s-.1083849.52060894-.3001659.705z" fill="#2980ba"/><path id="Shape" d="m32.82 22.85-3.54 3.53c-.1843911.191781-.4389549.3001659-.705.3001659s-.5206089-.1083849-.705-.3001659l-1.41-1.41-2.83-2.83-1.42-1.41c-.3899779-.3930079-.3899779-1.0269921 0-1.42l3.54-3.53c.3751365-.3755541.8841815-.5865733 1.415-.5865733s1.0398635.2110192 1.415.5865733l4.24 4.24c.3755541.3751365.5865733.8841815.5865733 1.415s-.2110192 1.0398635-.5865733 1.415z" fill="#2980ba"/><path id="Rectangle-path" d="m3.703 30.394h25.003v4.002h-25.003z" fill="#3b97d3" transform="matrix(.707 -.707 .707 .707 -18.161 20.947)"/><path id="Shape" d="m10.19 46.89c-.37291204.3762385-.88026737.5885361-1.41.59-.53232287-.0031714-1.04216609-.2150077-1.42-.59l-5.65-5.66c-.56846165-.5718399-.73793892-1.4291108-.42983461-2.1742425s1.03352322-1.2323721 1.83983461-1.2357575c.53232287.0031714 1.04216609.2150077 1.42.59l1.41 1.41 2.83 2.83 1.41 1.41c.3755541.3751365.5865733.8841815.5865733 1.415s-.2110192 1.0398635-.5865733 1.415z" fill="#a5a5a4"/><path id="Shape" d="m58.66 21.82-3.54 3.53c-.3751365.3755541-.8841815.5865733-1.415.5865733s-1.0398635-.2110192-1.415-.5865733l-4.24-4.24c-.3755541-.3751365-.5865733-.8841815-.5865733-1.415s.2110192-1.0398635.5865733-1.415l3.54-3.53c.1843911-.191781.4389549-.3001659.705-.3001659s.5206089.1083849.705.3001659l5.66 5.65c.3899779.3930079.3899779 1.0269921 0 1.42z" fill="#2980ba"/><path id="Shape" d="m45.22 35.25-3.53 3.54c-.3930079.3899779-1.0269921.3899779-1.42 0l-1.41-1.42-2.83-2.83-1.41-1.41c-.191781-.1843911-.3001659-.4389549-.3001659-.705s.1083849-.5206089.3001659-.705l3.53-3.54c.3751365-.3755541.8841815-.5865733 1.415-.5865733s1.0398635.2110192 1.415.5865733l4.24 4.24c.3755541.3751365.5865733.8841815.5865733 1.415s-.2110192 1.0398635-.5865733 1.415z" fill="#2980ba"/><path id="Rectangle-path" d="m16.103 42.794h25.003v4.002h-25.003z" fill="#3b97d3" transform="matrix(.707 -.707 .707 .707 -23.297 33.346)"/><path id="Shape" d="m23.18 57.88c-.0033854.8063114-.4906258 1.5317303-1.2357575 1.8398346s-1.6024026.138627-2.1742425-.4298346l-5.66-5.65c-.3749923-.3778339-.5868286-.8876771-.59-1.42.0042194-.8083318.4934305-1.5350709 1.2407516-1.843177s1.6065685-.1373104 2.1792484.433177l4.24 4.24 1.41 1.41c.3749923.3778339.5868286.8876771.59 1.42z" fill="#a5a5a4"/></g></g></svg>