<svg height="512" viewBox="0 0 52 58" width="512" xmlns="http://www.w3.org/2000/svg"><g id="Page-1" fill="none" fill-rule="evenodd"><g id="037---Water-Bladder"><path id="Shape" d="m36 38h4v-34c0-2.209139-1.790861-4-4-4h-24c-2.209139 0-4 1.790861-4 4v34zm-19-33h-4c-.5522847 0-1-.44771525-1-1s.4477153-1 1-1h4c.5522847 0 1 .44771525 1 1s-.4477153 1-1 1zm18 0h-4c-.5522847 0-1-.44771525-1-1s.4477153-1 1-1h4c.5522847 0 1 .44771525 1 1s-.4477153 1-1 1z" fill="#9fc9d3" fill-rule="nonzero"/><path id="Shape" d="m36 38h4v8c0 2.209139-1.790861 4-4 4h-24c-2.209139 0-4-1.790861-4-4v-8h4" fill="#9fc9d3" fill-rule="nonzero"/><path id="Shape" d="m26 31.787c1.078-.516 1.4-1.787 2.995-1.787s1.918 1.279 3.005 1.792" stroke="#000" stroke-linecap="round" stroke-linejoin="round" stroke-width="2"/><g fill-rule="nonzero"><path id="Shape" d="m36 16.89v4.11c-2 0-2 2-4 2s-2.01-2-4.01-2-2 2-4 2-2-2-4-2-1.99 2-3.99 2-2-2-4-2v-4.11c.03325-.5205127.4791445-.9173587 1-.89h22c.5208555-.0273587.96675.3694873 1 .89z" fill="#84b5cb"/><path id="Shape" d="m36 21v15h-24v-15c2 0 2 2 4 2s2-2 3.99-2 2 2 4 2 2-2 4-2 2 2 4.01 2 2-2 4-2z" fill="#3b97d3"/><path id="Shape" d="m23 29.792c-.1476411-.0014754-.2931237-.0356263-.426-.1-.4850787-.2494396-.9210853-.5844906-1.287-.989-.487-.486-.731-.703-1.287-.703s-.8.217-1.292.707c-.3622646.4003332-.7930047.73287-1.272.982-.4891281.1961941-1.0465684-.0208881-1.2741922-.4962046-.2276238-.4753166-.0472958-1.0457078.4121922-1.3037954.2705201-.1565667.5137092-.3561844.72-.591.6600919-.8177149 1.6546056-1.2930131 2.7055-1.2930131s2.0454081.4752982 2.7055 1.2930131c.208163.2364828.4537678.4371558.727.594.4188774.2028627.6424255.6678848.5392383 1.1217173-.1031872.4538326-.5058263.7764795-.9712383.7782827z" fill="#fff"/><circle id="Oval" cx="24" cy="8" fill="#84b5cb" r="7"/><circle id="Oval" cx="24" cy="8" fill="#3f5c6c" r="4"/><path id="Shape" d="m24 3c-2.7614237 0-5 2.23857625-5 5 0 2.7614237 2.2385763 5 5 5s5-2.2385763 5-5c-.0033061-2.76005315-2.2399468-4.99669388-5-5zm3 5c-.0017247.44548682-.1042886.88480192-.3 1.285l-3.985-3.985c.4001981-.19571145.8395132-.29827528 1.285-.3 1.6568542 0 3 1.34314575 3 3zm-6 0c.0017247-.44548682.1042886-.88480192.3-1.285l3.985 3.985c-.4001981.1957114-.8395132.2982753-1.285.3-1.6568542 0-3-1.34314575-3-3z" fill="#bdc3c7"/><path id="Shape" d="m36 40v5.11c-.03325.5205127-.4791445.9173587-1 .89h-22c-.5208555.0273587-.96675-.3694873-1-.89v-5.11z" fill="#3b97d3"/><path id="Shape" d="m18 58h-10c-4.418278 0-8-3.581722-8-8v-6c0-4.418278 3.581722-8 8-8h38v4h-38c-2.209139 0-4 1.790861-4 4v6c0 2.209139 1.790861 4 4 4h9.8v.01z" fill="#285680"/><path id="Shape" d="m26 50v5c0 1.6568542-1.3431458 3-3 3h-5c-1.1011688-.0081672-1.9918328-.8988312-2-2 .0027598-1.0260606.7793599-1.8846352 1.8-1.99.0663014-.0085716.1331743-.0119152.2-.01h3c.5522847 0 1-.4477153 1-1v-3z" fill="#95a5a5"/><path id="Shape" d="m52 37.41v1.18c-.0020603.2621467-.1060681.5132-.29.7l-1.42 1.42c-.1868.1839319-.4378533.2879397-.7.29h-4.59c-.5522847 0-1-.4477153-1-1v-4c0-.5522847.4477153-1 1-1h4.59c.2621467.0020603.5132.1060681.7.29l1.42 1.42c.1839319.1868.2879397.4378533.29.7z" fill="#f3d55b"/></g></g></g></svg>