<svg height="512" viewBox="0 0 58 58" width="512" xmlns="http://www.w3.org/2000/svg"><g id="Page-1" fill="none" fill-rule="evenodd"><g id="038---Knife" fill-rule="nonzero"><path id="Shape" d="m51.64 21.4-19.73 18.65c-.2590216.259394-.6431531.3486367-.99.23-.500261-.1951664-1.0330287-.2935757-1.57-.29-1.1229106-.0000169-2.2033377.4292919-3.02 1.2l-2.07 1.94-4.12-2.13-1.37-1.45-2.07-4.42 36.96-34.86c.2078685-.19003523.4854103-.28505458.7661319-.26229336.2807216.02276121.5393301.16125219.7138681.38229336.4067075.49410574.7744771 1.01901334 1.1 1.57.361556.59633541.6726387 1.22184586.93 1.87 2.28 5.87-.3 12.65-5.53 17.57z" fill="#bdc3c7"/><path id="Shape" d="m57.17 3.83-17.75 16.64c-.4031679.3783151-1.0366849.3581679-1.415-.045s-.3581679-1.0366849.045-1.415l18.19-17.05c.361556.59633541.6726387 1.22184586.93 1.87z" fill="#7f8c8d"/><path id="Shape" d="m19.452 39.039c-.4098237-.0002364-.7780199-.250505-.9290454-.6314863-.1510256-.3809814-.0543064-.815548.2440454-1.0965137l2.185-2.058c.4030079-.3717363 1.0301907-.3496504 1.4060517.0495135.375861.3991638.3602259 1.0265406-.0350517 1.4064865l-2.185 2.058c-.1856265.1748095-.4310185.2721078-.686.272z" fill="#7f8c8d"/><path id="Shape" d="m25.56 47.41c-.3869718.3664917-.9038271.5640118-1.4365917.5490044-.5327646-.0150075-1.0376812-.2413099-1.4034083-.6290044l-2.75-2.91-5.5-5.82-2.75-2.91c-.5431968-.5844255-.6881752-1.4353054-.3691661-2.1666392s1.0412841-1.2039162 1.8391661-1.2033608c.5500687-.0015349 1.075753.2268658 1.45.63l2.06 2.18 7.56 8 1.38 1.45c.3651486.3856542.5619123.9007073.546905 1.431591-.0150073.5308836-.2405531 1.0339986-.626905 1.398409z" fill="#95a5a5"/><path id="Shape" d="m19.97 44.42-2.87 2.71-1.46 1.37-7.33 6.9-5.5-5.82 3.56-3.35 1.46-1.37 6.64-6.26z" fill="#e64c3c"/><g fill="#c03a2b"><path id="Shape" d="m8.31 55.4-2.18 2.05c-.38565421.3651486-.90070729.5619123-1.43159095.546905s-1.03399867-.2405531-1.39840905-.626905l-2.75-2.91c-.36631864-.3830862-.56402573-.8968804-.54899512-1.4267091.0150306-.5298287.24154772-1.0315881.62899512-1.3932909l2.18-2.06z"/><path id="Shape" d="m10.51 48.95c-.1864103.1918336-.4425137.3000725-.71.3000725-.26748634 0-.52358971-.1082389-.71-.3000725l-2.7-2.7-.02-.02 1.46-1.37 2.68 2.68c.3877236.3900375.3877236 1.0199625 0 1.41z"/><path id="Shape" d="m17.1 47.13-1.46 1.37-2.55-2.55c-.3877236-.3900375-.3877236-1.0199625 0-1.41.3930079-.3899779 1.0269921-.3899779 1.42 0l2.57 2.57z"/></g><path id="Shape" d="m25.928 34.692c-.3641487-.3859539-.5599964-.9007983-.5444296-1.4311967.0155669-.5303983.2412722-1.0328704.6274296-1.3968033l8.353-8.012c.8057195-.7571024 2.0720036-.7199903 2.832.083.7579168.803334.7212063 2.068948-.082 2.827l-8.354 8.012c-.8052373.7579231-2.071966.7212452-2.832-.082z" fill="#fff"/></g></g></svg>