<svg height="512" viewBox="0 0 44 58" width="512" xmlns="http://www.w3.org/2000/svg"><g id="Page-1" fill="none" fill-rule="evenodd"><g id="039---Watch" fill-rule="nonzero"><path id="Shape" d="m27 1v8h-10v-8c0-.55228475.4477153-1 1-1h8c.5522847 0 1 .44771525 1 1z" fill="#3f5c6c"/><path id="Shape" d="m27 49v8c0 .5522847-.4477153 1-1 1h-8c-.5522847 0-1-.4477153-1-1v-8z" fill="#3f5c6c"/><path id="Shape" d="m30.8 44.7-1.39 4.85c-.2428598.8589063-1.0274201 1.4514128-1.92 1.45h-10.98c-.8925799.0014128-1.6771402-.5910937-1.92-1.45l-1.39-4.85z" fill="#e4c05c"/><path id="Shape" d="m13.2 13.3 1.39-4.85c.2428598-.85890628 1.0274201-1.45141277 1.92-1.45h10.98c.8925799-.00141277 1.6771402.59109372 1.92 1.45l1.39 4.85z" fill="#e4c05c"/><path id="Shape" d="m40 29c.0003457 1.3085446-.1438622 2.6131232-.43 3.89-.2077908.9590136-.4954609 1.8989592-.86 2.81-.9738771 2.4336458-2.4728593 4.6223647-4.39 6.41-1.05831 1.009639-2.241209 1.8800108-3.52 2.59-7.5696411 4.2447733-17.0903192 2.4838964-22.64098044-4.1875147-5.55066125-6.6714111-5.55066125-16.3535595 0-23.0249706 5.55066124-6.6714111 15.07133934-8.43228801 22.64098044-4.1875147 3.5933591 2.0148572 6.3857681 5.2026515 7.91 9.03.3734851.8975482.6614284 1.8283419.86 2.78.2861378 1.2768768.4303457 2.5814554.43 3.89z" fill="#f3d55b"/><path id="Shape" d="m36 29c.0056223 2.4588226-.6432516 4.8748426-1.88 7h-24.24c-2.50664902-4.3300619-2.50664902-9.6699381 0-14h24.24c1.2367484 2.1251574 1.8856223 4.5411774 1.88 7z" fill="#393f4a"/><path id="Shape" d="m9.88 36h24.24c-2.4987563 4.3316517-7.1193011 7.0004577-12.12 7.0004577s-9.6212437-2.668806-12.12-7.0004577z" fill="#56595e"/><path id="Shape" d="m34.12 22h-24.24c2.4987563-4.3316517 7.1193011-7.0004577 12.12-7.0004577s9.6212437 2.668806 12.12 7.0004577z" fill="#56595e"/><path id="Shape" d="m44 27.64v2.72c-.000766.9536137-.6746922 1.7740456-1.61 1.96l-2.82.57c.5733487-2.5616435.5733487-5.2183565 0-7.78l2.82.57c.9353078.1859544 1.609234 1.0063863 1.61 1.96z" fill="#f0c419"/><path id="Shape" d="m4 29c-.00034571 1.3085446.14386221 2.6131232.43 3.89l-2.82-.57c-.93530779-.1859544-1.60923396-1.0063863-1.61-1.96v-2.72c.00076604-.9536137.67469221-1.7740456 1.61-1.96l2.82-.57c-.28613779 1.2768768-.43034571 2.5814554-.43 3.89z" fill="#f0c419"/><path id="Shape" d="m40.73 20.27-2.02 2.06c-.9662279-2.4385437-2.4583242-4.634008-4.37-6.43l2.65-1.12c.8779646-.3718356 1.8963134-.0701026 2.43.72l1.53 2.25c.5411008.7839016.4487515 1.8417204-.22 2.52z" fill="#f0c419"/><path id="Shape" d="m40.95 40.28-1.53 2.25c-.5326459.791904-1.5547842 1.0905535-2.43.71l-2.65-1.11-.02-.02c1.9171407-1.7876353 3.4161229-3.9763542 4.39-6.41l2.02 2.05c.6680325.6826171.7601806 1.7423209.22 2.53z" fill="#f0c419"/><g fill="#71c285"><path id="Shape" d="m13 33c-.5522847 0-1-.4477153-1-1v-6c0-.5522847.4477153-1 1-1s1 .4477153 1 1v6c0 .5522847-.4477153 1-1 1z"/><path id="Shape" d="m22 33c-1.6568542 0-3-1.3431458-3-3v-2c0-1.6568542 1.3431458-3 3-3s3 1.3431458 3 3v2c0 1.6568542-1.3431458 3-3 3zm0-6c-.5522847 0-1 .4477153-1 1v2c0 .5522847.4477153 1 1 1s1-.4477153 1-1v-2c0-.5522847-.4477153-1-1-1z"/><path id="Shape" d="m30 33c-1.6568542 0-3-1.3431458-3-3v-2c0-1.6568542 1.3431458-3 3-3s3 1.3431458 3 3v2c0 1.6568542-1.3431458 3-3 3zm0-6c-.5522847 0-1 .4477153-1 1v2c0 .5522847.4477153 1 1 1s1-.4477153 1-1v-2c0-.5522847-.4477153-1-1-1z"/><circle id="Oval" cx="17" cy="27" r="1"/><circle id="Oval" cx="17" cy="31" r="1"/></g><path id="Shape" d="m22 44c-8.2842712 0-15-6.7157288-15-15s6.7157288-15 15-15 15 6.7157288 15 15c-.0093685 8.2803876-6.7196124 14.9906315-15 15zm0-28c-7.1797017 0-13 5.8202983-13 13s5.8202983 13 13 13 13-5.8202983 13-13c-.008266-7.1762751-5.8237249-12.991734-13-13z" fill="#bdc3c7"/></g></g></svg>