<svg height="512" viewBox="0 0 58 44" width="512" xmlns="http://www.w3.org/2000/svg"><g id="Page-1" fill="none" fill-rule="evenodd"><g id="040---Goggles" fill-rule="nonzero"><path id="Shape" d="m58 22 .0000013 6c.0005552-1.0183569-.1718983-2.0294078-.5100013-2.99v-.02c-1.0963384-2.7560195-3.0127577-5.108782-5.49-6.74v-6c3.77 2.7 6 6.08 6 9.75z" fill="#547580"/><path id="Shape" d="m58 28c0 8.84-12.98 16-29 16s-29-7.16-29-16c-.0005565-1.0183569.171897-2.0294078.51-2.99 2.55 7.4 14.34 12.99 28.49 12.99s25.94-5.59 28.49-12.99c.338103.9605922.5105565 1.9716431.51 2.99z" fill="#3f5c6c"/><path id="Shape" d="m6 12.25v6c-2.47724232 1.631218-4.39366162 3.9839805-5.49 6.74v.02c-.338103.9605922-.5105565 1.9716431-.51000134 2.99l.00000134-6c.01966811-1.862521.57133967-3.6806084 1.59-5.24 1.16594003-1.7732272 2.66335731-3.3045995 4.41-4.51z" fill="#547580"/><path id="Shape" d="m47.65 4h.35c2.209139 0 4 1.790861 4 4v12c.0029246 2.1226272-.8389909 4.1591582-2.3399163 5.6600837-1.5009255 1.5009254-3.5374565 2.3428409-5.6600837 2.3399163h-6.34c-2.1247324.0036689-4.1627027-.8424848-5.66-2.35l-1.36-1.36c-.1891496-.1865345-.4443459-.2907696-.71-.29h-1.86c-.2647269.0038804-.518257.107435-.71.29l-1.36 1.37c-1.5020739 1.4991635-3.5378038 2.3407904-5.66 2.34h-6.34c-4.418278 0-8-3.581722-8-8v-12c0-2.209139 1.790861-4 4-4z" fill="#9fc9d3"/><path id="Shape" d="m48 6v14c0 2.209139-1.790861 4-4 4h-6.34c-1.0611852.0008345-2.0792116-.4200457-2.83-1.17l-1.66-1.66c-.7507884-.7499543-1.7688148-1.1708345-2.83-1.17h-2.68c-1.0611852-.0008345-2.0792116.4200457-2.83 1.17l-1.66 1.66c-.7507884.7499543-1.7688148 1.1708345-2.83 1.17h-6.34c-2.209139 0-4-1.790861-4-4v-14c-.00183789-.68206025.1166438-1.35909871.35-2 .8419479-2.39851659 3.1080027-4.00280317 5.65-4h26c2.5419973-.00280317 4.8080521 1.60148341 5.65 4 .2333562.64090129.3518379 1.31793975.35 2z" fill="#2980ba"/><path id="Shape" d="m43.62.23c-9.48.8-31.23 4.44-33.43 20.98-.1245981-.3913006-.1886709-.7993432-.19-1.21v-14c-.00183789-.68206025.1166438-1.35909871.35-2 .8419479-2.39851659 3.1080027-4.00280317 5.65-4h26c.5481385-.00002966 1.0935308.07740259 1.62.23z" fill="#3b97d3"/><g fill="#fff"><path id="Shape" d="m14 7c-.5522847 0-1-.44771525-1-1 0-1.65685425 1.3431458-3 3-3h2c.5522847 0 1 .44771525 1 1s-.4477153 1-1 1h-2c-.5522847 0-1 .44771525-1 1 0 .26521649-.1053568.5195704-.2928932.70710678s-.4418903.29289322-.7071068.29289322z"/><path id="Shape" d="m24 5h-2c-.5522847 0-1-.44771525-1-1s.4477153-1 1-1h2c.5522847 0 1 .44771525 1 1s-.4477153 1-1 1z"/><path id="Shape" d="m44 7c-.5522847 0-1-.44771525-1-1s-.4477153-1-1-1h-2c-.5522847 0-1-.44771525-1-1s.4477153-1 1-1h2c1.6568542 0 3 1.34314575 3 3 0 .26521649-.1053568.5195704-.2928932.70710678s-.4418903.29289322-.7071068.29289322z"/><path id="Shape" d="m36 5h-2c-.5522847 0-1-.44771525-1-1s.4477153-1 1-1h2c.5522847 0 1 .44771525 1 1s-.4477153 1-1 1z"/><path id="Shape" d="m30 5h-2c-.5522847 0-1-.44771525-1-1s.4477153-1 1-1h2c.5522847 0 1 .44771525 1 1s-.4477153 1-1 1z"/><path id="Shape" d="m15 17c-.4364337.0000901-.8225163-.282866-.9538525-.6990693-.1313363-.4162033.0224133-.8695079.3798525-1.1199307l7-4.9c.2921912-.2178449.679762-.259472 1.0115504-.1086459s.5552454.4702176.5832174.833604c.027972.3633863-.1439713.7132141-.4487678.9130419l-7 4.9c-.1676476.117455-.3673021.1806324-.572.181z"/><path id="Shape" d="m23 17c-.4364337.0000901-.8225163-.282866-.9538525-.6990693-.1313363-.4162033.0224133-.8695079.3798525-1.1199307l10-7c.4520489-.29636803 1.0577858-.17987063 1.3676555.26303221.3098698.44290285.2116982 1.05187836-.2216555 1.37496779l-10 7c-.1674732.1178076-.3672419.1810211-.572.181z"/><path id="Shape" d="m34 14.9c-.4364337.0000901-.8225163-.282866-.9538525-.6990693-.1313363-.4162033.0224133-.8695079.3798525-1.1199307l7-4.9c.4520489-.29636803 1.0577858-.17987063 1.3676555.26303221.3098698.44290285.2116982 1.05187836-.2216555 1.37496779l-7 4.9c-.1676476.117455-.3673021.1806324-.572.181z"/><circle id="Oval" cx="25" cy="9" r="1"/><circle id="Oval" cx="31" cy="16" r="1"/></g></g></g></svg>