<svg height="512" viewBox="0 0 58 59" width="512" xmlns="http://www.w3.org/2000/svg"><g id="Page-1" fill="none" fill-rule="evenodd"><g id="041---Campfire-Song" fill-rule="nonzero" transform="translate(-1)"><path id="Shape" d="m47 17c-.5522847 0-1-.4477153-1-1v-8c0-.55228475.4477153-1 1-1s1 .44771525 1 1v8c0 .5522847-.4477153 1-1 1z" fill="#14a085"/><path id="Shape" d="m58 17c-.5522847 0-1-.4477153-1-1v-10c0-.55228475.4477153-1 1-1s1 .44771525 1 1v10c0 .5522847-.4477153 1-1 1z" fill="#14a085"/><path id="Shape" d="m10 23c-.55228475 0-1-.4477153-1-1v-8c0-.5522847.44771525-1 1-1 .5522847 0 1 .4477153 1 1v8c0 .5522847-.4477153 1-1 1z" fill="#2980ba"/><path id="Shape" d="m21 23c-.5522847 0-1-.4477153-1-1v-10c0-.5522847.4477153-1 1-1s1 .4477153 1 1v10c0 .5522847-.4477153 1-1 1z" fill="#2980ba"/><path id="Shape" d="m53 42.64c0 4.53-4.31 8.22-9.69 8.35.02 0 .04-.01.06-.01s.07-.01.1-.01c3.0172303-.1139456 5.43238-2.5421974 5.53-5.56 0-4.86-3.16-8.55-4.89-10.2-.192237-.1879415-.4712819-.2568385-.7289018-.1799681-.2576199.0768705-.4532832.2874143-.5110982.5499681-.87 4.29-5.87 4.74-5.87 9.83.0957864 2.997737 2.4837202 5.4161736 5.48 5.55.0164558.0043126.0331514.0076517.05.01.03 0 .07.01.1.01s.04.01.06.01c-5.38-.13-9.69-3.82-9.69-8.35 0-7.62 8.31-8.3 9.78-14.69.0980898-.4160055.4049462-.7513567.8106295-.8859049.4056833-.1345483.8521233-.049034 1.1793705.2259049 2.87 2.45 8.23 8 8.23 15.35z" fill="#e57e25"/><path id="Shape" d="m49 45.41c-.09762 3.0178026-2.5127697 5.4460544-5.53 5.56 1.3270573-.0582928 2.4073415-1.0873383 2.53-2.41 0-2.23-2.5-2.43-2.94-4.3-.0409681-.1197554-.1383169-.2116316-.2602398-.2456101s-.2527589-.0056948-.3497602.0756101c-1.4174434 1.0718362-2.3090316 2.6985299-2.45 4.47.1132219 1.3061671 1.1708236 2.3296525 2.48 2.4-2.9962798-.1338264-5.3842136-2.552263-5.48-5.55 0-5.09 5-5.54 5.87-9.83.057815-.2625538.2534783-.4730976.5110982-.5499681.2576199-.0768704.5366648-.0079734.7289018.1799681 1.73 1.65 4.89 5.34 4.89 10.2z" fill="#f29c1f"/><path id="Shape" d="m46 48.56c-.1226585 1.3226617-1.2029427 2.3517072-2.53 2.41-.03 0-.07.01-.1.01s-.04.01-.06.01c-.1.01-.21.01-.31.01s-.21 0-.31-.01c-.02 0-.04-.01-.06-.01s-.07-.01-.1-.01c-.0168486-.0023483-.0335442-.0056874-.05-.01-1.3091764-.0703475-2.3667781-1.0938329-2.48-2.4.1409684-1.7714701 1.0325566-3.3981638 2.45-4.47.0970013-.0813049.2278373-.1095886.3497602-.0756101s.2192717.1258547.2602398.2456101c.44 1.87 2.94 2.07 2.94 4.3z" fill="#f0c419"/><path id="Shape" d="m30 51h26c1.66 0 3 1.79 3 4s-1.34 4-3 4h-26z" fill="#a56a43"/><path id="Shape" d="m25.643 37.177c.9861528 1.8282971 1.1106393 3.9998086.3398826 5.9288243-.7707568 1.9290157-2.3573669 3.4168421-4.3318826 4.0621757-.4323462.1322979-.7176479.5437112-.69.995.3496431 4.1825162-1.9496866 8.1383017-5.7570724 9.9045141-3.8073857 1.7662124-8.31253357.9669635-11.28001011-2.0011631s-3.76573863-7.4734494-1.99869235-11.2804482 5.7233353-6.105462 9.90577486-5.7549028c.4491715.028952.8593578-.2545775.991-.685.6435111-1.9762294 2.1307789-3.5650204 4.0602765-4.3374373 1.9294976-.772417 4.1022711-.6488147 5.9317235.3374373" fill="#f29c1f"/><path id="Shape" d="m14.15 43.01 16.72-16.72 3.13-.29-.3 3.12-16.72 16.72z" fill="#a56a43"/><path id="Shape" d="m15.95 49.7c-1.3711503 1.3741836-3.5310361 1.565503-5.1223884.4537333-1.59135223-1.1117696-2.15472706-3.205646-1.33610055-4.9658405.81862655-1.7601944 2.78290635-2.678516 4.65848895-2.1778928 1.3867882.3602407 2.4697593 1.4432118 2.83 2.83.3723504 1.378278-.0204852 2.8504581-1.03 3.86z" fill="#603e26"/><path id="Shape" d="m38.4 23.4-1.69 4.02c-.092196.2172725-.2588401.3945535-.47.5l-2.54 1.2-2.83-2.83 1.2-2.54c.109542-.2116885.2900884-.3780744.51-.47l4.01-1.69c.3852797-.1591631.8286264-.0681186 1.12.23l.46.46c.2981186.2913736.3891631.7347203.23 1.12z" fill="#f29c1f"/><path id="Shape" d="m8.877 54.943c-.26534858.0007185-.51994691-.1047939-.707-.293l-2.828-2.829c-.25995658-.2510745-.3642126-.6228779-.27269716-.9725073.09151544-.3496295.3645604-.6226744.71418984-.7141899.34962943-.0915154.72143285.0127406.97250732.2726972l2.828 2.829c.28590792.2859943.37142191.7160366.21667798 1.0896546-.15474393.3736179-.51928208.6172591-.92367798.6173454z" fill="#d25627"/><g fill="#26b99a"><circle id="Oval" cx="45" cy="16" r="3"/><circle id="Oval" cx="56" cy="16" r="3"/><path id="Shape" d="m47 9c-.5522847 0-1-.44771525-1-1v-4.36c.0014198-.96338941.6858731-1.79043716 1.632-1.972l9.01-1.633c.5784478-.10924603 1.1754621.04550829 1.628.422.4625394.37873675.7305281.94518402.73 1.543v4c-.0004101.48292199-.3458774.89655711-.821.983l-11 2c-.0589496.01162762-.1189155.0173227-.179.017z"/></g><circle id="Oval" cx="8" cy="22" fill="#3b97d3" r="3"/><circle id="Oval" cx="19" cy="22" fill="#3b97d3" r="3"/><path id="Shape" d="m10 15c-.55228475 0-1-.4477153-1-1v-4.36c.0014198-.96338941.6858731-1.79043716 1.632-1.972l9.01-1.633c.5830445-.10607879 1.1831105.05187178 1.6383706.43125526.4552602.37938347.71883.94112935.7196294 1.53374474v4c-.0004101.482922-.3458774.8965571-.821.983l-11 2c-.0589496.0116276-.1189155.0173227-.179.017z" fill="#3b97d3"/><path id="Shape" d="m42 56h-4c-.5522847 0-1-.4477153-1-1s.4477153-1 1-1h4c.5522847 0 1 .4477153 1 1s-.4477153 1-1 1z" fill="#603e26"/><path id="Shape" d="m50 56h-4c-.5522847 0-1-.4477153-1-1s.4477153-1 1-1h4c.5522847 0 1 .4477153 1 1s-.4477153 1-1 1z" fill="#603e26"/><ellipse id="Oval" cx="30" cy="55" fill="#cf976a" rx="3" ry="4"/></g></g></svg>