<svg height="512" viewBox="0 0 58 52" width="512" xmlns="http://www.w3.org/2000/svg"><g id="Page-1" fill="none" fill-rule="evenodd"><g id="042---Climbing-Harness" fill-rule="nonzero"><path id="Rectangle-path" d="m19.16 31h19.68v2h-19.68z" fill="#805333"/><path id="Rectangle-path" d="m6.435 29.381h27.566v2h-27.566z" fill="#603e26" transform="matrix(.547 -.837 .837 .547 -16.274 30.697)"/><path id="Rectangle-path" d="m36.777 16.59h2v27.563h-2z" fill="#603e26" transform="matrix(.837 -.547 .547 .837 -10.461 25.614)"/><rect id="Rectangle-path" fill="#f3d55b" height="4" rx="2" width="6" x="26" y="30"/><path id="Shape" d="m55.42 19.39c.3747776-.3648655.5842863-.866964.58-1.39v-16c.0042863-.52303604-.2052224-1.0251345-.58-1.39-.3672043-.39296001-.8821905-.61418645-1.42-.61h-50c-.53780951-.00418645-1.05279566.21703999-1.42.61-.37477758.3648655-.58428629.86696396-.58 1.39v16c-.00428629.523036.20522242 1.0251345.58 1.39.36720434.39296.88219049.6141865 1.42.61h23v2c0 1.1045695.8954305 2 2 2s2-.8954305 2-2v-2h23c.5378095.0041865 1.0527957-.21704 1.42-.61z" fill="#805333"/><path id="Shape" d="m24.36 41.06-17.89-8.95c-.52973446-.262454-1.14844182-.277098-1.69-.04-.43173607.1849468-.78294651.5184194-.99.94l-3.58 7.15c-.48741413.9888696-.0854743 2.1857571.9 2.68l17.88 8.95c.5332781.2624103 1.1549702.2770383 1.7.04.4277938-.1908879.7772176-.522664.99-.94l3.58-7.15c.4874141-.9888696.0854743-2.1857571-.9-2.68z" fill="#805333"/><path id="Shape" d="m57.79 40.16-3.58-7.15c-.2070535-.4215806-.5582639-.7550532-.99-.94-.5415582-.237098-1.1602655-.222454-1.69.04l-17.89 8.95c-.9854743.4942429-1.3874141 1.6911304-.9 2.68l3.58 7.15c.2127824.417336.5622062.7491121.99.94.5450298.2370383 1.1667219.2224103 1.7-.04l17.88-8.95c.9854743-.4942429 1.3874141-1.6911304.9-2.68z" fill="#805333"/><path id="Shape" d="m31 8v14c0 1.1045695-.8954305 2-2 2s-2-.8954305-2-2v-14c.0032948-1.10320187.8967981-1.9967052 2-2 1.1011688.00816722 1.9918328.89883122 2 2z" fill="#f29c1f"/><g fill="#cb8252"><path id="Shape" d="m56 2v16c.0042863.523036-.2052224 1.0251345-.58 1.39-1.21-1.13-4.4-3.39-10.42-3.39h-6c-1.1032019-.0032948-1.9967052-.8967981-2-2v-2h13c1.1032019-.0032948 1.9967052-.8967981 2-2-.0081672-1.10116878-.8988312-1.99183278-2-2h-13v-2c.0032948-1.10320187.8967981-1.9967052 2-2h6c6.02 0 9.21-2.26 10.42-3.39.3747776.3648655.5842863.86696396.58 1.39z"/><path id="Shape" d="m6.59 8.59c-.3798589.3704612-.59282307.87940947-.59 1.41.0032948 1.1032019.89679813 1.9967052 2 2h13v2c-.0032948 1.1032019-.8967981 1.9967052-2 2h-6c-6.02 0-9.21 2.26-10.42 3.39-.37477758-.3648655-.58428629-.866964-.58-1.39v-16c-.00428629-.52303604.20522242-1.0251345.58-1.39 1.21 1.13 4.4 3.39 10.42 3.39h6c1.1032019.0032948 1.9967052.89679813 2 2v2h-13c-.53059053-.00282307-1.0395388.2101411-1.41.59z"/><path id="Shape" d="m9.6 39.27-.89 1.79c-.24957563.490313-.84834645.6869243-1.34.44l-1.79-.89c-3.27-1.63-4.26.25-5.52.91-.11472178-.456652-.0614856-.9393267.15-1.36l3.58-7.15c.20705349-.4215806.55826393-.7550532.99-.94.23 1.4-.68 3.33 2.59 4.96l1.79.89c.49294631.2524417.68952109.8555689.44 1.35z"/><path id="Shape" d="m25.26 43.74-3.58 7.15c-.2127824.417336-.5622062.7491121-.99.94-.23-1.4.67-3.33-2.59-4.96l-1.79-.9c-.4905257-.2490367-.6907879-.845373-.45-1.34l.9-1.79c.2495756-.490313.8483464-.6869243 1.34-.44l1.79.89c3.26 1.63 4.26-.25 5.52-.91.1147218.456652.0614856.9393267-.15 1.36z"/></g><path id="Shape" d="m16.31 44.738c-.1543931.001545-.307047-.0326823-.446-.1l-7.156-3.582c-.49401869-.2471474-.69414739-.8479813-.44699997-1.342s.84798127-.6941474 1.34199997-.447l7.155 3.577c.4144465.2077179.6317906.6730467.52508 1.1241847s-.5094933.7697843-.97308.7698153z" fill="#f3d55b"/><path id="Shape" d="m41.69 45.97-1.79.9c-3.26 1.63-2.36 3.56-2.59 4.96-.4277938-.1908879-.7772176-.522664-.99-.94l-3.58-7.15c-.2114856-.4206733-.2647218-.903348-.15-1.36 1.26.66 2.26 2.54 5.52.91l1.79-.89c.4916536-.2469243 1.0904244-.050313 1.34.44l.9 1.79c.2407879.494627.0405257 1.0909633-.45 1.34z" fill="#cb8252"/><path id="Shape" d="m57.94 41.52c-1.26-.66-2.25-2.54-5.52-.91l-1.79.89c-.4916536.2469243-1.0904244.050313-1.34-.44l-.89-1.79c-.2495211-.4944311-.0529463-1.0975583.44-1.35l1.79-.89c3.27-1.63 2.36-3.56 2.59-4.96.4317361.1849468.7829465.5184194.99.94l3.58 7.15c.2114856.4206733.2647218.903348.15 1.36z" fill="#cb8252"/><path id="Shape" d="m41.69 44.738c-.4635867-.000031-.8663694-.3186773-.97308-.7698153s.1106335-.9164668.52508-1.1241847l7.158-3.577c.4940187-.2485281 1.0959719-.0495187 1.3445.4445s.0495187 1.0959719-.4445 1.3445l-7.156 3.577c-.1409533.0702631-.2965097.1062398-.454.105z" fill="#f3d55b"/><path id="Shape" d="m16 20v2.5c0 1.9329966-1.5670034 3.5-3.5 3.5s-3.5-1.5670034-3.5-3.5v-10.5c0-.5522847.44771525-1 1-1 .5522847 0 1 .4477153 1 1v10.5c0 .8284271.6715729 1.5 1.5 1.5s1.5-.6715729 1.5-1.5v-2.5z" fill="#603e26"/><path id="Shape" d="m44 20v2.5c0 .8284271.6715729 1.5 1.5 1.5s1.5-.6715729 1.5-1.5v-10.5c0-.5522847.4477153-1 1-1s1 .4477153 1 1v10.5c0 1.9329966-1.5670034 3.5-3.5 3.5s-3.5-1.5670034-3.5-3.5v-2.5z" fill="#603e26"/><path id="Shape" d="m27 8v4h-19c-1.10320187-.0032948-1.9967052-.8967981-2-2 .00816722-1.10116878.89883122-1.99183278 2-2z" fill="#f3d55b"/><path id="Shape" d="m52 10c-.0032948 1.1032019-.8967981 1.9967052-2 2h-19v-4h19c1.1011688.00816722 1.9918328.89883122 2 2z" fill="#f3d55b"/></g></g></svg>