<svg height="512" viewBox="0 0 58 59" width="512" xmlns="http://www.w3.org/2000/svg"><g id="Page-1" fill="none" fill-rule="evenodd"><g id="043---Hat" fill-rule="nonzero"><path id="Shape" d="m44.58 19-15.58 2-15.58-2 1.35-16.25c.1300083-1.55467366 1.4298999-2.75022612 2.99-2.75h22.48c1.5601001-.00022612 2.8599917 1.19532634 2.99 2.75z" fill="#cb8252"/><path id="Shape" d="m32 57c-.5522847 0-1-.4477153-1-1s.4477153-1 1-1c4.1469686.1680838 8.1723932-1.4212436 11.086-4.377 6.325-6.587 5.92-18.463 5.914-18.582-.0110996-.2652756.0837518-.5240758.2636455-.7193515.1798938-.1952757.4300606-.3109948.6953545-.3216485.5467215-.0102199 1.004817.411316 1.04.957.022.521.452 12.834-6.464 20.044-3.2857788 3.3604135-7.8384718 5.1760427-12.535 4.999z" fill="#805333"/><path id="Shape" d="m41 59c-.1971916-.000153-.3899366-.0586028-.554-.168-2.711-1.807-8.389-1.832-8.446-1.832-.5522847 0-1-.4477153-1-1s.4477153-1 1-1c.257 0 6.34.024 9.555 2.168.3666557.2444851.5300428.7001723.4022708 1.1219349s-.5165789.710164-.9572708.7100651z" fill="#603e26"/><path id="Shape" d="m26 57c-4.6966792.1767819-9.2493947-1.6392195-12.535-5-6.916-7.208-6.486-19.521-6.465-20.042.03217262-.5476697.49254832-.9713392 1.041-.958.26529392.0106537.51546071.1263728.69535447.3216485s.27474518.4540759.26364553.7193515c-.005.119-.41 12 5.915 18.582 2.9133692 2.9554933 6.9383743 4.5447985 11.085 4.377.5522847 0 1 .4477153 1 1s-.4477153 1-1 1z" fill="#805333"/><path id="Shape" d="m45 24-16 2-16-2 .42-5h31.16z" fill="#f29c1f"/><g fill="#a56a43"><circle id="Oval" cx="21" cy="6" r="2"/><circle id="Oval" cx="37" cy="6" r="2"/><path id="Shape" d="m58 30v1c0 .5522847-.4477153 1-1 1h-56c-.55228475 0-1-.4477153-1-1v-1c0-3.3137085 2.6862915-6 6-6h46c3.3137085 0 6 2.6862915 6 6z"/></g><rect id="Rectangle-path" fill="#f3d55b" height="4" rx="1" width="6" x="26" y="54"/><path id="Shape" d="m48 29h-38c-.55228475 0-1-.4477153-1-1s.44771525-1 1-1h38c.5522847 0 1 .4477153 1 1s-.4477153 1-1 1z" fill="#cf976a"/><path id="Shape" d="m31 5h-4c-.5522847 0-1-.44771525-1-1s.4477153-1 1-1h4c.5522847 0 1 .44771525 1 1s-.4477153 1-1 1z" fill="#805333"/></g></g></svg>