<svg height="512" viewBox="0 0 58 58" width="512" xmlns="http://www.w3.org/2000/svg"><g id="Page-1" fill="none" fill-rule="evenodd"><g id="044---Climbing-Screw" fill-rule="nonzero" transform="translate(-1)"><path id="Shape" d="m41.16 23.67-.01.01" fill="#f0c419"/><path id="Shape" d="m33.12 30.67-25.65 27.02c-.22603195.2448878-.56308638.3547146-.89.29l-4.75-.82c-.36392993-.0642302-.66343971-.3226421-.78030309-.6732323-.11686339-.3505902-.03230275-.7370256.22030309-1.0067677l27.5-28.95 2.918 1.329 1.422 2.811z" fill="#95a5a5"/><g fill="#bdc3c7"><path id="Shape" d="m12.247 55.16c-.0833536-.0002047-.1663462-.0109568-.247-.032l-8.875-2.3c-.35284604-.08296-.63317643-.3503595-.73269481-.6988976-.09951839-.348538-.00264247-.7236416.25320295-.9804018s.63060081-.3549743.97949186-.2567006l8.875 2.3c.4870977.1262772.8044924.594832.7410793 1.0940202-.0634132.4991883-.4878797.8735025-.9910793.8739798z"/><path id="Shape" d="m15.7 51.521c-.0847673.0002953-.1691897-.0108041-.251-.033l-8.875-2.3c-.51492202-.1541488-.81588296-.6877673-.68141079-1.2081746.13447218-.5204073.65626977-.8414267 1.18141079-.7268254l8.875 2.3c.4870977.1262772.8044924.594832.7410793 1.0940202-.0634132.4991883-.4878797.8735025-.9910793.8739798z"/><path id="Shape" d="m19.143 47.88c-.0846889.0000804-.1690402-.0106736-.251-.032l-8.874-2.3c-.35284604-.08296-.63317643-.3503595-.73269481-.6988976-.09951839-.348538-.00264247-.7236416.25320295-.9804018s.63060086-.3549743.97949186-.2567006l8.874 2.3c.4870977.1262772.8044924.594832.7410793 1.0940202-.0634132.4991883-.4878797.8735025-.9910793.8739798z"/><path id="Shape" d="m22.591 44.24c-.0846889.0000804-.1690402-.0106736-.251-.032l-8.874-2.3c-.3579098-.0781065-.6444636-.3456636-.7468985-.6973839-.1024349-.3517202-.0043526-.7312987.2556501-.9893658s.6403034-.3533104.9912484-.2482503l8.874 2.3c.4870977.1262772.8044924.594832.7410793 1.0940202-.0634132.4991883-.4878797.8735025-.9910793.8739798z"/><path id="Shape" d="m26.04 40.6c-.0847673.0002953-.1691897-.0108041-.251-.033l-8.874-2.3c-.3579098-.0781065-.6444636-.3456636-.7468985-.6973839-.1024349-.3517202-.0043526-.7312987.2556501-.9893658s.6403034-.3533104.9912484-.2482503l8.874 2.3c.4870977.1262772.8044924.594832.7410793 1.0940202-.0634132.4991883-.4878797.8735025-.9910793.8739798z"/><path id="Shape" d="m29.688 36.924c-.0846924.0001354-.1690507-.0106194-.251-.032l-8.875-2.3c-.5234152-.1474328-.8330843-.6860966-.6971062-1.2126039.1359781-.5265072.6677576-.8478548 1.1971062-.7233961l8.875 2.3c.4870977.1262772.8044924.594832.7410793 1.0940202-.0634132.4991883-.4878797.8735025-.9910793.8739798z"/></g><path id="Shape" d="m41.15 23.68-6.61 6.95c-.1823785.1946988-.4349925.3084531-.701663.315965-.2666704.0075118-.5252875-.0918416-.718337-.275965h-.01l-4.34-4.14v-.01h-.01c-.3984024-.3847159-.4117986-1.018801-.03-1.42l6.6-6.93 3.67 1.83z" fill="#7f8c8d"/><path id="Shape" d="m35.34 18.16-.01.01" fill="#f0c419"/><path id="Shape" d="m53.39 4.95-.02-.01c-7.2142091-6.83038448-18.5938689-6.53974484-25.45.65l-1.39 1.47c-.3664272.38434977-.5649583.89864678-.5518272 1.42951516.013131.53086838.2368459 1.03472115.6218272 1.40048484l8.73 8.28 5.82 5.51 8.69 8.23c.3843498.3664272.8986468.5649583 1.4295152.5518272.5308683-.013131 1.0347211-.2368459 1.4004848-.6218272l1.37-1.45c3.2939944-3.4564378 5.0768211-8.0818017 4.9548669-12.8549023-.1219542-4.7731005-2.1386595-9.3013852-5.6048669-12.5850977zm-1.49 21.88c-.1764713.2222661-.437864.3605903-.7208971.3814853-.2830331.0208951-.5619049-.0775438-.7691029-.2714853l-18.87-17.88c-.2051235-.19626815-.3177697-.47006951-.3101511-.75386312.0076186-.2837936.1347927-.55115683.3501511-.73613688 5.446337-4.88303626 13.7286892-4.76829718 19.0376684.26373722 5.3089791 5.03203438 5.8668585 13.29637298 1.2823316 18.99626278z" fill="#e64c3c"/></g></g></svg>