<svg height="512" viewBox="0 0 36 58" width="512" xmlns="http://www.w3.org/2000/svg"><g id="Page-1" fill="none" fill-rule="evenodd"><g id="045---Matches" fill-rule="nonzero"><path id="Shape" d="m34 1v17h-32v-17c0-.55228475.44771525-1 1-1h30c.5522847 0 1 .44771525 1 1z" fill="#cf976a"/><g fill="#f9eab0"><path id="Shape" d="m8 19c-.55228475 0-1-.4477153-1-1v-9c0-.55228475.44771525-1 1-1s1 .44771525 1 1v9c0 .5522847-.44771525 1-1 1z"/><path id="Shape" d="m12 19c-.5522847 0-1-.4477153-1-1v-9c0-.55228475.4477153-1 1-1s1 .44771525 1 1v9c0 .5522847-.4477153 1-1 1z"/><path id="Shape" d="m16 19c-.5522847 0-1-.4477153-1-1v-9c0-.55228475.4477153-1 1-1s1 .44771525 1 1v9c0 .5522847-.4477153 1-1 1z"/><path id="Shape" d="m20 19c-.5522847 0-1-.4477153-1-1v-9c0-.55228475.4477153-1 1-1s1 .44771525 1 1v9c0 .5522847-.4477153 1-1 1z"/><path id="Shape" d="m24 19c-.5522847 0-1-.4477153-1-1v-9c0-.55228475.4477153-1 1-1s1 .44771525 1 1v9c0 .5522847-.4477153 1-1 1z"/><path id="Shape" d="m28 19c-.5522847 0-1-.4477153-1-1v-9c0-.55228475.4477153-1 1-1s1 .44771525 1 1v9c0 .5522847-.4477153 1-1 1z"/></g><ellipse id="Oval" cx="8" cy="6.5" fill="#e64c3c" rx="2" ry="2.5"/><ellipse id="Oval" cx="12" cy="6.5" fill="#c03a2b" rx="2" ry="2.5"/><ellipse id="Oval" cx="16" cy="6.5" fill="#e64c3c" rx="2" ry="2.5"/><ellipse id="Oval" cx="20" cy="6.5" fill="#c03a2b" rx="2" ry="2.5"/><ellipse id="Oval" cx="24" cy="6.5" fill="#e64c3c" rx="2" ry="2.5"/><ellipse id="Oval" cx="28" cy="6.5" fill="#c03a2b" rx="2" ry="2.5"/><path id="Shape" d="m34 18h-32c-1.10320187.0032948-1.9967052.8967981-2 2v36c.0032948 1.1032019.89679813 1.9967052 2 2h32c1.1032019-.0032948 1.9967052-.8967981 2-2v-36c-.0032948-1.1032019-.8967981-1.9967052-2-2zm-2 35c0 .5522847-.4477153 1-1 1h-26c-.55228475 0-1-.4477153-1-1v-30c0-.5522847.44771525-1 1-1h26c.5522847 0 1 .4477153 1 1z" fill="#f29c1f"/><rect id="Rectangle-path" fill="#d25627" height="32" rx="1" width="28" x="4" y="22"/><path id="Shape" d="m19.85 49.75c-.4174169.0999518-.8420669.1668258-1.27.2 1.9654211-.2797527 3.4243508-1.9647739 3.42-3.95 0-4-4-6-4-6 0 6-4 6-4 6-.0041352 2.1588696 1.7120104 3.928229 3.87 3.99-2.3117406.0727288-4.5553335-.7887621-6.2243077-2.3899989-1.66897416-1.6012368-2.62263146-3.8072317-2.6456923-6.1200011-.04732377-1.3506318.24492909-2.6915567.85-3.9.06806037-.1166826.1985817-.1821905.3328105-.1670356s.2468585.1081153.2871895.2370356c.2080417.6853314.8246058 1.165771 1.54 1.2 1.002307-.0829202 1.7513493-.9568029 1.68-1.96l.27-5.12c.0121978-.1370381.1055513-.2533224.2367121-.2948567.1311607-.0415342.2744327-.0001813.3632879.1048567.3264611.4427414.8400268.708761 1.39.72 1.62 0 1.85-1.52 1.85-3.12-.0161143-.9286827-.1746252-1.8493951-.47-2.73-.0495621-.1279252-.0145411-.2731764.0878735-.364459.1024146-.0912825.2507217-.1094324.3721265-.045541 1.48.72 4.61 3.02 4.61 9.54-.071561.9996201.6716974 1.8719473 1.67 1.96.6405083-.0186467 1.2111663-.4095084 1.46-1 .0593036-.1257543.1875932-.2043122.3265615-.1999695.1389684.0043428.2621026.0907577.3134385.2199695.2747343.749056.4920291 1.5179456.65 2.3.9647679 4.9102228-2.1070808 9.709711-6.97 10.89z" fill="#f29c1f"/><path id="Shape" d="m22 46c.0043508 1.9852261-1.4545789 3.6702473-3.42 3.95-.2356125.0279949-.4727341.0413538-.71.04-2.1579896-.061771-3.8741352-1.8311304-3.87-3.99 0 0 4 0 4-6 0 0 4 2 4 6z" fill="#f0c419"/><path id="Shape" d="m18.58 49.95c-.1910527.0369046-.3854501.053663-.58.05-.0435732.0016501-.0871918-.0017052-.13-.01.2372659.0013538.4743875-.0120051.71-.04z" fill="#f29c1f"/></g></g></svg>