<svg height="512" viewBox="0 0 42 58" width="512" xmlns="http://www.w3.org/2000/svg"><g id="Page-1" fill="none" fill-rule="evenodd"><g id="046---Woolly-Hat" fill-rule="nonzero"><path id="Shape" d="m16.24 6.55c-5.059297 1.17606787-9.50253961 4.186926-12.47 8.45-.87720264 1.2472933-1.61179124 2.5890076-2.19 4-1.04768526 2.5368006-1.58460321 5.2553724-1.58 8v26.5c.00000005 2.4852813 2.01471866 4.4999999 4.5 4.4999999s4.49999995-2.0147186 4.5-4.4999999v-10.5h24v10.5c0 2.4852814 2.0147186 4.5 4.5 4.5s4.5-2.0147186 4.5-4.5v-26.5c.0018524-4.2901663-1.3103286-8.4779778-3.76-12-.7137675-1.0165464-1.5133612-1.9700368-2.39-2.85-2.7693252-2.77899758-6.266692-4.72005351-10.09-5.6z" fill="#ff5364"/><path id="Shape" d="m40.42 19h-38.84c.57820876-1.4109924 1.31279736-2.7527067 2.19-4h34.47c.8702405 1.2499199 1.6012484 2.5912187 2.18 4z" fill="#f0c419"/><path id="Shape" d="m42 27 .0000191 7h-42.00004845l.00002935-7c-.00460321-2.7446276.53231474-5.4631994 1.58-8h38.84c1.0468295 2.537059 1.5837135 5.2554588 1.58 8z" fill="#802d40"/><path id="Rectangle-path" d="m0 34h42v4h-42z" fill="#f0c419"/><path id="Shape" d="m42 38v10h-9v-6h-24v6h-9v-10z" fill="#fb7b76"/><path id="Shape" d="m35 43h-28c-.55228475 0-1-.4477153-1-1s.44771525-1 1-1h28c.5522847 0 1 .4477153 1 1s-.4477153 1-1 1z" fill="#ff5364"/><path id="Shape" d="m26 5c-.00252.52572322-.0834092 1.0481329-.24 1.55-.6742566 2.05782019-2.5945333 3.4493587-4.76 3.4493587s-4.0857434-1.39153851-4.76-3.4493587c-.1565908-.5018671-.23748-1.02427678-.24-1.55 0-2.76142375 2.2385763-5 5-5s5 2.23857625 5 5z" fill="#fb7b76"/><path id="Shape" d="m24.749 12c-.1811842.0002168-.3589605-.0492423-.514-.143-2.0109913-1.1210229-4.4590087-1.1210229-6.47 0-.3065026.1918041-.6926712.2032165-1.0099658.0298476-.3172946-.173369-.5162906-.5045139-.5204443-.8660598-.0041536-.3615458.1871822-.6971751.5004101-.8777878 2.646808-1.49504119 5.883192-1.49504119 8.53 0 .3851623.2315989.5685031.6916998.4481796 1.1247244-.1203235.4330245-.5147489.732583-.9641796.7322756z" fill="#df4d60"/><g fill="#d75e72"><path id="Shape" d="m25 30c-.3284694.0002176-.6361009-.1608872-.823-.431l-3.167-4.569-3.188 4.571c-.1994513.3031556-.5474807.4744709-.90937.4476315-.3618892-.0268394-.6808389-.2476209-.8333872-.5768824-.1525484-.3292616-.1147525-.7153249.0987572-1.0087491l3.168-4.572c.378651-.5384718.9957231-.8589144 1.654-.8589144s1.275349.3204426 1.654.8589144l3.168 4.572c.210445.305726.2342522.7028589.0618381 1.0315363-.1724141.3286775-.5126844.5348265-.8838381.5354637z"/><path id="Shape" d="m13 30c-.3284694.0002176-.6361009-.1608872-.823-.431l-3.167-4.569-3.188 4.571c-.31954753.4391509-.93119239.5429709-1.37774949.2338578-.44655711-.3091131-.56475766-.9181424-.26625051-1.3718578l3.168-4.572c.378651-.5384718.99572312-.8589144 1.654-.8589144s1.275349.3204426 1.654.8589144l3.168 4.572c.210445.305726.2342522.7028589.0618381 1.0315363-.1724141.3286775-.5126844.5348265-.8838381.5354637z"/><path id="Shape" d="m37 30c-.3284694.0002176-.6361009-.1608872-.823-.431l-3.167-4.569-3.188 4.571c-.1994513.3031556-.5474807.4744709-.90937.4476315-.3618892-.0268394-.6808389-.2476209-.8333872-.5768824-.1525484-.3292616-.1147525-.7153249.0987572-1.0087491l3.168-4.572c.378651-.5384718.9957231-.8589144 1.654-.8589144s1.275349.3204426 1.654.8589144l3.168 4.572c.210445.305726.2342522.7028589.0618381 1.0315363-.1724141.3286775-.5126844.5348265-.8838381.5354637z"/></g></g></g></svg>