<svg height="512" viewBox="0 0 58 60" width="512" xmlns="http://www.w3.org/2000/svg"><g id="Page-1" fill="none" fill-rule="evenodd"><g id="047---Mountain-Route" fill-rule="nonzero" transform="translate(-1)"><path id="Shape" d="m30 11c-.5522847 0-1-.4477153-1-1v-9c0-.55228475.4477153-1 1-1s1 .44771525 1 1v9c0 .5522847-.4477153 1-1 1z" fill="#547580"/><path id="Shape" d="m40.27 24.64 18.6 32.86c.178104.3084703.1786812.6883921.0015155.9974022-.1771658.3090101-.5053269.5004553-.8615155.5025978h-56.02c-.35618862-.0021425-.68434971-.1935877-.86151547-.5025978s-.1765885-.6889319.00151547-.9974022l18.86-33.32 9.51-3.78z" fill="#95a5a5"/><path id="Shape" d="m40.27 24.64-1.95 2.51c-.1583944.202478-.4005218.3216161-.6575866.3235636-.2570649.0019474-.5009695-.1135086-.6624134-.3135636l-2-2.5c-.1654564-.2066522-.4177492-.3244174-.6824119-.318536s-.5114751.1347378-.6675881.348536l-2.82 3.96c-.1639849.2276455-.4301601.3591866-.710605.3511739s-.5386753-.1545368-.689395-.3911739l-2.91-4.66c-.1450294-.2305386-.3925058-.3768036-.6644055-.3926809-.2718997-.0158774-.5347181.1005894-.7055945.3126809l-1.99 2.49c-.1560068.1947645-.3907802.3097622-.6402925.3136306s-.4877379-.1037959-.6497075-.2936306l-1.88-2.2 4.17-7.37 1.96-3.47 1.61-2.84c.1775523-.3075445.5048889-.4978565.86-.5h2.82c.3551111.0021435.6824477.1924555.86.5z" fill="#ecf0f1"/><path id="Shape" d="m52.86 56c-.3551111-.0021435-.6824477-.1924555-.86-.5l-7.6-13.032c-.1952575-.3090712-.2062951-.7000601-.0287848-1.0196545s.5152733-.5168512.8808477-.5144232c.3655743.002428.7006875.2041537.8739371.5260777l7.6 13.032c.182759.3098744.1849848.6940351.0058288 1.0060065s-.5120786.5036661-.8718288.5019935z" fill="#ecf0f1"/><g fill="#c03a2b"><path id="Rectangle-path" d="m23.931 48h11.138v2h-11.138z" transform="matrix(.991 -.133 .133 .991 -6.246 4.352)"/><path id="Rectangle-path" d="m23.717 34h10.566v2.001h-10.566z" transform="matrix(.962 -.274 .274 .962 -8.489 9.298)"/><path id="Rectangle-path" d="m29.7 15.265h2v17.16h-2z" transform="matrix(.865 -.501 .501 .865 -7.817 18.596)"/><path id="Rectangle-path" d="m28.5 35.196h2.001v14.609h-2.001z" transform="matrix(.591 -.806 .806 .591 -22.217 41.149)"/><path id="Shape" d="m13 60c-.4043959-.0000863-.7689341-.2437275-.923678-.6173454-.1547439-.373618-.0692299-.8036603.216678-1.0896546l7.59-7.59c.3904653-.3912937 1.0242063-.3919653 1.4155-.0015s.3919653 1.0242063.0015 1.4155l-7.59 7.59c-.1882272.1882861-.4437659.2937408-.71.293z"/></g><circle id="Oval" cx="43.257" cy="38.621" fill="#ecf0f1" r="1"/><path id="Shape" d="m30 6h-5.5c-.2025089.00036232-.3852385-.12146287-.4627843-.30853671-.0775458-.18707385-.0345925-.4024491.1087843-.54546329l.793-.792c.0940417-.09380426.1468938-.22117274.1468938-.354s-.0528521-.26019574-.1468938-.354l-.793-.792c-.1433768-.14301419-.1863301-.35838944-.1087843-.54546329.0775458-.18707384.2602754-.30889903.4627843-.30853671h5.5c.5522847 0 1 .44771525 1 1v2c0 .55228475-.4477153 1-1 1z" fill="#ff5364"/><path id="Shape" d="m25 18c-1.6568542 0-3-1.3431458-3-3s1.3431458-3 3-3 3 1.3431458 3 3-1.3431458 3-3 3z" fill="#e64c3c"/><path id="Shape" d="m36 36c-1.6568542 0-3-1.3431458-3-3s1.3431458-3 3-3 3 1.3431458 3 3-1.3431458 3-3 3z" fill="#e64c3c"/><path id="Shape" d="m22 40c-1.2133867 0-2.3072956-.7309265-2.7716386-1.8519497s-.2076757-2.4113767.6503183-3.2693706c.8579939-.857994 2.1483474-1.1146613 3.2693706-.6503183s1.8519497 1.5582519 1.8519497 2.7716386c0 1.6568542-1.3431458 3-3 3z" fill="#e64c3c"/><path id="Shape" d="m37 51c-1.6568542 0-3-1.3431458-3-3s1.3431458-3 3-3 3 1.3431458 3 3-1.3431458 3-3 3z" fill="#e64c3c"/><path id="Shape" d="m22 53c-1.2133867 0-2.3072956-.7309265-2.7716386-1.8519497s-.2076757-2.4113767.6503183-3.2693706c.8579939-.857994 2.1483474-1.1146613 3.2693706-.6503183s1.8519497 1.5582519 1.8519497 2.7716386c0 1.6568542-1.3431458 3-3 3z" fill="#e64c3c"/></g></g></svg>