<svg height="512" viewBox="0 0 58 59" width="512" xmlns="http://www.w3.org/2000/svg"><g id="Page-1" fill="none" fill-rule="evenodd"><g id="048---Broth" fill-rule="nonzero"><path id="Shape" d="m55 28c-.5522847 0-1-.4477153-1-1 0-13.8071187-11.1928813-25-25-25s-25 11.1928813-25 25c0 .5522847-.44771525 1-1 1s-1-.4477153-1-1c0-14.9116882 12.0883118-27 27-27s27 12.0883118 27 27c0 .2652165-.1053568.5195704-.2928932.7071068s-.4418903.2928932-.7071068.2928932z" fill="#95a5a5"/><path id="Shape" d="m6 30c.00160189.5508465-.15079846 1.091175-.44 1.56-.39982974.2885482-.75381683.6357927-1.05 1.03-1.17439076.6840815-2.66196213.4931953-3.62558433-.4652375-.9636222-.9584327-1.16253824-2.4449517-.48480826-3.6230192.67772999-1.1780676 2.062778-1.7533485 3.37570919-1.4021039 1.31293119.3512447 2.22571518 1.5412579 2.2246834 2.9003606z" fill="#3f5c6c"/><path id="Shape" d="m58 30c-.0008146 1.0734551-.5751199 2.0646698-1.5059949 2.5992522-.930875.5345823-2.0764407.531054-3.0040051-.0092522-.2961832-.3942073-.6501703-.7414518-1.05-1.03-.2892015-.468825-.4416019-1.0091535-.44-1.56 0-1.6568542 1.3431458-3 3-3s3 1.3431458 3 3z" fill="#3f5c6c"/><path id="Shape" d="m54 34c0 3.87-11.19 7-25 7s-25-3.13-25-7c.014633-.5124851.19340441-1.0067354.51-1.41.29618317-.3942073.65017026-.7414518 1.05-1.03 3.53-2.66 12.69-4.56 23.44-4.56s19.91 1.9 23.44 4.56c.3998297.2885482.7538168.6357927 1.05 1.03.3165956.4032646.495367.8975149.51 1.41z" fill="#547580"/><path id="Shape" d="m54 34v3c0 5.8347628-2.3178505 11.4305489-6.4436508 15.5563492s-9.7215864 6.4436508-15.5563492 6.4436508h-6c-12.1502645 0-22-9.8497355-22-22v-3c0 3.87 11.19 7 25 7s25-3.13 25-7z" fill="#3f5c6c"/><path id="Shape" d="m20.08 55c-.112365.0000061-.2239274-.0189257-.33-.056-5.4335673-1.9230553-9.7157517-6.1854148-11.664-11.61-.17687499-.5183608.09614817-1.0825557.61239732-1.2655023.51624915-.1829467 1.08360957.0834359 1.27260268.5975023 1.7439842 4.8545035 5.5763449 8.6688754 10.439 10.39.4604125.1609227.7375757.6305127.6559506 1.1113589s-.4982255.8326677-.9859506.8326411z" fill="#fff"/><g fill="#d25627"><path id="Shape" d="m28 23c-.5522847 0-1-.4477153-1-1-.0090026-1.1592543.4277593-2.2776512 1.22-3.124.499599-.495844.7805886-1.1706105.7805886-1.8745s-.2809896-1.378656-.7805886-1.8745c-1.6255106-1.7666432-1.6255106-4.4843568 0-6.251.5049473-.49280157.7867049-1.17046458.78-1.876 0-.55228473.4477153-.99999994 1-.99999994s1 .44771521 1 .99999994c.0087629 1.15961772-.4275271 2.27843843-1.219 3.126-.4999669.4960544-.7811766 1.1712011-.7811766 1.8755s.2812097 1.3794456.7811766 1.8755c1.626199 1.7656064 1.626199 4.4833936 0 6.249-.5049093.492084-.7870123 1.1689866-.781 1.874 0 .5522847-.4477153 1-1 1z"/><path id="Shape" d="m18 24c-.5522847 0-1-.4477153-1-1-.0048926-1.1208758.4425278-2.1963433 1.241-2.983.4829774-.4258013.7596785-1.0386259.7596785-1.6825s-.2767011-1.2566987-.7596785-1.6825c-.7938686-.7900967-1.2401778-1.8639642-1.2401778-2.984s.4463092-2.1939033 1.2401778-2.984c.4808973-.4279063.7569067-1.0402907.759-1.684 0-.55228475.4477153-1 1-1s1 .44771525 1 1c.0048589 1.1209647-.4421255 2.1966109-1.24 2.984-.4831113.4263533-.7598439 1.0396603-.7598439 1.684s.2767326 1.2576467.7598439 1.684c.7940553.789794 1.2405109 1.8635454 1.2405109 2.9835s-.4464556 2.193706-1.2405109 2.9835c-.4811193.4265663-.7575628 1.0380158-.76 1.681 0 .5522847-.4477153 1-1 1z"/><path id="Shape" d="m38 24c-.5522847 0-1-.4477153-1-1-.0048926-1.1208758.4425278-2.1963433 1.241-2.983.4829774-.4258013.7596785-1.0386259.7596785-1.6825s-.2767011-1.2566987-.7596785-1.6825c-.7938686-.7900967-1.2401778-1.8639642-1.2401778-2.984s.4463092-2.1939033 1.2401778-2.984c.4808973-.4279063.7569067-1.0402907.759-1.684 0-.55228475.4477153-1 1-1s1 .44771525 1 1c.0053124 1.1210541-.4417421 2.1968692-1.24 2.984-.4831113.4263533-.7598439 1.0396603-.7598439 1.684s.2767326 1.2576467.7598439 1.684c.7940553.789794 1.2405109 1.8635454 1.2405109 2.9835s-.4464556 2.193706-1.2405109 2.9835c-.4811193.4265663-.7575628 1.0380158-.76 1.681 0 .5522847-.4477153 1-1 1z"/></g><circle id="Oval" cx="24" cy="55" fill="#fff" r="1"/><path id="Shape" d="m29 37c-9.92 0-16.764-1.645-19.741-2.994 3.39-1.592 10.624-3.006 19.741-3.006s16.355 1.415 19.742 3.006c-2.976 1.348-9.821 2.994-19.742 2.994z" fill="#35495e"/><path id="Shape" d="m31.04 36.77c-.5027077.1172846-1.0146133.190892-1.53.22-.3397058.0200012-.6802942.0200012-1.02 0-.5153867-.029108-1.0272923-.1027154-1.53-.22-.4208274-.1558131-.7487843-.4933367-.8924363-.918469s-.087634-.8924009.1524363-1.271531l1.75-2.95c.1978572-.38669.5956308-.629981 1.03-.629981s.8321428.243291 1.03.629981l1.75 2.95c.2400703.3791301.2960883.8463987.1524363 1.271531s-.4716089.7626559-.8924363.918469z" fill="#f29c1f"/><path id="Shape" d="m41.96 35.92c-1.58.29-3.39.55-5.39.74h-.01c-.2752435-.1715292-.4676747-.4488647-.532006-.7667369s.005119-.6482074.192006-.9132631l1.75-2.46c.2422926-.3255209.624205-.5173475 1.03-.5173475s.7877074.1918266 1.03.5173475l1.75 2.46c.198804.2701039.2649551.6155593.18.94z" fill="#f29c1f"/><path id="Shape" d="m21.44 36.66h-.01c-2-.19-3.81-.45-5.39-.74-.0849551-.3244407-.018804-.6698961.18-.94l1.75-2.46c.2422926-.3255209.624205-.5173475 1.03-.5173475s.7877074.1918266 1.03.5173475l1.75 2.46c.186887.2650557.2563373.5953909.192006.9132631s-.2567625.5952077-.532006.7667369z" fill="#f29c1f"/><path id="Shape" d="m29 38c-9.844 0-16.865-1.593-20.154-3.083-.50313137-.2280936-.72609354-.8208686-.49799995-1.324s.82086855-.7260936 1.32399995-.498c2.956 1.341 9.792 2.905 19.328 2.905s16.372-1.564 19.329-2.9c.325469-.1475507.704932-.1102575.9954491.0978315.2905172.208089.4479519.5553603.413.911-.0349518.3556397-.2569801.6656178-.5824491.8131685-3.29 1.485-10.312 3.078-20.155 3.078z" fill="#3f5c6c"/></g></g></svg>