<svg height="512" viewBox="0 0 40 59" width="512" xmlns="http://www.w3.org/2000/svg"><g id="Page-1" fill="none" fill-rule="evenodd"><g id="051---Oxygen-Tank" fill-rule="nonzero" transform="translate(0 -1)"><path id="Shape" d="m17 14c-.5522847 0-1-.4477153-1-1v-4c0-.55228475.4477153-1 1-1s1 .44771525 1 1v4c0 .5522847-.4477153 1-1 1z" fill="#7f8c8d"/><path id="Shape" d="m36 15c-.0032948 1.1032019-.8967981 1.9967052-2 2h-5v-4h5c1.1011688.0081672 1.9918328.8988312 2 2z" fill="#95a5a5"/><path id="Shape" d="m29 13v4h-21.22c.36131208-1.3088559.36131208-2.6911441 0-4z" fill="#95a5a5"/><path id="Shape" d="m40 29v23c0 4.418278-3.581722 8-8 8h-6c-4.418278 0-8-3.581722-8-8v-23l11-2z" fill="#547580"/><path id="Shape" d="m40 29h-22c0-4.418278 3.581722-8 8-8h6c4.418278 0 8 3.581722 8 8z" fill="#f0c419"/><path id="Shape" d="m31 9.46v11.54h-4v-11.54c1.2361501.7199379 2.7638499.7199379 4 0z" fill="#7f8c8d"/><path id="Shape" d="m33 6c0 2.209139-1.790861 4-4 4s-4-1.790861-4-4 1.790861-4 4-4c1.0624979-.00535274 2.0830265.41435553 2.8343355 1.16566451.751309.75130897 1.1710172 1.77183763 1.1656645 2.83433549z" fill="#fff"/><path id="Shape" d="m29 11c-2.514048.0039326-4.6415326-1.85631509-4.9730853-4.34840774-.3315527-2.49209264 1.2355555-4.84387588 3.6631816-5.49739282 2.4276261-.65351695 4.9635903.59371922 5.9279235 2.91546733.9643333 2.3217481.058245 4.99863365-2.1180198 6.25733323-.7600292.4393662-1.6221136.6714394-2.5.673zm0-8c-1.6568542 0-3 1.34314575-3 3s1.3431458 3 3 3 3-1.34314575 3-3-1.3431458-3-3-3z" fill="#95a5a5"/><path id="Shape" d="m10 15c-.00122638.6726367-.07498614 1.3431799-.22 2-.94505142 4.0897253-4.58251619 6.9897542-8.78 7-.55228475 0-1-.4477153-1-1v-16c0-.55228475.44771525-1 1-1 4.19748381.01024583 7.83494858 2.91027469 8.78 7 .14501386.6568201.21877362 1.3273633.22 2z" fill="#81ccb8"/><path id="Shape" d="m36 45h-4c-.4637737.0004331-.8669864-.3180616-.9739657-.7693284-.1069792-.4512667.1103516-.9168702.5249657-1.1246716.959-.484 3.449-2.165 3.449-4.106 0-.5522847-.4477153-1-1-1s-1 .4477153-1 1-.4477153 1-1 1-1-.4477153-1-1c0-1.6568542 1.3431458-3 3-3s3 1.3431458 3 3c-.0812659 1.5398369-.7799326 2.9818735-1.938 4h.938c.5522847 0 1 .4477153 1 1s-.4477153 1-1 1z" fill="#fff"/><path id="Shape" d="m25 45c-2.209139 0-4-1.790861-4-4v-4c0-2.209139 1.790861-4 4-4s4 1.790861 4 4v4c0 2.209139-1.790861 4-4 4zm0-10c-1.1045695 0-2 .8954305-2 2v4c0 1.1045695.8954305 2 2 2s2-.8954305 2-2v-4c0-1.1045695-.8954305-2-2-2z" fill="#fff"/><path id="Shape" d="m27 57h-1c-2.7600532-.0033061-4.9966939-2.2399468-5-5v-4c0-.5522847.4477153-1 1-1s1 .4477153 1 1v4c0 1.6568542 1.3431458 3 3 3h1c.5522847 0 1 .4477153 1 1s-.4477153 1-1 1z" fill="#3f5c6c"/><circle id="Oval" cx="17" cy="6" fill="#fff" r="3"/><path id="Shape" d="m17 10c-2.209139 0-4-1.790861-4-4s1.790861-4 4-4 4 1.790861 4 4c0 1.06086596-.4214274 2.07828161-1.1715729 2.82842712-.7501455.75014552-1.7675611 1.17157288-2.8284271 1.17157288zm0-6c-1.1045695 0-2 .8954305-2 2s.8954305 2 2 2 2-.8954305 2-2c0-.53043298-.2107137-1.03914081-.5857864-1.41421356-.3750728-.37507276-.8837806-.58578644-1.4142136-.58578644z" fill="#e64c3c"/><path id="Shape" d="m6 16c-.55228475 0-1-.4477153-1-1 .00476581-1.2601495-.5890209-2.4477229-1.6-3.2-.28581248-.2143594-.43555475-.5649147-.39282034-.9196152.0427344-.3547006.27145312-.6596589.6-.8000001.32854689-.14034115.70700787-.09474407.99282034.1196153 1.51621625 1.128627 2.40682814 2.9098508 2.4 4.8 0 .5522847-.44771525 1-1 1z" fill="#fff"/></g></g></svg>