<svg height="512" viewBox="0 0 36 58" width="512" xmlns="http://www.w3.org/2000/svg"><g id="Page-1" fill="none" fill-rule="evenodd"><g id="052---Sleeping-Bag" fill-rule="nonzero"><path id="Shape" d="m28.83 24.83c1.1453208-1.1440463 1.4881603-2.8656305.8684897-4.3611605-.6196705-1.49553-2.079663-2.4701135-3.6984897-2.4688395h1c2.209139 0 4-1.790861 4-4s-1.790861-4-4-4h-.04c-.41-5.61-4.26-10-8.96-10s-8.55 4.39-8.96 10h-.04c-2.209139 0-4 1.790861-4 4s1.790861 4 4 4h1c-2.209139 0-4 1.790861-4 4s1.790861 4 4 4h1c-2.209139 0-4 1.790861-4 4s1.790861 4 4 4h1c-2.209139 0-4 1.790861-4 4s1.790861 4 4 4h1c-2.209139 0-4 1.790861-4 4s1.790861 4 4 4h2c-2.209139 0-4 1.790861-4 4s1.790861 4 4 4h6c2.209139 0 4-1.790861 4-4s-1.790861-4-4-4h2c2.209139 0 4-1.790861 4-4s-1.790861-4-4-4h1c2.209139 0 4-1.790861 4-4s-1.790861-4-4-4h1c2.209139 0 4-1.790861 4-4s-1.790861-4-4-4h1c1.0606427-.0018942 2.0776689-.4223608 2.83-1.17zm-10.83-11.83c-4 0-5-2-5-2 0-3.87 2.24-7 5-7s5 3.13 5 7c0 0-1 2-5 2z" fill="#e57e25"/><path id="Shape" d="m23 11s-1 2-5 2-5-2-5-2c0-3.87 2.24-7 5-7s5 3.13 5 7z" fill="#464f5d"/><path id="Shape" d="m15 58.0000012-3.75-.0000012c-3.52926114.0020146-6.5062281-2.6274966-6.94-6.13l-4.25-34c-.25214831-1.9921004.36433777-3.996455 1.69242742-5.5025164 1.32808965-1.5060613 3.23957808-2.36844432 5.24757258-2.3674836h2c-2.209139 0-4 1.790861-4 4s1.790861 4 4 4h1c-2.209139 0-4 1.790861-4 4s1.790861 4 4 4h1c-2.209139 0-4 1.790861-4 4s1.790861 4 4 4h1c-2.209139 0-4 1.790861-4 4s1.790861 4 4 4h1c-2.209139 0-4 1.790861-4 4s1.790861 4 4 4h2c-2.209139 0-4 1.790861-4 4s1.790861 4 4 4.0000012z" fill="#d25627"/><path id="Shape" d="m35.94 17.87-4.25 34c-.4337719 3.5025034-3.4107389 6.1320146-6.94 6.13l-3.75.0000012c2.209139-.0000012 4-1.7908622 4-4.0000012s-1.790861-4-4-4h2c2.209139 0 4-1.790861 4-4s-1.790861-4-4-4h1c2.209139 0 4-1.790861 4-4s-1.790861-4-4-4h1c2.209139 0 4-1.790861 4-4s-1.790861-4-4-4h1c2.209139 0 4-1.790861 4-4s-1.790861-4-4-4h1c2.209139 0 4-1.790861 4-4s-1.790861-4-4-4h2c2.0079945-.00096072 3.9194829.8614223 5.2475726 2.3674836 1.3280896 1.5060614 1.9445757 3.510416 1.6924274 5.5025164z" fill="#d25627"/><g fill="#f3d55b"><path id="Shape" d="m22 19h-8c-.5522847 0-1-.4477153-1-1s.4477153-1 1-1h8c.5522847 0 1 .4477153 1 1s-.4477153 1-1 1z"/><path id="Shape" d="m21 27h-6c-.5522847 0-1-.4477153-1-1s.4477153-1 1-1h6c.5522847 0 1 .4477153 1 1s-.4477153 1-1 1z"/><path id="Shape" d="m20 35h-4c-.5522847 0-1-.4477153-1-1s.4477153-1 1-1h4c.5522847 0 1 .4477153 1 1s-.4477153 1-1 1z"/><path id="Shape" d="m19 43h-2c-.5522847 0-1-.4477153-1-1s.4477153-1 1-1h2c.5522847 0 1 .4477153 1 1s-.4477153 1-1 1z"/></g></g></g></svg>