<svg height="512" viewBox="0 0 48 58" width="512" xmlns="http://www.w3.org/2000/svg"><g id="Page-1" fill="none" fill-rule="evenodd"><g id="055---Lighter" fill-rule="nonzero" transform="translate(0 -1)"><path id="Shape" d="m43 19c-.7025888.0007273-1.3925223.1870094-2 .54v-1.54c0-.5522847-.4477153-1-1-1h-12c-.5522847 0-1 .4477153-1 1v8c-.0081672-1.1011688-.8988312-1.9918328-2-2-.7137984.0007321-1.373101.3818319-1.73 1h-5.27v6c1.1032019.0032948 1.9967052.8967981 2 2h25v-6.54c1.5635665-.906992 2.3245625-2.7498818 1.8564843-4.4958135s-2.048899-2.9609886-3.8564843-2.9641865z" fill="#95a5a5"/><path id="Shape" d="m18 31h-13c-2.76142375 0-5-2.2385763-5-5v-20c0-2.76142375 2.23857625-5 5-5h12c.5522847 0 1 .44771525 1 1z" fill="#3b97d3"/><path id="Shape" d="m4 15c-.55228475 0-1-.4477153-1-1v-8c0-1.1045695.8954305-2 2-2h4c.55228475 0 1 .44771525 1 1s-.44771525 1-1 1h-4v8c0 .5522847-.44771525 1-1 1z" fill="#fff"/><path id="Shape" d="m48 33v24c-.0032948 1.1032019-.8967981 1.9967052-2 2h-26c-1.1032019-.0032948-1.9967052-.8967981-2-2v-24c1.1032019-.0032948 1.9967052-.8967981 2-2h26c1.1032019.0032948 1.9967052.8967981 2 2z" fill="#2980ba"/><path id="Shape" d="m41 18v13h-14v-13c0-.5522847.4477153-1 1-1h12c.5522847 0 1 .4477153 1 1z" fill="#bdc3c7"/><g fill="#56595e"><circle id="Oval" cx="31" cy="21" r="1"/><circle id="Oval" cx="37" cy="21" r="1"/><circle id="Oval" cx="31" cy="27" r="1"/><circle id="Oval" cx="34" cy="24" r="1"/><circle id="Oval" cx="37" cy="27" r="1"/></g><path id="Shape" d="m45 26.46v4.54h-4v-4.54c1.2361501.7199379 2.7638499.7199379 4 0z" fill="#7f8c8d"/><circle id="Oval" cx="18" cy="31" fill="#bdc3c7" r="2"/><path id="Shape" d="m27 26v5h-4v-5c0-1.1045695.8954305-2 2-2 1.1011688.0081672 1.9918328.8988312 2 2z" fill="#7f8c8d"/><path id="Shape" d="m36.5 16.29c.3514349-.7323371.5228581-1.5380261.5-2.35-.1333332-1.7340751-.9808279-3.3348984-2.34-4.42-.3775063-.33164587-.9424937-.33164587-1.32 0-1.3591721 1.0851016-2.2066668 2.6859249-2.34 4.42-.0228581.8119739.1485651 1.6176629.5 2.35-1.0831279-1.9966706-1.6017034-4.2507455-1.5-6.52.1526472-3.069928 1.2846161-6.01024357 3.23-8.39.1826143-.24105864.467581-.38268533.77-.38268533s.5873857.14162669.77.38268533c1.9453839 2.37975643 3.0773528 5.320072 3.23 8.39.1017034 2.2692545-.4168721 4.5233294-1.5 6.52z" fill="#f3d55b"/><path id="Shape" d="m37 13.94c.0228581.8119739-.1485651 1.6176629-.5 2.35-.0111376.0245213-.0245285.0479552-.04.07-.1127138.1870507-.2362576.3673578-.37.54-.0252086.0373526-.0555.0710097-.09.1h-4c-.0345-.0289903-.0647914-.0626474-.09-.1-.1337424-.1726422-.2572862-.3529493-.37-.54-.0154715-.0220448-.0288624-.0454787-.04-.07-.3514349-.7323371-.5228581-1.5380261-.5-2.35.1333332-1.7340751.9808279-3.3348984 2.34-4.42.3775063-.33164587.9424937-.33164587 1.32 0 1.3591721 1.0851016 2.2066668 2.6859249 2.34 4.42z" fill="#f9eab0"/><circle id="Oval" cx="4" cy="18" fill="#fff" r="1"/><path id="Shape" d="m22 39c-.4043959-.0000863-.7689341-.2437275-.923678-.6173454-.1547439-.373618-.0692299-.8036603.216678-1.0896546l3-3c.3923789-.3789722 1.0160848-.3735524 1.4018186.0121814s.3911536 1.0094397.0121814 1.4018186l-3 3c-.1874927.1875494-.4418052.2929434-.707.293z" fill="#fff"/><path id="Shape" d="m28 45c-.4043959-.0000863-.7689341-.2437275-.923678-.6173454-.1547439-.373618-.0692299-.8036603.216678-1.0896546l3-3c.3923789-.3789722 1.0160848-.3735524 1.4018186.0121814s.3911536 1.0094397.0121814 1.4018186l-3 3c-.1874927.1875494-.4418052.2929434-.707.293z" fill="#fff"/><path id="Shape" d="m22 45c-.4043959-.0000863-.7689341-.2437275-.923678-.6173454-.1547439-.373618-.0692299-.8036603.216678-1.0896546l9-9c.3923789-.3789722 1.0160848-.3735524 1.4018186.0121814s.3911536 1.0094397.0121814 1.4018186l-9 9c-.1874927.1875494-.4418052.2929434-.707.293z" fill="#fff"/></g></g></svg>