<svg height="512" viewBox="0 0 38 58" width="512" xmlns="http://www.w3.org/2000/svg"><g id="Page-1" fill="none" fill-rule="evenodd"><g id="056---Hiker-Female" fill-rule="nonzero" transform="translate(-1)"><path id="Shape" d="m25 43s-1 2-5 2-5-2-5-2c1.3578632-1.315934 2.0860911-3.1510682 2-5.04.8820162.3972624 1.7950634.7216785 2.73.97.1799237.0500042.3700763.0500042.55 0 .9317068-.2482795 1.8414349-.5727046 2.72-.97-.0860911 1.8889318.6421368 3.724066 2 5.04z" fill="#f9c795"/><path id="Shape" d="m26 51v2c0 .5522847.4477153 1 1 1v4h-14v-4c.5522847 0 1-.4477153 1-1v-2c0-.5522847-.4477153-1-1-1v-6.95c.33-.03.66-.05 1-.05h1s1 2 5 2 5-2 5-2h1c.34 0 .67.02 1 .05v6.95c-.5522847 0-1 .4477153-1 1z" fill="#3b97d3"/><path id="Shape" d="m8 51v2c0 .5522847.44771525 1 1 1v4h-5c-.55228475 0-1-.4477153-1-1v-3c-.00076715-4.1346965 2.31712839-7.9205925 6-9.8v5.8c-.55228475 0-1 .4477153-1 1z" fill="#ff5364"/><path id="Rectangle-path" d="m9 54h4v4h-4z" fill="#84b5cb"/><path id="Shape" d="m13 43.05v6.95h-4v-5.8c1.2463575-.6385545 2.6048137-1.0291107 4-1.15z" fill="#84b5cb"/><path id="Shape" d="m37 54v3c0 .5522847-.4477153 1-1 1h-5v-4c.5522847 0 1-.4477153 1-1v-2c0-.5522847-.4477153-1-1-1v-5.8c3.6828716 1.8794075 6.0007671 5.6653035 6 9.8z" fill="#ff5364"/><path id="Rectangle-path" d="m27 54h4v4h-4z" fill="#84b5cb"/><path id="Shape" d="m31 44.2v5.8h-4v-6.95c1.3960612.1161441 2.7554213.5069601 4 1.15z" fill="#84b5cb"/><rect id="Rectangle-path" fill="#f3d55b" height="4" rx="1" width="6" x="8" y="50"/><rect id="Rectangle-path" fill="#f3d55b" height="4" rx="1" width="6" x="26" y="50"/><path id="Shape" d="m39 13c0 .5522847-.4477153 1-1 1h-36c-.55228475 0-1-.4477153-1-1-.00132908-1.0612728.41967146-2.0794609 1.17010528-2.8298947.75043381-.75043384 1.76862187-1.17143438 2.82989472-1.1701053h30c2.209139 0 4 1.790861 4 4z" fill="#a56a43"/><path id="Shape" d="m32 9h-24l4.43-7.97c.3504472-.63814207 1.0219704-1.03338139 1.75-1.03h11.65c.7246856-.00058642 1.391917.39438389 1.74 1.03z" fill="#cb8252"/><circle id="Oval" cx="15.003" cy="4" fill="#f0c419" r="1"/><circle id="Oval" cx="25.003" cy="4" fill="#f0c419" r="1"/><path id="Shape" d="m7 20c1.05.01 2.05-.01 3-.08" fill="#f9c795"/><path id="Shape" d="m30 19.92c.95.07 1.95.09 3 .08" fill="#f9c795"/><path id="Shape" d="m37.98 40h-2.44c-6.22 0-7.96-3.08-8.44-4.79 1.1118631-1.0554168 2.020286-2.3061931 2.68-3.69.1351412-.2946043.4095502-.5013508.73-.55 1.9349394-.2460674 3.410266-1.8518616 3.4918788-3.8006764s-1.2542881-3.6723381-3.1618788-4.0793236c-.4799514-.0879923-.8313377-.5021261-.84-.99v-2.18c-4.53-.32-7.99-1.73-10-5.92h14.42c2.3631433 3.0815076 3.6237776 6.8669317 3.58 10.75v11.02c.0053447.9541875.2980671 1.8846267.84 2.67.2029437.3125079.2173346.7113706.0374399 1.0376912-.1798947.3263207-.5248483.5270832-.8974399.5223088z" fill="#35495e"/><path id="Shape" d="m6 27c.00593667 2.0138238 1.50280172 3.7116965 3.5 3.97.31911554.0461252.5915699.2542501.72.55.659714 1.3838069 1.5681369 2.6345832 2.68 3.69-.48 1.71-2.22 4.79-8.44 4.79h-2.44c-.37259159.0047744-.71754517-.1959881-.8974399-.5223088-.17989472-.3263206-.16550376-.7251833.0374399-1.0376912.53833363-.7865435.8275377-1.7168747.83-2.67v-11.02c-.04029358-3.8841493 1.22383601-7.6694956 3.59-10.75h14.42c-2 4.19-5.47 5.6-10 5.92v2.18c-.00866233.4878739-.36004863.9020077-.84.99-1.84098209.3993021-3.15582864 2.0262166-3.16 3.91z" fill="#3f5c6c"/><path id="Shape" d="m34 27c-.0013204 2.0119787-1.4947812 3.7108439-3.49 3.97-.3204498.0486492-.5948588.2553957-.73.55-.659714 1.3838069-1.5681369 2.6345832-2.68 3.69-1.2027774 1.1401063-2.5887853 2.0697457-4.1 2.75-.8785651.3972954-1.7882932.7217205-2.72.97-.1799237.0500042-.3700763.0500042-.55 0-.9349366-.2483215-1.8479838-.5727376-2.73-.97-1.5112147-.6802543-2.8972226-1.6098937-4.1-2.75-1.1118631-1.0554168-2.020286-2.3061931-2.68-3.69-.1284301-.2957499-.40088446-.5038748-.72-.55-1.93580246-.243062-3.41384718-1.8472194-3.49794924-3.7964083-.08410206-1.9491888 1.250277-3.6746945 3.15794924-4.0835917.47995137-.0879923.83133767-.5021261.84-.99v-2.18c4.53-.32 8-1.73 10-5.92 2.01 4.19 5.47 5.6 10 5.92v2.18c.0086623.4878739.3600486.9020077.84.99 1.8430909.3958766 3.1596204 2.0248734 3.16 3.91z" fill="#fdd7ad"/></g></g></svg>