<svg height="512" viewBox="0 0 34 58" width="512" xmlns="http://www.w3.org/2000/svg"><g id="Page-1" fill="none" fill-rule="evenodd"><g id="057---Mobile-Phone-Mountain" fill-rule="nonzero"><path id="Shape" d="m6 22v-19c0-1.65685425 1.34314575-3 3-3h22c1.6568542 0 3 1.34314575 3 3v18.96z" fill="#f3d55b"/><path id="Shape" d="m11.9 29h22.1v-10.2l-1.81-2.17-2.91-3.49c-.0795565-.090703-.1943506-.1427103-.315-.1427103s-.2354435.0520073-.315.1427103l-2.08 2.51-3.36-4.04-2.87-3.45c-.0847406-.09981738-.2090631-.15735489-.34-.15735489s-.2552594.05753751-.34.15735489l-2.88 3.45-3.32 3.99-2.07-2.46c-.0795565-.090703-.1943506-.1427103-.315-.1427103s-.2354435.0520073-.315.1427103l-2.93 3.51-1.83 2.19v8.55z" fill="#bdc3c7"/><path id="Shape" d="m34 37v7c0 1.6568542-1.3431458 3-3 3h-22c-1.65685425 0-3-1.3431458-3-3v-7c0 1.6568542 1.34314575 3 3 3h22c1.6568542 0 3-1.3431458 3-3z" fill="#35495e"/><path id="Shape" d="m11.9 27h22.1v12c0 1.6568542-1.3431458 3-3 3h-22c-1.65685425 0-3-1.3431458-3-3v-12z" fill="#2fa8cc"/><path id="Shape" d="m20.1 23.48-4.55 5.52h-3.65c.1752108-.5677188.1213743-1.1814553-.15-1.71v-.01c-.5428312-1.0833219-1.82767586-1.5667719-2.95-1.11l-2.8 1.22v-8.55l1.83-2.19 2.53 2.53c.4005652.400023 1.0494348.400023 1.45 0l2.53-2.53z" fill="#95a5a5"/><path id="Shape" d="m34 18.8v10.2h-18.45l4.55-5.52 5.61-6.79.01.01 2.48 2.48c.4005652.400023 1.0494348.400023 1.45 0l2.54-2.55z" fill="#7f8c8d"/><path id="Shape" d="m29 0-2.86 3.05c-.5663757.60708315-1.3597411.95123705-2.19.95h-7.9c-.8302589.00123705-1.6236243-.34291685-2.19-.95l-2.86-3.05z" fill="#35495e"/><path id="Shape" d="m14.34 16.65-2.53 2.53c-.4005652.400023-1.0494348.400023-1.45 0l-2.53-2.53 2.93-3.51c.0795565-.090703.1943506-.1427103.315-.1427103s.2354435.0520073.315.1427103l2.07 2.46z" fill="#ecf0f1"/><path id="Shape" d="m20.11 23.49-.01-.01" fill="#35495e"/><path id="Shape" d="m32.19 16.63-2.54 2.55c-.4005652.400023-1.0494348.400023-1.45 0l-2.48-2.48-.01-.01.86-1.04 2.08-2.51c.0795565-.090703.1943506-.1427103.315-.1427103s.2354435.0520073.315.1427103z" fill="#ecf0f1"/><path id="Shape" d="m23.21 11.61-.01.01-2.62 2.63c-.3204977.3199082-.8395023.3199082-1.16 0l-2.63-2.63-.01-.01 2.88-3.45c.0847406-.09981738.2090631-.15735489.34-.15735489s.2552594.05753751.34.15735489z" fill="#fff"/><path id="Shape" d="m25 32h-10c-.5522847 0-1 .4477153-1 1s.4477153 1 1 1h2.184c-.1184378.320257-.1806856.6585603-.184 1 0 1.6568542 1.3431458 3 3 3h3c.5522847 0 1-.4477153 1-1s-.4477153-1-1-1h-3c-.5522847 0-1-.4477153-1-1s.4477153-1 1-1h5c.5522847 0 1-.4477153 1-1s-.4477153-1-1-1z" fill="#fff"/><path id="Shape" d="m26 47s0 3.66-5.25 4.85c-.4446611.1103341-.7551374.5118835-.75.97v4.18c0 .5522847-.4477153 1-1 1h-13c-.55228475 0-1-.4477153-1-1v-5.22c.00118683-.439407-.28825049-.8266823-.71-.95-4.29-1.22-4.29-4.83-4.29-4.83v-12.72c.00138595-1.9924059 1.18323571-3.7946287 3.01-4.59l2.99-1.3 2.8-1.22c1.12232414-.4567719 2.4071688.0266781 2.95 1.11v.01c.2713743.5285447.3252108 1.1422812.15 1.71-.1826285.6098626-.6098634 1.1167514-1.18 1.4l-4.72 2.6v11c0 1.6568542 1.34314575 3 3 3z" fill="#fdd7ad"/></g></g></svg>