<svg height="512" viewBox="0 0 44 58" width="512" xmlns="http://www.w3.org/2000/svg"><g id="Page-1" fill="none" fill-rule="evenodd"><g id="058---Hiking-Award" fill-rule="nonzero"><path id="Shape" d="m19.6 43.01-4.01 14.26c-.0928595.3355692-.3535779.5986809-.6882845.6946029-.3347067.0959221-.6952112.0108437-.9517155-.2246029l-2.93-2.67-.83-.75-1.1.21-3.9.74c-.33958017.0644456-.68836442-.0510393-.92238313-.3054075-.23401872-.2543682-.32008835-.6115505-.22761687-.9445925l4.67-16.6 5.29.58z" fill="#df4d60"/><path id="Shape" d="m35.29 37.42 4.67 16.6c.0924715.333042.0064018.6902243-.2276169.9445925s-.5828029.3698531-.9223831.3054075l-3.9-.74-1.1-.21-.82.75-2.94 2.67c-.2565043.2354466-.6170088.320525-.9517155.2246029-.3347066-.095922-.595425-.3590337-.6882845-.6946029l-4.01-14.26 4.6-5.01z" fill="#df4d60"/><path id="Shape" d="m41.06 33c-.93 1.6-3.62 1.85-4.92 3.14-.3486072.3795281-.6354361.8114588-.85 1.28-.67 1.33-1.12 2.96-2.29 3.64-1.57.9-4.03-.22-5.82.26-1.0121826.4088483-1.9511125.9796366-2.78 1.69-.6790977.5690522-1.5172008.9147697-2.4.99-.8827992-.0752303-1.7209023-.4209478-2.4-.99-.8288875-.7103634-1.7678174-1.2811517-2.78-1.69-1.79-.48-4.25.64-5.82-.26-1.17-.68-1.62-2.31-2.29-3.64-.21456392-.4685412-.50139284-.9004719-.85-1.28-1.3-1.29-3.99-1.54-4.92-3.14-.9-1.57.22-4.03-.26-5.82-.47-1.74-2.68-3.3-2.68-5.18s2.21-3.44 2.68-5.18c.48-1.79-.64-4.25.26-5.82.93-1.6 3.62-1.85 4.92-3.14s1.54-3.99 3.14-4.92c1.57-.9 4.03.22 5.82-.26 1.74-.47 3.3-2.68 5.18-2.68s3.44 2.21 5.18 2.68c1.79.48 4.25-.64 5.82.26 1.6.93 1.85 3.62 3.14 4.92s3.99 1.54 4.92 3.14c.9 1.57-.22 4.03.26 5.82.47 1.74 2.68 3.3 2.68 5.18s-2.21 3.44-2.68 5.18c-.48 1.79.64 4.25-.26 5.82z" fill="#fb7b76"/><path id="Shape" d="m37 22c.003305 1.1413793-.1275935 2.2791893-.39 3.39l-8.64 2.43-3.98 1.12-5.77 1.62-6.91 1.95c-4.75335799-4.8290085-5.679065-12.2451152-2.25861402-18.0944101 3.42045102-5.84929484 10.33762992-8.67917226 16.87708642-6.9045612s11.077191 7.7130062 11.0715276 14.4889713z" fill="#f9eab0"/><path id="Shape" d="m34.81 14.19c-5.9117431-3.611138-13.5274194-2.7042581-18.4258388 2.1941612-4.8984193 4.8984194-5.8052992 12.5140957-2.1941612 18.4258388-5.30410347-3.2399664-8.06064186-9.4154503-6.9308839-15.5272866 1.12975796-6.1118364 5.9117609-10.89383934 12.0235973-12.0235973 6.1118363-1.12975796 12.2873202 1.62678043 15.5272866 6.9308839z" fill="#f5efca"/><path id="Shape" d="m36.61 25.39c-1.2332804 5.3316633-5.2743752 9.5673525-10.5421885 11.0498359-5.2678133 1.4824835-10.9248659-.0239248-14.7578115-3.9298359l6.91-1.95 5.77-1.62 3.98-1.12z" fill="#4fba6f"/><g fill="#ff5364"><path id="Shape" d="m12.37 50.27-1.35 4.8-.83-.75-1.1.21 1.35-4.8c.1491169-.5329548.7020452-.8441169 1.235-.695s.8441169.7020452.695 1.235z"/><path id="Shape" d="m14.91 41.23-1.42 5.04c-.1186653.4320455-.5119559.7311103-.96.73-.0915765.0014399-.1827745-.0120709-.27-.04-.5291793-.1504033-.8374905-.7000015-.69-1.23l1.22-4.31c.68-.01 1.41-.13 2.12-.19z"/><path id="Shape" d="m31.74 46.96c-.0872255.0279291-.1784235.0414399-.27.04-.4480441.0011103-.8413347-.2979545-.96-.73l-1.42-5.04c.72.06 1.45.18 2.13.19l1.21 4.31c.1474905.5299985-.1608207 1.0795967-.69 1.23z"/><path id="Shape" d="m34.91 54.53-1.1-.21-.82.75-1.36-4.8c-.1491168-.5329548.1620453-1.0858831.695-1.2349999.5329548-.1491169 1.0858831.1620451 1.235.6949999z"/></g><path id="Shape" d="m23 34.372c-.4998196.0002494-.9230657-.3685804-.9911719-.8637382-.0681063-.4951578.2398455-.9645599.7211719-1.0992618l4.766-1.34c.5318502-.149393 1.084107.1606498 1.2335.6925s-.1606498 1.084107-.6925 1.2335l-4.765 1.34c-.0885828.024545-.1800795.0369912-.272.037z" fill="#24ae5f"/><path id="Shape" d="m17 16h3v7h-3c-1.1045695 0-2-.8954305-2-2v-3c0-1.1045695.8954305-2 2-2z" fill="#e64c3c"/><path id="Shape" d="m27.969 28.82c-.4826076-.0003217-.8961307-.3452749-.983-.82l-1.969-10.82c-.0804523-.3580932.0417229-.7314832.3182915-.9727573.2765686-.241274.6630827-.3116565 1.0069483-.1833608.3438656.1282956.5898195.4346509.6407602.7981181l1.97 10.821c.0527522.2916279-.0265661.5916323-.2165574.8190811-.1899912.2274488-.471082.3589099-.7674426.3589189z" fill="#a56a43"/><path id="Shape" d="m22 38c-8.836556 0-16-7.163444-16-16s7.163444-16 16-16 16 7.163444 16 16c-.0104696 8.8322157-7.1677843 15.9895304-16 16zm0-30c-7.7319865 0-14 6.2680135-14 14s6.2680135 14 14 14 14-6.2680135 14-14c-.0082673-7.7285595-6.2714405-13.99173268-14-14z" fill="#ff5364"/><path id="Shape" d="m27.9 17.86c-.1186456-.2372731-.3267092-.4176795-.578398-.5015133-.2516887-.0838337-.5263747-.064224-.763602.0545133l-2.966 1.487c-.320571.1595566-.7019883.1355273-1-.063l-1.592-1.064v-1.773c0-.5522847-.4477153-1-1-1s-1 .4477153-1 1v10.53c.0020017.1534795-.032261.3052633-.1.443l-1.571 3.139c-.1598764.3195741-.1371175.7001657.0597036.9984097s.5378026.4688301.8945.4475c.3566975-.02133.67492-.2313356.8347964-.5509097l1.572-3.141c.2061148-.4150615.3122766-.8725842.31-1.336v-1.664l.8.53c.2089117.1424798.3594495.3555049.424.6l.8 3.191c.1116644.4438118.510357.7551874.968.756.0822727.0003241.1642562-.0097558.244-.03.5344906-.1355668.8583758-.6782087.724-1.213l-.8-3.189c-.1836203-.7233777-.6271705-1.353817-1.246-1.771l-1.914-1.276v-2.288l.479.32c.8962809.5957198 2.0424791.6674049 3.006.188l2.962-1.484c.2378051-.1175827.4191432-.3248395.5041025-.5761538.0849592-.2513143.0665764-.5260887-.0511025-.7638462z" fill="#5d4c72"/><circle id="Oval" cx="20" cy="14" fill="#fdd7ad" r="2"/></g></g></svg>