<svg height="512" viewBox="0 0 58 58" width="512" xmlns="http://www.w3.org/2000/svg"><g id="Page-1" fill="none" fill-rule="evenodd"><g id="059---Canned-Food" fill-rule="nonzero"><path id="Rectangle-path" d="m2 29h28v26h-28z" fill="#7f8c8d"/><path id="Shape" d="m31 15c.0047702 4.175764-1.7353793 8.1636066-4.8 11h-20.4c-5.0290196-4.6640438-6.25384072-12.1451187-2.97473992-18.16938963 3.2791008-6.02427097 10.22672252-9.05696298 16.87378452-7.36554087 6.6470621 1.6914221 11.3001239 7.67604269 11.3009554 14.5349305z" fill="#95a5a5"/><path id="Shape" d="m16 27c-6.627417 0-12-5.372583-12-12s5.372583-12 12-12 12 5.372583 12 12c-.0071648 6.624447-5.375553 11.9928352-12 12zm0-22c-5.5228475 0-10 4.4771525-10 10s4.4771525 10 10 10 10-4.4771525 10-10c-.0060624-5.52033443-4.4796656-9.99393763-10-10z" fill="#7f8c8d"/><path id="Shape" d="m16 23c-4.418278 0-8-3.581722-8-8s3.581722-8 8-8 8 3.581722 8 8c-.0049599 4.4162219-3.5837781 7.9950401-8 8zm0-14c-3.3137085 0-6 2.6862915-6 6s2.6862915 6 6 6 6-2.6862915 6-6c-.0033074-3.3123376-2.6876624-5.99669262-6-6z" fill="#7f8c8d"/><path id="Shape" d="m16 19c-2.209139 0-4-1.790861-4-4s1.790861-4 4-4 4 1.790861 4 4c0 1.060866-.4214274 2.0782816-1.1715729 2.8284271s-1.7675611 1.1715729-2.8284271 1.1715729zm0-6c-1.1045695 0-2 .8954305-2 2s.8954305 2 2 2 2-.8954305 2-2-.8954305-2-2-2z" fill="#7f8c8d"/><path id="Shape" d="m56 12v-8c0-2.209139-1.790861-4-4-4h-12c-.5522847 0-1 .44771525-1 1v11c-1.1032019.0032948-1.9967052.8967981-2 2v1c.0032948 1.1032019.8967981 1.9967052 2 2v4c0 .5522847.4477153 1 1 1v12h5v-5c0-1.6568542 1.3431458-3 3-3s3 1.3431458 3 3v5h5v-17c1.1032019-.0032948 1.9967052-.8967981 2-2v-1c-.0032948-1.1032019-.8967981-1.9967052-2-2z" fill="#95a5a5"/><path id="Shape" d="m56 17v15h-5v-3c0-1.6568542-1.3431458-3-3-3v-9z" fill="#7f8c8d"/><path id="Shape" d="m46 33v21.5c0 1.9329966-1.5670034 3.5-3.5 3.5s-3.5-1.5670034-3.5-3.5v-21.5c0-.5522847.4477153-1 1-1h5c.2652165 0 .5195704.1053568.7071068.2928932s.2928932.4418903.2928932.7071068z" fill="#e64c3c"/><path id="Shape" d="m57 33v21.5c-.0000001 1.9329966-1.5670034 3.4999999-3.5 3.4999999s-3.4999999-1.5670033-3.5-3.4999999v-21.5c0-.5522847.4477153-1 1-1h5c.2652165 0 .5195704.1053568.7071068.2928932s.2928932.4418903.2928932.7071068z" fill="#e64c3c"/><path id="Shape" d="m52 4v4c0 2.209139-1.790861 4-4 4h-9v-11c0-.55228475.4477153-1 1-1h8c2.209139 0 4 1.790861 4 4z" fill="#bdc3c7"/><circle id="Oval" cx="46" cy="6" fill="#7f8c8d" r="2"/><path id="Shape" d="m48 17v1c0 2.209139-1.790861 4-4 4h-4c-.5522847 0-1-.4477153-1-1v-4z" fill="#bdc3c7"/><rect id="Rectangle-path" fill="#a5a5a4" height="5" rx="2" width="21" x="37" y="12"/><path id="Shape" d="m32 28c-.0081672 1.1011688-.8988312 1.9918328-2 2h-28c-1.10320187-.0032948-1.9967052-.8967981-2-2-.00282307-.5305905.2101411-1.0395388.59-1.41.3704612-.3798589.87940947-.5928231 1.41-.59h28c1.1032019.0032948 1.9967052.8967981 2 2z" fill="#bdc3c7"/><path id="Shape" d="m32 56c-.0081672 1.1011688-.8988312 1.9918328-2 2h-28c-1.10320187-.0032948-1.9967052-.8967981-2-2-.00282307-.5305905.2101411-1.0395388.59-1.41.3704612-.3798589.87940947-.5928231 1.41-.59h28c1.1032019.0032948 1.9967052.8967981 2 2z" fill="#bdc3c7"/><g fill="#95a5a5"><path id="Shape" d="m31 35h-30c-.55228475 0-1-.4477153-1-1s.44771525-1 1-1h30c.5522847 0 1 .4477153 1 1s-.4477153 1-1 1z"/><path id="Shape" d="m31 39h-30c-.55228475 0-1-.4477153-1-1s.44771525-1 1-1h30c.5522847 0 1 .4477153 1 1s-.4477153 1-1 1z"/><path id="Shape" d="m31 43h-30c-.55228475 0-1-.4477153-1-1s.44771525-1 1-1h30c.5522847 0 1 .4477153 1 1s-.4477153 1-1 1z"/><path id="Shape" d="m31 47h-30c-.55228475 0-1-.4477153-1-1s.44771525-1 1-1h30c.5522847 0 1 .4477153 1 1s-.4477153 1-1 1z"/><path id="Shape" d="m31 51h-30c-.55228475 0-1-.4477153-1-1s.44771525-1 1-1h30c.5522847 0 1 .4477153 1 1s-.4477153 1-1 1z"/></g></g></g></svg>