<svg height="512" viewBox="0 0 58 58" width="512" xmlns="http://www.w3.org/2000/svg"><g id="Page-1" fill="none" fill-rule="evenodd"><g id="060---Rubber-Dinghy" fill-rule="nonzero"><path id="Shape" d="m3 46c-.55228475 0-1-.4477153-1-1v-41c0-.55228475.44771525-1 1-1s1 .44771525 1 1v41c0 .5522847-.44771525 1-1 1z" fill="#a56a43"/><path id="Shape" d="m55 46c-.5522847 0-1-.4477153-1-1v-41c0-.55228475.4477153-1 1-1s1 .44771525 1 1v41c0 .5522847-.4477153 1-1 1z" fill="#a56a43"/><path id="Shape" d="m11.612 44.712c-1.512-.636-5.022-2.707-5.022-8.212 0-4.218 1.682-6.415 3.036-7.5-1.354-1.085-3.036-3.282-3.036-7.5 0-5.5 3.513-7.576 5.022-8.212l.776 1.844c-1.418.6-3.8 2.218-3.8 6.368 0 5.372 3.174 6.5 3.308 6.549.4121783.1386108.688818.5261483.686.961-.0043111.433044-.2868751.8141018-.7.944-.124.043-3.3 1.174-3.3 6.546 0 4.15 2.38 5.771 3.8 6.368z" fill="#bdc3c7"/><path id="Shape" d="m46.388 44.712-.776-1.844c1.418-.6 3.8-2.218 3.8-6.368 0-5.372-3.174-6.5-3.308-6.549-.4136202-.1346224-.6927762-.52118-.6904929-.9561509.0022833-.4349708.2854822-.8185764.7004929-.9488491.124-.043 3.3-1.174 3.3-6.546 0-4.15-2.38-5.771-3.8-6.368l.776-1.844c1.51.636 5.02 2.712 5.02 8.212 0 4.218-1.682 6.415-3.036 7.5 1.354 1.085 3.036 3.282 3.036 7.5 0 5.505-3.51 7.576-5.022 8.212z" fill="#bdc3c7"/><rect id="Rectangle-path" fill="#f29c1f" height="58" rx="18" width="36" x="11"/><path id="Shape" d="m41.0000426 40c.0077724 2.9250585-1.0599378 5.7509313-3.0000426 7.94-.5980573.6750652-1.2687833 1.2820722-2 1.81-.6274912.4534076-1.2972602.8452225-2 1.17-.6438242.2940862-1.3133041.5284042-2 .7-.6556315.1707171-1.3247861.2844734-2 .34-.33.03-.66.04-1 .04s-.67-.01-1-.04c-.6752139-.0555266-1.3443685-.1692829-2-.34-.6866959-.1715958-1.3561758-.4059138-2-.7-.7027398-.3247775-1.3725088-.7165924-2-1.17-.7312167-.5279278-1.4019427-1.1349348-2-1.81-1.9401048-2.1890687-3.007815-5.0149415-3.0000426-7.94z" fill="#d25627"/><path id="Rectangle-path" d="m17 24h24v10h-24z" fill="#d25627"/><path id="Shape" d="m41.0000429 18h-24.0000855c-.0077724-2.9250585 1.0599378-5.7509313 3.0000426-7.94.5980573-.67506524 1.2687833-1.28207221 2-1.81.6274912-.4534076 1.2972602-.84522245 2-1.17.6438242-.29408623 1.3133041-.5284042 2-.7.6556315-.17071713 1.3247861-.28447341 2-.34.33-.03.66-.04 1-.04s.67.01 1 .04c.6752139.05552659 1.3443685.16928287 2 .34.6866959.1715958 1.3561758.40591377 2 .7 1.2948078.60259787 2.4755637 1.42472875 3.49 2.43.17.17.34.35.51.54 1.9402866 2.1929193 3.0078409 5.0219382 3.0000429 7.95z" fill="#d25627"/><g fill="#c03a2b"><path id="Rectangle-path" d="m28 24h2v10h-2z"/><path id="Shape" d="m26 6.38v11.62h-2v-10.92c.6438242-.29408623 1.3133041-.5284042 2-.7z"/><path id="Rectangle-path" d="m24 24h2v10h-2z"/><path id="Shape" d="m26 40v11.62c-.6866959-.1715958-1.3561758-.4059138-2-.7v-10.92z"/><path id="Shape" d="m22 8.25v9.75h-2v-7.94c.5980573-.67506524 1.2687833-1.28207221 2-1.81z"/><path id="Rectangle-path" d="m20 24h2v10h-2z"/><path id="Shape" d="m22 40v9.75c-.7312167-.5279278-1.4019427-1.1349348-2-1.81v-7.94z"/><path id="Shape" d="m38 10.05v7.95h-2v-9.75c.5301518.37872151 1.0284761.80012323 1.49 1.26.17.17.34.35.51.54z"/><path id="Rectangle-path" d="m36 24h2v10h-2z"/><path id="Shape" d="m38 40v7.94c-.5980573.6750652-1.2687833 1.2820722-2 1.81v-9.75z"/><path id="Shape" d="m34 7.08v10.92h-2v-11.62c.6866959.1715958 1.3561758.40591377 2 .7z"/><path id="Rectangle-path" d="m32 24h2v10h-2z"/><path id="Shape" d="m34 40v10.92c-.6438242.2940862-1.3133041.5284042-2 .7v-11.62z"/><path id="Shape" d="m30 6.04v11.96h-2v-11.96c.33-.03.66-.04 1-.04s.67.01 1 .04z"/><path id="Shape" d="m30 40v11.96c-.33.03-.66.04-1 .04s-.67-.01-1-.04v-11.96z"/></g><path id="Shape" d="m5 54h-4c-.55228475 0-1-.4477153-1-1v-4.513c-.00001796-.3225553.05198298-.6430026.154-.949l.618-1.854c.13607193-.4085428.51839259-.6841037.949-.684h2.558c.43060741-.0001037.81292807.2754572.949.684l.618 1.854c.10201702.3059974.15401796.6264447.154.949v4.513c0 .5522847-.44771525 1-1 1z" fill="#f29c1f"/><path id="Shape" d="m57 54h-4c-.5522847 0-1-.4477153-1-1v-4.513c-.000018-.3225553.051983-.6430026.154-.949l.618-1.854c.1360719-.4085428.5183926-.6841037.949-.684h2.558c.4306074-.0001037.8129281.2754572.949.684l.618 1.854c.102017.3059974.154018.6264447.154.949v4.513c0 .5522847-.4477153 1-1 1z" fill="#f29c1f"/><path id="Rectangle-path" d="m17 18h24v6h-24z" fill="#e57e25"/><path id="Rectangle-path" d="m17 34h24v6h-24z" fill="#e57e25"/></g></g></svg>