<svg height="512" viewBox="0 0 58 58" width="512" xmlns="http://www.w3.org/2000/svg"><g id="Page-1" fill="none" fill-rule="evenodd"><g id="061---Hiking-Website" fill-rule="nonzero" transform="translate(-1)"><path id="Shape" d="m41 54-11 3-11-3 3-6 8-3 8 3z" fill="#393f4a"/><path id="Shape" d="m59 2.18v41.82h-58v-41.82c-.04521019-1.152631.84774936-2.12595691 2-2.18h54c1.1522506.05404309 2.0452102 1.027369 2 2.18z" fill="#2fa8cc"/><path id="Shape" d="m57.39.04c-9.36.38-56.39 4.14-56.39 41.96v-39.82c-.04521019-1.152631.84774936-2.12595691 2-2.18h54c.1311216-.00207169.2620289.01135469.39.04z" fill="#67b9cc"/><path id="Shape" d="m54 7v5h-48v-5c0-1.65685425 1.34314575-3 3-3h42c1.6568542 0 3 1.34314575 3 3z" fill="#464f5d"/><path id="Rectangle-path" d="m6 12h48v30h-48z" fill="#fff"/><path id="Shape" d="m39.36 32.16-4.83 5.84h-4.53c-1.1032019-.0032948-1.9967052-.8967981-2-2v-6.98l1.82-2.18 1.96 1.97c.312262.3115066.817738.3115066 1.13 0l1.97-1.97z" fill="#95a5a5"/><path id="Shape" d="m50 18v10.32l-1.24-1.49-2.27-2.72c-.061362-.071424-.1508369-.1125148-.245-.1125148s-.183638.0410908-.245.1125148l-1.56 1.89-2.66-3.2-2.21-2.66c-.0715254-.0898857-.1801292-.1422576-.295-.1422576s-.2234746.0523719-.295.1422576l-2.22 2.66-2.63 3.15-1.55-1.84c-.061362-.071424-.1508369-.1125148-.245-.1125148s-.183638.0410908-.245.1125148l-2.27 2.73-1.82 2.18v-11.02c.0032948-1.1032019.8967981-1.9967052 2-2h18c1.1032019.0032948 1.9967052.8967981 2 2z" fill="#f3d55b"/><path id="Shape" d="m59 42v3.82c.0452102 1.152631-.8477494 2.1259569-2 2.18h-54c-1.15225064-.0540431-2.04521019-1.027369-2-2.18v-3.82z" fill="#464f5d"/><path id="Shape" d="m47 56c-.0032948 1.1032019-.8967981 1.9967052-2 2h-30c-1.1011688-.0081672-1.9918328-.8988312-2-2 .0032948-1.1032019.8967981-1.9967052 2-2h30c1.1011688.0081672 1.9918328.8988312 2 2z" fill="#464f5d"/><circle id="Oval" cx="10" cy="8" fill="#e64c3c" r="1"/><circle id="Oval" cx="14" cy="8" fill="#f3d55b" r="1"/><circle id="Oval" cx="18" cy="8" fill="#24ae5f" r="1"/><g fill="#547580"><path id="Shape" d="m18 18h-7c-.5522847 0-1-.4477153-1-1s.4477153-1 1-1h7c.5522847 0 1 .4477153 1 1s-.4477153 1-1 1z"/><path id="Shape" d="m23 25h-12c-.5522847 0-1-.4477153-1-1s.4477153-1 1-1h12c.5522847 0 1 .4477153 1 1s-.4477153 1-1 1z"/><path id="Shape" d="m23 29h-12c-.5522847 0-1-.4477153-1-1s.4477153-1 1-1h12c.5522847 0 1 .4477153 1 1s-.4477153 1-1 1z"/><path id="Shape" d="m18 33h-7c-.5522847 0-1-.4477153-1-1s.4477153-1 1-1h7c.5522847 0 1 .4477153 1 1s-.4477153 1-1 1z"/><path id="Shape" d="m23 33h-1c-.5522847 0-1-.4477153-1-1s.4477153-1 1-1h1c.5522847 0 1 .4477153 1 1s-.4477153 1-1 1z"/><path id="Shape" d="m17 37h-6c-.5522847 0-1-.4477153-1-1s.4477153-1 1-1h6c.5522847 0 1 .4477153 1 1s-.4477153 1-1 1z"/></g><path id="Shape" d="m34.88 26.84-1.97 1.97c-.312262.3115066-.817738.3115066-1.13 0l-1.96-1.97 2.27-2.73c.061362-.071424.1508369-.1125148.245-.1125148s.183638.0410908.245.1125148l1.55 1.84z" fill="#ecf0f1"/><path id="Shape" d="m50 28.32v7.68c-.0032948 1.1032019-.8967981 1.9967052-2 2h-13.47l4.83-5.84 4.36-5.28 1.93 1.93c.312262.3115066.817738.3115066 1.13 0l1.98-1.98z" fill="#7f8c8d"/><path id="Shape" d="m48.76 26.83-1.98 1.98c-.312262.3115066-.817738.3115066-1.13 0l-1.93-1.93.72-.88 1.56-1.89c.061362-.071424.1508369-.1125148.245-.1125148s.183638.0410908.245.1125148z" fill="#ecf0f1"/><path id="Shape" d="m44.44 26-.72.88-4.36 5.28-4.48-5.32-.75-.89 2.63-3.15.02.01 2.05 2.05c.2481127.2400362.6418873.2400362.89 0l2.05-2.05.01-.01z" fill="#bdc3c7"/><path id="Shape" d="m41.78 22.8-.01.01-2.05 2.05c-.2481127.2400362-.6418873.2400362-.89 0l-2.05-2.05-.02-.01 2.22-2.66c.0715254-.0898857.1801292-.1422576.295-.1422576s.2234746.0523719.295.1422576z" fill="#fff"/></g></g></svg>