<svg height="512" viewBox="0 0 46 58" width="512" xmlns="http://www.w3.org/2000/svg"><g id="Page-1" fill="none" fill-rule="evenodd"><g id="062---Camping-Chair"><path id="Shape" d="m23 46.27-6.94-4.27-4.06-1-3.56 1 10.75 6.62 3.81 2.34 10.95 6.74c.3157985.1945507.6790877.2983476 1.05.3.8929634-.0015896 1.676683-.5949457 1.9204657-1.4539895.2437827-.8590437-.1114442-1.7756144-.8704657-2.2460105l-9.24-5.68z" fill="#a56a43" fill-rule="nonzero"/><path id="Shape" d="m14 2v4h-4v-4c0-1.1045695.8954305-2 2-2s2 .8954305 2 2z" fill="#cf976a" fill-rule="nonzero"/><path id="Shape" d="m36 2v4h-4v-4c0-1.1045695.8954305-2 2-2s2 .8954305 2 2z" fill="#cf976a" fill-rule="nonzero"/><path id="Shape" d="m14 22v6.71c-1.59-.142-2.93-.328-4-.484v-6.226z" fill="#cf976a" fill-rule="nonzero"/><path id="Shape" d="m36 22v6.226c-1.07.156-2.41.342-4 .484v-6.71z" fill="#cf976a" fill-rule="nonzero"/><path id="Shape" d="m9.375 35 1.625-3" stroke="#000" stroke-linecap="round" stroke-linejoin="round" stroke-width="2"/><path id="Shape" d="m36.625 35-1.625-3" stroke="#000" stroke-linecap="round" stroke-linejoin="round" stroke-width="2"/><g fill-rule="nonzero"><rect id="Rectangle-path" fill="#4fba6f" height="19" rx="2" width="30" x="8" y="4"/><path id="Shape" d="m14 20c-.5522847 0-1-.4477153-1-1v-11c0-.55228475.4477153-1 1-1s1 .44771525 1 1v11c0 .5522847-.4477153 1-1 1z" fill="#24ae5f"/><path id="Shape" d="m32 20c-.5522847 0-1-.4477153-1-1v-11c0-.55228475.4477153-1 1-1s1 .44771525 1 1v11c0 .5522847-.4477153 1-1 1z" fill="#24ae5f"/><path id="Shape" d="m37.56 42-10.75 6.62-3.81 2.34-10.95 6.74c-.3157985.1945507-.6790877.2983476-1.05.3-.8929634-.0015896-1.67668302-.5949457-1.92046571-1.4539895-.2437827-.8590437.11144417-1.7756144.87046571-2.2460105l9.24-5.68 3.81-2.35 6.94-4.27 4.06-2z" fill="#805333"/><path id="Shape" d="m42 41.96v.04h-38v-.04l-3.4-4.64 5.04-8.12c.809611-1.315565 2.30436733-2.0473728 3.84-1.88.16.02.34.04.52.05 1.07.11 2.41.24 4 .34 2.44.16 5.47.29 9 .29s6.56-.13 9-.29c1.59-.1 2.93-.23 4-.34.18-.01.36-.03.52-.05 1.5356327-.1673728 3.030389.564435 3.84 1.88l5.14 8.27z" fill="#24ae5f"/><path id="Shape" d="m7 39c-.1109363 1.6018071-1.39684818 2.8705735-3 2.96-.16509099.0286095-.33246032.0419991-.5.04-1.79134474.1271713-3.3517048-1.2102802-3.5-3 .0014145-.5160064.15441835-1.0202236.44-1.45l.04-.06.02-.02.1-.15c.7151968-.8586858 1.78275236-1.3446077 2.9-1.32 1.79134474-.1271713 3.3517048 1.2102802 3.5 3z" fill="#4c8056"/><path id="Shape" d="m46 39c-.1482952 1.7897198-1.7086553 3.1271713-3.5 3-.1675397.0019991-.334909-.0113905-.5-.04-1.6031518-.0894265-2.8890637-1.3581929-3-2.96.1482952-1.7897198 1.7086553-3.1271713 3.5-3 1.1801348-.0296858 2.3003045.5191973 3 1.47l.02.02.04.06c.2855817.4297764.4385855.9339936.44 1.45z" fill="#4c8056"/></g></g></g></svg>