<svg height="512" viewBox="0 0 58 58" width="512" xmlns="http://www.w3.org/2000/svg"><g id="Page-1" fill="none" fill-rule="evenodd"><g id="063---Pack-Away-Coat" fill-rule="nonzero"><path id="Shape" d="m28.74 55h19.26c1.1032019-.0032948 1.9967052-.8967981 2-2v-2c1.1032019-.0032948 1.9967052-.8967981 2-2v-1h3c1.1032019-.0032948 1.9967052-.8967981 2-2v-2c.5522847 0 1-.4477153 1-1v-29.23c.0004709-2.7924769-1.9283769-5.21494385-4.65-5.84l-5.38-1.25c-.3240593-2.68621983-1.765382-5.11141762-3.97-6.68h-12c-2.204618 1.56858238-3.6459407 3.99378017-3.97 6.68l-5.38 1.25c-2.7216231.62505615-4.6504709 3.0475231-4.65 5.84v2.23z" fill="#e57e25"/><path id="Shape" d="m38 10v38c0 1.6568542-1.3431458 3-3 3h-5v-24c0-3.8659932-3.1340068-7-7-7h-2c1.1011688-.0081672 1.9918328-.8988312 2-2-.0032948-1.1032019-.8967981-1.9967052-2-2h-3v-2.23c-.0004709-2.7924769 1.9283769-5.21494385 4.65-5.84l5.38-1.25 1.44-.33c.7950345-.19064949 1.6254653.12721879 2.09.8.78 1.18 2.57 2.85 6.44 2.85z" fill="#f29c1f"/><path id="Shape" d="m47.97 6.68-1.44-.33c-.7950345-.19064949-1.6254653.12721879-2.09.8-.78 1.18-2.57 2.85-6.44 2.85v-2.95c.0117571-1.14061364.6602227-2.17893061 1.68-2.69 1.8250144-1.01334844 3.3235146-2.52572367 4.32-4.36 2.204618 1.56858238 3.6459407 3.99378017 3.97 6.68z" fill="#d25627"/><path id="Shape" d="m44 0c-.9964854 1.83427633-2.4949856 3.34665156-4.32 4.36-1.0197773.51106939-1.6682429 1.54938636-1.68 2.69-.0117571-1.14061364-.6602227-2.17893061-1.68-2.69-1.8250144-1.01334844-3.3235146-2.52572367-4.32-4.36z" fill="#c03a2b"/><path id="Shape" d="m57 44v2c-.0032948 1.1032019-.8967981 1.9967052-2 2h-3v-4z" fill="#f3d55b"/><path id="Shape" d="m50 51v2c-.0032948 1.1032019-.8967981 1.9967052-2 2h-19.26c.8254366-1.1700148 1.2658435-2.5681319 1.26-4h5c1.6568542 0 3-1.3431458 3-3 0 1.6568542 1.3431458 3 3 3z" fill="#d25627"/><path id="Shape" d="m47 42c-.067187.0004396-.1342304-.0062648-.2-.02-3.3545666-.6389136-5.7861178-3.5651596-5.8-6.98 0-.5522847.4477153-1 1-1s1 .4477153 1 1c.0342986 2.4577106 1.7872845 4.5546156 4.2 5.024.494664.1100225.8288336.5726706.7778037 1.0768465-.05103.5041759-.4711261.8904814-.9778037.8991535z" fill="#f3d55b"/><path id="Shape" d="m28.011 42.143c-.5522847.0229198-1.0185801-.4062153-1.0414999-.9585-.0229199-.5522847.4062152-1.0185802.9584999-1.0415 2.8035708-.0599768 5.0509999-2.3388663 5.072-5.143 0-.5522847.4477153-1 1-1s1 .4477153 1 1c-.0030488 3.8491748-3.0531594 7.0049342-6.9 7.139-.0295673.0030128-.0592816.0043482-.089.004z" fill="#f3d55b"/><path id="Shape" d="m30 27v24c-.0055078 3.8637095-3.1362905 6.9944922-7 7h-16c-3.86599325 0-7-3.1340068-7-7v-24c0-3.8659932 3.13400675-7 7-7h16c3.8659932 0 7 3.1340068 7 7z" fill="#606060"/><path id="Shape" d="m26 29h-22c-.55228475 0-1-.4477153-1-1s.44771525-1 1-1h22c.5522847 0 1 .4477153 1 1s-.4477153 1-1 1z" fill="#bdc3c7"/><path id="Shape" d="m26 51h-22c-.55228475 0-1-.4477153-1-1s.44771525-1 1-1h22c.5522847 0 1 .4477153 1 1s-.4477153 1-1 1z" fill="#bdc3c7"/><path id="Shape" d="m22.969 20h-15.938c-.0613847-.0002022-.12262845-.0058915-.183-.017-2.92834727-.4289395-5.26354838-2.6658037-5.818-5.573-.09594353-.3498693.00512494-.72426.26410116-.9783171s.63523602-.3479281.9832013-.2452935.61305264.385675.69269754.7396106c.3759672 2.1047029 2.04422378 3.7400439 4.156 4.074h15.748c2.1117762-.3339561 3.7800328-1.9692971 4.156-4.074.0796449-.3539356.3447323-.636976.6926975-.7396106.3479653-.1026346.7242251-.0087636.9832013.2452935.2589763.2540571.3600447.6284478.2641012.9783171-.5544516 2.9071963-2.8896527 5.1440605-5.818 5.573-.0603716.0111085-.1216153.0167978-.183.017z" fill="#95a5a5"/><path id="Shape" d="m23 18c-.0081672 1.1011688-.8988312 1.9918328-2 2h-12c-1.10320187-.0032948-1.9967052-.8967981-2-2 .00816722-1.1011688.89883122-1.9918328 2-2h12c1.1032019.0032948 1.9967052.8967981 2 2z" fill="#393f4a"/><path id="Shape" d="m54 22v22h-2v-22c0-.5522847.4477153-1 1-1s1 .4477153 1 1z" fill="#d25627"/></g></g></svg>