<svg height="512" viewBox="0 0 44 59" width="512" xmlns="http://www.w3.org/2000/svg"><g id="Page-1" fill="none" fill-rule="evenodd"><g id="064---Water-Bottle" fill-rule="nonzero"><path id="Rectangle-path" d="m17.999 12h8.002v6.381h-8.002z" fill="#285680"/><path id="Shape" d="m26 10h-8c-.5522847 0-1-.44771525-1-1v-4c0-2.76142375 2.2385763-5 5-5s5 2.23857625 5 5v4c0 .55228475-.4477153 1-1 1zm-7-2h6v-3c0-1.65685425-1.3431458-3-3-3s-3 1.34314575-3 3z" fill="#bdc3c7"/><circle id="Oval" cx="22" cy="38" fill="#2980ba" r="21"/><path id="Shape" d="m17 55.257c-.0989913.0000895-.1974306-.0147438-.292-.044-6.1558223-1.9548976-10.84645348-6.9787057-12.375-13.254-.13972804-.5343355.1801645-1.080772.7145-1.2205s1.08077196.1801645 1.2205.7145c1.35502775 5.602439 5.5334449 10.0927971 11.024 11.847.4746901.1438858.7721686.613989.6989691 1.1045761s-.494952.8533753-.9909691.8524239z" fill="#9fc9d3"/><path id="Shape" d="m6.363 32.266c-.3392427-.000029-.65533672-.1720463-.83958049-.4568969-.18424376-.2848505-.21150902-.6436847-.07241951-.9531031 2.42849023-5.5256832 7.4384566-9.4879579 13.375-10.578.3555032-.0709282.7215532.0560921.9567102.3319806.2351569.2758886.3025916.6574372.1762476.9972173s-.4266793.5845769-.7849578.6398021c-5.3000601.9408101-9.77182183 4.4836478-11.9 9.428-.16093976.3590796-.51750358.590396-.911.591z" fill="#9fc9d3"/><rect id="Rectangle-path" fill="#95a5a5" height="8" rx="2" width="12" x="16" y="5"/><path id="Shape" d="m44 38c.0071757 4.3192985-1.263464 8.5442103-3.652 12.143-.371483.543251-.9899274.8648572-1.648.857h-33.4c-.65666197.0065153-1.27330704-.3149353-1.644-.857-4.86930781-7.3631165-4.86930781-16.9228835 0-24.286.37069296-.5420647.98733803-.8635153 1.644-.857h33.4c.656662-.0065153 1.273307.3149353 1.644.857 2.3899488 3.598344 3.6619903 7.8232895 3.656 12.143z" fill="#3b97d3"/><path id="Shape" d="m6.409 48c-.35761373.0003484-.68819322-.1902972-.867-.5-3.38846371-5.8801089-3.38846371-13.1198911 0-19 .28438758-.4596821.88258902-.61017 1.3506397-.3397768.46805067.2703932.63651313.8637835.3803603 1.3397768-3.03140475 5.2612513-3.03140475 11.7387487 0 17 .17845295.3090879.17864632.6898553.00050739.9991243-.17813894.3092689-.50760368.5001532-.86450739.5008757z" fill="#fff"/><path id="Shape" d="m21 5v4c0 .55228475-.4477153 1-1 1s-1-.44771525-1-1v-4z" fill="#7f8c8d"/><path id="Shape" d="m25 5v4c0 .55228475-.4477153 1-1 1s-1-.44771525-1-1v-4z" fill="#7f8c8d"/><path id="Shape" d="m28 39.446c.1435412 3.4632527-2.5375656 6.391915-6 6.554-3.4624344-.162085-6.1435412-3.0907473-6-6.554 0-3.44 3.721-7.558 5.3-9.153.1839155-.1888904.4363629-.2954364.7-.2954364s.5160845.106546.7.2954364c1.579 1.595 5.3 5.713 5.3 9.153z" fill="#9fc9d3"/></g></g></svg>