<svg height="512" viewBox="0 0 58 58" width="512" xmlns="http://www.w3.org/2000/svg"><g id="Page-1" fill="none" fill-rule="evenodd"><g id="065---Camping-Ribbon" fill-rule="nonzero"><path id="Rectangle-path" d="m7 21.94h4v12.12h-4z" fill="#805333"/><path id="Rectangle-path" d="m47 21.94h4v12.12h-4z" fill="#805333"/><path id="Shape" d="m29 13.249c-.4098237-.0002364-.7780199-.250505-.9290454-.6314863-.1510256-.3809814-.0543064-.815548.2440454-1.0965137l2-1.88c.2596941-.24809247.6324862-.33786643.9766502-.23519205.344164.10267439.606835.38202598.6881521.73185225.081317.3498262-.0312104.7163927-.2948023.9603398l-2 1.88c-.1855298.1742082-.4305009.2711237-.685.271z" fill="#603e26"/><path id="Shape" d="m29 13.249c-.2544991.0001237-.4994702-.0967918-.685-.271l-2-1.88c-.2635919-.2439471-.3761193-.6105136-.2948023-.9603398.0813171-.34982627.3439881-.62917786.6881521-.73185225.344164-.10267438.7169561-.01290042.9766502.23519205l2 1.88c.2983518.2809657.395071.7155323.2440454 1.0965137-.1510255.3809813-.5192217.6312499-.9290454.6314863z" fill="#805333"/><path id="Shape" d="m30.461 12.248 10.039 9.402 1.43 1.35.44.41c.4027547.378682.6308049.9071793.63 1.46l.0000021 9.13h-28.0000042l.0000021-9.13c-.0008049-.5528207.2272453-1.081318.63-1.46l.44-.41 1.43-1.35 10.039-9.4 1.461-1.373z" fill="#f29c1f"/><path id="Shape" d="m43 24.87.0000021 8.13h-3.0000021c-9-4-11-11.27-11-19v-3.12l11.5 10.77 1.43 1.35.44.41c.4027547.378682.6308049.9071793.63 1.46z" fill="#e57e25"/><path id="Shape" d="m40 33h-22c9-4 11-11.27 11-19 0 7.73 2 15 11 19z" fill="#d25627"/><path id="Shape" d="m19.323 26c-.4186996.0000322-.7930899-.2607843-.9381468-.6535538-.1450569-.3927694-.0300649-.8343237.2881468-1.1064462l4.677-4c.4197364-.3589851 1.0510149-.3097364 1.41.11.358985.4197364.3097364 1.0510149-.11 1.41l-4.677 4c-.1811418.1549056-.4116555.2400183-.65.24z" fill="#f9eab0"/><path id="Shape" d="m38.677 26c-.2383445.0000183-.4688582-.0850944-.65-.24l-4.677-4c-.4197364-.3589851-.4689851-.9902636-.11-1.41s.9902636-.4689851 1.41-.11l4.677 4c.3182117.2721225.4332037.7136768.2881468 1.1064462-.1450569.3927695-.5194472.653586-.9381468.6535538z" fill="#f9eab0"/><path id="Shape" d="m2 42v-8c0-.5522847.44771525-1 1-1h52c.5522847 0 1 .4477153 1 1v8z" fill="#4fba6f"/><path id="Shape" d="m40 39.77v4.23h-22v-4.23l4.04-1.59c.6106539-.239697 1.2893461-.239697 1.9 0l4.1 1.61c.6106539.239697 1.2893461.239697 1.9 0l4.11-1.61c.60715-.2399624 1.28285-.2399624 1.89 0z" fill="#a56a43"/><path id="Shape" d="m17.5 21.65-1.43 1.35h-15.44c-.25988367.0020945-.49385375-.1571071-.58729865-.3996189-.0934449-.2425117-.02679588-.5175482.16729865-.6903811l5.45-4.91h-4.48c-.21026762.0021316-.39939941-.1275228-.4732331-.3244126-.07383368-.1968898-.0165893-.4189352.1432331-.5555874l4.72-4.12h-3.37c-.20003758-.00281-.3791442-.1245871-.45531598-.3095758-.07617179-.1849886-.03474388-.397574.10531598-.5404242l4.15-4.15h-2.8c-.20003758-.00281003-.3791442-.12458715-.45531598-.30957577-.07617179-.18498862-.03474388-.39757408.10531598-.54042423l5.8-6c.0938833-.09465633.22168123-.14789916.355-.14789916s.2611167.05324283.355.14789916l5.8 6c.141304.14415193.1820691.35913103.1033459.54500531-.0787233.18587428-.2614915.30618042-.4633459.30499469h-2.79l4.15 4.15c.141304.1441519.1820691.359131.1033459.5450053-.0787233.1858743-.2614915.3061804-.4633459.3049947h-3.36l4.71 4.12c.1598224.1366522.2170668.3586976.1432331.5555874s-.2629655.3265442-.4732331.3244126h-4.48z" fill="#4fba6f"/><path id="Shape" d="m57.37 23h-15.44l-1.43-1.35 5.16-4.65h-4.48c-.2102676.0021316-.3993994-.1275228-.4732331-.3244126s-.0165893-.4189352.1432331-.5555874l4.71-4.12h-3.36c-.2018544.0011857-.3846226-.1191204-.4633459-.3049947-.0787232-.1858743-.0379581-.4008534.1033459-.5450053l4.15-4.15h-2.79c-.2018544.00118573-.3846226-.11912041-.4633459-.30499469-.0787232-.18587428-.0379581-.40085338.1033459-.54500531l5.8-6c.0938833-.09465633.2216812-.14789916.355-.14789916s.2611167.05324283.355.14789916l5.8 6c.1400599.14285015.1814878.35543561.105316.54042423s-.2552784.30676574-.455316.30957577h-2.8l4.15 4.15c.1400599.1428502.1814878.3554356.105316.5404242-.0761718.1849887-.2552784.3067658-.455316.3095758h-3.37l4.72 4.12c.1598224.1366522.2170668.3586976.1432331.5555874s-.2629655.3265442-.4732331.3244126h-4.48l5.45 4.91c.1940945.1728329.2607436.4478694.1672986.6903811-.0934449.2425118-.3274149.4017134-.5872986.3996189z" fill="#4fba6f"/><g fill="#df4d60"><path id="Shape" d="m55.62 44.8c-.2799624-.4965932-.2799624-1.1034068 0-1.6l2.17-3.79c.2816067-.4991768.277748-1.1101678-.0101409-1.605748-.2878889-.4955803-.8167336-.8016001-1.3898591-.804252h-13.78c-.6611046-.0033432-1.2982671.2472264-1.78.7-.5286835.4946404-.8291177 1.1860009-.83 1.91v4.39h-22v-4.39c-.0008823-.7239991-.3013165-1.4153596-.83-1.91-.4817329-.4527736-1.1188954-.7033432-1.78-.7h-13.78c-.57312545.0026519-1.10197017.3086717-1.38985911.804252-.28788894.4955802-.29174757 1.1065712-.01014089 1.605748l2.17 3.79c.27996242.4965932.27996242 1.1034068 0 1.6l-2.17 3.79c-.28160668.4991768-.27774805 1.1101678.01014089 1.605748.28788894.4955803.81673366.8016001 1.38985911.804252h6.39v5c.0032948 1.1032019.89679813 1.9967052 2 2h38c1.1032019-.0032948 1.9967052-.8967981 2-2v-5h6.39c.5731255-.0026519 1.1019702-.3086717 1.3898591-.804252.2878889-.4955802.2917476-1.1065712.0101409-1.605748z"/><path id="Shape" d="m17.17 37.7-9.17 6.3v7h-6.39c-.57312545-.0026519-1.10197017-.3086717-1.38985911-.804252-.28788894-.4955802-.29174757-1.1065712-.01014089-1.605748l2.17-3.79c.27996242-.4965932.27996242-1.1034068 0-1.6l-2.17-3.79c-.28160668-.4991768-.27774805-1.1101678.01014089-1.605748.28788894-.4955803.81673366-.8016001 1.38985911-.804252h13.78c.6611046-.0033432 1.2982671.2472264 1.78.7z"/><path id="Shape" d="m57.79 48.59c.2816067.4991768.277748 1.1101678-.0101409 1.605748-.2878889.4955803-.8167336.8016001-1.3898591.804252h-6.39v-7l-9.17-6.3c.4817329-.4527736 1.1188954-.7033432 1.78-.7h13.78c.5731255.0026519 1.1019702.3086717 1.3898591.804252.2878889.4955802.2917476 1.1065712.0101409 1.605748l-2.17 3.79c-.2799624.4965932-.2799624 1.1034068 0 1.6z"/></g><path id="Shape" d="m50 44h-10v-4.39c.0008823-.7239991.3013165-1.4153596.83-1.91z" fill="#802d40"/><path id="Shape" d="m50 44v12c-.0032948 1.1032019-.8967981 1.9967052-2 2h-38c-1.10320187-.0032948-1.9967052-.8967981-2-2v-12z" fill="#ff5364"/><path id="Shape" d="m18 39.61v4.39h-10l9.17-6.3c.5286835.4946404.8291177 1.1860009.83 1.91z" fill="#802d40"/><path id="Shape" d="m40 39.77v4.23h-22v-4.23l4.04-1.59c.6106539-.239697 1.2893461-.239697 1.9 0l4.1 1.61c.6106539.239697 1.2893461.239697 1.9 0l4.11-1.61c.60715-.2399624 1.28285-.2399624 1.89 0z" fill="#a56a43"/><path id="Shape" d="m50 44h-10v-4.39c.0008823-.7239991.3013165-1.4153596.83-1.91z" fill="#802d40"/><path id="Shape" d="m50 44v12c-.0032948 1.1032019-.8967981 1.9967052-2 2h-38c-1.10320187-.0032948-1.9967052-.8967981-2-2v-12z" fill="#ff5364"/><path id="Shape" d="m18 39.61v4.39h-10l9.17-6.3c.5286835.4946404.8291177 1.1860009.83 1.91z" fill="#802d40"/><path id="Shape" d="m43 50h-28c-.5522847 0-1-.4477153-1-1s.4477153-1 1-1h28c.5522847 0 1 .4477153 1 1s-.4477153 1-1 1z" fill="#fff"/><path id="Shape" d="m38 54h-18c-.5522847 0-1-.4477153-1-1s.4477153-1 1-1h18c.5522847 0 1 .4477153 1 1s-.4477153 1-1 1z" fill="#fff"/></g></g></svg>