<svg height="512" viewBox="0 0 59 59" width="512" xmlns="http://www.w3.org/2000/svg"><g id="Page-1" fill="none" fill-rule="evenodd"><g id="067---Pan-And-Griddle" fill-rule="nonzero"><path id="Shape" d="m59 40c-.063342-7.1057807-5.0507564-13.2153634-12-14.7v-10.07h-2v9.821c-.332-.022-.662-.051-1-.051s-.668.029-1 .051v-9.821h-2v10.07c-6.9909719 1.4195774-12.0150377 7.5663552-12.0150377 14.7s5.0240658 13.2804226 12.0150377 14.7v1.3c.0082058 1.6534434 1.3465566 2.9917942 3 3 1.6568542 0 3-1.3431458 3-3v-1.3c6.9728981-1.4457782 11.9794653-7.5788231 12-14.7zm-5.641 9h-1.359v-2h2.937c-.459524.7165283-.9880409 1.386385-1.578 2zm-10.359 0v-2h2v2zm2 2v1.949c-.331.026-.662.051-1 .051s-.669-.025-1-.051v-1.949zm-13-16h4v2h-4.637c.1580147-.682764.3710438-1.3516153.637-2zm2.638-4h1.362v2h-2.937c.459524-.7165283.9880409-1.386385 1.578-2zm10.362 6h-2v-2h2zm2-2h3v2h-3zm-2 4v2h-2v-2zm-4-2h-3v-2h3zm0 2v2h-3v-2zm0 4v2h-3v-2zm2 0h2v2h-2zm4 0h3v2h-3zm0-2v-2h3v2zm5-2h4.949c.026.331.051.662.051 1s-.025.669-.051 1h-4.949zm0-2v-2h4c.2669778.6482952.4810108 1.3171484.64 2zm0-4v-2h1.359c.5899591.613615 1.118476 1.2834717 1.578 2zm-2 0h-3v-2h3zm-5 0h-2v-2h2zm-4 0h-3v-2h3zm-5 6v2h-4.949c-.026-.331-.051-.662-.051-1s.025-.669.051-1zm0 4v2h-4c-.2669778-.6482952-.4810108-1.3171484-.64-2zm0 4v2h-1.359c-.5899591-.613615-1.118476-1.2834717-1.578-2zm2 0h3v2h-3zm9 0h3v2h-3zm5-2v-2h4.637c-.1580147.682764-.3710438 1.3516153-.637 2zm-1.1-16h-3.9v-1.637c1.3811261.3276392 2.6987926.8807212 3.9 1.637zm-6.9-2c.338 0 .669.025 1 .051v1.949h-2v-1.949c.331-.026.662-.051 1-.051zm-3 2h-3.9c1.2012074-.7562788 2.5188739-1.3093608 3.9-1.637zm-3.9 22h3.9v1.637c-1.3811261-.3276392-2.6987926-.8807212-3.9-1.637zm7.9 5c0 .5522847-.4477153 1-1 1-.2698664.000531-.5279331-.1105861-.713-.307-.1857836-.1824558-.2893852-.4326157-.287-.693v-1.051c.332.022.662.051 1 .051s.668-.029 1-.051zm2-5h3.9c-1.2012074.7562788-2.5188739 1.3093608-3.9 1.637z" fill="#7f8c8d"/><path id="Shape" d="m28 17c.0021015 6.2444393-4.1361152 11.7334939-10.14 13.45v.01c-2.5229712.7199961-5.1970288.7199961-7.72 0v-.01c-6.15896538-1.7729787-10.32752313-7.5018091-10.11974481-13.9075203.20777833-6.4057112 4.7388285-11.85235747 10.99974481-13.2224797-.01-.11-.02-.21-.02-.32 0-1.65685425 1.3431458-3 3-3s3 1.34314575 3 3c0 .11-.01.21-.02.32 6.4318207 1.40349413 11.0181201 7.0968313 11.02 13.68z" fill="#bdc3c7"/><path id="Shape" d="m4 18c-.55228475 0-1-.4477153-1-1 .0071635-6.0721626 4.92783745-10.9928365 11-11 .5522847.00000002 1 .44771526 1 1s-.4477153.99999998-1 1c-4.96827817.00551113-8.99448887 4.0317218-9 9 0 .2652165-.10535684.5195704-.29289322.7071068s-.44189029.2928932-.70710678.2928932z" fill="#fff"/><path id="Shape" d="m14 28c-.5522847 0-1-.4477153-1-1s.4477153-1 1-1c4.9682782-.0055111 8.9944889-4.0317218 9-9 0-.5522847.4477153-1 1-1s1 .4477153 1 1c-.0071635 6.0721626-4.9278374 10.9928365-11 11z" fill="#fff"/><path id="Shape" d="m17.86 30.46c-1.124598 1.9296141-1.7533471 4.1079034-1.83 6.34-1.1432372-1.0664522-2.9167628-1.0664522-4.06 0-.0766529-2.2320966-.705402-4.4103859-1.83-6.34 2.5229712.7199961 5.1970288.7199961 7.72 0z" fill="#7f8c8d"/><g fill="#e64c3c"><path id="Shape" d="m17 39v16c0 1.6568542-1.3431458 3-3 3s-3-1.3431458-3-3v-16c-.0000702-.7955351.3165773-1.5583676.88-2.12.0274479-.0294065.0575783-.0561891.09-.08.8752914-.8044221 2.1430114-1.0161181 3.2321829-.5397409s1.7943076 1.5509526 1.7978171 2.7397409z"/><rect id="Rectangle-path" height="20" rx="3" transform="matrix(-1 0 0 -1 88 20)" width="6" x="41"/></g></g></g></svg>