<svg height="512" viewBox="0 0 59 59" width="512" xmlns="http://www.w3.org/2000/svg"><g id="Page-1" fill="none" fill-rule="evenodd"><g id="068---Marshmellow-Cooking" fill-rule="nonzero" transform="translate(-1)"><path id="Shape" d="m33 51h24c1.66 0 3 1.79 3 4s-1.34 4-3 4h-24z" fill="#a56a43"/><path id="Shape" d="m48.282 50.62c-.9417957.2195015-1.9033275.3434621-2.87.37l-1.23-.03c-6.7870969-.3735506-12.1179233-5.952933-12.182-12.75-.0032543-.7090799.0435286-1.4175058.14-2.12v-.01c.1489457-1.2961805.5353944-2.5538336 1.14-3.71.1031843-.1744338.2995482-.2715862.5008128-.2477807s.3695448.1640878.4291872.3577807c.3099902 1.0294187 1.2360368 1.7510134 2.31 1.8 1.5036407-.1294788 2.6229734-1.4450292 2.51-2.95l.41-7.67c.0130795-.206299.1517605-.3832805.3489455-.4453162.1971849-.0620357.4122156.0036657.5410545.1653162.5004362.6526645 1.2679225 1.0455882 2.09 1.07 2.43 0 2.79-2.28 2.79-4.69-.0027527-.6133696-.0562687-1.2254591-.16-1.83-.1251332-.7672602-.3124164-1.5230815-.56-2.26-.0698183-.1917215-.0161375-.4066328.1356324-.5430058.15177-.1363731.3711781-.1668459.5543676-.0769942h.01c1.93.95 5.77 3.71 6.7 10.94.1456692 1.1173361.2158284 2.2432234.21 3.37-.1129734 1.5049708 1.0063593 2.8205212 2.51 2.95.956476-.0321029 1.8089686-.6121093 2.19-1.49.0807609-.1922454.2698524-.3164789.4783609-.3142841s.394943.1303813.4716391.3242841c.4178396 1.1255413.7455386 2.2825192.98 3.46.05.23.09.47.12.7 1.0304407 7.1546373-3.5444887 13.9209267-10.568 15.63z" fill="#e57e25"/><path id="Shape" d="m58.852 34.99c-.7998373 5.6819158-4.9912866 10.297665-10.57 11.64-.9417957.2195015-1.9033275.3434621-2.87.37l-1.23-.03c-6.0717639-.3458835-11.0828602-4.8741832-12.04-10.88v-.01c.1489457-1.2961805.5353944-2.5538336 1.14-3.71.1031843-.1744338.2995482-.2715862.5008128-.2477807s.3695448.1640878.4291872.3577807c.3099902 1.0294187 1.2360368 1.7510134 2.31 1.8 1.5036407-.1294788 2.6229734-1.4450292 2.51-2.95l.41-7.67c.0130795-.206299.1517605-.3832805.3489455-.4453162.1971849-.0620357.4122156.0036657.5410545.1653162.5004362.6526645 1.2679225 1.0455882 2.09 1.07 2.43 0 2.79-2.28 2.79-4.69-.0027527-.6133696-.0562687-1.2254591-.16-1.83-.1251332-.7672602-.3124164-1.5230815-.56-2.26-.0698183-.1917215-.0161375-.4066328.1356324-.5430058.15177-.1363731.3711781-.1668459.5543676-.0769942h.01c1.93.95 5.77 3.71 6.7 10.94.1456692 1.1173361.2158284 2.2432234.21 3.37-.1129734 1.5049708 1.0063593 2.8205212 2.51 2.95.956476-.0321029 1.8089686-.6121093 2.19-1.49.0807609-.1922454.2698524-.3164789.4783609-.3142841s.394943.1303813.4716391.3242841c.4178396 1.1255413.7455386 2.2825192.98 3.46.05.23.09.47.12.7z" fill="#f29c1f"/><path id="Shape" d="m53 42.5c.1165757 4.3930817-3.2113476 8.1156204-7.59 8.49-.13.01-.27.01-.41.01-.2738637.0018858-.5476201-.0114682-.82-.04-4.1951819-.5861495-7.2837609-4.2253388-7.18-8.46.0089964-.5770543.1384269-1.1458673.38-1.67.076974-.1702708.2439248-.2820901.4306776-.2884567s.3609312.0938233.4493224.2584567c.4312582.9880091 1.5785843 1.4433681 2.57 1.02.7349444-.3683335 1.1908561-1.1281862 1.17-1.95v-3.76c-.0000133-.2669582.1067151-.5228394.2964199-.7106659.1897047-.1878265.4466352-.2920037.7135801-.2893341 1.4035812.1552001 2.682755-.8162687 2.91-2.21.0240923-.1893557.1538939-.3484728.3345511-.4101088.1806573-.061636.3806449-.0150353.5154489.1201088.8386571.9249983 1.2803803 2.1424306 1.23 3.39v3.89c-.0238741 1.0040088.675704 1.8805886 1.66 2.08.8516988.1464907 1.7015936-.2683868 2.11-1.03.0835432-.1724952.2583387-.2820551.45-.2820551s.3664568.1095599.45.2820551c.2223176.4897551.3349439 1.0221704.33 1.56z" fill="#f3d55b"/><path id="Shape" d="m53 42.5c.1165757 4.3930817-3.2113476 8.1156204-7.59 8.49-.13.01-.27.01-.41.01-.2738637.0018858-.5476201-.0114682-.82-.04-4.1951819-.5861495-7.2837609-4.2253388-7.18-8.46.0046077-.397295.0686504-.7916631.19-1.17.6518429 3.4886501 3.4717865 6.1633605 6.99 6.63.2723799.0285318.5461363.0418858.82.04.14 0 .28 0 .41-.01 3.6973405-.2880092 6.7363423-3.0313243 7.4-6.68.1269855.383851.1911448.7856912.19 1.19z" fill="#f0c419"/><path id="Shape" d="m23.359 19.359-8.059 8.065c-.0270785-.621168-.153689-1.2339627-.375-1.815-.1332169-.3383818-.4396319-.5777697-.8001924-.6251531-.3605604-.0473834-.7184221.1047078-.9345434.397181-.2161214.2924732-.2564299.6792185-.1052642 1.0099721.5278149 1.5203998.1108496 3.2090307-1.064 4.309l-10.728 10.727c-.25995658.2510745-.3642126.6228779-.27269716.9725073.09151544.3496295.3645604.6226744.71418984.7141899.34962943.0915154.72143285-.0127406.97250732-.2726972l22.066-22.068c.3789722-.3923789.3735524-1.0160848-.0121814-1.4018186s-1.0094397-.3911536-1.4018186-.0121814z" fill="#805333"/><path id="Shape" d="m38.58 13.42-8.46 8.46c-1.17 1.17-3.88.36-6.05-1.81s-2.99-4.89-1.82-6.06l8.46-8.46z" fill="#f3d55b"/><path id="Shape" d="m26.541 16.348c-.4043959-.0000863-.7689341-.2437275-.923678-.6173454-.1547439-.373618-.0692299-.8036603.216678-1.0896546l2.1-2.1c.3923789-.3789722 1.0160848-.3735524 1.4018186.0121814s.3911536 1.0094397.0121814 1.4018186l-2.1 2.1c-.1874927.1875494-.4418052.2929434-.707.293z" fill="#fff"/><ellipse id="Oval" cx="33" cy="55" fill="#cf976a" rx="3" ry="4"/><path id="Shape" d="m45 56h-4c-.5522847 0-1-.4477153-1-1s.4477153-1 1-1h4c.5522847 0 1 .4477153 1 1s-.4477153 1-1 1z" fill="#805333"/><path id="Shape" d="m53 56h-4c-.5522847 0-1-.4477153-1-1s.4477153-1 1-1h4c.5522847 0 1 .4477153 1 1s-.4477153 1-1 1z" fill="#805333"/><path id="Shape" d="m38.58 13.42c-1.17 1.17-3.88.36-6.05-1.81s-2.99-4.89-1.82-6.06 3.89-.36 6.06 1.81 2.98 4.89 1.81 6.06z" fill="#f9eab0"/><path id="Shape" d="m39.021 0c-.5422608.01328023-.9849666.43777476-1.021.979-.272959 2.6856341-1.4618675 5.19551278-3.367 7.108-.3819049.39902573-.3680257 1.03209509.031 1.41399998.3990257.3819049 1.0320951.36802574 1.414-.03099998 2.26701-2.26437384 3.6568283-5.25981866 3.922-8.453.0094845-.55078407-.428254-1.00551347-.979-1.017z" fill="#805333"/></g></g></svg>