<svg height="512" viewBox="0 0 58 58" width="512" xmlns="http://www.w3.org/2000/svg"><g id="Page-1" fill="none" fill-rule="evenodd"><g id="069---Hiker-Ontop-of-Mountain" fill-rule="nonzero"><path id="Shape" d="m38 33c-.5522847 0-1-.4477153-1-1v-26c0-.55228475.4477153-1 1-1s1 .44771525 1 1v26c0 .5522847-.4477153 1-1 1z" fill="#a56a43"/><circle id="Oval" cx="27" cy="3" fill="#fdd7ad" r="3"/><path id="Shape" d="m39.41 11.41c-.3704612.3798589-.8794095.5928231-1.41.59h-8v8.38l3.85 8.85c.2185442.5407478.1920642 1.1496623-.0725977 1.6693968-.2646618.5197344-.7415384.8992957-1.3074023 1.0406032h-.01c-.9955583.2473903-2.018613-.2899283-2.38-1.25l-3.08-7.31-3.07 7.31c-.2485446.6906096-.8518117 1.1923027-1.5761597 1.3107767-.7243479.1184739-1.4560165-.1648779-1.911635-.7403149-.4556185-.5754371-.5636311-1.3525861-.2822053-2.0304618l3.84-8.85v-7.17l-4 4.2c-.3751365.3755541-.8841815.5865733-1.415.5865733s-1.0398635-.2110192-1.415-.5865733c-.3735077-.3739282-.5822911-.8814879-.58-1.41-.0006735-.5311391.2076675-1.0412154.58-1.42l6.48-7.2c.4628024-.52954822 1.0556141-.9293515 1.72-1.16.4388022-.14388817.898234-.21482984 1.36-.21 1.0346821-.05615412 2.0328049.39076655 2.68 1.2.410542.52205151 1.0463606.81579226 1.71.79h6.77c.9434278-.0195663 1.7831716.5948804 2.05 1.5.1774562.6856336-.0246133 1.4138463-.53 1.91z" fill="#7d6599"/><path id="Shape" d="m48.44 44.24 9.35 12.15c.2321692.3015898.2730081.7088268.1053486 1.0505127-.1676595.3416858-.5147463.5585742-.8953486.5594873h-56c-.38060232-.0009131-.72768908-.2178015-.89534861-.5594873-.16765953-.3416859-.12682057-.7489229.10534861-1.0505127l9.64-12.54z" fill="#95a5a5"/><path id="Shape" d="m48.44 44.24-5.08 6.53c-.2756243.3530724-.6972747.5611034-1.1451739.5649982-.4478993.0038947-.8731035-.1967723-1.1548261-.5449982l-3.5-4.38c-.2863001-.3636105-.7273926-.5708025-1.1900381-.5589903-.4626454.0118122-.8925901.2412435-1.1599619.6189903l-4.94 6.92c-.2847727.3964393-.7485016.6247415-1.2363557.6086805-.4878542-.016061-.935563-.2743694-1.1936443-.6886805l-5.09-8.14c-.2547539-.4008088-.687344-.6539661-1.1615612-.6797603-.4742171-.0257943-.9317139.1789482-1.2284388.5497603l-3.48 4.35c-.2752028.3387706-.6865544.5379428-1.1229814.5437361-.436427.0057932-.8529204-.1823899-1.1370186-.5137361l-4.77-5.57 8.82-11.46c.1872793-.2470861.4799636-.3915758.79-.39h19.08c.3100364-.0015758.6027207.1429139.79.39z" fill="#ecf0f1"/><path id="Shape" d="m20.79 37.83-7.61 9.9-1.33-1.55 7.36-9.57c.3480706-.3974888.9452983-.4556194 1.3634877-.1327136.4181894.3229057.513025.9154143.2165123 1.3527136z" fill="#bdc3c7"/><path id="Shape" d="m13.18 47.73-4.52 5.88c-.1909314.248042-.48699196.3923716-.8.39-.2206487-.002447-.4346043-.0761038-.61-.21-.43075204-.3400575-.51072107-.9620388-.18-1.4l4.78-6.21z" fill="#7f8c8d"/></g></g></svg>