<svg height="512" viewBox="0 0 44 58" width="512" xmlns="http://www.w3.org/2000/svg"><g id="Page-1" fill="none" fill-rule="evenodd"><g id="070---Trousers" fill-rule="nonzero" transform="translate(-1)"><path id="Shape" d="m44.96 54.15-2.61-13.51-2.04-10.52-2.73-14.12-.58-3v-10c0-1.66-6.27-3-14-3s-14 1.34-14 3v10l-.58 3-2.73 14.12-2.04 10.52-2.61 13.51c-.13480723.6416972.06470545 1.3079943.53 1.77.87.88 2.85 2.08 6.43 2.08 2.4750144.1278755 4.9428374-.3636268 7.18-1.43.5009056-.2812449.8602585-.7603821.99-1.32l2.69-11.89 2.37-10.5.95-4.21c.0835758-.3860062.4250497-.6614585.82-.6614585s.7364242.2754523.82.6614585l.95 4.21 2.37 10.5 2.69 11.89c.1297415.5596179.4890944 1.0387551.99 1.32 2.2371626 1.0663732 4.7049856 1.5578755 7.18 1.43 3.58 0 5.56-1.2 6.43-2.08.4652946-.4620057.6648072-1.1283028.53-1.77z" fill="#3f5c6c"/><path id="Shape" d="m37 3c0 .92-1.94 1.75-5 2.29-2.9740219.49486474-5.9851708.73241093-9 .71-3.0148292.02241093-6.0259781-.21513526-9-.71-3.06-.54-5-1.37-5-2.29 0-1.66 6.27-3 14-3s14 1.34 14 3z" fill="#285680"/><path id="Shape" d="m37 3v6c0 .92-1.94 1.75-5 2.29v-6c3.06-.54 5-1.37 5-2.29z" fill="#2980ba"/><path id="Shape" d="m14 5.29v6c-3.06-.54-5-1.37-5-2.29v-6c0 .92 1.94 1.75 5 2.29z" fill="#2980ba"/><path id="Shape" d="m18.86 43.36-2.69 11.89c-.1297415.5596179-.4890944 1.0387551-.99 1.32-2.2371626 1.0663732-4.7049856 1.5578755-7.18 1.43-3.58 0-5.56-1.2-6.43-2.08-.46529455-.4620057-.66480723-1.1283028-.53-1.77l2.61-13.51.08.01 5.56 3.98c.4523605.3201506 1.0167435.4395394 1.56.33z" fill="#547580"/><path id="Shape" d="m21.23 32.86-2.37 10.5-8.01 1.6c-.5432565.1095394-1.1076395-.0098494-1.56-.33l-5.56-3.98-.08-.01 2.04-10.52.05.01z" fill="#3b97d3"/><path id="Shape" d="m23 12v15.99c-.3965463-.006-.7411121.2713335-.82.66l-.95 4.21-15.49-2.73-.05-.01 2.73-14.12h3.11c1.989258.0004082 3.6765308-1.4610427 3.96-3.43l.15-1.02c2.4407536.3118422 4.8994359.4621693 7.36.45z" fill="#547580"/><path id="Shape" d="m15.64 11.55-.15 1.02c-.2834692 1.9689573-1.970742 3.4304082-3.96 3.43l-3.11.0000001.58-3.0000001v-4c0 .92 1.94 1.75 5 2.29.52.1 1.07.18 1.64.26z" fill="#35495e"/><path id="Shape" d="m42.35 40.64-.08.01-5.56 3.98c-.4523605.3201506-1.0167435.4395394-1.56.33l-8.01-1.6-2.37-10.5 15.49-2.73.05-.01z" fill="#2980ba"/><path id="Shape" d="m27 11.87v9.13c0 .5522847-.4477153 1-1 1h-3v-10c1.39 0 2.74-.04 4-.13z" fill="#95a5a5"/><path id="Shape" d="m37.58 16.0000001-3.11-.0000001c-1.989258.0004082-3.6765308-1.4610427-3.96-3.43l-.15-1.02c.57-.08 1.12-.16 1.64-.26 3.06-.54 5-1.37 5-2.29v4z" fill="#35495e"/><path id="Shape" d="m12 26c-.3464401-.000185-.6681037-.1796678-.8501945-.4743943-.1820909-.2947265-.1986643-.6627032-.0438055-.9726057l.781-1.56c.2485281-.4940187.8504813-.6930281 1.3445-.4445s.6930281.8504813.4445 1.3445l-.78 1.559c-.1709787.3374323-.517725.5495048-.896.548z" fill="#95a5a5"/><path id="Shape" d="m23 12c-2.4605641.0121693-4.9192464-.1381578-7.36-.45-.57-.08-1.12-.16-1.64-.26v-6c2.9740219.49486474 5.9851708.73241093 9 .71-1.6568542.00000003-2.9999999 1.34314578-2.9999999 3 0 1.6568542 1.3431457 3 2.9999999 3z" fill="#3b97d3"/><circle id="Oval" cx="23" cy="9" fill="#9fc9d3" r="3"/><path id="Shape" d="m32 5.29v6c-.52.1-1.07.18-1.64.26-1.04.14-2.17.25-3.36.32-1.26.09-2.61.13-4 .13 1.6568542 0 3-1.3431458 3-3 0-1.65685425-1.3431458-3-3-3 3.0148292.02241093 6.0259781-.21513526 9-.71z" fill="#3b97d3"/><path id="Shape" d="m16 39.078c-.0586513-.0000707-.1171922-.0050885-.175-.015l-8-1.411c-.52519385-.1137784-.86656621-.6222887-.77299389-1.1514562.09357231-.5291676.58862969-.8897726 1.12099389-.8165438l8 1.41c.508401.0920156.8630044.5561732.8181231 1.0708809-.0448813.5147078-.474469.9104858-.9911231.9131191z" fill="#84b5cb"/><path id="Shape" d="m30 39.078c-.5166541-.0026333-.9462418-.3984113-.9911231-.9131191-.0448813-.5147077.3097221-.9788653.8181231-1.0708809l8-1.41c.5323642-.0732288 1.0274216.2873762 1.1209939.8165438.0935723.5291675-.2478001 1.0376778-.7729939 1.1514562l-8 1.411c-.0578078.0099115-.1163487.0149293-.175.015z" fill="#84b5cb"/><path id="Shape" d="m19 26c-.0819126-.0001775-.1635037-.0102505-.243-.03l-8-2c-.5239217-.1436734-.8373021-.6793531-.7057969-1.2064607.1315052-.5271075.6597861-.8528058 1.1897969-.7335393l8 2c.4893901.122648.8107682.5906407.7495039 1.0914319-.0612643.5007913-.4859803.8775105-.9905039.8785681z" fill="#35495e"/></g></g></svg>