<svg height="512" viewBox="0 0 44 59" width="512" xmlns="http://www.w3.org/2000/svg"><g id="Page-1" fill="none" fill-rule="evenodd"><g id="071---Gas-Cooker" fill-rule="nonzero"><path id="Shape" d="m22 18c-.5522847 0-1-.4477153-1-1v-8c0-.55228475.4477153-1 1-1s1 .44771525 1 1v8c0 .5522847-.4477153 1-1 1z" fill="#95a5a5"/><path id="Shape" d="m30.665 14h-17.33c-1.2114709.0015518-2.304482-.7271223-2.769-1.846l-3.333-8c-.38570764-.92555276-.28350802-1.98261262.27236835-2.8171303.55587636-.83451768 1.49192643-1.33614563 2.49463165-1.3368697h5c.5522847 0 1 .44771525 1 1s-.4477153 1-1 1h-5c-.33444179-.0000279-.6467576.16713516-.83222615.44543846s-.21953394.63089967-.09077385.93956154l3.333 8c.1553781.3724703.5194204.6150337.923.615h17.33c.4035796.0000337.7676219-.2425297.923-.615l3.333-8c.1284906-.30800877.0948585-.6598162-.0896618-.93790167-.1845202-.27808547-.4956055-.4457923-.8293382-.44709833h-5c-.5522847 0-1-.44771525-1-1s.4477153-1 1-1h5c1.0032367-.00027869 1.940211.50094039 2.4967994 1.33562199.5565883.83468159.6591124 1.89233478.2732006 2.81837801l-3.334 8c-.4647961 1.1195514-1.5588015 1.8483619-2.771 1.846z" fill="#bdc3c7"/><path id="Shape" d="m36 28-14 2-14-2c0-2.76 6.27-5 14-5s14 2.24 14 5z" fill="#c03a2b"/><circle id="Oval" cx="22" cy="20" fill="#bdc3c7" r="3"/><path id="Shape" d="m18 4h8c1.6568542 0 3 1.34314575 3 3v1c0 .55228475-.4477153 1-1 1h-12c-.5522847 0-1-.44771525-1-1v-1c0-1.65685425 1.3431458-3 3-3z" fill="#7f8284"/><path id="Shape" d="m39 31v23h-34v-23c0-1.6568542 1.34314575-3 3-3h28c1.6568542 0 3 1.3431458 3 3z" fill="#e64c3c"/><path id="Shape" d="m9 41c-.55228475 0-1-.4477153-1-1v-7c0-1.1045695.8954305-2 2-2h2c.5522847 0 1 .4477153 1 1s-.4477153 1-1 1h-2v7c0 .5522847-.44771525 1-1 1z" fill="#fff"/><path id="Shape" d="m44 56v2c0 .5522847-.4477153 1-1 1h-42c-.55228475 0-1-.4477153-1-1v-2c0-1.6568542 1.34314575-3 3-3h38c1.6568542 0 3 1.3431458 3 3z" fill="#bdc3c7"/><rect id="Rectangle-path" fill="#c03a2b" height="7" rx="2" width="4" x="16" y="32"/><rect id="Rectangle-path" fill="#c03a2b" height="7" rx="2" width="4" x="24" y="32"/><path id="Shape" d="m27 46h-10c-.5522847 0-1-.4477153-1-1s.4477153-1 1-1h10c.5522847 0 1 .4477153 1 1s-.4477153 1-1 1z" fill="#802f34"/><path id="Shape" d="m25 50h-6c-.5522847 0-1-.4477153-1-1s.4477153-1 1-1h6c.5522847 0 1 .4477153 1 1s-.4477153 1-1 1z" fill="#802f34"/><circle id="Oval" cx="9" cy="44" fill="#fff" r="1"/><g fill="#95a5a5"><path id="Shape" d="m18 53v2c0 .5522847-.4477153 1-1 1s-1-.4477153-1-1v-2z"/><path id="Shape" d="m28 53v2c0 .5522847-.4477153 1-1 1s-1-.4477153-1-1v-2z"/></g></g></g></svg>