<svg height="512" viewBox="0 0 58 58" width="512" xmlns="http://www.w3.org/2000/svg"><g id="Page-1" fill="none" fill-rule="evenodd"><g id="072---Reading-Map" fill-rule="nonzero"><path id="Shape" d="m20.33 26.63c-.5694427-.8069806-1.0175379-1.6930635-1.33-2.63-1.6568542 0-3-1.3431458-3-3 0-1.66 1.34-4 3-4v-1.04c-.0009542-.5296773.4112761-.9682202.94-1 2.17-.14 7.48-.81 9.06-3.96 1.58 3.15 6.89 3.82 9.06 3.96.5287239.0317798.9409542.4703227.94 1v1.04c1.66 0 3 2.34 3 4 0 1.6568542-1.3431458 3-3 3-.28587.8646551-.6896779 1.6857311-1.2 2.44z" fill="#fdd7ad"/><path id="Shape" d="m56.61 23.52-12.23 5.23c-.2410643.108224-.5161716.1118438-.76.01l-5.82-2.32-8.42-3.37c-.2447757-.096824-.5178566-.0932308-.76.01l-8.29 3.55-4.95 2.12c-.2410643.108224-.5161716.1118438-.76.01l-13.25-5.29c-.30651029-.1252502-.65526472-.0896524-.9301489.0949413-.27488418.1845938-.43980403.4939452-.4398511.8250587v27.02c.00367504.4061519.25264988.7697343.63.92l13.99 5.6c.2447757.096824.5178566.0932308.76-.01l13.24-5.67c.2410643-.108224.5161716-.1118438.76-.01l14.24 5.69c.2447757.096824.5178566.0932308.76-.01l13.01-5.58c.3695049-.1564992.609673-.5187198.61-.92v-26.99c-.000063-.3348846-.1689167-.6471797-.4490983-.830608-.2801817-.1834283-.6339454-.2132784-.9409017-.079392z" fill="#f9eab0"/><path id="Shape" d="m54 30.5v18.28c.0015503.4018445-.2392445.7650105-.61.92l-9.06 3.89c-.1051032.0423106-.2167708.0659977-.33.07v-20.82c.6745311-.0008638 1.3416798-.1404204 1.96-.41l6.65-2.85c.3086973-.1307452.6623717-.0981074.9419286.0869231s.4477983.4978333.4480714.8330769z" fill="#f0c419"/><path id="Shape" d="m44 32.84v20.82c-.1493939.0203348-.3015052-.0004077-.44-.06l-12.69-5.08c-.5922596-.2344807-1.2230221-.3565638-1.86-.36h-.01v-20.82c.1493939-.0203348.3015052.0004077.44.06l12.69 5.08c.5922596.2344807 1.2230221.3565638 1.86.36z" fill="#f3d55b"/><path id="Shape" d="m29 27.34v20.82c-.6745311.0008638-1.3416798.1404204-1.96.41l-11.71 5.02c-.1051032.0423106-.2167708.0659977-.33.07v-20.82c.6745311-.0008638 1.3416798-.1404204 1.96-.41l11.71-5.02c.1051032-.0423106.2167708-.0659977.33-.07z" fill="#f0c419"/><path id="Shape" d="m15 32.84v20.82c-.1493939.0203348-.3015052-.0004077-.44-.06l-9.93-3.97c-.37891857-.1538614-.62765343-.5210414-.63-.93v-18.4c-.00032126-.3317301.1638849-.642028.43835044-.828344.27446553-.186316.62346165-.2243964.93164956-.101656l7.76 3.11c.5922596.2344807 1.2230221.3565638 1.86.36z" fill="#f3d55b"/><path id="Shape" d="m44.99 12h-31.98c-.3183909.0044453-.6195627-.14422-.809664-.3996686-.1901013-.2554487-.246022-.5866264-.150336-.8903314.552555-1.62180606 2.0766497-2.71159408 3.79-2.71h26.32c1.7159867-.00014149 3.2408843 1.09424409 3.79 2.72.092231.3024344.0346096.6307257-.1551015.8836739-.1897112.2529481-.4887368.4001862-.8048985.3963261z" fill="#a56a43"/><path id="Shape" d="m39 8h-20l3.17-6.34c.507189-1.01593301 1.5445009-1.65844711 2.68-1.66h8.3c1.1354991.00155289 2.172811.64406699 2.68 1.66z" fill="#cb8252"/><circle id="Oval" cx="26" cy="4" fill="#f0c419" r="1"/><circle id="Oval" cx="32" cy="4" fill="#f0c419" r="1"/><path id="Shape" d="m29 12c-1.58 3.15-6.89 3.82-9.06 3.96-.5287239.0317798-.9409542.4703227-.94 1v1.04c-1.6568542 0-3 1.3431458-3.0000004 3l.0000004-6.76c-.0003974-.8116563.270642-1.6001347.77-2.24z" fill="#3f5c6c"/><path id="Shape" d="m42 14.24.0000004 6.76c-.0000004-1.6568542-1.3431462-3-3.0000004-3v-1.04c.0009542-.5296773-.4112761-.9682202-.94-1-2.17-.14-7.48-.81-9.06-3.96h12.23c.499358.6398653.7703974 1.4283437.77 2.24z" fill="#35495e"/><g fill="#f29c1f"><path id="Shape" d="m8 39c-.4043959-.0000863-.76893405-.2437275-.92367798-.6173454-.15474393-.373618-.06922994-.8036603.21667798-1.0896546l2-2c.39237889-.3789722 1.0160848-.3735524 1.4018186.0121814s.3911536 1.0094397.0121814 1.4018186l-2 2c-.18749273.1875494-.44180519.2929434-.707.293z"/><path id="Shape" d="m48 38c-.4043959-.0000863-.7689341-.2437275-.923678-.6173454-.1547439-.373618-.0692299-.8036603.216678-1.0896546l2-2c.3923789-.3789722 1.0160848-.3735524 1.4018186.0121814s.3911536 1.0094397.0121814 1.4018186l-2 2c-.1874927.1875494-.4418052.2929434-.707.293z"/><path id="Shape" d="m19 38c-.4043959-.0000863-.7689341-.2437275-.923678-.6173454-.1547439-.373618-.0692299-.8036603.216678-1.0896546l2-2c.3923789-.3789722 1.0160848-.3735524 1.4018186.0121814s.3911536 1.0094397.0121814 1.4018186l-2 2c-.1874927.1875494-.4418052.2929434-.707.293z"/><path id="Shape" d="m19 44c-.4043959-.0000863-.7689341-.2437275-.923678-.6173454-.1547439-.373618-.0692299-.8036603.216678-1.0896546l6-6c.3923789-.3789722 1.0160848-.3735524 1.4018186.0121814s.3911536 1.0094397.0121814 1.4018186l-6 6c-.1874927.1875494-.4418052.2929434-.707.293z"/><path id="Shape" d="m33 37c-.4043959-.0000863-.7689341-.2437275-.923678-.6173454-.1547439-.373618-.0692299-.8036603.216678-1.0896546l2-2c.3923789-.3789722 1.0160848-.3735524 1.4018186.0121814s.3911536 1.0094397.0121814 1.4018186l-2 2c-.1874927.1875494-.4418052.2929434-.707.293z"/><path id="Shape" d="m33 43c-.4043959-.0000863-.7689341-.2437275-.923678-.6173454-.1547439-.373618-.0692299-.8036603.216678-1.0896546l6-6c.3923789-.3789722 1.0160848-.3735524 1.4018186.0121814s.3911536 1.0094397.0121814 1.4018186l-6 6c-.1874927.1875494-.4418052.2929434-.707.293z"/></g></g></g></svg>