<svg height="512" viewBox="0 0 58 36" width="512" xmlns="http://www.w3.org/2000/svg"><g id="Page-1" fill="none" fill-rule="evenodd"><g id="074---Rolled-Up-Sleeping-Bag" fill-rule="nonzero" transform="translate(0 -1)"><path id="Shape" d="m55.95 3.05c-1.3102237-1.31666131-3.0925123-2.05478083-4.95-2.05-2.7415685-.0688325-5.46704.43878656-8 1.49-.3464975.14284947-.6809142.31340198-1 .51-.3210904-.19885781-.6551757-.37592304-1-.53-2.1981256-.99488154-4.5873589-1.49662054-7-1.47-2.4126411-.02662054-4.8018744.47511846-7 1.47-.3448243.15407696-.6789096.33114219-1 .53-.3254443-.15808808-.6592741-.29829659-1-.42-2.881535-1.06004521-5.9297052-1.59516842-9-1.58h-9c-3.86599325 0-7 3.13400675-7 7v22c0 3.8659932 3.13400675 7 7 7h9c3.0702948.0151684 6.118465-.5199548 9-1.58.3407259-.1217034.6745557-.2619119 1-.42.3210904.1988578.6551757.375923 1 .53 2.1981256.9948815 4.5873589 1.4966205 7 1.47 2.4126411.0266205 4.8018744-.4751185 7-1.47.3448243-.154077.6789096-.3311422 1-.53.3190858.196598.6535025.3671505 1 .51.4065968.1879401.8239986.3515616 1.25.49 2.1818084.6931829 4.4609304 1.0308306 6.75 1 1.8565154 0 3.6369928-.7374979 4.9497475-2.0502525 1.3127546-1.3127547 2.0502525-3.0932321 2.0502525-4.9497475v-22c.0047808-1.85748767-.7333387-3.63977625-2.05-4.95z" fill="#e57e25"/><path id="Shape" d="m14 8v22c0 3.8659932-3.1340068 7-7 7-3.86599325 0-7-3.1340068-7-7v-22c0-3.86599325 3.13400675-7 7-7 3.8659932 0 7 3.13400675 7 7z" fill="#d25627"/><path id="Shape" d="m7.5 30c-1.93299662 0-3.5-1.5670034-3.5-3.5v-12.5c0-3.3137085 2.6862915-6 6-6s6 2.6862915 6 6c0 .5522847-.4477153 1-1 1s-1-.4477153-1-1c0-2.209139-1.790861-4-4-4s-4 1.790861-4 4v12.5c0 .8284271.67157288 1.5 1.5 1.5s1.5-.6715729 1.5-1.5v-12.5c0-.5522847.44771525-1 1-1 .5522847 0 1 .4477153 1 1v12.5c0 1.9329966-1.56700338 3.5-3.5 3.5z" fill="#e57e25"/><path id="Shape" d="m58 8v8c0 1.6568542-1.3431458 3-3 3h-10c-.5555907.0031688-1.1004451-.1529997-1.57-.45h-.01c-.8810634-.5485742-1.4176246-1.5121172-1.42-2.55-.0014197 1.0381319-.5382216 2.0021071-1.42 2.55h-.01c-.4689702.2983021-1.0142157.4545827-1.57.45h-10c-.5545835-.0039816-1.0975116-.1595979-1.57-.45h-.01c-.8794996-.550062-1.4155363-1.5126631-1.42-2.55-.0014197 1.0381319-.5382216 2.0021071-1.42 2.55h-.01c-.4689702.2983021-1.0142157.4545827-1.57.45h-6c-1.6568542 0-3-1.3431458-3-3v-8c0-3.86599325-3.1340068-7-7-7h9c3.0702948-.01516842 6.118465.51995479 9 1.58.3407259.12170341.6745557.26191192 1 .42.3210904-.19885781.6551757-.37592304 1-.53 2.1981256-.99488154 4.5873589-1.49662054 7-1.47 2.4126411-.02662054 4.8018744.47511846 7 1.47.3448243.15407696.6789096.33114219 1 .53.3190858-.19659802.6535025-.36715053 1-.51 2.53296-1.05121344 5.2584315-1.5588325 8-1.49 1.8565154 0 3.6369928.73749788 4.9497475 2.05025253 1.3127546 1.31275465 2.0502525 3.09323204 2.0502525 4.94974747z" fill="#f29c1f"/><path id="Shape" d="m27 2.47v33.06c-.3448243-.154077-.6789096-.3311422-1-.53-.3254443.1580881-.6592741.2982966-1 .42v-32.84c.3407259.12170341.6745557.26191192 1 .42.3210904-.19885781.6551757-.37592304 1-.53z" fill="#d25627"/><path id="Shape" d="m43 2.49v33.02c-.3464975-.1428495-.6809142-.313402-1-.51-.3210904.1988578-.6551757.375923-1 .53v-33.06c.3448243.15407696.6789096.33114219 1 .53.3190858-.19659802.6535025-.36715053 1-.51z" fill="#d25627"/><path id="Shape" d="m42 8c-.1970887.00014321-.3898252-.05795606-.554-.167-2.2747701-1.26244307-4.84514-1.89519729-7.446-1.833-2.601647-.06244354-5.1728095.57068107-7.448 1.834-.2986011.19699382-.6793521.22060038-1 .062-2.7171002-1.17000161-5.6335395-1.80753776-8.591-1.878-.5516632-.0211375-.9818313-.48532514-.961-1.037.0018443-.26773412.1142698-.52279929.3106503-.70478738s.4592491-.27471239.7263497-.25621262c3.053053.08855113 6.0662781.71726562 8.9 1.857 2.4940378-1.27477989 5.2623741-1.91922578 8.063-1.877 2.7764335-.03914524 5.5211402.59385275 8 1.845 2.4788598-1.25114725 5.2235665-1.88414524 8-1.845.704547-.00026905 1.4085871.03778717 2.109.114.5492472.06019906.945699.55425283.8855 1.1035-.0601991.54924716-.5542528.94569901-1.1035.8855-.6279615-.06905923-1.2592528-.10344474-1.891-.103-2.601647-.06244354-5.1728095.57068107-7.448 1.834-.1639686.10777888-.3557815.16546174-.552.166z" fill="#f9eab0"/><path id="Shape" d="m50 34c-2.7764335.0391452-5.5211402-.5938528-8-1.845-2.4788598 1.2511472-5.2235665 1.8841452-8 1.845-2.7992773.0415708-5.5661621-.6028568-8.059-1.877-2.8337219 1.1397344-5.846947 1.7684489-8.9 1.857-.2674748.0184591-.5307304-.0741544-.727732-.2560166-.1970017-.1818622-.3103257-.4368886-.313268-.7049834-.0099966-.2652654.0858869-.5236209.2665223-.7181369.1806355-.1945161.4311989-.3092296.6964777-.3188631 2.9577231-.0717277 5.8741729-.710624 8.591-1.882.3210395-.1578002.7016957-.1334382 1 .064 2.2744788 1.2634874 4.8448658 1.8972814 7.446 1.836 2.601647.0624435 5.1728095-.5706811 7.448-1.834.3353482-.2228678.7716518-.2228678 1.107 0 2.2743786 1.2626182 4.8443858 1.8957133 7.445 1.834.631692.001441 1.2629832-.031943 1.891-.1.5492472-.060199 1.0433009.3362529 1.1034999.8855.0601991.5492472-.3362527 1.0433009-.8854999 1.1035-.7004675.0752107-1.4045074.1122654-2.109.111z" fill="#f29c1f"/></g></g></svg>