<svg height="512" viewBox="0 0 60 58" width="512" xmlns="http://www.w3.org/2000/svg"><g id="Page-1" fill="none" fill-rule="evenodd"><g id="075---Route-To-Mountain" fill-rule="nonzero"><path id="Shape" d="m47.67 9.26-1.99-2.84c-.1719832-.24023197-.4406166-.39301548-.7350041-.41802879-.2943874-.02501331-.584947.08025706-.7949959.28802879l-1.88 1.83-2.45 2.4-2.44-3.09-5.58-7.04c-.1933764-.24231163-.4852723-.38507185-.7952632-.38894673-.3099908-.00387489-.605364.13154447-.8047368.36894673l-5.76 6.91-3.4 4.08-2.85-2.79-2.34-2.28c-.2100489-.20777173-.5006085-.3130421-.7949959-.28802879-.2943875.02501331-.5630209.17779682-.7350041.41802879l-2.44 3.48-9.88 14.1h56z" fill="#95a5a5"/><path id="Rectangle-path" d="m1 24h58v32h-58z" fill="#4fba6f"/><path id="Shape" d="m47 54v-14.8c.0000306-2.5232441-1.5786017-4.7768916-3.95-5.639l-6.056-2.2c-.2581452-.0940613-.4662187-.2901901-.5753597-.5423304s-.1097342-.5380787-.0016403-.7906696l2.583-6.028h-4l-4.684 7.026c-.3269895.4905344-.4209047 1.1003453-.2566581 1.6665336.1642467.5661883.5699222 1.031072 1.1086581 1.2704664l4.784 2.127c.5209277.2313593.91839.6739958 1.0925537 1.2167294.1741636.5427337.1084796 1.1339942-.1805537 1.6252706l-8.864 15.068z" fill="#f5efca"/><path id="Shape" d="m21 55c-.545331.0000884-.990184-.4367573-1-.982v-.018c-.103198-.9007409-.6479353-1.691041-1.453-2.108-.3192168-.1607695-.5284158-.4796268-.5487937-.8364614-.0203779-.3568347.1511611-.6974349.45-.8935s.6795769-.2178081.9987937-.0570386c.4948574.267139.9449493.6099377 1.334 1.016.6166673-1.1988537 1.5347655-2.2165503 2.664-2.953.297245-.1982824.6776931-.2229246.9980331-.0646441.3203401.1582805.5319049.4754371.555.832s-.1457881.6983617-.4430331.8966441c-1.4632416.9095728-2.4105557 2.4571615-2.555 4.174-.0032997.5499402-.4500499.9940099-1 .994z" fill="#4c8056"/><path id="Shape" d="m55 55c-.545331.0000884-.990184-.4367573-1-.982v-.018c-.103198-.9007409-.6479353-1.691041-1.453-2.108-.3192168-.1607695-.5284158-.4796268-.5487937-.8364614-.0203779-.3568347.1511611-.6974349.45-.8935s.6795769-.2178081.9987937-.0570386c.4948574.267139.9449493.6099377 1.334 1.016.6166673-1.1988537 1.5347655-2.2165503 2.664-2.953.4595009-.306518 1.080482-.1825009 1.387.277s.1825009 1.080482-.277 1.387c-1.4635889.9092279-2.4110209 2.4570091-2.555 4.174-.0032997.5499402-.4500499.9940099-1 .994z" fill="#4c8056"/><path id="Rectangle-path" d="m7 42h4v14h-4z" fill="#805333"/><path id="Shape" d="m11 29v4h-4v-4c0-.5522847.44771525-1 1-1h2c.5522847 0 1 .4477153 1 1z" fill="#805333"/><path id="Shape" d="m20.41 39.41-4 4c-.3711834.3787953-.8796599.5915621-1.41.59h-13c-.55228475 0-1-.4477153-1-1v-10c0-.5522847.44771525-1 1-1h13c.5303401-.0015621 1.0388166.2112047 1.41.59l4 4c.3789438.3712876.5924878.8794787.5924878 1.41s-.213544 1.0387124-.5924878 1.41z" fill="#e64c3c"/><path id="Shape" d="m14 37h-9c-.55228475 0-1-.4477153-1-1s.44771525-1 1-1h9c.5522847 0 1 .4477153 1 1s-.4477153 1-1 1z" fill="#fff"/><path id="Shape" d="m10 41h-5c-.55228475 0-1-.4477153-1-1s.44771525-1 1-1h5c.5522847 0 1 .4477153 1 1s-.4477153 1-1 1z" fill="#fff"/><path id="Shape" d="m37.38 7.43-2.81 2.34c-.3390122.2828545-.8242563.3073206-1.19.06l-1.83-1.21c-.3305929-.23001792-.7694071-.23001792-1.1 0l-1.83 1.21c-.3657437.2473206-.8509878.2228545-1.19-.06l-2.99-2.49 5.76-6.91c.1993728-.23740226.494746-.37282162.8047368-.36894673.3099909.00387488.6018868.1466351.7952632.38894673z" fill="#ecf0f1"/><path id="Shape" d="m50.49 24h-39.98l10.53-12.64 3.4-4.08 2.99 2.49c.3390122.2828545.8242563.3073206 1.19.06l1.83-1.21c.3305929-.23001792.7694071-.23001792 1.1 0l1.83 1.21c.3657437.2473206.8509878.2228545 1.19-.06l2.81-2.34 2.44 3.09z" fill="#bdc3c7"/><path id="Shape" d="m18.19 8.57-2.56 3.07c-.3512701.4190055-.9727144.48115-1.4.14l-2.35-1.88 2.44-3.48c.1719832-.24023197.4406166-.39301548.7350041-.41802879.2943874-.02501331.584947.08025706.7949959.28802879z" fill="#ecf0f1"/><path id="Shape" d="m47.67 9.26-1.9 1.52c-.4272856.34115-1.0487299.2790055-1.4-.14l-2.1-2.52 1.88-1.83c.2100489-.20777173.5006085-.3130421.7949959-.28802879.2943875.02501331.5630209.17779682.7350041.41802879z" fill="#ecf0f1"/><path id="Shape" d="m59 25h-58c-.55228475 0-1-.4477153-1-1s.44771525-1 1-1h58c.5522847 0 1 .4477153 1 1s-.4477153 1-1 1z" fill="#24ae5f"/><rect id="Rectangle-path" fill="#a56a43" height="4" rx="1" width="58" x="1" y="54"/><path id="Shape" d="m19.885 20c-.3881119-.0002099-.7410503-.2249685-.9053884-.5765705-.164338-.3516019-.1103914-.7665377.1383884-1.0644295l5-6c.2290072-.27438.5869986-.4057436.9391223-.3446075.3521236.0611361.6448836.3054839.768.641s.057885.7112275-.1711223.9856075l-5 6c-.1903247.2278977-.4720814.359433-.769.359z" fill="#fff"/></g></g></svg>