<svg height="512" viewBox="0 0 58 60" width="512" xmlns="http://www.w3.org/2000/svg"><g id="Page-1" fill="none" fill-rule="evenodd"><g id="076---Route-Planning" fill-rule="nonzero"><path id="Shape" d="m29 60c-.5522847 0-1-.4477153-1-1v-13c0-.5522847.4477153-1 1-1s1 .4477153 1 1v13c0 .5522847-.4477153 1-1 1z" fill="#7f8c8d"/><path id="Shape" d="m20 60c-.1425608.0002717-.2834783-.0304367-.413-.09-.2420139-.1091141-.4307083-.3099828-.5244979-.5583376-.0937896-.2483549-.0849762-.5238111.0244979-.7656624l5.925-13.034c.1427141-.333354.454706-.5633294.8153606-.6010186.3606545-.0376891.7134523.1228145.9220027.4194606s.2401707.6829463.0826367 1.009558l-5.922 13.034c-.1622734.3567965-.5180352.5858915-.91.586z" fill="#7f8c8d"/><path id="Shape" d="m38 60c-.3923269.0002837-.7485767-.2288737-.911-.586l-5.924-13.034c-.2139174-.4996717.0104489-1.0787138.5051923-1.3037948.4947433-.2250811 1.0786764-.0137708 1.3148077.4757948l5.925 13.034c.1094741.2418513.1182875.5173075.0244979.7656624-.0937896.2483548-.282484.4492235-.5244979.5583376-.1286026.0591402-.2684508.0898386-.41.09z" fill="#7f8c8d"/><path id="Shape" d="m35 42v4c-.0032948 1.1032019-.8967981 1.9967052-2 2h-8c-1.1032019-.0032948-1.9967052-.8967981-2-2v-4z" fill="#a56a43"/><path id="Shape" d="m29 5c-.5522847 0-1-.44771525-1-1v-3c0-.55228475.4477153-1 1-1s1 .44771525 1 1v3c0 .55228475-.4477153 1-1 1z" fill="#7f8c8d"/><rect id="Rectangle-path" fill="#cb8252" height="40" rx="3" width="58" y="4"/><rect id="Rectangle-path" fill="#71c285" height="36" rx="1" width="54" x="2" y="6"/><path id="Shape" d="m55.17 6.02c-6.75.17-52.42 2.58-53.15 35.17-.01212462-.0626394-.01881616-.126209-.02-.19v-34c0-.55228475.44771525-1 1-1h52c.0571815.00113284.1141168.00783111.17.02z" fill="#7ed09e"/><path id="Shape" d="m36 38h-26c-.55228475 0-1-.4477153-1-1s.44771525-1 1-1h26c1.6568542 0 3-1.3431458 3-3s-1.3431458-3-3-3h-11c-2.7614237 0-5-2.2385763-5-5s2.2385763-5 5-5h23c.5522847 0 1-.4477153 1-1v-2c0-.5522847.4477153-1 1-1s1 .4477153 1 1v2c0 1.6568542-1.3431458 3-3 3h-23c-1.6568542 0-2.9999999 1.3431458-2.9999999 3s1.3431457 3 2.9999999 3h11c2.7614237 0 5 2.2385763 5 5s-2.2385763 5-5 5z" fill="#f3d55b"/><path id="Shape" d="m53 11c0 3-3 6-3 6s-3-3-3-6c0-1.65685425 1.3431458-3 3-3s3 1.34314575 3 3z" fill="#e64c3c"/><path id="Shape" d="m52 18h-4c-.5522847 0-1-.4477153-1-1s.4477153-1 1-1h4c.5522847 0 1 .4477153 1 1s-.4477153 1-1 1z" fill="#805333"/><g fill="#c03a2b"><path id="Shape" d="m12.707 18.293c-.3904999-.3903819-1.0235001-.3903819-1.414 0l-.793.793-.793-.793c-.39237889-.3789722-1.01608478-.3735524-1.40181858.0121814-.38573379.3857338-.39115363 1.0094397-.01218142 1.4018186l.793.793-.793.793c-.25995658.2510745-.3642126.6228779-.27269716.9725073.09151544.3496295.3645604.6226744.71418984.7141899.34962943.0915154.72143285-.0127406.97250732-.2726972l.793-.793.793.793c.3923789.3789722 1.0160848.3735524 1.4018186-.0121814s.3911536-1.0094397.0121814-1.4018186l-.793-.793.793-.793c.3903819-.3904999.3903819-1.0235001 0-1.414z"/><path id="Shape" d="m21.707 10.293c-.3904999-.39038194-1.0235001-.39038194-1.414 0l-.793.793-.793-.793c-.3923789-.37897221-1.0160848-.37355237-1.4018186.0121814-.3857338.3857338-.3911536 1.0094397-.0121814 1.4018186l.793.793-.793.793c-.2599566.2510745-.3642126.6228779-.2726972.9725073.0915155.3496295.3645604.6226744.7141899.7141899.3496294.0915154.7214328-.0127406.9725073-.2726972l.793-.793.793.793c.3923789.3789722 1.0160848.3735524 1.4018186-.0121814s.3911536-1.0094397.0121814-1.4018186l-.793-.793.793-.793c.3903819-.3904999.3903819-1.0235001 0-1.414z"/><path id="Shape" d="m48.293 29.707c.3923789.3789722 1.0160848.3735524 1.4018186-.0121814s.3911536-1.0094397.0121814-1.4018186l-.793-.793.793-.793c.3789722-.3923789.3735524-1.0160848-.0121814-1.4018186s-1.0094397-.3911536-1.4018186-.0121814l-.793.793-.793-.793c-.3923789-.3789722-1.0160848-.3735524-1.4018186.0121814s-.3911536 1.0094397-.0121814 1.4018186l.793.793-.793.793c-.2599566.2510745-.3642126.6228779-.2726972.9725073.0915155.3496295.3645604.6226744.7141899.7141899.3496294.0915154.7214328-.0127406.9725073-.2726972l.793-.793z"/><path id="Shape" d="m38.707 11.293c-.3904999-.3903819-1.0235001-.3903819-1.414 0l-.793.793-.793-.793c-.3923789-.3789722-1.0160848-.3735524-1.4018186.0121814s-.3911536 1.0094397-.0121814 1.4018186l.793.793-.793.793c-.2599566.2510745-.3642126.6228779-.2726972.9725073.0915155.3496295.3645604.6226744.7141899.7141899.3496294.0915154.7214328-.0127406.9725073-.2726972l.793-.793.793.793c.3923789.3789722 1.0160848.3735524 1.4018186-.0121814s.3911536-1.0094397.0121814-1.4018186l-.793-.793.793-.793c.3903819-.3904999.3903819-1.0235001 0-1.414z"/><path id="Shape" d="m51.914 36.5.793-.793c.3789722-.3923789.3735524-1.0160848-.0121814-1.4018186s-1.0094397-.3911536-1.4018186-.0121814l-.793.793-.793-.793c-.3923789-.3789722-1.0160848-.3735524-1.4018186.0121814s-.3911536 1.0094397-.0121814 1.4018186l.793.793-.793.793c-.2599566.2510745-.3642126.6228779-.2726972.9725073.0915155.3496295.3645604.6226744.7141899.7141899.3496294.0915154.7214328-.0127406.9725073-.2726972l.793-.793.793.793c.3923789.3789722 1.0160848.3735524 1.4018186-.0121814s.3911536-1.0094397.0121814-1.4018186z"/></g><circle id="Oval" cx="7" cy="37" fill="#e64c3c" r="3"/></g></g></svg>