<svg height="512" viewBox="0 0 58 59" width="512" xmlns="http://www.w3.org/2000/svg"><g id="Page-1" fill="none" fill-rule="evenodd"><g id="077---Medical-Kit" fill-rule="nonzero"><path id="Shape" d="m40 10c-.5522847 0-1-.44771525-1-1v-6c0-.55228475-.4477153-1-1-1h-18c-.5522847 0-1 .44771525-1 1v6c0 .55228475-.4477153 1-1 1s-1-.44771525-1-1v-6c0-1.65685425 1.3431458-3 3-3h18c1.6568542 0 3 1.34314575 3 3v6c0 .55228475-.4477153 1-1 1z" fill="#f0c419"/><path id="Shape" d="m15 10v2c-.0032948 1.1032019-.8967981 1.9967052-2 2h-4c-1.10320187-.0032948-1.9967052-.8967981-2-2v-2z" fill="#285680"/><path id="Shape" d="m5 56h-2c-1.65685425 0-3-1.3431458-3-3v-41c0-1.6568542 1.34314575-3 3-3h3c.55228475 0 1 .44771525 1 1h8c0-.55228475.4477153-1 1-1h26c.5522847 0 1 .44771525 1 1h8c0-.55228475.4477153-1 1-1h3c1.6568542 0 3 1.3431458 3 3v41c0 1.6568542-1.3431458 3-3 3z" fill="#3b97d3"/><path id="Shape" d="m51 10v2c-.0032948 1.1032019-.8967981 1.9967052-2 2h-4c-1.1032019-.0032948-1.9967052-.8967981-2-2v-2z" fill="#285680"/><path id="Shape" d="m52 52h-46c-1.65685425 0-3-1.3431458-3-3v-29c0-1.6568542 1.34314575-3 3-3h46c1.6568542 0 3 1.3431458 3 3v29c0 1.6568542-1.3431458 3-3 3zm-46-33c-.55228475 0-1 .4477153-1 1v29c0 .5522847.44771525 1 1 1h46c.5522847 0 1-.4477153 1-1v-29c0-.5522847-.4477153-1-1-1z" fill="#fff"/><rect id="Rectangle-path" fill="#285680" height="4" rx="1" width="10" x="5" y="55"/><rect id="Rectangle-path" fill="#285680" height="4" rx="1" width="10" x="43" y="55"/><path id="Shape" d="m29 46c-6.627417 0-12-5.372583-12-12s5.372583-12 12-12 12 5.372583 12 12c-.0071648 6.624447-5.375553 11.9928352-12 12zm0-22c-5.5228475 0-10 4.4771525-10 10s4.4771525 10 10 10 10-4.4771525 10-10c-.0060624-5.5203344-4.4796656-9.9939376-10-10z" fill="#fff"/><path id="Shape" d="m34 32h-3v-3c0-.5522847-.4477153-1-1-1h-2c-.5522847 0-1 .4477153-1 1v3h-3c-.5522847 0-1 .4477153-1 1v2c0 .5522847.4477153 1 1 1h3v3c0 .5522847.4477153 1 1 1h2c.5522847 0 1-.4477153 1-1v-3h3c.5522847 0 1-.4477153 1-1v-2c0-.5522847-.4477153-1-1-1z" fill="#fff"/><g fill="#464f5d"><path id="Shape" d="m16 23h-8c-.55228475 0-1-.4477153-1-1s.44771525-1 1-1h8c.5522847 0 1 .4477153 1 1s-.4477153 1-1 1z"/><path id="Shape" d="m50 23h-8c-.5522847 0-1-.4477153-1-1s.4477153-1 1-1h8c.5522847 0 1 .4477153 1 1s-.4477153 1-1 1z"/><path id="Shape" d="m16 48h-8c-.55228475 0-1-.4477153-1-1s.44771525-1 1-1h8c.5522847 0 1 .4477153 1 1s-.4477153 1-1 1z"/><path id="Shape" d="m50 48h-8c-.5522847 0-1-.4477153-1-1s.4477153-1 1-1h8c.5522847 0 1 .4477153 1 1s-.4477153 1-1 1z"/></g></g></g></svg>