<svg height="512" viewBox="0 0 30 58" width="512" xmlns="http://www.w3.org/2000/svg"><g id="Page-1" fill="none" fill-rule="evenodd"><g id="078---Energy-Bar" fill-rule="nonzero"><path id="Shape" d="m30 6.465v-5.733c-.0000952-.18427585-.1015422-.35356232-.2639994-.44054072-.1624573-.0869784-.3595879-.07754814-.5130006.02454072l-1.668 1.112c-.3360369.22419954-.7739631.22419954-1.11 0l-1.89-1.26c-.3360369-.22419954-.7739631-.22419954-1.11 0l-1.89 1.26c-.3360369.22419954-.7739631.22419954-1.11 0l-1.89-1.26c-.3360369-.22419954-.7739631-.22419954-1.11 0l-1.89 1.26c-.3360369.22419954-.7739631.22419954-1.11 0l-1.89-1.26c-.3360369-.22419954-.7739631-.22419954-1.11 0l-1.89 1.26c-.33603687.22419954-.77396313.22419954-1.11 0l-1.89-1.26c-.33603687-.22419954-.77396313-.22419954-1.11 0l-1.89 1.26c-.33603687.22419954-.77396313.22419954-1.11 0l-1.668-1.112c-.15341272-.10208886-.35054331-.11151912-.51300056-.02454072-.16245725.0869784-.26390425.25626487-.26399944.44054072v5.733c-.00005002.33427853.16693028.64647542.445.832l2.555 1.703c-1.10320187.0032948-1.9967052.89679813-2 2v36c.0032948 1.1032019.89679813 1.9967052 2 2l-2.555 1.7c-.27806972.1855246-.44505002.4977215-.445.832v5.733c.00009519.1842759.10154219.3535623.26399944.4405407s.35958784.0775482.51300056-.0245407l1.668-1.112c.33603687-.2241995.77396313-.2241995 1.11 0l1.89 1.26c.33603687.2241995.77396313.2241995 1.11 0l1.89-1.26c.33603687-.2241995.77396313-.2241995 1.11 0l1.89 1.26c.3360369.2241995.7739631.2241995 1.11 0l1.89-1.26c.3360369-.2241995.7739631-.2241995 1.11 0l1.89 1.26c.3360369.2241995.7739631.2241995 1.11 0l1.89-1.26c.3360369-.2241995.7739631-.2241995 1.11 0l1.89 1.26c.3360369.2241995.7739631.2241995 1.11 0l1.89-1.26c.3360369-.2241995.7739631-.2241995 1.11 0l1.668 1.112c.1529651.1017966.3494392.1114939.5116851.0252551.1622459-.0862389.2641201-.2545177.2653149-.4382551v-5.733c.00005-.3342785-.1669303-.6464754-.445-.832l-2.555-1.703c1.1032019-.0032948 1.9967052-.8967981 2-2v-36c-.0032948-1.10320187-.8967981-1.9967052-2-2l2.555-1.7c.2789559-.18611344.4460551-.49965913.445-.835z" fill="#c03a2b"/><rect id="Rectangle-path" fill="#e64c3c" height="40" rx="2" width="28" x="1" y="9"/><path id="Shape" d="m22.716 28.716-10.116 10.949c-.3250669.3482206-.8443579.4328199-1.2631419.2057825-.4187841-.2270374-.6312699-.7083584-.5168581-1.1707825l1.854-6.407c.0816385-.312896.0127892-.645965-.1862161-.9008486s-.5054299-.4024611-.8287839-.3991514h-4.605c-.3428544.0061259-.66640161-.158284-.86358467-.4388291-.19718307-.280545-.2422974-.6406535-.12041533-.9611709l4.43-10.934c.1587369-.4009175.5478183-.6628221.979-.659h8.83c.3836922-.0091734.7402388.1971891.9234173.5344568s.1621671.7486914-.0544173 1.0655432l-4.1 5.794c-.2165844.3168518-.2375958.7282755-.0544173 1.0655432s.5397251.5436302.9234173.5344568h4.007c.4090284-.0032692.7809209.2367312.9464435.6107863s.093048.8106918-.1844435 1.1112137z" fill="#f0c419"/><g fill="#fb7b76"><path id="Shape" d="m20 14c0 .5522847-.4477153 1-1 1h-18v-2h18c.5522847 0 1 .4477153 1 1z"/><path id="Shape" d="m29 13v2h-6c-.5522847 0-1-.4477153-1-1s.4477153-1 1-1z"/><path id="Shape" d="m20 44c0 .5522847-.4477153 1-1 1h-18v-2h18c.5522847 0 1 .4477153 1 1z"/><path id="Shape" d="m29 43v2h-6c-.5522847 0-1-.4477153-1-1s.4477153-1 1-1z"/></g></g></g></svg>