<svg height="512" viewBox="0 0 60 58" width="512" xmlns="http://www.w3.org/2000/svg"><g id="Page-1" fill="none" fill-rule="evenodd"><g id="079---Rope-Bridge-Scene" fill-rule="nonzero"><path id="Rectangle-path" d="m7 22h4v6h-4z" fill="#805333"/><path id="Rectangle-path" d="m49 22h4v6h-4z" fill="#805333"/><path id="Rectangle-path" d="m1 34h58v22h-58z" fill="#2980ba"/><path id="Shape" d="m16.44 23h-14.88c-.24394254-.029149-.44947574-.1957775-.52844533-.4284176-.07896958-.2326402-.01734396-.4899556.15844533-.6615824l4.85-4.91h-3.99c-.19687592-.0240314-.36216228-.1596058-.42423946-.3479779s-.00977665-.3956513.13423946-.5320221l4.19-4.12h-2.99c-.19023905-.0219368-.35179474-.1493899-.41740833-.3292981-.0656136-.1799083-.02404177-.3814432.10740833-.5207019l3.68-4.15h-2.48c-.1899313-.0221813-.35158459-.14854979-.41895785-.32750999-.06737325-.1789602-.02919074-.38056099.09895785-.52249001l5.16-6c.07709717-.09481142.19279861-.14985356.315-.14985356s.23790283.05504214.315.14985356l5.15 6c.1304574.14116588.1700664.34387423.1023431.52376445-.0677234.17989021-.2311795.30615054-.4223431.32623555h-2.47l3.68 4.15c.1304574.1411659.1700664.3438742.1023431.5237644-.0677234.1798903-.2311795.3061506-.4223431.3262356h-2.98l4.18 4.12c.1457261.135684.1991619.34377.1368417.5328796-.0623203.1891096-.2289991.3246579-.4268417.3471204h-3.98l4.84 4.91c.1757893.1716268.2374149.4289422.1584453.6615824-.0789696.2326401-.2845028.3992686-.5284453.4284176z" fill="#4fba6f"/><path id="Shape" d="m58.44 23h-14.88c-.2439425-.029149-.4494757-.1957775-.5284453-.4284176-.0789696-.2326402-.017344-.4899556.1584453-.6615824l4.85-4.91h-3.99c-.1968759-.0240314-.3621623-.1596058-.4242395-.3479779-.0620771-.1883721-.0097766-.3956513.1342395-.5320221l4.19-4.12h-2.99c-.1902391-.0219368-.3517947-.1493899-.4174083-.3292981-.0656136-.1799083-.0240418-.3814432.1074083-.5207019l3.68-4.15h-2.48c-.1899313-.0221813-.3515846-.14854979-.4189578-.32750999-.0673733-.1789602-.0291908-.38056099.0989578-.52249001l5.16-6c.0770972-.09481142.1927986-.14985356.315-.14985356s.2379028.05504214.315.14985356l5.15 6c.1304574.14116588.1700664.34387423.1023431.52376445-.0677234.17989021-.2311795.30615054-.4223431.32623555h-2.47l3.68 4.15c.1304574.1411659.1700664.3438742.1023431.5237644-.0677234.1798903-.2311795.3061506-.4223431.3262356h-2.98l4.18 4.12c.1457261.135684.1991619.34377.1368417.5328796-.0623203.1891096-.2289991.3246579-.4268417.3471204h-3.98l4.84 4.91c.1757893.1716268.2374149.4289422.1584453.6615824-.0789696.2326401-.2845028.3992686-.5284453.4284176z" fill="#4fba6f"/><path id="Shape" d="m59 28v8h-58v-8c0-.5522847.44771525-1 1-1h56c.5522847 0 1 .4477153 1 1z" fill="#a56a43"/><path id="Rectangle-path" d="m14 43.75h2v9.61h-2z" fill="#603e26"/><path id="Rectangle-path" d="m18 40.86h2v10.5h-2z" fill="#603e26"/><path id="Rectangle-path" d="m22 36.95h2v10.38h-2z" fill="#603e26"/><path id="Shape" d="m32.07 30h-4.14c.05-.96.07-1.96.07-3h4c0 1.04.02 2.04.07 3z" fill="#805333"/><path id="Shape" d="m32.41 34h-4.82c.09-.64.15-1.31.21-2h4.4c.06.69.12 1.36.21 2z" fill="#cb8252"/><path id="Shape" d="m33.33 39h-6.66c.24-.94.45-1.94.63-3h5.4c.18 1.06.39 2.06.63 3z" fill="#cb8252"/><path id="Shape" d="m35.08 44h-10.16c.4505496-.975317.8412731-1.9771721 1.17-3h7.82c.3287269 1.0228279.7194504 2.024683 1.17 3z" fill="#cb8252"/><path id="Shape" d="m38.34 49h-16.68c.8338802-.9222287 1.5710638-1.927479 2.2-3h12.28c.6289362 1.072521 1.3661198 2.0777713 2.2 3z" fill="#cb8252"/><path id="Shape" d="m48.78 54h-37.56c3.0049881-.0980328 5.9010573-1.148602 8.27-3h21.02c2.3689427 1.851398 5.2650119 2.9019672 8.27 3z" fill="#cb8252"/><path id="Rectangle-path" d="m44 43.75h2v9.61h-2z" fill="#603e26"/><path id="Rectangle-path" d="m40 40.86h2v10.5h-2z" fill="#603e26"/><path id="Rectangle-path" d="m36 36.95h2v10.38h-2z" fill="#603e26"/><path id="Shape" d="m58 58h-56c-.55228475 0-1-.4477153-1-1v-3h58v3c0 .5522847-.4477153 1-1 1z" fill="#4fba6f"/><path id="Shape" d="m11 43c-1.15929182.0086086-2.27774521-.4276777-3.125-1.219-.49588303-.4999069-1.17086442-.7810925-1.875-.7810925s-1.37911697.2811856-1.875.7810925c-.84725479.7913223-1.96570818 1.2276086-3.125 1.219-.55228475 0-1-.4477153-1-1s.44771525-1 1-1c.70538234.0064024 1.38274195-.2757404 1.875-.781.84725479-.7913223 1.96570818-1.2276086 3.125-1.219 1.15929182-.0086086 2.27774521.4276777 3.125 1.219.49225805.5052596 1.1696177.7874024 1.875.781.5522847 0 1 .4477153 1 1s-.4477153 1-1 1z" fill="#9fc9d3"/><path id="Shape" d="m1 50c-.55228475 0-1-.4477153-1-1s.44771525-1 1-1c.70538234.0064024 1.38274195-.2757404 1.875-.781.84725479-.7913223 1.96570818-1.2276086 3.125-1.219.55228475 0 1 .4477153 1 1s-.44771525 1-1 1c-.70538234-.0064024-1.38274195.2757404-1.875.781-.84725479.7913223-1.96570818 1.2276086-3.125 1.219z" fill="#9fc9d3"/><path id="Shape" d="m59 43c-1.1592918.0086086-2.2777452-.4276777-3.125-1.219-.495883-.4999069-1.1708644-.7810925-1.875-.7810925s-1.379117.2811856-1.875.7810925c-.8472548.7913223-1.9657082 1.2276086-3.125 1.219-.5522847 0-1-.4477153-1-1s.4477153-1 1-1c.7053823.0064024 1.382742-.2757404 1.875-.781 1.7663118-1.6253757 4.4836882-1.6253757 6.25 0 .492258.5052596 1.1696177.7874024 1.875.781.5522847 0 1 .4477153 1 1s-.4477153 1-1 1z" fill="#9fc9d3"/><path id="Shape" d="m59 50c-1.1592918.0086086-2.2777452-.4276777-3.125-1.219-.492258-.5052596-1.1696177-.7874024-1.875-.781-.5522847 0-1-.4477153-1-1s.4477153-1 1-1c1.1592918-.0086086 2.2777452.4276777 3.125 1.219.492258.5052596 1.1696177.7874024 1.875.781.5522847 0 1 .4477153 1 1s-.4477153 1-1 1z" fill="#9fc9d3"/><g fill="#805333"><path id="Shape" d="m4 31v5h-2v-5c0-.5522847.44771525-1 1-1s1 .4477153 1 1z"/><path id="Shape" d="m8 27v5c0 .5522847-.44771525 1-1 1s-1-.4477153-1-1v-5z"/><path id="Shape" d="m12 31v5h-2v-5c0-.5522847.4477153-1 1-1s1 .4477153 1 1z"/><path id="Shape" d="m16 27v5c0 .5522847-.4477153 1-1 1s-1-.4477153-1-1v-5z"/><path id="Shape" d="m22 27v5c0 .5522847-.4477153 1-1 1s-1-.4477153-1-1v-5z"/><path id="Shape" d="m58 31v5h-2v-5c0-.5522847.4477153-1 1-1s1 .4477153 1 1z"/><path id="Shape" d="m54 27v5c0 .5522847-.4477153 1-1 1s-1-.4477153-1-1v-5z"/><path id="Shape" d="m50 31v5h-2v-5c0-.5522847.4477153-1 1-1s1 .4477153 1 1z"/><path id="Shape" d="m46 27v5c0 .5522847-.4477153 1-1 1s-1-.4477153-1-1v-5z"/><path id="Shape" d="m40 27v5c0 .5522847-.4477153 1-1 1s-1-.4477153-1-1v-5z"/><path id="Shape" d="m11.23 55.005c-.163 0-.262-.005-.289-.007-.5522847-.0317564-.97425637-.5052153-.9425-1.0575.0317564-.5522847.5052153-.9742564 1.0575-.9425 3.3872304-.0837205 6.6166881-1.4488337 9.037-3.82 4.583-4.348 7.907-11.811 7.907-22.178 0-.5522847.4477153-1 1-1s1 .4477153 1 1c0 10.97-3.548 18.934-8.573 23.672-2.7397947 2.6653006-6.3766148 4.2106906-10.197 4.333z"/><path id="Shape" d="m48.77 55.005c-3.821431-.1215683-7.4594483-1.6670123-10.2-4.333-5.022-4.738-8.57-12.702-8.57-23.672 0-.5522847.4477153-1 1-1s1 .4477153 1 1c0 10.4 3.337 17.872 7.945 22.217 2.408277 2.362126 5.627365 3.7159314 9 3.785.5476711-.0236291 1.0149636.3922834 1.055.939.016118.2653306-.0740678.5261602-.2506339.7248674-.176566.1987071-.424981.3189383-.6903661.3341326-.027 0-.126.005-.289.005z"/><path id="Shape" d="m11 55c-.5522847 0-1-.4477153-1-1v-7.393c.0022193-.7475104.4211098-1.4313895 1.086-1.773 14.819-7.656 16.914-17.823 16.914-17.925.0227446-.2643338.1506356-.5084773.3549911-.6776769s.468073-.2492949.7320089-.2223231c.5481068.052749.950438.5386757.9 1.087-.042.46-2.209 11.365-17.99 19.519l.003 7.385c0 .5522847-.4477153 1-1 1z"/><path id="Shape" d="m49 55c-.5522847 0-1-.4477153-1-1v-7.393c-15.787-8.151-17.949-19.056-17.991-19.516-.039192-.5428516.3629542-1.0173649.9048844-1.06772.5419301-.0503552 1.0246187.3419409 1.0861156.88272.013.116 2.185 10.318 16.912 17.927.6659847.3412272 1.0857685 1.0256908 1.088 1.774v7.393c0 .5522847-.4477153 1-1 1z"/></g><path id="Shape" d="m51 55h-42c-.55228475 0-1-.4477153-1-1s.44771525-1 1-1h42c.5522847 0 1 .4477153 1 1s-.4477153 1-1 1z" fill="#603e26"/><path id="Rectangle-path" d="m28 21h4v8h-4z" fill="#805333"/><path id="Shape" d="m37.44 23h-14.88c-.2439425-.029149-.4494757-.1957775-.5284453-.4284176-.0789696-.2326402-.017344-.4899556.1584453-.6615824l4.85-4.91h-3.99c-.1968759-.0240314-.3621623-.1596058-.4242395-.3479779-.0620771-.1883721-.0097766-.3956513.1342395-.5320221l4.19-4.12h-2.99c-.1902391-.0219368-.3517947-.1493899-.4174083-.3292981-.0656136-.1799083-.0240418-.3814432.1074083-.5207019l3.68-4.15h-2.48c-.1899313-.0221813-.3515846-.14854979-.4189578-.32750999-.0673733-.1789602-.0291908-.38056099.0989578-.52249001l5.16-6c.0770972-.09481142.1927986-.14985356.315-.14985356s.2379028.05504214.315.14985356l5.15 6c.1304574.14116588.1700664.34387423.1023431.52376445-.0677234.17989021-.2311795.30615054-.4223431.32623555h-2.47l3.68 4.15c.1304574.1411659.1700664.3438742.1023431.5237644-.0677234.1798903-.2311795.3061506-.4223431.3262356h-2.98l4.18 4.12c.1457261.135684.1991619.34377.1368417.5328796-.0623203.1891096-.2289991.3246579-.4268417.3471204h-3.98l4.84 4.91c.1757893.1716268.2374149.4289422.1584453.6615824-.0789696.2326401-.2845028.3992686-.5284453.4284176z" fill="#4fba6f"/></g></g></svg>