<svg height="512" viewBox="0 0 58 60" width="512" xmlns="http://www.w3.org/2000/svg"><g id="Page-1" fill="none" fill-rule="evenodd"><g id="003---Bee-Hive" fill-rule="nonzero"><path id="Shape" d="m52.005 17c-.5522847 0-1-.4477153-1-1v-1c0-.5522847.4477153-1 1-1s1 .4477153 1 1v1c0 .5522847-.4477153 1-1 1z" fill="#464f5d"/><path id="Shape" d="m6.005 17c-.55228475 0-1-.4477153-1-1v-1c.00000002-.5522847.44771526-1 1-1s.99999998.4477153 1 1v1c0 .5522847-.44771525 1-1 1z" fill="#464f5d"/><path id="Shape" d="m52 60c-.5522847 0-1-.4477153-1-1l.005-1c.0027517-.5503311.449662-.9950069 1-.995h.006c.5518963.0033045.9967694.4531008.994 1.005l-.005 1c-.005484.5483755-.451597.9900274-1 .99z" fill="#464f5d"/><path id="Shape" d="m6 60c-.55228475 0-1-.4477153-1-1v-.991c.01029246-.5493187.45659733-.9902999 1.006-.994.55189628.0033045.99676942.4531008.994 1.005v.985c-.00275169.5503311-.44966199.9950069-1 .995z" fill="#464f5d"/><path id="Shape" d="m29 12c-.5522847 0-1-.4477153-1-1v-10c0-.55228475.4477153-1 1-1s1 .44771525 1 1v10c0 .5522847-.4477153 1-1 1z" fill="#b19046"/><path id="Shape" d="m51.46 32c.7175055 1.2365517.7195521 2.7622558.0053665 4.000728s-2.0357261 2.0009078-3.4653665 1.999272h-5c2.2068582.0054966 3.9945034 1.7931418 4 4 .0013291 1.0612728-.4196715 2.0794609-1.1701053 2.8298947s-1.7686219 1.1714344-2.8298947 1.1701053h-5c2.2068582.0054966 3.9945034 1.7931418 4 4 .0013291 1.0612728-.4196715 2.0794609-1.1701053 2.8298947s-1.7686219 1.1714344-2.8298947 1.1701053h-18c-1.4299033.0022588-2.751921-.7600686-3.4662384-1.9987692-.7143173-1.2387006-.711938-2.7647636.0062384-4.0012308.1749475-.3016023.3865565-.5803887.63-.83.7523311-.7476392 1.7693573-1.1681058 2.83-1.17h-5c-1.4299033.0022588-2.751921-.7600686-3.4662384-1.9987692-.7143173-1.2387006-.711938-2.7647636.0062384-4.0012308.1749475-.3016023.3865565-.5803887.63-.83.7523311-.7476392 1.7693573-1.1681058 2.83-1.17h-5c-1.42990327.0022588-2.75192105-.7600686-3.4662384-1.9987692-.71431734-1.2387006-.71193803-2.7647636.0062384-4.0012308.17494749-.3016023.38655645-.5803887.63-.83.75233113-.7476392 1.76935734-1.1681058 2.83-1.17-1.42990327.0022588-2.75192105-.7600686-3.4662384-1.9987692-.71431734-1.2387006-.71193803-2.7647636.0062384-4.0012308.17494749-.3016023.38655645-.5803887.63-.83.75233113-.7476392 1.76935734-1.1681058 2.83-1.17h5c-1.4299033.0022588-2.751921-.7600686-3.4662384-1.9987692-.7143173-1.2387006-.711938-2.7647636.0062384-4.0012308.1749475-.3016023.3865565-.5803887.63-.83.7523311-.7476392 1.7693573-1.1681058 2.83-1.17h5c-2.209139 0-4-1.790861-4-4s1.790861-4 4-4h18c2.209139 0 4 1.790861 4 4s-1.790861 4-4 4h5c2.2068582.0054966 3.9945034 1.7931418 4 4 .0013291 1.0612728-.4196715 2.0794609-1.1701053 2.8298947s-1.7686219 1.1714344-2.8298947 1.1701053h5c2.2068582.0054966 3.9945034 1.7931418 4 4 .0013291 1.0612728-.4196715 2.0794609-1.1701053 2.8298947s-1.7686219 1.1714344-2.8298947 1.1701053c1.4287069-.0026782 2.7492375.7606343 3.46 2z" fill="#f3d55b"/><g fill="#f0c419"><path id="Shape" d="m32 15c0 .5522847-.4477153 1-1 1h-19.46c.1749475-.3016023.3865565-.5803887.63-.83.7523311-.7476392 1.7693573-1.1681058 2.83-1.17h16c.5522847 0 1 .4477153 1 1z"/><path id="Shape" d="m46.46 16h-11.46c-.5522847 0-1-.4477153-1-1s.4477153-1 1-1h8c1.4287069-.0026782 2.7492375.7606343 3.46 2z"/><path id="Shape" d="m32 31c0 .5522847-.4477153 1-1 1h-24.46c.17494749-.3016023.38655645-.5803887.63-.83.75233113-.7476392 1.76935734-1.1681058 2.83-1.17h21c.5522847 0 1 .4477153 1 1z"/><path id="Shape" d="m51.46 32h-16.46c-.5522847 0-1-.4477153-1-1s.4477153-1 1-1h13c1.4287069-.0026782 2.7492375.7606343 3.46 2z"/><path id="Shape" d="m51.46 24h-24.46c-.5522847 0-1-.4477153-1-1s.4477153-1 1-1h21c1.4287069-.0026782 2.7492375.7606343 3.46 2z"/><path id="Shape" d="m24 23c0 .5522847-.4477153 1-1 1h-16.46c.17494749-.3016023.38655645-.5803887.63-.83.75233113-.7476392 1.76935734-1.1681058 2.83-1.17h13c.5522847 0 1 .4477153 1 1z"/><path id="Shape" d="m32 47c0 .5522847-.4477153 1-1 1h-14.46c.1749475-.3016023.3865565-.5803887.63-.83.7523311-.7476392 1.7693573-1.1681058 2.83-1.17h11c.5522847 0 1 .4477153 1 1z"/><path id="Shape" d="m41.46 48h-6.46c-.5522847 0-1-.4477153-1-1s.4477153-1 1-1h3c1.4287069-.0026782 2.7492375.7606343 3.46 2z"/><path id="Shape" d="m46.46 40h-19.46c-.5522847 0-1-.4477153-1-1s.4477153-1 1-1h16c1.4287069-.0026782 2.7492375.7606343 3.46 2z"/><path id="Shape" d="m24 39c0 .5522847-.4477153 1-1 1h-11.46c.1749475-.3016023.3865565-.5803887.63-.83.7523311-.7476392 1.7693573-1.1681058 2.83-1.17h8c.5522847 0 1 .4477153 1 1z"/></g><path id="Shape" d="m52.01 5v.01c-.05.24-.8 4.31-1.75 5.26-.3383537.3458972-.7746253.5797388-1.25.67-1.0802717.2234007-2.1792817-.2876449-2.7046095-1.25765805s-.352789-2.1696885.4246095-2.95234195c.94-.93 4.91-1.66 5.26-1.73z" fill="#84b5cb"/><path id="Shape" d="m57.27 10.27c-.596157.5906391-1.4473021.8456076-2.27.68-.4791667-.093851-.9185456-.3309762-1.26-.68-.95-.95-1.69-5.02-1.73-5.26v-.01s4.28.76 5.26 1.73c.9699707.98066884.9699707 2.55933116 0 3.54z" fill="#84b5cb"/><path id="Shape" d="m55 10.95v.05c0 2.21-1.34 4-2.99 4s-3-1.79-3-4v-.06c.4753747-.0902612.9116463-.3241028 1.25-.67.95-.95 1.7-5.02 1.75-5.26.04.24.78 4.31 1.73 5.26.3414544.3490238.7808333.586149 1.26.68z" fill="#f3d55b"/><path id="Shape" d="m54 3c.0000138 1.10067601-.8893377 1.99449662-1.99 2h-.02c-1.1032509-.00551632-1.9936619-.90337474-1.9899889-2.00663335.0036729-1.1032586.9000424-1.99516849 2.0033056-1.9933389s1.9966695.89670753 1.9966833 1.99997225z" fill="#464f5d"/><path id="Shape" d="m6.01 5v.01c-.05.24-.8 4.31-1.75 5.26-.33835374.3458972-.77462534.5797388-1.25.67-1.08027169.2234007-2.17928169-.2876449-2.70460947-1.25765805-.52532779-.97001315-.35278899-2.1696885.42460947-2.95234195.94-.93 4.91-1.66 5.26-1.73z" fill="#84b5cb"/><path id="Shape" d="m11.27 10.27c-.596157.5906391-1.44730209.8456076-2.27.68-.4791667-.093851-.91854562-.3309762-1.26-.68-.95-.95-1.69-5.02-1.73-5.26v-.01s4.28.76 5.26 1.73c.9699707.98066884.9699707 2.55933116 0 3.54z" fill="#84b5cb"/><path id="Shape" d="m9 10.95v.05c0 2.21-1.34 4-2.99 4s-3-1.79-3-4v-.06c.47537466-.0902612.91164626-.3241028 1.25-.67.95-.95 1.7-5.02 1.75-5.26.04.24.78 4.31 1.73 5.26.34145438.3490238.7808333.586149 1.26.68z" fill="#f3d55b"/><path id="Shape" d="m8 3c-.00001012.80983232-.48838357 1.53972957-1.23696077 1.84869649-.74857721.30896691-1.60959179.13601455-2.18079273-.43805675-.57120095-.57407131-.7398353-1.43594199-.42712003-2.1829611.31271528-.7470191 1.04505133-1.2317278 1.85487353-1.22767864 1.10066225.00550338 1.99001376.89932399 1.99 2z" fill="#464f5d"/><path id="Shape" d="m52.01 48v.01c-.05.24-.8 4.31-1.75 5.26-.3383537.3458972-.7746253.5797388-1.25.67-1.0802717.2234007-2.1792817-.2876449-2.7046095-1.2576581-.5253278-.9700131-.352789-2.1696885.4246095-2.9523419.94-.93 4.91-1.66 5.26-1.73z" fill="#84b5cb"/><path id="Shape" d="m57.27 53.27c-.596157.5906391-1.4473021.8456076-2.27.68-.4791667-.093851-.9185456-.3309762-1.26-.68-.95-.95-1.69-5.02-1.73-5.26v-.01s4.28.76 5.26 1.73c.9699707.9806688.9699707 2.5593312 0 3.54z" fill="#84b5cb"/><path id="Shape" d="m55 53.95v.05c0 2.21-1.34 4-2.99 4s-3-1.79-3-4v-.06c.4753747-.0902612.9116463-.3241028 1.25-.67.95-.95 1.7-5.02 1.75-5.26.04.24.78 4.31 1.73 5.26.3414544.3490238.7808333.586149 1.26.68z" fill="#f3d55b"/><path id="Shape" d="m54 46c-.0000101.8098323-.4883836 1.5397296-1.2369608 1.8486965s-1.6095918.1360145-2.1807927-.4380568c-.571201-.5740713-.7398353-1.435942-.42712-2.1829611.3127152-.7470191 1.0450513-1.2317278 1.8548735-1.2276786 1.1006623.0055034 1.9900138.899324 1.99 2z" fill="#464f5d"/><path id="Shape" d="m6.01 48.01v.01c-.05.24-.8 4.31-1.75 5.26-.34102982.3423175-.77612477.5755284-1.25.67-1.08027169.2234007-2.17928169-.2876449-2.70460947-1.2576581-.52532779-.9700131-.35278899-2.1696885.42460947-2.9523419.94-.93 4.91-1.66 5.26-1.73z" fill="#84b5cb"/><path id="Shape" d="m11.27 53.28c-.596157.5906391-1.44730209.8456076-2.27.68-.47610822-.102264-.91319191-.3381505-1.26-.68-.95-.95-1.69-5.02-1.73-5.26v-.01s4.28.76 5.26 1.73c.9699707.9806688.9699707 2.5593312 0 3.54z" fill="#84b5cb"/><path id="Shape" d="m9 53.96v.05c0 2.21-1.34 4-2.99 4s-3-1.79-3-4v-.06c.47387523-.0944716.90897018-.3276825 1.25-.67.95-.95 1.7-5.02 1.75-5.26.04.24.78 4.31 1.73 5.26.34680809.3418495.78389178.577736 1.26.68z" fill="#f3d55b"/><path id="Shape" d="m8 46.01c.00001376 1.100676-.88933775 1.9944966-1.99 2h-.02c-1.10325093-.0055163-1.99366188-.9033747-1.98998892-2.0066333.00367296-1.1032587.9000424-1.9951685 2.0033056-1.9933389 1.1032632.0018295 1.99666953.8967075 1.99668332 1.9999722z" fill="#464f5d"/></g></g></svg>