<svg height="512" viewBox="0 0 58 58" width="512" xmlns="http://www.w3.org/2000/svg"><g id="Page-1" fill="none" fill-rule="evenodd"><g id="066---Bear" fill-rule="nonzero" transform="translate(0 -1)"><path id="Shape" d="m35 54.88v.12c0 2.209139-1.790861 4-4 4h-4c-2.209139 0-4-1.790861-4-4v-.12z" fill="#cf976a"/><path id="Shape" d="m39 52.14c10.521-3.99 18-13.76 18-22.64-.0007728-4.6673346-1.2953748-9.243095-3.74-13.219-.1454199-.2298764-.1909213-.5090727-.126015-.7732265.0649064-.2641539.2346192-.490469.470015-.6267735.6665658-.3921924 1.2802144-.8680558 1.826-1.416 3.13-3.13 3.44-7.88.71-10.61s-7.48-2.42-10.611.71c-.6737761.6710991-1.2379824 1.44384578-1.672 2.29-.12262.23620871-.335095.4131697-.5895873.49104093-.2544922.07787123-.5296103.05010728-.7634127-.07704093-8.4730382-4.36524644-18.5345209-4.36114792-27.004.011-.2341405.12783528-.5099003.15598106-.7650391.0780847-.2551388-.07789637-.4681518-.25526921-.5909609-.4920847-.4328222-.84962341-.9967279-1.6257952-1.671-2.3-3.134-3.127-7.884-3.437-10.614-.707s-2.42 7.48.71 10.61c.54733269.5482855 1.16267883 1.0241622 1.831 1.416.23539577.1363045.40510859.3626196.47001496.6267735.06490637.2641538.01940494.5433501-.12601496.7732265-2.44531822 3.9743352-3.74128478 8.5486402-3.744 13.215 0 8.88 7.48 18.65 18 22.64" fill="#a56a43"/><g fill="#fdd7ad"><path id="Shape" d="m22 9c-.4978407.0004987-.9202287-.3652811-.9908804-.85808322s.2319529-.96252217.7098804-1.10191678c4.7557858-1.3785225 9.8052142-1.3785225 14.561 0 .5301934.15463973.8346397.70980664.68 1.24s-.7098066.83463973-1.24.68c-4.3893675-1.27202209-9.0496325-1.27202209-13.439 0-.0913309.02642855-.1859222.0398935-.281.04z"/><path id="Shape" d="m7.99 11.99c-.98764463-.1549315-1.89735554-.6291052-2.59-1.35-.79252118-.76720001-1.28538785-1.79193717-1.39-2.89-.07635365-.75209698.17090878-1.50115667.68-2.06.49392969-.46427148 1.15250133-.71258538 1.83-.69 1.1831636.04027119 2.30335304.5429203 3.12 1.4.7662462.74429433 1.2534514 1.72929609 1.38 2.79z"/><path id="Shape" d="m46.981 9.19c.1265486-1.06070391.6137538-2.04570567 1.38-2.79.816647-.8570797 1.9368364-1.35972881 3.12-1.4.6774987-.02258538 1.3360703.22572852 1.83.69.5090912.55884333.7563536 1.30790302.68 2.06-.1046122 1.09806283-.5974788 2.12279999-1.39 2.89-.6926445.7208948-1.6023554 1.1950685-2.59 1.35z"/><path id="Shape" d="m35 54.88c-.4083382.0809737-.8237122.1211712-1.24.12h-9.52c-1.8816348.0075102-3.6653301-.8379895-4.8507136-2.2993148-1.1853836-1.4613253-1.6447688-3.3810658-1.2492864-5.2206852l3.32-15.41c.7727311-3.5455084 3.9112615-6.0736835 7.54-6.0736835s6.7672689 2.5281751 7.54 6.0736835l3.32 15.41c.3457921 1.6266007.0267093 3.3239375-.8861711 4.71392s-2.3437333 2.3571569-3.9738289 2.68608z"/></g><path id="Shape" d="m24.058 40c-.3023042.0003926-.5885603-.13599-.7787082-.3710043-.190148-.2350143-.263776-.5434323-.2002918-.8389957l1.309-6.084c.4806593-2.16239 2.3968366-3.7021456 4.612-3.706.5522847 0 1 .4477153 1 1s-.4477153 1-1 1c-1.2734943.0009235-2.3762626.8843842-2.655 2.127l-1.311 6.083c-.0988505.4602234-.505281.789199-.976.79z" fill="#fff"/><path id="Shape" d="m30.079 49h-2.158c-.65854.0067877-1.2805153-.3021552-1.673-.831l-.91-1.268c-.3996677-.5466725-.4487188-1.2746533-.126-1.87.3659999-.6463087 1.0553299-1.0415808 1.798-1.031h3.98c.7433823-.0113165 1.4336546.3840561 1.8 1.031.3227188.5953467.2736677 1.3233275-.126 1.87l-.91 1.268c-.3929004.5294192-1.0157579.8384309-1.675.831z" fill="#603e26"/><path id="Rectangle-path" d="m28 49h2v6h-2z" fill="#805333"/><circle id="Oval" cx="17" cy="28" fill="#393f4a" r="2"/><path id="Shape" d="m18 27h-5c-.5522847 0-1-.4477153-1-1s.4477153-1 1-1h5c.5522847 0 1 .4477153 1 1s-.4477153 1-1 1z" fill="#603e26"/><circle id="Oval" cx="41" cy="28" fill="#393f4a" r="2"/><path id="Shape" d="m45 27h-5c-.5522847 0-1-.4477153-1-1s.4477153-1 1-1h5c.5522847 0 1 .4477153 1 1s-.4477153 1-1 1z" fill="#603e26"/><path id="Shape" d="m7.991 12.99c-.04651835.0001515-.09298238-.0031912-.139-.01-1.20537121-.1854367-2.31675461-.7607989-3.164-1.638-.95917157-.9385458-1.55324433-2.18765822-1.676-3.524-.10213092-1.04132273.25205701-2.07579954.971-2.836.68044622-.6532299 1.59408018-1.00687143 2.537-.982 1.44845116.04006527 2.82304345.64816162 3.827 1.693.9276471.90982119 1.516219 2.10954806 1.668 3.4.042695.54460469-.359548 1.0226919-.90343 1.0737747-.543882.0510829-1.0281114-.34374449-1.08757-.8867747-.10578023-.827095-.49065864-1.59332406-1.091-2.172-.62834556-.67087391-1.49466291-1.06866903-2.413-1.108-.41124543-.01805186-.81323209.1255148-1.12.4-.30647414.35674337-.4481013.82629188-.39 1.293.09007634.85416668.47978619 1.64882049 1.1 2.243.53939487.5647778 1.24820535.9383163 2.019 1.064.51902756.0739401.89283828.5361734.85656912 1.0591852s-.47030371.9292236-.99456912.9308148z" fill="#805333"/><path id="Shape" d="m50.01 12.99c-.5242654-.0015912-.9583-.407803-.9945691-.9308148-.0362692-.5230118.3375415-.9852451.8565691-1.0591852.7698755-.1254097 1.4779365-.4982212 2.017-1.062.6222475-.59801455 1.0120516-1.39746726 1.1-2.256.0558123-.46297255-.0853246-.92810758-.389-1.282-.3068786-.27429904-.7087869-.41783772-1.12-.4-.9178665.03922114-1.7837961.43664405-2.412 1.107-.6011358.58065978-.9863272 1.34892624-1.092 2.178-.0208271.26567309-.1486261.51150595-.3541186.68117861-.2054924.16967269-.4710672.24864389-.7358814.21882139-.5493903-.0527177-.9521958-.54055989-.9-1.09.1530683-1.29028159.7418438-2.48970448 1.669-3.4 1.0031378-1.04509604 2.3769596-1.6538877 3.825-1.695.9439314-.02510084 1.8585097.32934779 2.539.984.7170161.75767216 1.0707899 1.78872232.97 2.827-.1220455 1.34134515-.7180126 2.5953222-1.681 3.537-.8469575.873796-1.9562582 1.4468821-3.159 1.632-.0460176.0068088-.0924816.0101515-.139.01z" fill="#805333"/></g></g></svg>