<svg height="512" viewBox="0 0 58 48" width="512" xmlns="http://www.w3.org/2000/svg"><g id="Page-1" fill="none" fill-rule="evenodd"><g id="004---Hiking-Boot" fill-rule="nonzero"><path id="Shape" d="m57.71 34c-.8846678-2.9672665-3.6136623-5.0007944-6.71-5h-5.95c-2.4671464-.0010542-4.9147251-.4377591-7.23-1.29-.63-.23-1.25-.49-1.85-.78h-.01c-1.3597431-.6494158-2.6412959-1.451225-3.82-2.39-.26-.2-.52-.4-.77-.62s-.51-.45-.75-.68c-.9255715-.8787412-1.7659785-1.8430329-2.51-2.88-.398764-.5348484-.7660521-1.0924584-1.1-1.67-.7392143-1.2360243-1.3459082-2.5466172-1.81-3.91-.21-.63-.39-1.27-.55-1.93-.13-.56-.24-1.14-.33-1.73-.2116785-1.41015394-.3186376-2.83404767-.32-4.26v-3.86c0-1.65685425-1.3431458-3-3-3h-5.73c-.734253.00267455-1.4536992.20674822-2.08.59-1.25.75-4.06 1.99-9.38 2.32-1.58040638.10425533-2.80922265 1.41615881-2.81 3v36.09h35.98c1.59 0 3.29-.06 5.03-.17 6.23-.4 12.85-1.46 15.99-2.83v-3c.001899-.6772782-.095813-1.3511542-.29-2z" fill="#f29c1f"/><path id="Shape" d="m57.71 34h-8.71c-3.7755264-.0003005-6.8696021 2.9963938-6.99 6.77v.06c-1.74.11-3.44.17-5.03.17h-17.29c-2.8513369-8.4330901-9.96845224-14.7162578-18.69-16.5v-14.5c8.21 0 11.74-1.87 13.15-3.06.7244275-.60398775 1.6368226-.93641078 2.58-.94h7.27v.86c.0013624 1.42595233.1083215 2.84984606.32 4.26.09.59.2 1.17.33 1.73.16.66.34 1.3.55 1.93.4640918 1.3633828 1.0707857 2.6739757 1.81 3.91.3339479.5775416.701236 1.1351516 1.1 1.67.7440215 1.0369671 1.5844285 2.0012588 2.51 2.88.24.23.49.46.75.68s.51.42.77.62c1.1787041.938775 2.4602569 1.7405842 3.82 2.39h.01c.6.29 1.22.55 1.85.78 2.3152749.8522409 4.7628536 1.2889458 7.23 1.29h5.95c3.0963377-.0007944 5.8253322 2.0327335 6.71 5z" fill="#e64c3c"/><g fill="#802f34"><path id="Shape" d="m37.82 27.71-1.87 5.61-1.9-.64 1.91-5.75h.01c.6.29 1.22.55 1.85.78z"/><path id="Shape" d="m32.14 24.54-4.37 5.11-1.52-1.3 4.37-5.11c.24.23.49.46.75.68s.51.42.77.62z"/><path id="Shape" d="m28.11 20.36-5.58 3.49-1.06-1.7 5.54-3.46c.3339479.5775416.701236 1.1351516 1.1 1.67z"/><path id="Shape" d="m25.2 14.78-5.99 1.2-.4-1.96 5.84-1.17c.16.66.34 1.3.55 1.93z"/></g><path id="Shape" d="m58.0000987 38-.0000987 5.69c.0083039.8332847-.5080809 1.5818424-1.29 1.87-.53.2-1.24.43-2.17.68-.3385964.0886654-.6989069-.0061531-.95-.25l-1.68-1.61c-.2811845-.2699839-.6799124-.3793002-1.0594711-.2904673-.3795586.0888328-.6883616.3637415-.8205289.7304673l-.68 1.89c-.129017.3497897-.4405702.5998015-.81.65-.62.08-1.27.15-1.95.21-.3438239.040789-.684283-.0991775-.9-.37l-1.38-1.77c-.2380391-.300638-.6121978-.4601847-.9939361-.4238286-.3817382.036356-.7190538.2636621-.8960639.6038286l-.89 1.78c-.1629292.3282369-.4936931.5397719-.86.55-1.16.04-2.39.06-3.69.06h-11.49c-.3123451-.0005209-.6071984-.1442619-.8-.39l-1.75-2.23c-.2074445-.2617875-.5329097-.4013214-.8655528-.3710812-.3326432.0302403-.627611.2261773-.7844472.5210812l-1.01 1.93c-.173573.3311165-.5161489.5389715-.89.54h-1.9c-.3123451-.0005209-.6071984-.1442619-.8-.39l-1.74-2.22c-.2068641-.266374-.5351056-.4091112-.8710023-.3787591-.3358968.0303521-.6332344.2296176-.7889977.5287591l-1.01 1.92c-.173573.3311165-.5161489.5389715-.89.54h-1.9c-.31234505-.0005209-.60719836-.1442619-.8-.39l-1.74-2.22c-.20686413-.266374-.53510559-.4091112-.87100233-.3787591-.33589673.0303521-.63323434.2296176-.78899767.5287591l-1.02 1.93c-.16624629.327153-.50303746.5323246-.87.53h-2.4c-.55228475 0-1-.4477153-1-1v-5c0-.5522847.44771525-1 1-1h35.98c1.59 0 3.29-.06 5.03-.17 6.23-.4 12.85-1.46 15.9900987-2.83z" fill="#805333"/><path id="Shape" d="m58 36v2c-3.14 1.37-9.76 2.43-15.99 2.83v-.06c.1203979-3.7736062 3.2144736-6.7703005 6.99-6.77h8.71c.194187.6488458.291899 1.3227218.29 2z" fill="#c03a2b"/><circle id="Oval" cx="22" cy="23" fill="#f0c419" r="2"/><circle id="Oval" cx="27" cy="29" fill="#f0c419" r="2"/><circle id="Oval" cx="35" cy="33" fill="#f0c419" r="2"/><circle id="Oval" cx="19" cy="15" fill="#f0c419" r="2"/><circle id="Oval" cx="9" cy="18" fill="#fff" r="4"/><path id="Shape" d="m30 38h-8c-.5522847 0-1-.4477153-1-1s.4477153-1 1-1h8c.5522847 0 1 .4477153 1 1s-.4477153 1-1 1z" fill="#c03a2b"/><path id="Shape" d="m9 23c-.15466667 0-.31066667-.007-.468-.021-1.32058331-.1231546-2.53812809-.7659539-3.3847019-1.7869437-.84657382-1.0209898-1.25280487-2.3365059-1.1292981-3.6570563.25114938-2.6888193 2.59199943-4.6923477 5.28735965-4.5254396 2.69536025.1669081 4.77114025 2.443933 4.68863685 5.1431955-.0825035 2.6992626-2.2934741 4.8452621-4.9939965 4.8472441zm-2.99-5.279c-.1128908 1.2082229.51320987 2.3654654 1.58631212 2.9320327 1.07310225.5665674 2.38184092.430865 3.31586928-.3438208.9340284-.7746857 1.3093743-2.0357676.9509904-3.1951243-.358384-1.1593567-1.3799081-1.9886338-2.5881718-2.1010876-.79316665-.0792095-1.58500532.1626493-2.19854806.6715233s-.99764072 1.2423404-1.06645194 2.0364767z" fill="#c03a2b"/></g></g></svg>