<svg xmlns="http://www.w3.org/2000/svg" xmlns:xlink="http://www.w3.org/1999/xlink" version="1.1" id="fi_992625" x="0px" y="0px" viewBox="0 0 64 64" style="enable-background:new 0 0 64 64;" xml:space="preserve" width="512" height="512">
<style type="text/css">
	.st0{fill:#4BAD32;}
	.st1{fill:#FCD821;}
	.st2{fill:#EC322C;}
</style>
<g>
	<polygon class="st0" points="55,50 49,50 46,43 42,43 35,27 29,27 23,43 19,43 16,50 9,50 3,61 61,61  "></polygon>
	<circle class="st1" cx="32" cy="13" r="10"></circle>
	<polygon class="st2" points="32,15.3 35.1,17 34.5,13.4 37,10.8 33.5,10.3 32,7 30.5,10.3 27,10.8 29.5,13.4 28.9,17  "></polygon>
	<rect x="14.5" y="31" transform="matrix(0.8437 -0.5369 0.5369 0.8437 -17.7096 14.1843)" class="st2" width="2" height="13"></rect>
	<path d="M32,24l0-2c0.9,0,1.9-0.1,2.8-0.4l0.6,1.9C34.3,23.8,33.2,24,32,24z M28.6,23.5c-1.1-0.4-2.1-0.9-3.1-1.6l1.2-1.6   c0.8,0.6,1.6,1,2.5,1.3L28.6,23.5z M38.5,21.9l-1.2-1.6c0.8-0.6,1.4-1.2,2-2l1.6,1.2C40.2,20.4,39.4,21.2,38.5,21.9L38.5,21.9z    M23.1,19.5c-0.7-0.9-1.2-2-1.6-3.1l1.9-0.6c0.3,0.9,0.7,1.7,1.3,2.5L23.1,19.5z M42.5,16.4l-1.9-0.6c0.3-0.9,0.4-1.8,0.4-2.8l2,0   v0C43,14.2,42.8,15.3,42.5,16.4L42.5,16.4z M21,13L21,13c0-1.2,0.2-2.3,0.5-3.4l1.9,0.6C23.1,11.1,23,12.1,23,13L21,13z M40.6,10.2   c-0.3-0.9-0.7-1.7-1.3-2.5l1.6-1.2c0.7,0.9,1.2,2,1.6,3.1L40.6,10.2z M24.7,7.7l-1.6-1.2c0.7-0.9,1.5-1.8,2.4-2.4l1.2,1.6   C25.9,6.3,25.3,7,24.7,7.7L24.7,7.7z M37.3,5.7c-0.8-0.6-1.6-1-2.5-1.3l0.6-1.9c1.1,0.4,2.1,0.9,3.1,1.6L37.3,5.7z M29.2,4.4   l-0.6-1.9C29.7,2.2,30.8,2,32,2l0,2C31,4,30.1,4.2,29.2,4.4z"></path>
	<rect x="14.5" y="31" transform="matrix(0.8437 -0.5369 0.5369 0.8437 -17.7096 14.1843)" class="st1" width="2" height="13"></rect>
	<path class="st2" d="M14.7,44.3C14.5,44.1,14.3,44,14,44h-2v-2h3c0.4,0,0.7-0.2,0.9-0.6l1-2l-1.8-0.9L14.4,40H12v-0.3   c1-0.6,1.3-1.8,0.7-2.7c-0.6-1-1.8-1.3-2.7-0.7C9,36.8,8.7,38,9.3,39c0.2,0.3,0.4,0.6,0.7,0.7v6.2l-1,3.9l1.9,0.5l1-4   c0-0.1,0-0.2,0-0.2h1.6l2.7,2.7l1.4-1.4L14.7,44.3z"></path>
	<path d="M61,62H3c-0.6,0-1-0.4-1-1c0-0.2,0-0.3,0.1-0.5l6-11C8.3,49.2,8.6,49,9,49h6.3l2.7-6.4c0.2-0.4,0.5-0.6,0.9-0.6h3.3   l5.8-15.4c0.1-0.4,0.5-0.6,0.9-0.6h6c0.4,0,0.8,0.2,0.9,0.6L42.7,42H46c0.4,0,0.8,0.2,0.9,0.6l2.7,6.4H55c0.4,0,0.7,0.2,0.9,0.5   l6,11c0.3,0.5,0.1,1.1-0.4,1.4C61.3,62,61.2,62,61,62z M4.7,60h54.6l-4.9-9H49c-0.4,0-0.8-0.2-0.9-0.6L45.3,44H42   c-0.4,0-0.8-0.2-0.9-0.6L34.3,28h-4.7l-5.8,15.4C23.8,43.7,23.4,44,23,44h-3.3l-2.7,6.4C16.8,50.8,16.4,51,16,51H9.6L4.7,60z"></path>
</g>
</svg>
