<svg height="512" viewBox="0 0 48 59" width="512" xmlns="http://www.w3.org/2000/svg"><g id="Page-1" fill="none" fill-rule="evenodd"><g id="018---Compass" fill-rule="nonzero" transform="translate(-1 -1)"><path id="Shape" d="m49 36c.0035313 12.99577-10.3376186 23.6334003-23.3282982 23.9971199-12.9906797.3637196-23.91083795-9.6786259-24.63446642-22.6542342-.72362846-12.9756084 9.01219702-24.1699043 21.96276462-25.2528857.66-.06 1.33-.09 2-.09s1.34.03 2 .09c12.4335626 1.0397463 21.9966096 11.4330396 22 23.91z" fill="#f0c419"/><circle id="Oval" cx="25" cy="36" fill="#ecf0f1" r="20"/><path id="Shape" d="m42.01 25.49c-7.8879474-4.8783722-18.0952237-3.6914907-24.6533572 2.8666428s-7.74501504 16.7654098-2.8666428 24.6533572c-7.03779551-4.3382012-10.68096524-12.5595569-9.16723685-20.6872369 1.51372839-8.1276799 7.87232005-14.4862716 15.99999995-16 8.12768-1.5137283 16.3490357 2.1294414 20.6872369 9.1672369z" fill="#fff"/><path id="Shape" d="m25 57c-11.5979797 0-21-9.4020203-21-21s9.4020203-21 21-21 21 9.4020203 21 21c-.0132259 11.592497-9.407503 20.9867741-21 21zm0-40c-10.4934102 0-19 8.5065898-19 19s8.5065898 19 19 19 19-8.5065898 19-19c-.0115735-10.4886126-8.5113874-18.9884265-19-19z" fill="#95a5a5"/><path id="Shape" d="m21.381 31.01c-.345146.0003459-.6660727-.1773168-.849-.47l-4.38-7.01c-.2927109-.469442-.149442-1.0872891.32-1.38s1.0872891-.149442 1.38.32l4.38 7.01c.1925741.3081173.2028676.6964454.0268872 1.014332-.1759804.3178867-.5105404.5153056-.8738872.515668z" fill="#95a5a5"/><path id="Shape" d="m17.289 50.18c-.3570824-.000366-.6868739-.1911096-.8652566-.5004437s-.1782849-.6903138.0002566-.9995563l4.13-7.17c.1773616-.3119508.5082732-.5049532.8671183-.5057421s.6906021.1907567.8693336.5019247c.1787314.3111679.1770325.694247-.0044519 1.0038174l-4.13 7.17c-.1788068.3097028-.5093863.5003484-.867.5z" fill="#95a5a5"/><path id="Shape" d="m28.619 31.01c-.3633468-.0003624-.6979068-.1977813-.8738872-.515668-.1759804-.3178866-.1656869-.7062147.0268872-1.014332l4.38-7.01c.2927109-.469442.910558-.6127109 1.38-.32s.6127109.910558.32 1.38l-4.38 7.01c-.1836786.2938946-.5064327.471731-.853.47z" fill="#95a5a5"/><path id="Shape" d="m32.711 50.18c-.3576137.0003484-.6881932-.1902972-.867-.5l-4.13-7.17c-.1814844-.3095704-.1831833-.6926495-.0044519-1.0038174.1787315-.311168.5104885-.5027136.8693336-.5019247s.6897567.1937913.8671183.5057421l4.13 7.17c.1785415.3092425.1786393.6902222.0002566.9995563s-.5081742.5000777-.8652566.5004437z" fill="#95a5a5"/><path id="Shape" d="m31.71 34h-4.48c-.5665966-.6362813-1.3780108-1.0002266-2.23-1.0002266s-1.6634034.3639453-2.23 1.0002266h-4.48c.4158089-1.4042767 1.2666721-2.6403044 2.43-3.53.4211957-.331377.8812643-.6101047 1.37-.83 1.8461715-.8532931 3.9738285-.8532931 5.82 0 .4705085.2086367.9137873.4739324 1.32.79 1.1892885.892129 2.0590306 2.1441368 2.48 3.57z" fill="#d25627"/><path id="Shape" d="m31.71 38c-.4158089 1.4042767-1.2666721 2.6403044-2.43 3.53-.4211957.331377-.8812643.6101047-1.37.83-1.8461715.8532931-3.9738285.8532931-5.82 0-.4705085-.2086367-.9137873-.4739324-1.32-.79-1.1892885-.892129-2.0590306-2.1441368-2.48-3.57h4.48c.5665966.6362813 1.3780108 1.0002266 2.23 1.0002266s1.6634034-.3639453 2.23-1.0002266z" fill="#d25627"/><path id="Shape" d="m25 10.994c-2.7606418-.0022085-4.9971039-2.24135589-4.9959996-5.0019984s2.2393569-4.998 4.9999996-4.998 4.9988953 2.23735749 4.9999996 4.998-2.2353578 4.9997899-4.9959996 5.0019984zm0-7.994c-1.6568542 0-3 1.34314575-3 3s1.3431458 3 3 3 3-1.34314575 3-3-1.3431458-3-3-3z" fill="#bdc3c7"/><path id="Shape" d="m27 9v3.09c-.66-.06-1.33-.09-2-.09s-1.34.03-2 .09v-3.09c.0032948-1.10320187.8967981-1.9967052 2-2 1.1011688.00816722 1.9918328.89883122 2 2z" fill="#b19046"/><path id="Shape" d="m28 36c.0053086 1.4528103-1.0275223 2.7022293-2.4553961 2.9703008-1.4278739.2680714-2.8435389-.5216627-3.3655252-1.8774711-.5219862-1.3558084-.0014151-2.8909935 1.2375775-3.6496656s2.8430268-.5244462 3.8133438.5568359c.4954705.5483173.7698477 1.2609852.77 2z" fill="#bdc3c7"/><path id="Shape" d="m40.72 36.37-4.36 1.25c-.8340643.2319935-1.6943802.356336-2.56.37h-.01c-.0596196.0083116-.1198266.0116565-.18.01h-6.38c1.0268535-1.1356281 1.0268535-2.8643719 0-4h6.45c.9059246.0113195 1.8066374.1390325 2.68.38l4.36 1.25c.1649564.0474446.278581.1983562.278581.37s-.1136246.3225554-.278581.37z" fill="#7f8284"/><path id="Shape" d="m22 36c.0001523.7390148.2745295 1.4516827.77 2h-6.45c-.9059246-.0113195-1.8066374-.1390325-2.68-.38l-4.36-1.25c-.16495637-.0474446-.27858102-.1983562-.27858102-.37s.11362465-.3225554.27858102-.37l4.36-1.25c.8340643-.2319935 1.6943802-.356336 2.56-.37h.01c.0596196-.0083116.1198266-.0116565.18-.01h6.38c-.4954705.5483173-.7698477 1.2609852-.77 2z" fill="#7f8284"/><g fill="#f29c1f"><path id="Shape" d="m27.91 29.64c-1.8461715-.8532931-3.9738285-.8532931-5.82 0l2.28-9.15c.0746681-.286808.3336317-.4869848.63-.4869848s.5553319.2001768.63.4869848z"/><path id="Shape" d="m27.91 42.36-2.28 9.15c-.0746681.286808-.3336317.4869848-.63.4869848s-.5553319-.2001768-.63-.4869848l-2.28-9.15c1.8461715.8532931 3.9738285.8532931 5.82 0z"/><path id="Shape" d="m20.72 30.47c-1.1633279.8896956-2.0141911 2.1257233-2.43 3.53h-1.9c-.0601734-.0016565-.1203804.0016884-.18.01h-.01l-5.22-4.67c-.2203591-.1970984-.2787958-.5186365-.1418791-.7806666.1369166-.2620301.4342415-.3976747.7218791-.3293334z"/><path id="Shape" d="m38.44 43.77-9.16-2.24c1.1633279-.8896956 2.0141911-2.1257233 2.43-3.53h1.9c.0601734.0016565.1203804-.0016884.18-.01h.01l5.22 4.67c.2203591.1970984.2787958.5186365.1418791.7806666-.1369166.2620301-.4342415.3976747-.7218791.3293334z"/><path id="Shape" d="m20.77 41.57-9.13 2.33c-.2881792.0706458-.5877151-.062193-.7288068-.3232125-.1410917-.2610196-.0881527-.5843853.1288068-.7867875l5.28-4.79h1.97c.4209694 1.4258632 1.2907115 2.677871 2.48 3.57z"/><path id="Shape" d="m38.96 29.21-5.28 4.79h-1.97c-.4209694-1.4258632-1.2907115-2.677871-2.48-3.57l9.13-2.33c.2881792-.0706458.5877151.062193.7288068.3232125.1410917.2610196.0881527.5843853-.1288068.7867875z"/></g></g></g></svg>