<svg height="512" viewBox="0 0 58 58" width="512" xmlns="http://www.w3.org/2000/svg"><g id="Page-1" fill="none" fill-rule="evenodd"><g id="093---Drawing-Map" fill-rule="nonzero" transform="translate(-1)"><circle id="Oval" cx="43" cy="42" fill="#2980ba" r="16"/><path id="Shape" d="m58.13 36.77-10.13 10.23-2.83-2.83 11.06-11.17c.8047212 1.1626998 1.4441562 2.4314734 1.9 3.77z" fill="#c03a2b"/><path id="Shape" d="m56.23 33-11.11 11.12-4.24-4.24 11.12-11.11c1.6688724 1.1248942 3.1051058 2.5611276 4.23 4.23z" fill="#e64c3c"/><path id="Shape" d="m52 28.77-11.12 11.11-2.83-2.83 10.18-10.18c1.335072.4640351 2.6027712 1.1029286 3.77 1.9z" fill="#fb7b76"/><path id="Shape" d="m47.95 46.95-5.6 1.47-5.77-5.77 1.47-5.6z" fill="#fdd7ad"/><path id="Shape" d="m42.35 48.42-7.84 2.06 2.07-7.83z" fill="#35495e"/><path id="Shape" d="m57.69.42-14.35 4.66c-.1128211.01523918-.2271789.01523918-.34 0-.116416-.01125069-.2307814-.03816018-.34-.08l-12.29-4.85c-.2375919-.09462433-.5024081-.09462433-.74 0l-12.29 4.9c-.1071326.04703714-.2229996.07089212-.34.07-.1128211.01523918-.2271789.01523918-.34 0l-14.35-4.7c-.30438538-.0992489-.63788978-.04675502-.8970691.14119945-.25917933.18795447-.41269511.48864317-.4129309.80880055v42.72c.00031865.4325739.27873603.8159022.69.95l15 4.85c.1128211.0152392.2271789.0152392.34 0 .116416-.0112507.2307814-.0381602.34-.08l10.12-4c-1.5233645-6.0158127.569263-12.3699359 5.3692165-16.3032664 4.7999535-3.9333304 11.4414208-4.7363768 17.0405274-2.0604382 5.5991066 2.6759385 9.1458896 8.3481781 9.1002561 14.5537046v-40.63c-.0002358-.32015738-.1537516-.62084608-.4129309-.80880055s-.5926837-.24044835-.8970691-.14119945z" fill="#f0c419"/><path id="Shape" d="m17 5.12v44.82c-.1128211.0152392-.2271789.0152392-.34 0l-14.97-4.94c-.39762108-.1292604-.67285337-.4922479-.69-.91v-42.72c-.01635472-.32888269.13024822-.64473685.39199162-.84454097.26174341-.19980413.60507402-.25794504.91800838-.15545903l14.35 4.7c.1105445.03199428.2249247.0488149.34.05z" fill="#f3d55b"/><path id="Shape" d="m43 5.13v20.87c-5.1529704-.0029188-9.9919539 2.4761296-13 6.66v-32.58000296c.1266534-.00030519.2522124.02344923.37.07000296l12.29 4.9c.1092186.04183982.223584.06874931.34.08z" fill="#f3d55b"/><g fill="#f29c1f"><path id="Shape" d="m17 32c-.5522847 0-1-.4477153-1-1v-21c0-.55228475.4477153-1 1-1s1 .44771525 1 1v21c0 .5522847-.4477153 1-1 1z"/><path id="Shape" d="m17 46.18c-.5522847 0-1-.4477153-1-1v-9.18c0-.5522847.4477153-1 1-1s1 .4477153 1 1v9.18c0 .5522847-.4477153 1-1 1z"/><path id="Shape" d="m30 27c-.5522847 0-1-.4477153-1-1v-21c0-.55228475.4477153-1 1-1s1 .44771525 1 1v21c0 .5522847-.4477153 1-1 1z"/><path id="Shape" d="m43 23c-.5522847 0-1-.4477153-1-1v-12c0-.55228475.4477153-1 1-1s1 .44771525 1 1v12c0 .5522847-.4477153 1-1 1z"/></g></g></g></svg>