<svg height="512pt" viewBox="-61 0 512 512.00053" width="512pt" xmlns="http://www.w3.org/2000/svg"><path d="m321.019531 184.648438h-252.652343s-66.757813 116.75-35.136719 211.515624c19.117187 57.289063 74.136719 89.789063 114.65625 106.535157 30.003906 12.402343 63.609375 12.402343 93.613281 0 40.519531-16.746094 95.539062-49.246094 114.65625-106.535157 31.621094-94.765624-35.136719-211.515624-35.136719-211.515624zm0 0" fill="#dd9f80"/><path d="m177.875 359.007812c114.277344-6.273437 179.359375-79.160156 179.359375-79.160156-12.453125-53.648437-36.214844-95.199218-36.214844-95.199218h-252.652343s-66.757813 116.75-35.136719 211.515624c19.117187 57.289063 74.136719 89.789063 114.65625 106.535157 25.128906 10.386719 52.792969 12.070312 78.742187 5.0625-37.503906-20.21875-64.457031-43.566407-83.738281-65.929688-27.128906-31.464843-6.496094-80.546875 34.984375-82.824219zm0 0" fill="#c68d6d"/><path d="m229.988281 43.84375s1.929688-43.84375-35.296875-43.84375c-37.222656 0-35.292968 43.84375-35.292968 43.84375 0 16.695312-11.675782 31.226562-28.039063 34.535156-76.433594 15.453125-131.359375 58.09375-131.359375 108.277344 0 63.226562 87.167969 114.480469 194.691406 114.480469 107.527344 0 194.691406-51.253907 194.691406-114.480469 0-50.183594-54.925781-92.824219-131.355468-108.277344-16.363282-3.308594-28.039063-17.839844-28.039063-34.535156zm0 0" fill="#efd4bf"/><path d="m99.671875 477.292969c16.355469 10.914062 33.273437 19.234375 48.214844 25.40625 30.003906 12.402343 63.609375 12.402343 93.613281 0 14.941406-6.171875 31.859375-14.496094 48.214844-25.40625-25.035156-14.878907-58.390625-23.96875-95.023438-23.96875-36.625 0-69.988281 9.089843-95.019531 23.96875zm0 0" fill="#b2e59c"/><path d="m128.738281 368.621094c0-13.578125-13.824219-24.589844-30.878906-24.589844-17.050781 0-30.875 11.011719-30.875 24.589844 0 13.582031 13.824219 24.589844 30.875 24.589844 17.054687 0 30.878906-11.007813 30.878906-24.589844zm0 0" fill="#ffa6bb"/><path d="m322.402344 368.621094c0-13.578125-13.824219-24.589844-30.875-24.589844-17.054688 0-30.878906 11.011719-30.878906 24.589844 0 13.582031 13.824218 24.589844 30.878906 24.589844 17.050781 0 30.875-11.007813 30.875-24.589844zm0 0" fill="#ffa6bb"/><g fill="#57565c"><path d="m194.691406 364.628906c-10 0-20-3.234375-28.34375-9.707031-3.371094-2.617187-3.984375-7.46875-1.367187-10.839844 2.613281-3.375 7.46875-3.988281 10.839843-1.371093 11.113282 8.617187 26.632813 8.617187 37.746094 0 3.371094-2.617188 8.226563-2.003907 10.839844 1.371093 2.613281 3.371094 2.003906 8.222657-1.371094 10.839844-8.34375 6.472656-18.34375 9.707031-28.34375 9.707031zm0 0"/><path d="m116.878906 349.808594c-1.730468-2.542969-4.253906-2.847656-5.277344-2.847656-1.023437 0-3.585937.277343-5.277343 2.847656-2.34375 3.566406-7.132813 4.558594-10.699219 2.214844s-4.558594-7.132813-2.214844-10.699219c4.035156-6.148438 10.839844-9.816407 18.191406-9.816407 7.355469 0 14.15625 3.667969 18.195313 9.816407 2.339844 3.566406 1.347656 8.355469-2.21875 10.699219-1.304687.859374-7.089844 3.082031-10.699219-2.214844zm0 0"/><path d="m283.0625 349.808594c-1.734375-2.542969-4.253906-2.847656-5.277344-2.847656-1.027344 0-3.589844.277343-5.277344 2.847656-2.34375 3.566406-7.136718 4.558594-10.699218 2.214844-3.566406-2.34375-4.558594-7.132813-2.21875-10.699219 4.039062-6.148438 10.839844-9.816407 18.195312-9.816407 7.355469 0 14.152344 3.667969 18.191406 9.816407 2.34375 3.566406 1.351563 8.355469-2.214843 10.699219-1.308594.859374-7.089844 3.085937-10.699219-2.214844zm0 0"/></g><path d="m111.605469 83.105469c-65.960938 18.328125-111.605469 57.808593-111.605469 103.550781 0 63.226562 87.167969 114.480469 194.691406 114.480469 40.683594 0 78.449219-7.335938 109.683594-19.882813-55.183594-42.28125-158.261719-33.632812-200.5-69.417968-50.652344-42.917969 7.730469-128.730469 7.730469-128.730469zm0 0" fill="#e0c1ad"/><path d="m256.988281 159.40625-10.4375 10.4375c-4.878906 4.878906-12.792969 4.878906-17.671875 0l-10.4375-10.4375c-4.882812-4.882812-4.882812-12.796875 0-17.675781l10.4375-10.4375c4.878906-4.878907 12.792969-4.878907 17.671875 0l10.4375 10.4375c4.878907 4.878906 4.878907 12.792969 0 17.675781zm0 0" fill="#e0c1ad"/><path d="m304.65625 207.074219-10.4375 10.4375c-4.878906 4.878906-12.792969 4.878906-17.671875 0l-10.4375-10.4375c-4.882813-4.882813-4.882813-12.792969 0-17.675781l10.4375-10.433594c4.878906-4.882813 12.792969-4.882813 17.671875 0l10.4375 10.433594c4.882812 4.882812 4.882812 12.796874 0 17.675781zm0 0" fill="#e0c1ad"/><path d="m156.753906 456.683594c-21.5625 3.910156-41.03125 11.070312-57.082031 20.609375 16.355469 10.914062 33.273437 19.238281 48.214844 25.410156 25.128906 10.386719 52.792969 12.066406 78.742187 5.058594-29.246094-15.769531-52.097656-33.453125-69.875-51.078125zm0 0" fill="#9ad880"/></svg>