<svg height="512" viewBox="0 0 42 58" width="512" xmlns="http://www.w3.org/2000/svg"><g id="Page-1" fill="none" fill-rule="evenodd"><g id="054---Hiker-Male" fill-rule="nonzero"><path id="Shape" d="m5.84 46.78c-2.46058334 2.4367516-3.84342911 5.7570219-3.84 9.22v1c0 .5522847.44771525 1 1 1h36c.5522847 0 1-.4477153 1-1v-1c.0034291-3.4629781-1.3794167-6.7832484-3.84-9.22l-7.57-11.78h-15.18z" fill="#e64c3c"/><path id="Shape" d="m37 24c0 .19-.01 2.38-.04 2.57-.2883388 1.8865871-1.8549323 3.3156871-3.76 3.43-.4848901.0214197-.9695923-.0463708-1.43-.2-.6497207 1.953093-1.7374423 3.7317573-3.18 5.2-1.2700098 1.2626195-2.8493615 2.1695398-4.58 2.63-1.9763436.4933488-4.0436564.4933488-6.02 0-1.7306385-.4604602-3.3099902-1.3673805-4.58-2.63-1.4425577-1.4682427-2.5302793-3.246907-3.18-5.2-.46040772.1536292-.94510991.2214197-1.43.2-1.90506765-.1143129-3.47166122-1.5434129-3.76-3.43-.03-.19-.04-2.38-.04-2.57-.00186241-1.0614358.41896686-2.0799339 1.16951648-2.8304835.75054961-.7505496 1.76904771-1.1713789 2.83048352-1.1695165v-1.12c-.0000129-1.0271307.7780179-1.8872869 1.8-1.99 2.79-.29 8.04-1.3 10.2-4.89 2.16 3.59 7.41 4.6 10.2 4.89 1.0219821.1027131 1.8000129.9628693 1.8 1.99v1.12c1.0614358-.0018624 2.0799339.4189669 2.8304835 1.1695165s1.1713789 1.7690477 1.1695165 2.8304835z" fill="#fdd7ad"/><path id="Shape" d="m21 14c-2.16 3.59-7.41 4.6-10.2 4.89-1.0219821.1027131-1.8000129.9628693-1.8 1.99v1.12c-1.06143581-.0018624-2.07993391.4189669-2.83048352 1.1695165-.75054962.7505496-1.17137889 1.7690477-1.1695557 2.8304835l.00003922-9c-.00431176-1.0825464.34702278-2.13655 1-3z" fill="#3f5c6c"/><path id="Shape" d="m37 17 .0000392 9c.0018232-1.0614358-.4190061-2.0799339-1.1695557-2.8304835s-1.7690477-1.1713789-2.8304835-1.1695165v-1.12c.0000129-1.0271307-.7780179-1.8872869-1.8-1.99-2.79-.29-8.04-1.3-10.2-4.89h15c.6529772.86345 1.0043118 1.9174536 1 3z" fill="#35495e"/><path id="Shape" d="m42 13c0 .5522847-.4477153 1-1 1h-40c-.55228475 0-1-.4477153-1-1-.00132908-1.0612728.41967146-2.0794609 1.17010528-2.8298947.75043381-.75043384 1.76862187-1.17143438 2.82989472-1.1701053h34c2.209139 0 4 1.790861 4 4z" fill="#a56a43"/><path id="Shape" d="m33 9h-24l4.43-7.97c.3504472-.63814207 1.0219704-1.03338139 1.75-1.03h11.64c.7280296-.00338139 1.3995528.39185793 1.75 1.03z" fill="#cb8252"/><g fill="#805333"><path id="Rectangle-path" d="m28 54h4v4h-4z"/><path id="Rectangle-path" d="m10 54h4v4h-4z"/><path id="Shape" d="m14 43.05v6.95h-4v-6c1.2730314-.5313707 2.6239901-.8522234 4-.95z"/></g><path id="Shape" d="m26 43s-1 2-5 2-5-2-5-2c1.4314007-1.4033807 2.1611978-3.3727328 1.99-5.37 1.9763436.4933488 4.0436564.4933488 6.02 0-.1711978 1.9972672.5585993 3.9666193 1.99 5.37z" fill="#f9c795"/><path id="Shape" d="m16 43h-1c-.3340373-.0035479-.6679826.0131493-1 .05-3.0792693.2246408-5.97526214 1.5484218-8.16 3.73-2.24955701-3.1771516-2.45240087-7.3705584-.52-10.75.35552212-.6331929 1.0238339-1.0265421 1.75-1.03h6.34c1.2700098 1.2626195 2.8493615 2.1695398 4.58 2.63.1711978 1.9972672-.5585993 3.9666193-1.99 5.37z" fill="#f29c1f"/><path id="Shape" d="m12.36 35-.63.68c-.8521263 1.0320689-1.4544378 2.2469585-1.76 3.55-.10135939.4532562-.50556706.7741221-.97.77-.07759129-.000755-.15481103-.0108272-.23-.03-.2576676-.0603031-.48065265-.220863-.61955397-.4461084s-.18225132-.4965802-.12044603-.7538916c.31643929-1.3569229.89753984-2.6380627 1.71-3.77z" fill="#e57e25"/><path id="Shape" d="m38 41c-.0090666 2.0693004-.6511474 4.0862717-1.84 5.78-2.1847379-2.1815782-5.0807307-3.5053592-8.16-3.73-.3320174-.0368507-.6659627-.0535479-1-.05h-1c-1.4314007-1.4033807-2.1611978-3.3727328-1.99-5.37 1.7306385-.4604602 3.3099902-1.3673805 4.58-2.63h6.34c.7261661.0034579 1.3944779.3968071 1.75 1.03.8559923 1.5172526 1.3103465 3.2279653 1.32 4.97z" fill="#f29c1f"/><path id="Shape" d="m33.23 39.97c-.075189.0191728-.1524087.029245-.23.03-.4644329.0041221-.8686406-.3167438-.97-.77-.3055622-1.3030415-.9078737-2.5179311-1.76-3.55l-.63-.68h2.62c.8124602 1.1319373 1.3935607 2.4130771 1.71 3.77.0618053.2573114.0184553.5286462-.120446.7538916-.1389014.2252454-.3618864.3858053-.619554.4461084z" fill="#e57e25"/><rect id="Rectangle-path" fill="#603e26" height="4" rx="1" width="6" x="9" y="50"/><rect id="Rectangle-path" fill="#603e26" height="4" rx="1" width="6" x="27" y="50"/><path id="Shape" d="m32 44v6h-4v-6.95c1.3760099.0977766 2.7269686.4186293 4 .95z" fill="#805333"/><circle id="Oval" cx="16" cy="4" fill="#f0c419" r="1"/><circle id="Oval" cx="26" cy="4" fill="#f0c419" r="1"/></g></g></svg>