<svg height="512" viewBox="0 0 58 58" width="512" xmlns="http://www.w3.org/2000/svg"><g id="Page-1" fill="none" fill-rule="evenodd"><g id="011---Tent-Badge" fill-rule="nonzero"><path id="Shape" d="m54 29c.0081283 4.1952804-1.0481501 8.3240557-3.07 12h-10.93l3-11-14-17.5-14 17.5 3 11h-10.93c-5.01286609-9.1586252-3.80626266-20.4679979 3.0260491-28.3628544 6.8323118-7.89485637 17.8513462-10.71242325 27.634713-7.06619547 9.7833667 3.64622777 16.2705444 12.98830087 16.2692379 23.42904987z" fill="#46b29d"/><path id="Shape" d="m51.12 17.37c-6.0896741-4.9521329-14.2189197-6.6071218-21.76-4.43l-.36-.44-.59.74c-9.800738 3.2609508-16.4123589 12.4309991-16.41 22.76-.0026531 1.6808246.1750304 3.3570834.53 5h-5.46c-4.32196451-7.878176-4.08246517-17.4700028.62729048-25.1226648 4.70975562-7.65266198 13.16485322-12.18827959 22.14537292-11.87957233 8.9805197.30870725 17.1042012 5.41422389 21.2773366 13.37223713z" fill="#65ddb9"/><path id="Shape" d="m31.625 10.824c-.2071041-.1658359-.4716222-.2425711-.735322-.2133128-.2636999.0292583-.5049635.1621115-.670678.3693128l-1.219 1.52-1.219-1.52c-.3460579-.4272994-.9721792-.4950446-1.4016245-.1516534-.4294454.3433913-.5010869.9690788-.1603755 1.4006534l2 2.5c.2015198.2221436.4816713.357018.781.376.2994379-.0185643.5797386-.1535106.781-.376l2-2.5c.3446667-.4311264.2748438-1.0599801-.156-1.405z" fill="#a56a43"/><path id="Shape" d="m16.79 31.21-4.74 3.16-.29.19-.97.65c-.1490807.0991154-.3214006.1577042-.5.17l-.38-1.07-.27-.74c.0113954-.0123522.02495119-.022519.04-.03l1.39-.92.29-.19 4.32-2.89c.4611578-.306518 1.0834819-.1811577 1.39.28.306518.4611578.1811577 1.0834819-.28 1.39z" fill="#a56a43"/><path id="Shape" d="m48.42 33.63-.33.91-.3.84h-.03c-.1992385-.0009245-.3938709-.0600093-.56-.17l-.97-.64-.22-.15-4.81-3.21c-.2983168-.1982824-.4681905-.540653-.4456312-.8981441.0225592-.3574911.234124-.6757913.555-.835s.7023144-.1351383 1.0006312.0631441l4.4 2.93.22.15 1.38.92c.0386334.0275124.0753822.0575796.11.09z" fill="#a56a43"/><path id="Shape" d="m29 0c-16.0162577 0-29 12.9837423-29 29s12.9837423 29 29 29 29-12.9837423 29-29-12.9837423-29-29-29zm0 54c-13.8071187 0-25-11.1928813-25-25s11.1928813-25 25-25 25 11.1928813 25 25c-.0121298 13.8020913-11.1979087 24.9878702-25 25z" fill="#e64c3c"/><path id="Shape" d="m50.93 41c-4.3862349 8.0137548-12.7943926 12.9968712-21.93 12.9968712s-17.5437651-4.9831164-21.93-12.9968712z" fill="#d1d4d1"/><path id="Shape" d="m40 41h-22c9-4 11-17.27 11-25 0 7.73 2 21 11 25z" fill="#603e26"/><path id="Shape" d="m29 55c-14.3594035 0-26-11.6405965-26-26s11.6405965-26 26-26 26 11.6405965 26 26c-.016532 14.3525501-11.6474499 25.983468-26 26zm0-50c-13.254834 0-24 10.745166-24 24s10.745166 24 24 24 24-10.745166 24-24c-.0154295-13.2484376-10.7515624-23.98457048-24-24z" fill="#fff"/><path id="Shape" d="m29 12.5v3.5c0 7.73-2 21-11 25l-3-11z" fill="#f29c1f"/><path id="Shape" d="m19.322 32c-.3843629-.0002401-.7345727-.2207567-.9008985-.5672687-.1663258-.3465121-.1193284-.7576881.1208985-1.0577313l4.677-5.846c.3460579-.4272994.9721792-.4950446 1.4016245-.1516534.4294454.3433913.5010869.9690788.1603755 1.4006534l-4.681 5.847c-.1892035.2363172-.4752739.3742046-.778.375z" fill="#f5efca"/><path id="Shape" d="m14.2 43.35c-.1092973.0384291-.2241509.0586974-.34.06-.4236174-.0016876-.8002085-.2701089-.94-.67l-2.63-7.36-.38-1.07-.27-.74-.25-.71-1.42-3.97c-.16963507-.5140008.1004873-1.069673.60948442-1.2537784.50899712-.1841053 1.07208728.0701922 1.27051558.5737784l1.22 3.41.29.81.4 1.13.29.81 2.75 7.7c.1875381.5191367-.0810135 1.0920467-.6 1.28z" fill="#95a5a5"/><path id="Shape" d="m8 30c-.46437914.0008998-.86827203-.3180058-.97511179-.7699285-.10683975-.4519226.11149081-.9179291.52711179-1.1250715l2-1c.31998399-.1630317.7028178-.1419628 1.0029789.055198.3001612.1971608.471552.5401342.4490237.8985495-.0225284.3584154-.2355161.6772285-.5580026.8352525l-2 1c-.13833866.0697059-.29109197.1060105-.446.106z" fill="#7f8c8d"/><path id="Shape" d="m43 30-3 11c-9-4-11-17.27-11-25v-3.5z" fill="#e57e25"/><path id="Shape" d="m50.03 29.12-1.42 3.98-.19.53-.33.91-.3.84-2.48 6.96c-.1431502.3959474-.5189699.6598209-.94.66-.1150753-.0011851-.2294555-.0180057-.34-.05-.5185988-.1886742-.7900886-.7583576-.61-1.28l2.59-7.25.22-.62.48-1.33.22-.62 1.22-3.41c.1140821-.345673.4069886-.6020514.764724-.6693559.3577355-.0673044.7237872.0650973.9556925.3456761.2319054.2805788.2930294.6650108.1595835 1.0036798z" fill="#95a5a5"/><path id="Shape" d="m50 30.23c-.1547895-.0000102-.3074634-.0359537-.446-.105l-2-1c-.3224865-.158024-.5354742-.4768371-.5580026-.8352525-.0225283-.3584153.1488625-.7013887.4490237-.8985495.3001611-.1971608.6829949-.2182297 1.0029789-.055198l2 1c.4144465.2077179.6317906.6730467.52508 1.1241847s-.5094933.7697843-.97308.7698153z" fill="#7f8c8d"/><g fill="#805333"><path id="Shape" d="m21 46h-4c-.5522847 0-1-.4477153-1-1s.4477153-1 1-1h4c.5522847 0 1 .4477153 1 1s-.4477153 1-1 1z"/><path id="Shape" d="m41 46h-4c-.5522847 0-1-.4477153-1-1s.4477153-1 1-1h4c.5522847 0 1 .4477153 1 1s-.4477153 1-1 1z"/><path id="Shape" d="m26 50h-4c-.5522847 0-1-.4477153-1-1s.4477153-1 1-1h4c.5522847 0 1 .4477153 1 1s-.4477153 1-1 1z"/><path id="Shape" d="m36 50h-4c-.5522847 0-1-.4477153-1-1s.4477153-1 1-1h4c.5522847 0 1 .4477153 1 1s-.4477153 1-1 1z"/><path id="Shape" d="m31 46h-4c-.5522847 0-1-.4477153-1-1s.4477153-1 1-1h4c.5522847 0 1 .4477153 1 1s-.4477153 1-1 1z"/></g><path id="Shape" d="m38.678 32c-.3041289.000418-.5919196-.137589-.782-.375l-4.677-5.847c-.3407114-.4315746-.2690699-1.0572621.1603755-1.4006534.4294453-.3433912 1.0555666-.275646 1.4016245.1516534l4.677 5.846c.2402269.3000432.2872243.7112192.1208985 1.0577313-.1663258.346512-.5165356.5670286-.9008985.5672687z" fill="#f9eab0"/></g></g></svg>