<svg height="512pt" viewBox="-37 0 512 512" width="512pt" xmlns="http://www.w3.org/2000/svg"><path d="m378.605469 265.78125-29.683594-1.8125c-12.351563-.753906-15.398437-17.570312-4.09375-22.609375l33.195313-14.800781c29.542968-13.171875 41.878906-47.621094 27.410156-76.554688-14.464844-28.929687-50.472656-41.824218-80.015625-28.652344l-15.6875 6.992188c-15.179688 6.769531-32.292969-4.339844-32.292969-20.957031v-48.632813c0-32.449218-26.308594-58.753906-58.757812-58.753906-32.449219 0-58.753907 26.304688-58.753907 58.753906v48.628906c0 16.621094-17.117187 27.730469-32.296875 20.960938l-15.683594-6.992188c-29.546874-13.175781-65.554687-.28125-80.019531 28.652344-14.464843 28.929688-2.128906 63.382813 27.414063 76.554688l33.195312 14.800781c11.300782 5.039063 8.253906 21.855469-4.097656 22.609375l-29.679688 1.808594c-32.316406 1.972656-58.757812 30.074218-58.757812 62.449218 1.976562 32.390626 51.632812 107.746094 219.480469 107.746094 167.851562 0 215.902343-75.355468 217.878906-107.742187 0-32.375-26.441406-60.480469-58.753906-62.449219zm0 0" fill="#ff9478"/><path d="m268.472656 27.550781c-10.394531-16.546875-28.808594-27.550781-49.792968-27.550781-32.449219 0-58.753907 26.304688-58.753907 58.753906v48.628906c0 16.621094-17.117187 27.730469-32.296875 20.960938l-15.683594-6.992188c-29.546874-13.175781-65.554687-.28125-80.019531 28.652344-14.464843 28.929688-2.128906 63.382813 27.414063 76.554688l33.195312 14.800781c11.300782 5.039063 8.253906 21.855469-4.097656 22.609375l-29.683594 1.8125c-32.3125 1.96875-58.753906 30.074219-58.753906 62.449219 1.519531 24.90625 31.242188 75.21875 121.210938 97.136719-6.046876-98.203126 26.132812-170.214844 45.847656-204.410157 9.144531-15.855469 14.601562-33.546875 16.320312-51.769531 13.226563-140.316406 84.570313-141.628906 85.09375-141.636719zm0 0" fill="#ff7956"/><path d="m348.25 328.835938c-4.652344-14.78125-20.410156-22.996094-35.195312-18.339844l-96.90625 30.503906-96.90625-30.503906c-14.785157-4.65625-30.542969 3.558594-35.195313 18.339844-4.65625 14.785156 3.554687 30.542968 18.339844 35.199218l113.761719 35.8125 113.761718-35.8125c14.785156-4.65625 22.996094-20.414062 18.339844-35.199218zm0 0" fill="#935b45"/><path d="m216.148438 341.003906-60.859376-19.160156v58.84375l60.859376 19.160156 65.921874-20.753906v-58.84375zm0 0" fill="#7a4737"/><path d="m216.148438 512c-15.5 0-28.066407-12.566406-28.066407-28.066406v-220.855469c0-15.5 12.566407-28.066406 28.066407-28.066406s28.066406 12.566406 28.066406 28.066406v220.855469c0 15.5-12.566406 28.066406-28.066406 28.066406zm0 0" fill="#b2785b"/><path d="m158.648438 195.875c0-9.351562-9.523438-16.929688-21.265626-16.929688-11.742187 0-21.265624 7.578126-21.265624 16.929688s9.523437 16.933594 21.265624 16.933594c11.742188 0 21.265626-7.582032 21.265626-16.933594zm0 0" fill="#fff"/><path d="m316.179688 195.875c0-9.351562-9.523438-16.929688-21.265626-16.929688-11.742187 0-21.265624 7.578126-21.265624 16.929688s9.523437 16.933594 21.265624 16.933594c11.742188 0 21.265626-7.582032 21.265626-16.933594zm0 0" fill="#fff"/><g fill="#57565c"><path d="m221.425781 180.433594c-1.730469 2.539062-4.253906 2.847656-5.277343 2.847656-1.023438 0-3.589844-.28125-5.277344-2.847656-2.34375-3.566406-7.132813-4.558594-10.699219-2.21875-3.566406 2.34375-4.558594 7.132812-2.214844 10.699218 4.035157 6.148438 10.835938 9.816407 18.191407 9.816407 7.355468 0 14.15625-3.667969 18.191406-9.816407 2.34375-3.566406 1.351562-8.355468-2.214844-10.699218-1.308594-.855469-7.089844-3.082032-10.699219 2.21875zm0 0"/><path d="m154.933594 184.050781c-.960938-.804687-1.917969-1.019531-2.457032-1.019531-.539062 0-1.574218.132812-2.460937 1.019531-3.015625 3.019531-7.910156 3.019531-10.925781 0-3.015625-3.015625-3.015625-7.910156 0-10.925781 3.574218-3.578125 8.332031-5.546875 13.386718-5.546875 5.054688 0 9.808594 1.972656 13.386719 5.546875 3.015625 3.015625 3.015625 7.910156-.003906 10.925781-1.503906 1.507813-6.046875 4.082031-10.925781 0zm0 0"/><path d="m282.277344 184.050781c-.960938-.804687-1.917969-1.019531-2.457032-1.019531-.539062 0-1.574218.132812-2.460937 1.019531-3.015625 3.019531-7.910156 3.019531-10.925781 0-3.015625-3.015625-3.015625-7.910156 0-10.925781 3.574218-3.578125 8.332031-5.546875 13.386718-5.546875 5.054688 0 9.808594 1.972656 13.386719 5.546875 3.015625 3.015625 3.015625 7.910156-.003906 10.925781-1.503906 1.507813-6.046875 4.082031-10.925781 0zm0 0"/></g></svg>