<svg height="511pt" viewBox="0 -43 511.99915 511" width="511pt" xmlns="http://www.w3.org/2000/svg"><path d="m401.53125 350.203125c0 24.695313-20.023438 32.238281-44.71875 32.238281-24.699219 0-44.71875-7.542968-44.71875-32.238281 0-24.699219 20.019531-91.515625 44.71875-91.515625 24.695312 0 44.71875 66.816406 44.71875 91.515625zm0 0" fill="#ccaa97"/><path d="m356.8125 258.6875c-19.636719 0-36.320312 42.242188-42.328125 71.964844 38.570313 3.625 64.988281-2.941406 82.117187-10.871094-7.421874-28.171875-22.453124-61.09375-39.789062-61.09375zm0 0" fill="#c49e90"/><path d="m471.855469 232.675781c0-30.71875-51.507813-55.621093-115.042969-55.621093-63.539062 0-115.042969 24.902343-115.042969 55.621093 0 30.714844 51.503907 55.617188 115.042969 55.617188 63.535156 0 115.042969-24.902344 115.042969-55.617188zm0 0" fill="#e0c1ad"/><path d="m430.507812 123.714844c-4.804687-22.777344-11.375-44.515625-17.367187-62.042969-8.234375-24.070313-30.890625-40.214844-56.328125-40.214844-25.441406 0-48.097656 16.144531-56.332031 40.214844-5.992188 17.527344-12.5625 39.265625-17.367188 62.042969-5.292969 25.105468-32.617187 39.777344-60.378906 48.289062-26.089844 8.003906-28.695313 43.777344-3.933594 55.246094 31.390625 14.539062 76.34375 27.089844 138.007813 27.089844 61.667968 0 106.621094-12.550782 138.007812-27.089844 24.761719-11.46875 22.160156-47.242188-3.933594-55.246094-27.757812-8.511718-55.082031-23.183594-60.375-48.289062zm0 0" fill="#ffde55"/><path d="m356.8125 254.339844c37.296875 0 68.476562-4.589844 94.242188-11.4375-42.332032-39.101563-57.882813-92.496094-94.242188-105.585938-31.527344-11.351562-52.921875-34.621094-64.40625-50.222656-3.375 11.515625-6.609375 23.90625-9.289062 36.621094-5.292969 25.105468-32.621094 39.777344-60.378907 48.289062-26.089843 8.003906-28.695312 43.777344-3.933593 55.246094 31.386718 14.539062 76.339843 27.089844 138.007812 27.089844zm0 0" fill="#ffcd00"/><path d="m234.886719 386.765625c0 29.019531-23.523438 37.882813-52.542969 37.882813s-52.542969-8.863282-52.542969-37.882813c0-29.015625 23.523438-107.527344 52.542969-107.527344s52.542969 78.511719 52.542969 107.527344zm0 0" fill="#e0c1ad"/><path d="m182.34375 279.238281c-24.996094 0-45.914062 58.246094-51.234375 92.945313 14.910156-3.515625 33.019531-6.792969 51.234375-7.667969 17.519531-.84375 33.675781-6.769531 46.738281-13.546875-8.722656-33.089844-26.378906-71.730469-46.738281-71.730469zm0 0" fill="#ccaa97"/><path d="m317.515625 248.675781c0-36.09375-60.515625-65.351562-135.171875-65.351562-74.652344 0-135.171875 29.257812-135.171875 65.351562 0 36.089844 60.519531 65.351563 135.171875 65.351563 74.65625 0 135.171875-29.261719 135.171875-65.351563zm0 0" fill="#efd4bf"/><path d="m268.933594 120.652344c-5.644532-26.769532-13.359375-52.308594-20.40625-72.90625-9.671875-28.28125-36.292969-47.246094-66.183594-47.246094s-56.511719 18.964844-66.183594 47.246094c-7.042968 20.597656-14.761718 46.136718-20.40625 72.90625-6.21875 29.492187-38.328125 46.730468-70.945312 56.738281-30.65625 9.402344-33.714844 51.433594-4.621094 64.910156 36.878906 17.082031 89.699219 31.828125 162.15625 31.828125s125.277344-14.746094 162.15625-31.828125c29.09375-13.476562 26.035156-55.507812-4.621094-64.910156-32.617187-10.003906-64.722656-27.242187-70.945312-56.738281zm0 0" fill="#ff929f"/><path d="m242.308594 34.367188c-12.460938-20.710938-35.085938-33.867188-59.964844-33.867188-29.890625 0-56.511719 18.96875-66.183594 47.25-7.042968 20.59375-14.761718 46.136719-20.40625 72.902344-6.21875 29.496094-38.328125 46.734375-70.945312 56.738281-30.65625 9.402344-33.714844 51.433594-4.621094 64.910156 23.941406 11.089844 54.601562 21.195313 92.980469 26.921875 19.222656-23.714844 32.660156-53.859375 35.261719-92.167968 11.46875-168.996094 93.878906-142.6875 93.878906-142.6875zm0 0" fill="#ff737d"/><path d="m124.84375 214.230469c0-9.351563-9.519531-16.933594-21.265625-16.933594-11.742187 0-21.261719 7.582031-21.261719 16.933594 0 9.351562 9.519532 16.933593 21.261719 16.933593 11.746094 0 21.265625-7.582031 21.265625-16.933593zm0 0" fill="#fff"/><path d="m282.375 214.230469c0-9.351563-9.519531-16.933594-21.265625-16.933594-11.742187 0-21.261719 7.582031-21.261719 16.933594 0 9.351562 9.519532 16.933593 21.261719 16.933593 11.746094 0 21.265625-7.582031 21.265625-16.933593zm0 0" fill="#fff"/><g fill="#57565c"><path d="m246.015625 205.335938c-4.265625 0-7.726563-3.460938-7.726563-7.726563v-12.828125c0-4.265625 3.460938-7.726562 7.726563-7.726562 4.269531 0 7.726563 3.460937 7.726563 7.726562v12.828125c0 4.265625-3.457032 7.726563-7.726563 7.726563zm0 0"/><path d="m118.671875 205.335938c-4.265625 0-7.726563-3.460938-7.726563-7.726563v-12.828125c0-4.265625 3.460938-7.726562 7.726563-7.726562 4.269531 0 7.726563 3.460937 7.726563 7.726562v12.828125c0 4.265625-3.457032 7.726563-7.726563 7.726563zm0 0"/><path d="m187.621094 189.890625c-1.730469 2.539063-4.25 2.847656-5.277344 2.847656-1.023438 0-3.589844-.28125-5.277344-2.847656-2.34375-3.566406-7.132812-4.558594-10.699218-2.21875-3.566407 2.34375-4.558594 7.132813-2.214844 10.699219 4.035156 6.148437 10.835937 9.816406 18.191406 9.816406s14.15625-3.667969 18.195312-9.816406c2.339844-3.566406 1.347657-8.355469-2.21875-10.699219-1.304687-.855469-7.089843-3.082031-10.699218 2.21875zm0 0"/></g></svg>