<svg id="Capa_1" enable-background="new 0 0 490.796 490.796" height="512" viewBox="0 0 490.796 490.796" width="512" xmlns="http://www.w3.org/2000/svg"><g><g><path d="m304.242 447.79c0 57.341-133.711 57.341-133.711 0l7.905-27.685c10.389-36.387 12.649-74.615 6.618-111.972l-4.368-27.058s-3.401-42.314 56.684-42.314 55.87 42.314 55.87 42.314l-4.091 25.027c-6.231 38.118-3.825 77.149 7.039 114.214z" fill="#fef2a8"/><path d="m296.189 420.316c-10.864-37.065-13.27-76.096-7.039-114.214l4.091-25.027s4.216-42.314-55.87-42.314-56.684 42.314-56.684 42.314l4.368 27.058c3.316 20.542 4.11 41.345 2.44 61.961 5.982-3.534 15.643-6.293 31.229-6.293 43.322 0 40.283 21.321 40.283 21.321s.006 26.563.766 38.724 7.166 45.281 7.166 45.281c0 12.563-18.227 19.661-38.83 21.298 36.215 2.907 76.133-11.303 76.133-42.634z" fill="#eeb6a8"/><path d="m429.067 266.698c0 75.036-383.36 75.036-383.36 0 0-93.71 85.818-169.677 191.68-169.677s191.68 75.967 191.68 169.677z" fill="#ef8bbd"/><g><path d="m213.374 146.83c-5.175 0-9.557-3.987-9.96-9.232-.424-5.507 3.697-10.314 9.203-10.738 4.25-.327 8.588-.493 12.896-.494h.002c5.522 0 9.999 4.476 10 9.998s-4.475 10.001-9.998 10.002c-3.798.001-7.622.147-11.364.436-.262.018-.522.028-.779.028z" fill="#fff"/></g><g><path d="m132.573 177.26c-3.06 0-6.079-1.399-8.041-4.046-3.289-4.436-2.358-10.699 2.078-13.988 14.997-11.118 31.443-19.573 48.883-25.131 5.257-1.675 10.888 1.23 12.564 6.492 1.677 5.262-1.23 10.887-6.492 12.564-15.337 4.888-29.819 12.337-43.045 22.141-1.79 1.327-3.877 1.968-5.947 1.968z" fill="#fff"/></g><g fill="#fff"><ellipse cx="295.563" cy="170.404" rx="17.591" ry="27.301" transform="matrix(.308 -.951 .951 .308 42.318 399.013)"/><ellipse cx="336.299" cy="246.424" rx="24.965" ry="38.745" transform="matrix(.19 -.982 .982 .19 30.536 529.851)"/><ellipse cx="151.961" cy="224.518" rx="36.353" ry="23.424" transform="matrix(.999 -.04 .04 .999 -8.921 6.303)"/></g><path d="m237.387 97.021c-7.872 0-15.63.43-23.253 1.246 69.891 8.535 124.208 60.256 127.451 123.762 1.064 1.393 3.103 5.609 3.103 7.626 0 12.703-16.835 24-39.396 28.146-73.289 23.529-233.511 16.753-256.743-20.325-1.862 9.495-2.842 19.257-2.842 29.223 0 75.036 383.36 75.036 383.36 0 0-93.711-85.818-169.678-191.68-169.678z" fill="#e068bd"/><path d="m374.34 253.777c2.594-13.419-12.038-27.547-32.757-31.748.102 1.995.155 4 .155 6.018 0 12.703-14.232 22.619-36.448 29.752 6.018 6.121 15.311 11.02 26.272 13.138 21.009 4.059 40.162-3.623 42.778-17.16z" fill="#ffbffc"/><g><path d="m232.193 259.819c-3.313 0-6-2.686-6-6v-11.33c0-3.313 2.687-6 6-6 3.314 0 6 2.687 6 6v11.33c0 3.314-2.686 6-6 6z" fill="#b74a96"/></g><g><path d="m273.628 291.098c-3.314 0-6-2.686-6-6v-11.331c0-3.314 2.686-6 6-6s6 2.686 6 6v11.331c0 3.314-2.687 6-6 6z" fill="#b74a96"/></g><g><path d="m358.935 201.323c-3.314 0-6-2.686-6-6v-11.33c0-3.313 2.686-6 6-6s6 2.687 6 6v11.33c0 3.314-2.687 6-6 6z" fill="#b74a96"/></g></g><path d="m41.583 12.118 8.214 23.098c.352.989 1.048 1.773 1.927 2.168l20.521 9.246c2.899 1.306 2.899 5.925 0 7.232l-20.521 9.246c-.879.396-1.575 1.18-1.927 2.168l-8.214 23.098c-1.16 3.263-5.265 3.263-6.425 0l-8.214-23.098c-.352-.989-1.048-1.773-1.927-2.168l-20.522-9.247c-2.899-1.306-2.899-5.926 0-7.232l20.521-9.246c.879-.396 1.575-1.18 1.927-2.168l8.214-23.098c1.161-3.263 5.265-3.263 6.426.001z" fill="#e8c2d8"/><path d="m464.118 83.876 6.093 17.133c.261.734.777 1.315 1.429 1.609l15.222 6.858c2.151.969 2.151 4.395 0 5.364l-15.222 6.858c-.652.294-1.168.875-1.429 1.609l-6.093 17.133c-.861 2.421-3.905 2.421-4.766 0l-6.093-17.133c-.261-.734-.777-1.315-1.429-1.609l-15.222-6.858c-2.15-.969-2.15-4.395 0-5.364l15.222-6.858c.652-.294 1.168-.875 1.429-1.609l6.093-17.133c.86-2.421 3.905-2.421 4.766 0z" fill="#e8c2d8"/><g fill="#ef8bbd"><ellipse cx="375.638" cy="17.937" rx="17.937" ry="17.937" transform="matrix(.23 -.973 .973 .23 271.877 379.405)"/><circle cx="137.511" cy="52.072" r="7.737"/></g></g></svg>