<svg height="512" viewBox="0 0 50 58" width="512" xmlns="http://www.w3.org/2000/svg"><g id="Page-1" fill="none" fill-rule="evenodd"><g id="001---Mountains-Badge" fill-rule="nonzero"><path id="Shape" d="m48.977 13.135-23-12.88c-.6070073-.33982961-1.3469927-.33982961-1.954 0l-23 12.88c-.63168944.3536478-1.02295374 1.0210537-1.023 1.745v28.24c.00004626.7239463.39131056 1.3913522 1.023 1.745l23 12.88c.6070073.3398296 1.3469927.3398296 1.954 0l23-12.88c.6316894-.3536478 1.0229537-1.0210537 1.023-1.745v-28.24c-.0000463-.7239463-.3913106-1.3913522-1.023-1.745z" fill="#e64c3c"/><path id="Shape" d="m3.99999989 28.69.00000011-11.47c-.00023735-.7219307.38995158-1.3875471 1.02-1.74l19-10.64c.6091169-.33992977 1.3508831-.33992977 1.96 0l19 10.64c.6300484.3524529 1.0202373 1.0180693 1.02 1.74v11.42" fill="#f3d55b"/><path id="Shape" d="m46.0000001 40-.0000001.78c.0002373.7219307-.3899516 1.3875471-1.02 1.74l-19 10.64c-.6091169.3399298-1.3508831.3399298-1.96 0l-19-10.64c-.63004842-.3524529-1.02023735-1.0180693-1.02-1.74l-.00000011-.78z" fill="#84b5cb"/><path id="Shape" d="m25.13 29.94-8.31 10.06h-12.82v-11.31l5.99-7.18 3.12 3.12c.4961593.489773 1.2938407.489773 1.79 0l3.12-3.13z" fill="#95a5a5"/><path id="Shape" d="m18.02 21.5-3.12 3.13c-.4961593.489773-1.2938407.489773-1.79 0l-3.12-3.12 3.61-4.33c.0974648-.1140555.2399732-.1797298.39-.1797298s.2925352.0656743.39.1797298l2.63 3.12.06.07z" fill="#ecf0f1"/><path id="Shape" d="m46 28.64v11.36h-29.18l8.31-10.06 6.92-8.37 3.06 3.06c.4961593.489773 1.2938407.489773 1.79 0l3.14-3.15z" fill="#7f8c8d"/><path id="Shape" d="m40.04 21.48-3.14 3.15c-.4961593.489773-1.2938407.489773-1.79 0l-3.06-3.06.99-1.2 2.63-3.19c.0972794-.1143674.2398562-.1802712.39-.1802712s.2927206.0659038.39.1802712z" fill="#ecf0f1"/><path id="Shape" d="m33.04 20.37-.99 1.2-6.92 8.37-7.11-8.44-.95-1.13-.06-.07 4.03-4.84 3.25 3.25c.3930079.3899779 1.0269921.3899779 1.42 0l3.24-3.25z" fill="#bdc3c7"/><path id="Shape" d="m28.95 15.46-3.24 3.25c-.3930079.3899779-1.0269921.3899779-1.42 0l-3.25-3.25 3.56-4.27c.098793-.1189328.2453873-.187735.4-.187735s.301207.0688022.4.187735z" fill="#fff"/><path id="Shape" d="m31 43h-12c-.5522847 0-1 .4477153-1 1s.4477153 1 1 1h2.184c-.1184378.320257-.1806856.6585603-.184 1 0 1.6568542 1.3431458 3 3 3h3c.5522847 0 1-.4477153 1-1s-.4477153-1-1-1h-3c-.5522847 0-1-.4477153-1-1s.4477153-1 1-1h7c.5522847 0 1-.4477153 1-1s-.4477153-1-1-1z" fill="#9fc9d3"/><path id="Shape" d="m25 54.413c-.5132455.0007537-1.0180674-.1304449-1.466-.381l-19-10.639c-.94749745-.5306888-1.53421295-1.5320064-1.534-2.618v-23.55c-.0000103-1.0862034.58711682-2.0875707 1.535-2.618l19-10.64c.9114757-.50740479 2.0205243-.50740479 2.932 0l19 10.64c.9471117.5309483 1.5334157 1.5322162 1.533 2.618v23.55c.0000103 1.0862034-.5871168 2.0875707-1.535 2.618l-19 10.64c-.4478316.2497899-.9522157.3806199-1.465.38zm0-48.828c-.1707564-.0003535-.338759.0430242-.488.126l-19 10.641c-.31619378.1767814-.51205664.5107429-.512.873v23.55c.00010265.3616894.19550421.6951339.511.872l19 10.641c.3032449.1695418.6727551.1695418.976 0l19-10.641c.3162673-.1763469.5124921-.5098909.513-.872v-23.55c.0002593-.3620472-.195192-.695959-.511-.873l-19-10.64c-.1492731-.08391242-.3177595-.12767065-.489-.127z" fill="#fff"/></g></g></svg>