<svg height="512" viewBox="0 0 58 58" width="512" xmlns="http://www.w3.org/2000/svg"><g id="Page-1" fill="none" fill-rule="evenodd"><g id="002---Pickaxe" fill-rule="nonzero"><path id="Rectangle-path" d="m26 15h6v27h-6z" fill="#f0c419"/><path id="Shape" d="m32 46c1.1032019.0032948 1.9967052.8967981 2 2v2c-.0032948 1.1032019-.8967981 1.9967052-2 2 1.1032019.0032948 1.9967052.8967981 2 2v2c-.0032948 1.1032019-.8967981 1.9967052-2 2h-6c-1.1032019-.0032948-1.9967052-.8967981-2-2v-2c.0032948-1.1032019.8967981-1.9967052 2-2-1.1032019-.0032948-1.9967052-.8967981-2-2v-2c.0032948-1.1032019.8967981-1.9967052 2-2-1.1032019-.0032948-1.9967052-.8967981-2-2v-2c.0032948-1.1032019.8967981-1.9967052 2-2h6c1.1032019.0032948 1.9967052.8967981 2 2v2c-.0032948 1.1032019-.8967981 1.9967052-2 2z" fill="#e64c3c"/><path id="Shape" d="m34 44c-.0032948 1.1032019-.8967981 1.9967052-2 2h-6c-1.1032019-.0032948-1.9967052-.8967981-2-2z" fill="#c03a2b"/><path id="Shape" d="m34 50c-.0032948 1.1032019-.8967981 1.9967052-2 2h-6c-1.1032019-.0032948-1.9967052-.8967981-2-2z" fill="#c03a2b"/><path id="Shape" d="m25.11 4.17c.76-4.17 3.89-4.17 3.89-4.17s3.13 0 3.89 4.17z" fill="#bdc3c7"/><path id="Shape" d="m33 10.04v5.96c0 .5522847-.4477153 1-1 1h-6c-.5522847 0-1-.4477153-1-1v-5.96c1.3-.02 2.64-.04 4-.04s2.7.02 4 .04z" fill="#bdc3c7"/><path id="Shape" d="m56.83 14.06c-7.8915146-1.1860618-15.8514412-1.8608017-23.83-2.02-1.3-.02-2.64-.04-4-.04s-2.7.02-4 .04c-7.9785588.1591983-15.93848543.8339382-23.83 2.02-.48304635.0785904-.95200228-.20397-1.10825075-.6677551-.15624846-.4637851.04612318-.9725146.47825075-1.2022449 5.01-2.65 13.73-7.12 24.57-8.02 1.27-.11 2.57-.17 3.89-.17s2.62.06 3.89.17c10.84.9 19.56 5.37 24.57 8.02.4321276.2297303.6344992.7384598.4782507 1.2022449-.1562484.4637851-.6252044.7463455-1.1082507.6677551z" fill="#7f8c8d"/><path id="Shape" d="m30 9h-2c-.5522847 0-1-.44771525-1-1s.4477153-1 1-1h2c.5522847 0 1 .44771525 1 1s-.4477153 1-1 1z" fill="#464f5d"/></g></g></svg>