<svg id="Capa_1" enable-background="new 0 0 512 512" height="512" viewBox="0 0 512 512" width="512" xmlns="http://www.w3.org/2000/svg"><g><g><g><path d="m343.407 512v-129.511l-171.704-53.168-.223.061-26.227 103.644 26.227 78.974z" fill="#084792"/><path d="m0 512h171.48v-182.618l-171.48 53.107z" fill="#345ca0"/><path d="m343.407 382.489v-129.511l-168.769-53.521-3.158.785-30.956 114.747 30.956 67.5z" fill="#0d3a71"/><path d="m0 382.489h171.48v-182.247l-171.48 52.736z" fill="#084792"/><path d="m343.407 123.467h-171.927l-22.217 62.637 22.217 66.874h171.927z" fill="#084792"/><path d="m0 123.467h171.48v129.511h-171.48z" fill="#345ca0"/></g><g><g><g><path d="m30.039 429.748h109.093v30h-109.093z" fill="#084792"/></g><g><path d="m30.039 303.097h109.093v30h-109.093z" fill="#0d3a71"/></g><g><path d="m30.039 173.222h109.093v30h-109.093z" fill="#084792"/></g><g><path d="m199.132 173.222h30v30h-30z" fill="#fd5e81"/></g></g></g><g><path d="m199.132 300.986h30v30h-30z" fill="#fd5e81"/></g><g><path d="m266.001 300.986h30v30h-30z" fill="#2fc3c4"/></g><g><path d="m199.132 429.748h30v30h-30z" fill="#fd5e81"/></g><g><path d="m266.001 429.748h30v30h-30z" fill="#2fc3c4"/></g></g><g><g><path d="m226.461 142.769c0 78.723 64.046 142.769 142.769 142.769l30.251-129.965-30.25-155.573c-78.724 0-142.77 64.046-142.77 142.769z" fill="#d3aafb"/><path d="m369.231 0v285.538c78.723 0 142.769-64.046 142.769-142.769s-64.046-142.769-142.769-142.769z" fill="#b38efa"/></g><g><g><path d="m326.307 99.645v36.995h30v-36.995c0-7.126 5.797-12.923 12.923-12.923l9.619-14.519-9.619-15.481c-23.667 0-42.923 19.255-42.923 42.923z" fill="#f1f8ff"/><path d="m369.231 56.722v30c7.126 0 12.923 5.797 12.923 12.923v36.995h30v-36.995c0-23.668-19.255-42.923-42.923-42.923z" fill="#d7e9fe"/></g><path d="m300.776 121.64v90h68.455l28.454-41.17-28.454-48.83z" fill="#ffff89"/><path d="m369.231 121.64h68.455v90h-68.455z" fill="#fde93d"/></g></g></g></svg>