<?xml version="1.0" encoding="iso-8859-1"?>
<!-- Generator: Adobe Illustrator 19.0.0, SVG Export Plug-In . SVG Version: 6.00 Build 0)  -->
<svg version="1.1" id="Capa_1" xmlns="http://www.w3.org/2000/svg" xmlns:xlink="http://www.w3.org/1999/xlink" x="0px" y="0px"
	 viewBox="0 0 512 512" style="enable-background:new 0 0 512 512;" xml:space="preserve">
<path style="fill:#AC7762;" d="M276.246,512h-40.33c-2.852,0-5.164-2.312-5.164-5.164V25.328C230.753,11.34,242.093,0,256.081,0l0,0
	c13.988,0,25.328,11.34,25.328,25.328v481.508C281.41,509.688,279.098,512,276.246,512z"/>
<path style="fill:#A06955;" d="M276.246,512h-20.165V0l0,0c13.988,0,25.328,11.34,25.328,25.328v481.508
	C281.41,509.688,279.098,512,276.246,512z"/>
<path style="fill:#AC7762;" d="M451.719,156.499l-14.497-55.918c-0.195-0.753-0.666-1.404-1.319-1.826l-27.948-18.031
	c-1.977-1.275-1.867-4.202,0.2-5.326l17.643-9.589c1.419-0.771,2.008-2.504,1.352-3.98l-6.628-14.912
	c-0.497-1.119-1.607-1.84-2.831-1.84H94.472c-1.224,0-2.334,0.721-2.831,1.84l-6.628,14.912c-0.656,1.476-0.068,3.209,1.352,3.98
	l17.643,9.589c2.067,1.123,2.177,4.05,0.2,5.326L76.26,98.755c-0.653,0.422-1.124,1.073-1.319,1.826L60.182,157.51l21.474,51.329
	c0.367,0.878,1.118,1.538,2.035,1.791l42.588,11.73c2.464,0.679,3.093,3.881,1.068,5.441l-23.533,18.136
	c-0.72,0.555-1.159,1.397-1.203,2.304l-1.387,28.675c-0.086,1.768,1.325,3.248,3.095,3.248h303.527c1.77,0,3.18-1.48,3.095-3.248
	l-1.388-28.675c-0.044-0.907-0.484-1.75-1.203-2.304l-23.533-18.136c-2.024-1.56-1.396-4.762,1.068-5.441l42.588-11.73
	c0.918-0.253,1.668-0.913,2.035-1.791l21.071-50.366C451.839,157.848,451.889,157.155,451.719,156.499z"/>
<path style="fill:#A06955;" d="M451.576,158.477l-21.068,50.366c-0.372,0.878-1.115,1.528-2.035,1.787l-42.59,11.732
	c-2.468,0.682-3.098,3.883-1.074,5.442l23.536,18.135c0.723,0.547,1.167,1.394,1.208,2.303l1.384,28.668
	c0.083,1.776-1.322,3.253-3.098,3.253h-20.675c0.682-0.599,1.095-1.508,1.053-2.52l-1.332-28.865
	c-0.041-0.909-0.454-1.756-1.146-2.313c-4.095-3.328-8.19-6.657-12.286-9.986c-5.04-4.097-11.127-11.252-6.098-17.333
	c4.105-4.964,8.147-7.834,14.427-9.839c4.065-1.298,8.07-2.491,11.95-4.308c6.791-3.179,13.176-7.3,18.544-12.561
	c13.22-12.955,17.731-31.952,14.696-49.886c-2.718-16.06-6.877-38.708-21.351-48.562c-5.16-3.513-11.936-6.545-15.221-12.134
	c-1.911-3.251-1.992-7.796,0.405-10.843c1.893-2.406,4.839-2.933,7.485-4.087c9.421-4.111,1.877-14.062-0.934-20.736
	c-0.186-0.444-0.465-0.816-0.795-1.115h21.129c1.219,0,2.334,0.723,2.83,1.838l6.63,14.913c0.651,1.477,0.062,3.212-1.353,3.986
	l-17.649,9.584c-2.065,1.126-2.169,4.059-0.196,5.329l27.945,18.031c0.661,0.423,1.126,1.074,1.322,1.828l14.499,55.912
	C451.886,157.156,451.844,157.848,451.576,158.477z"/>
<path style="fill:#FFCD43;" d="M338.835,159.544l-78.941-65.507c-2.605-2.162-6.549-0.309-6.549,3.076v15.197
	c0,2.207-1.79,3.997-3.997,3.997H175.88c-2.207,0-3.997,1.79-3.997,3.997v84.632c0,2.207,1.79,3.997,3.997,3.997h73.468
	c2.207,0,3.997,1.79,3.997,3.997v15.197c0,3.385,3.945,5.237,6.549,3.076l78.941-65.507
	C340.761,164.097,340.761,161.142,338.835,159.544z"/>
<path style="fill:#FFAF45;" d="M268.898,223.732l-9.001,7.474c-2.606,2.158-6.555,0.304-6.555-3.078v-15.197
	c0-2.206-1.783-3.997-3.997-3.997H175.88c-2.206,0-3.997-1.791-3.997-3.997v-11.343h92.29c2.382,0,4.309,1.935,4.309,4.309v23.958
	C268.482,222.548,268.634,223.18,268.898,223.732z"/>
<g>
</g>
<g>
</g>
<g>
</g>
<g>
</g>
<g>
</g>
<g>
</g>
<g>
</g>
<g>
</g>
<g>
</g>
<g>
</g>
<g>
</g>
<g>
</g>
<g>
</g>
<g>
</g>
<g>
</g>
</svg>
