<svg height="512" viewBox="0 0 60 59" width="512" xmlns="http://www.w3.org/2000/svg"><g id="Page-1" fill="none" fill-rule="evenodd"><g id="034---Multi-Tool" fill-rule="nonzero" transform="translate(-1)"><path id="Shape" d="m35.98 14.61c-.0794892-.8201929-.4234374-1.5923216-.98-2.2v-8.91c0-.94427191-.4445825-1.83343685-1.2-2.4l-1.2-.9c-.3030176-.22726324-.7084296-.26381921-1.0472136-.09442719-.338784.16939201-.5527864.51565513-.5527864.89442719 0-.37877206-.2140024-.72503518-.5527864-.89442719-.338784-.16939202-.744196-.13283605-1.0472136.09442719l-1.2.9c-.7554175.56656315-1.2 1.45572809-1.2 2.4v10.5c-.0043118 1.0825464.3470228 2.13655 1 3v8c1.6568542 0 3 1.3431458 3 3 0-1.6568542 1.3431458-3 3-3v-6.53c1.3598566-.787045 2.1340745-2.2963789 1.98-3.86z" fill="#95a5a5"/><path id="Shape" d="m46 54h-5c-.5522847 0-1-.4477153-1-1s.4477153-1 1-1h5c.5522847 0 1 .4477153 1 1s-.4477153 1-1 1z" fill="#7f8c8d"/><path id="Shape" d="m56 56c-1.6568542 0-3-1.3431458-3-3 0-.5522847-.4477153-1-1-1s-1 .4477153-1 1c-.0000001 1.6568542-1.3431458 2.9999999-3 2.9999999s-2.9999999-1.3431457-3-2.9999999v-2c0-.5522847.4477153-1 1-1s1 .4477153 1 1v2c0 .5522847.4477153 1 1 1s1-.4477153 1-1c0-1.6568542 1.3431458-3 3-3s3 1.3431458 3 3c0 .5522847.4477153 1 1 1s1-.4477153 1-1c0-1.6568542 1.3431458-3 3-3 .5522847 0 1 .4477153 1 1s-.4477153 1-1 1-1 .4477153-1 1c0 1.6568542-1.3431458 3-3 3z" fill="#95a5a5"/><path id="Shape" d="m20 59c-.2428127.0002031-.4774048-.0879467-.66-.248l-5.253-4.609c-4.43223992 1.3587355-9.25214595.3139932-12.724-2.758-.28509964-.2245517-.42616477-.5859393-.36858303-.9442543.05758173-.3583149.30477125-.6573094.64587088-.78123.34109964-.1239205.72256411-.0533142.99671215.1844843 3.06665945 2.7412032 7.3806122 3.5995507 11.263 2.241.3561514-.1574669.7713223-.0938646 1.064.163l5.7 5c.3138441.2750891.4238492.7161565.2759455 1.1064086-.1479038.390252-.522611.6476156-.9399455.6455914z" fill="#7f8c8d"/><path id="Shape" d="m25 54h-10.7c-.379026.0001766-.7255754-.2139484-.895-.553-2.1091418-3.5370496-5.99088951-5.6294672-10.105-5.447-.55228475 0-1-.4477153-1-1s.44771525-1 1-1c4.64043734-.1556307 9.0265963 2.1181687 11.574 6h10.126c.5522847 0 1 .4477153 1 1s-.4477153 1-1 1z" fill="#95a5a5"/><path id="Shape" d="m42 42h-5c-.5522847 0-1-.4477153-1-1s.4477153-1 1-1h5c.5522847 0 1 .4477153 1 1s-.4477153 1-1 1z" fill="#7f8c8d"/><path id="Shape" d="m25 39h-5c-.5522847 0-1-.4477153-1-1s.4477153-1 1-1h5c.5522847 0 1 .4477153 1 1s-.4477153 1-1 1z" fill="#7f8c8d"/><path id="Shape" d="m25 29h-5c-.5522847 0-1-.4477153-1-1s.4477153-1 1-1h5c.5522847 0 1 .4477153 1 1s-.4477153 1-1 1z" fill="#7f8c8d"/><path id="Shape" d="m34 18.47c-.6083216.349805-1.2982795.5326438-2 .53-.3359451.0024107-.6711847-.0311132-1-.1-1.1985091-.2456325-2.2656483-.9214873-3-1.9-.6529772-.86345-1.0043118-1.9174536-1-3v-10.5c0-.94427191.4445825-1.83343685 1.2-2.4l1.2-.9c.3030176-.22726324.7084296-.26381921 1.0472136-.09442719.338784.16939201.5527864.51565513.5527864.89442719v10h.83c1.2090504-.001953 2.3617875.5107786 3.17 1.41.5565626.6076784.9005108 1.3798071.98 2.2.1540745 1.5636211-.6201434 3.072955-1.98 3.86z" fill="#bdc3c7"/><circle id="Oval" cx="32" cy="15" fill="#7f8c8d" r="1"/><path id="Shape" d="m31 26v29c0 1.6568542-1.3431458 3-3 3s-3-1.3431458-3-3v-29c0-1.6568542 1.3431458-3 3-3s3 1.3431458 3 3z" fill="#e64c3c"/><path id="Shape" d="m37 26v29c0 1.6568542-1.3431458 3-3 3s-3-1.3431458-3-3v-29c0-1.6568542 1.3431458-3 3-3s3 1.3431458 3 3z" fill="#c03a2b"/><path id="Shape" d="m34 18.47v4.53c-1.6568542 0-3 1.3431458-3 3v-7.1c.3288153.0688868.6640549.1024107 1 .1.7017205.0026438 1.3916784-.180195 2-.53z" fill="#7f8c8d"/><g fill="#95a5a5"><path id="Shape" d="m42 53c-.0081672 1.1011688-.8988312 1.9918328-2 2h-3v-4h3c1.1032019.0032948 1.9967052.8967981 2 2z"/><path id="Shape" d="m58.5 44h-14.5c-1.1032019-.0032948-1.9967052-.8967981-2-2v-2h9.25c3.65 0 6.47.83 7.7 3.26.0765692.1575016.0678522.3431198-.0231405.4927524-.0909928.1496325-.2517894.2427699-.4268595.2472476z"/><path id="Shape" d="m20 37v4c-.0032948 1.1032019-.8967981 1.9967052-2 2h-13.49c-.16024827.0007102-.31143679-.0742342-.4079014-.2021974-.0964646-.1279633-.12689442-.2939411-.0820986-.4478026 1.2-3.57 4.03-5.35 7.81-5.35z"/><path id="Shape" d="m20 27v4c-.0032948 1.1032019-.8967981 1.9967052-2 2h-4c0-1.1045695-.8954305-2-2-2s-2 .8954305-2 2h-5.49c-.16024827.0007102-.31143679-.0742342-.4079014-.2021974-.0964646-.1279633-.12689442-.2939411-.0820986-.4478026 1.2-3.57 4.03-5.35 7.81-5.35z"/><path id="Shape" d="m46.03 33.66c-.1381137.7860683.2087292 1.5782891.88 2.01.0694653.0421631.1015578.1260179.0779919.2037854-.023566.0777676-.0968071.1297031-.1779919.1262146h-2.81c-.528344.0045302-1.036649-.2019787-1.4121311-.573706-.3754821-.3717272-.587089-.8779312-.5878689-1.406294.0121816-.5382411-.2018271-1.0569402-.59-1.43-.3704612-.3798589-.8794095-.5928231-1.41-.59h-3v-4h16c5 0 5 4 5 4h-9.88c-1.0076005-.0283923-1.8895779.6721256-2.09 1.66z"/></g></g></g></svg>