<svg id="fi_2965127" enable-background="new 0 0 512.002 512.002" height="512" viewBox="0 0 512.002 512.002" width="512" xmlns="http://www.w3.org/2000/svg"><g><path d="m173.501 7.501-45 90h90v-45c0-24.853-20.147-45-45-45z" fill="#eb1b00"></path><path d="m128.501 52.501v45h45v-90c-24.853 0-45 20.147-45 45z" fill="#ff4128"></path><path d="m173.501 52.501v90c24.853 0 45-20.147 45-45s-20.147-45-45-45z" fill="#ffb4a9"></path><path d="m188.501 97.501c0-24.853-6.716-45-15-45-24.853 0-45 20.147-45 45s20.147 45 45 45c8.284 0 15-20.147 15-45z" fill="#ffd9d4"></path><path d="m128.501 292.501v90c0 8.28 6.72 15 15 15s15-6.72 15-15v-47.571c4.693 1.659 9.739 2.571 15 2.571s10.307-.912 15-2.571l20-67.429z" fill="#808080"></path><path d="m188.501 247.501v135c0 8.284 6.716 15 15 15s15-6.716 15-15v-90z" fill="#696969"></path><path d="m213.501 172.501h-30v75l50-30v-25c0-11.046-8.954-20-20-20z" fill="#029965"></path><path d="m183.501 292.501h30c11.046 0 20-8.954 20-20v-55h-50z" fill="#353535"></path><path d="m203.501 192.501c0-11.046-8.954-20-20-20h-10l-30 75 60-30z" fill="#30b054"></path><path d="m143.501 217.501 30 75h10c11.046 0 20-8.954 20-20v-55z" fill="#4f4f4f"></path><path d="m173.501 172.501h-40c-11.046 0-20 8.954-20 20v25l30 30 30-30z" fill="#80bf63"></path><path d="m113.501 217.501v55c0 11.046 8.954 20 20 20h40v-75z" fill="#696969"></path><path d="m233.501 439.501v60l-30-10v-50z" fill="#c27749"></path><path d="m113.501 439.501v60l30-10v-50z" fill="#e18f4e"></path><path d="m353.501 67.501-45 90h90v-45c0-24.853-20.147-45-45-45z" fill="#eb1b00"></path><path d="m308.501 112.501v45h45v-90c-24.853 0-45 20.147-45 45z" fill="#ff4128"></path><path d="m353.501 112.501v90c24.853 0 45-20.147 45-45s-20.147-45-45-45z" fill="#ffb4a9"></path><path d="m368.501 157.501c0-24.853-6.716-45-15-45-24.853 0-45 20.147-45 45s20.147 45 45 45c8.284 0 15-20.147 15-45z" fill="#ffd9d4"></path><path d="m413.501 439.501v60l-30-10v-50z" fill="#c27749"></path><path d="m293.501 439.501v60l30-10v-50z" fill="#e18f4e"></path><path d="m308.501 322.501v60c0 8.284 6.716 15 15 15s15-6.716 15-15v-17.571c4.693 1.659 9.739 2.571 15 2.571s10.307-.912 15-2.571l20-67.429z" fill="#49c9ff"></path><path d="m368.501 297.501v85c0 8.284 6.716 15 15 15s15-6.716 15-15v-60z" fill="#2dade3"></path><path d="m393.501 232.501h-30v70l50-25v-25c0-11.045-8.954-20-20-20z" fill="#029965"></path><path d="m363.501 322.501h30c11.046 0 20-8.954 20-20v-25h-50z" fill="#353535"></path><path d="m383.501 252.501c0-11.046-8.954-20-20-20h-10l-30 70 60-25z" fill="#30b054"></path><path d="m323.501 277.501 30 45h10c11.046 0 20-8.954 20-20v-25z" fill="#4f4f4f"></path><path d="m353.501 232.501h-40c-11.046 0-20 8.954-20 20v25l30 25 30-25z" fill="#80bf63"></path><path d="m293.501 277.501v25c0 11.046 8.954 20 20 20h40v-45z" fill="#696969"></path><path d="m473.501 215h-15c-4.142 0-7.5 3.358-7.5 7.5v22.5h-31.048c-3.274-11.528-13.889-20-26.452-20h-80c-15.164 0-27.5 12.336-27.5 27.5v50c0 10.664 6.105 19.922 15 24.482v55.518c0 9.778 6.271 18.114 15 21.21v28.29h-22.5c-4.142 0-7.5 3.358-7.5 7.5v54.594l-9.872 3.291c-3.93 1.31-6.053 5.557-4.744 9.487 1.048 3.143 3.974 5.13 7.114 5.13.786 0 1.586-.125 2.373-.387l45-15c3.063-1.021 5.128-3.887 5.128-7.115v-85.79c8.729-3.096 15-11.432 15-21.21v-8.036c4.95.713 10.05.713 15 0v8.036c0 9.778 6.271 18.114 15 21.21v85.79c0 3.228 2.066 6.094 5.128 7.115l45 15c.787.262 1.586.387 2.373.387 3.14 0 6.066-1.988 7.114-5.13 1.31-3.93-.814-8.177-4.744-9.487l-9.872-3.291v-54.594c0-4.142-3.358-7.5-7.5-7.5h-22.5v-28.29c8.729-3.096 15-11.432 15-21.21v-55.518c8.895-4.56 15-13.819 15-24.482v-42.5h30v244.5c0 4.142 3.358 7.5 7.5 7.5s7.5-3.358 7.5-7.5v-244.5h7.5c12.407 0 22.5-10.093 22.5-22.5s-10.091-22.5-22.498-22.5zm-67.5 37.5v17.5h-45v-30h32.5c6.893 0 12.5 5.607 12.5 12.5zm-92.5-12.5h32.5v30h-45v-17.5c0-6.893 5.607-12.5 12.5-12.5zm0 75c-6.893 0-12.5-5.607-12.5-12.5v-17.5h45v30zm-12.5 174.094v-42.094h15v37.094zm105-42.094v42.094l-15-5v-37.094zm-22.5-57c-4.136 0-7.5-3.364-7.5-7.5v-17.571c0-2.435-1.182-4.718-3.17-6.124-1.988-1.407-4.535-1.759-6.83-.948-8.04 2.843-16.96 2.843-25 0-2.296-.812-4.842-.459-6.83.948-1.988 1.406-3.17 3.689-3.17 6.124v17.571c0 4.136-3.364 7.5-7.5 7.5s-7.5-3.364-7.5-7.5v-52.5h75v52.5c0 4.136-3.364 7.5-7.5 7.5zm10-75h-32.5v-30h45v17.5c0 6.893-5.607 12.5-12.5 12.5zm80-70h-7.5v-15h7.5c4.136 0 7.5 3.364 7.5 7.5s-3.364 7.5-7.5 7.5z"></path><path d="m173.501 150c28.949 0 52.5-23.551 52.5-52.5v-45c0-28.949-23.551-52.5-52.5-52.5s-52.5 23.551-52.5 52.5v45c0 28.949 23.551 52.5 52.5 52.5zm-37.5-97.5c0-20.678 16.822-37.5 37.5-37.5s37.5 16.822 37.5 37.5v8.308c-9.537-9.745-22.821-15.808-37.5-15.808s-27.963 6.063-37.5 15.808zm37.5 7.5c20.678 0 37.5 16.822 37.5 37.5s-16.822 37.5-37.5 37.5-37.5-16.822-37.5-37.5 16.822-37.5 37.5-37.5z"></path><path d="m250.873 497.385-9.872-3.291v-54.594c0-4.142-3.358-7.5-7.5-7.5h-22.5v-28.29c8.729-3.096 15-11.432 15-21.21v-85.518c8.895-4.56 15-13.819 15-24.482v-80c0-15.164-12.336-27.5-27.5-27.5h-80c-12.563 0-23.178 8.472-26.452 20h-46.048v-22.5c0-4.142-3.358-7.5-7.5-7.5h-15c-12.407 0-22.5 10.093-22.5 22.5s10.093 22.5 22.5 22.5h7.5v304.5c0 4.142 3.358 7.5 7.5 7.5s7.5-3.358 7.5-7.5v-304.5h45v72.5c0 10.664 6.105 19.922 15 24.482v85.518c0 9.778 6.271 18.114 15 21.21v28.29h-22.5c-4.142 0-7.5 3.358-7.5 7.5v54.594l-9.872 3.291c-3.93 1.31-6.053 5.557-4.744 9.487 1.048 3.143 3.974 5.13 7.114 5.13.786 0 1.586-.125 2.373-.387l45-15c3.063-1.021 5.128-3.887 5.128-7.115v-85.79c8.729-3.096 15-11.432 15-21.21v-38.036c4.95.713 10.05.713 15 0v38.036c0 9.778 6.271 18.114 15 21.21v85.79c0 3.228 2.066 6.094 5.128 7.115l45 15c.787.262 1.586.387 2.373.387 3.14 0 6.066-1.988 7.114-5.13 1.311-3.93-.813-8.177-4.742-9.487zm-204.872-312.385h-7.5c-4.136 0-7.5-3.364-7.5-7.5s3.364-7.5 7.5-7.5h7.5zm167.5 100h-32.5v-60h45v47.5c0 6.893-5.607 12.5-12.5 12.5zm-80 0c-6.893 0-12.5-5.607-12.5-12.5v-47.5h45v60zm92.5-92.5v17.5h-45v-30h32.5c6.893 0 12.5 5.607 12.5 12.5zm-92.5-12.5h32.5v30h-45v-17.5c0-6.893 5.607-12.5 12.5-12.5zm-12.5 309.094v-42.094h15v37.094zm71.83-160.288c-1.987-1.406-4.536-1.759-6.83-.948-8.04 2.843-16.96 2.843-25 0-2.296-.812-4.842-.459-6.83.948-1.988 1.406-3.17 3.689-3.17 6.124v47.57c0 4.136-3.364 7.5-7.5 7.5s-7.5-3.364-7.5-7.5v-82.5h75v82.5c0 4.136-3.364 7.5-7.5 7.5s-7.5-3.364-7.5-7.5v-47.571c0-2.434-1.182-4.718-3.17-6.123zm18.17 118.194h15v42.094l-15-5z"></path><path d="m353.501 210c28.949 0 52.5-23.551 52.5-52.5v-45c0-28.949-23.551-52.5-52.5-52.5s-52.5 23.551-52.5 52.5v45c0 28.949 23.551 52.5 52.5 52.5zm-37.5-97.5c0-20.678 16.822-37.5 37.5-37.5s37.5 16.822 37.5 37.5v8.308c-9.537-9.745-22.821-15.808-37.5-15.808s-27.963 6.063-37.5 15.808zm37.5 7.5c20.678 0 37.5 16.822 37.5 37.5s-16.822 37.5-37.5 37.5-37.5-16.822-37.5-37.5 16.822-37.5 37.5-37.5z"></path></g></svg>
