<svg height="512" viewBox="0 0 58 58" width="512" xmlns="http://www.w3.org/2000/svg"><g id="Page-1" fill="none" fill-rule="evenodd"><g id="049---Climbing-Axe" fill-rule="nonzero"><path id="Shape" d="m57.38 7h-7.76c-.3801569.00264567-.7289345-.2104962-.9-.55l-.21-.44c-.1291416-.25599902-.3619585-.4442481-.6393202-.516936s-.5725815-.02282084-.8106798.136936l-1.81 1.2c-.1624731.1098407-.353884.16900409-.55.17h-1.08c-.3801569.00264567-.7289345-.2104962-.9-.55l-.21-.44c-.1291416-.25599902-.3619585-.4442481-.6393202-.516936s-.5725815-.02282084-.8106798.136936l-1.81 1.2c-.1624731.1098407-.353884.16900409-.55.17h-1.08c-.3801569.00264567-.7289345-.2104962-.9-.55l-.21-.44c-.1291416-.25599902-.3619585-.4442481-.6393202-.516936s-.5725815-.02282084-.8106798.136936l-1.81 1.2c-.1624731.1098407-.353884.16900409-.55.17h-5.7c.0010516-.21730421-.0327094-.43337425-.1-.64l-1.67-4.99c-.1710596-.52201471-.5513979-.94944255-1.05-1.18-.02-.01-.05-.02-.07-.03l.07-.16h23.57c4.2473263.00269982 8.1515382 2.33294236 10.17 6.07.1096976.19246535.1087492.42874989-.00249.62032841-.1112391.19157853-.3159779.30953316-.53751.30967159z" fill="#bdc3c7"/><path id="Rectangle-path" d="m10 12h8v8h-8z" fill="#c03a2b"/><path id="Shape" d="m28.95 50.02c-1.2269098-1.0964154-2.3700984-2.2830584-3.42-3.55l-4.53 2.53-2.47 4.47c1.25927 1.3658045 2.6089831 2.6453593 4.04 3.83 1.2645584 1.0380034 3.1189342.9108712 4.23-.29l2.35-2.5c.5801751-.6165121.8862565-1.4415161.8485844-2.2872532-.037672-.8457371-.4158926-1.6402599-1.0485844-2.2027468zm-3.95 4.98c-1.1045695 0-2-.8954305-2-2s.8954305-2 2-2 2 .8954305 2 2c-.0032948 1.1032019-.8967981 1.9967052-2 2z" fill="#d25627"/><path id="Shape" d="m25.53 46.47-7 7c-6.4297951-6.77382-10.04084029-15.740653-10.1-25.08.00238209-2.8438283.20286737-5.6840364.6-8.5.07250431-.512474.51242906-.8926031 1.03-.89h8.39c.3036082.0009994.5917718.1339911.7895165.3643733s.2855182.5353755.2404835.8356267c-.4339314 2.708393-.6512864 5.4470659-.65 8.19.0363716 6.6272846 2.4088486 13.0294314 6.7 18.08z" fill="#f29c1f"/><path id="Shape" d="m18.569 47.343c-.3335458.0001626-.645215-.165986-.831-.443-3.736906-5.448012-5.7372774-11.899541-5.738-18.506 0-1.828.088-3.674.263-5.49.0668401-.5374143.5493389-.9239642 1.0883907-.8719552.5390517.052009.9387477.5236752.9016093 1.0639552-.168 1.752-.253 3.534-.253 5.3.0028626 6.2092444 1.8854307 12.2721596 5.4 17.391.2061014.3065076.2264667.7016643.0529667 1.0277355s-.5126097.529954-.8819667.5302645z" fill="#f5efca"/><path id="Shape" d="m29 7c0 1.1045695-.8954305 2-2 2h-3c-1.688958.00245911-3.1957975 1.0616434-3.77 2.65-.2495641.7886268-.9730403 1.3312339-1.8 1.35h-8.55c-.49876974.0005315-.97726394-.1973687-1.3299476-.5500524s-.55058385-.8311779-.5500524-1.3299476v-3.12c0-2.209139-1.790861-4-4-4h-3c-.55228475 0-1-.44771525-1-1v-2c0-.55228475.44771525-1 1-1h24.33c.2137611.00233519.4260226.03602748.63.1.0530825.01121163.1038288.03151017.15.06.02.01.05.02.07.03.4986021.23055745.8789404.65798529 1.05 1.18l1.67 4.99c.0672906.20662575.1010516.42269579.1.64z" fill="#e64c3c"/><path id="Shape" d="m14.093 8.52-1.941-3.02c-.1902964-.3150478-.1901072-.70965882.0004912-1.02452401s.5401392-.49800201.9075088-.47547599h3.88c.3673696-.02252602.7169104.1606108.9075088.47547599s.1907876.70947621.0004912 1.02452401l-1.941 3.02c-.2051419.2989574-.5444276.47762471-.907.47762471s-.7018581-.17866731-.907-.47762471z" fill="#bdc3c7"/></g></g></svg>